<?xml version="1.0" encoding="utf-8"?>
<!-- Generator: Adobe Illustrator 25.0.0, SVG Export Plug-In . SVG Version: 6.00 Build 0)  -->
<svg version="1.1" id="Calque_1" xmlns="http://www.w3.org/2000/svg" xmlns:xlink="http://www.w3.org/1999/xlink" x="0px" y="0px"
	 viewBox="0 0 1920 1080" style="enable-background:new 0 0 1920 1080;" xml:space="preserve">
<style type="text/css">
	.st0{fill:#929292;}
	.st1{fill:#ABABAB;}
	.st2{fill:#7B7B7B;}
	.st3{fill:#3E3E3E;}
	.st4{fill:#989898;}
	.st5{fill:#B5B5B5;}
	.st6{fill:#555555;}
	.st7{fill:#E1E1E1;}
	.st8{fill:#939393;}
	.st9{fill:#B2B2B2;}
	.st10{fill:#444444;}
	.st11{fill:#B4B4B4;}
	.st12{fill:#E0E0E0;}
	.st13{fill:#BBBBBB;}
	.st14{fill:#ECECEC;}
	.st15{fill:#EEEEEE;}
	.st16{fill:#F0F0F0;}
	.st17{fill:#D6D6D6;}
	.st18{fill:#414141;}
	.st19{fill:#424242;}
	.st20{fill:#999999;}
	.st21{fill:#D5D5D5;}
	.st22{fill:#676767;}
	.st23{fill:#6E6E6E;}
	.st24{fill:#D4D4D4;}
	.st25{fill:#B1B1B1;}
	.st26{fill:#B0B0B0;}
	.st27{fill:#717171;}
	.st28{fill:#CFCFCF;}
</style>
<g>
	<path class="st0" d="M1269.1,303.2c16.9,0,33.6,0,50.5,0c2.3,1.1,4.2,1.1,6.5,0c3.1,0,5.9,0,9,0c4,0,7.9,0,12.1,0
		c7.9,0.3,13.5,4,16.9,11.3c1.4,2.8,2,5.6,2.3,8.5c-2.3,4.2-3.1,4.8-7.3,3.4c-0.8-0.3-1.7-0.6-2.5-0.8c-2.8-0.6-5.4,0.3-6.8,2.5
		c-1.7,2.3-2,4.8-0.6,7.3c1.4,2.5,3.7,3.4,6.5,3.4c2.3,0,3.7-1.4,5.1-3.1c1.7-2.3,4-4,7.1-3.1c4,22.3,7.9,44.3,11.9,66.6
		c0.3,1.1,0.6,2,0.8,3.1c0.8,5.1,1.7,10.2,2.5,15.2c0.3,2.3,0.8,4.5,0.6,6.8c-2.5,0-5.4,0-7.9,0c-239.7,0-479.3,0-719,0
		c-2,0-4,0-5.9,0c-4.5,0-5.1,0.6-4.2,4.8c0,0.3,0,0.6,0.3,1.1c4.2,22.6,8.2,45.2,12.4,67.7c3.7,19.5,7.3,39,10.7,58.4
		c6.2,34.7,12.7,69.4,18.9,104.2c3.4,19.2,7.1,38.4,10.4,57.6c6.2,34.2,12.4,68.3,18.6,102.5c3.4,18.6,6.8,37.3,10.2,55.9
		c2,10.4,3.7,20.6,5.9,31.1c2.3,11.3,8.8,19.2,18.9,24.6c1.1,0.6,2.5,1.4,3.7,2c-1.1,0-2,0-3.1,0c-28.2,0-56.5,0-84.7,0
		c-2.5-1.4-5.4-2.5-7.9-4c-1.1-0.6-2.5-1.1-3.7-2.3c-9.9-8.2-15.8-18.3-15.8-31.3c0-5.9,0-11.9,0-17.8c0-1.7,0-3.1-0.3-4.8
		c-0.8-4.8-0.8-9.3-0.8-14.1c0-5.9,0-11.9,0-17.8c0-1.7,0-3.7-0.3-5.4c-0.8-4-0.8-7.6-0.8-11.6c0-6.2,0-12.7,0-18.9
		c0-1.7,0-3.7-0.3-5.4c-0.8-4-0.8-7.9-0.8-12.1c0-6.5,0-13,0-19.5c0-1.7,0-3.7-0.3-5.4c-0.8-4.2-0.8-8.5-0.8-12.7c0-6.5,0-13,0-19.5
		c0-1.7,0-3.7-0.3-5.4c-0.6-3.4-0.8-7.1-0.8-10.4c0-6.5,0-13,0-19.5c0-1.7,0-3.7-0.3-5.4c-0.8-4.5-0.8-9-0.8-13.5
		c0-6.2,0-12.4,0-18.3c0-1.7,0-3.7-0.3-5.4c-0.8-4-0.8-7.6-0.8-11.6c0-6.2,0-12.7,0-18.9c0-1.7,0-3.1-0.3-4.8
		c-1.1-5.1-0.8-10.2-0.8-15.2c0-5.9,0-11.9,0-17.8c0-1.7,0-3.7-0.3-5.4c-0.8-4.2-0.8-8.5-0.8-12.7c0-5.9,0-11.6,0-17.5
		c0-1.7,0-3.1-0.3-4.8c-0.8-4.2-0.8-8.8-0.8-13c0-6.5,0-13,0-19.5c0-1.7,0-3.7-0.3-5.4c-0.8-4.5-0.8-9-0.8-13.5c0-6.2,0-12.4,0-18.3
		c0-1.7,0-3.7-0.3-5.4c-0.8-4-0.8-7.6-0.8-11.6c0-6.2,0-12.7,0-18.9c0-1.7,0-3.7-0.3-5.4c-0.8-4-0.8-7.6-0.8-11.6
		c0-6.2,0-12.7,0-18.9c0-1.7,0-3.1-0.3-4.8c-1.1-5.1-0.8-10.2-0.8-15.2c0-6.2,0-12.4,0-18.3c0-2,0-4-0.3-5.6
		c-0.6-2.8-0.6-5.6-0.6-8.5c0-11.3,0-22.9,0-34.2c0-2.3,0.3-4.5-0.8-6.8c0-0.6,0-1.4,0-2c0.3-2.3,1.1-4,3.1-5.1
		c3.1-0.3,6.5,0.6,9.6-1.1c16.9,0,33.6,0,50.5,0c0.3,0.8,0.8,1.7,0.6,2.5c-1.1,9-5.4,16.4-13.5,20.6c-1.7,0.8-3.4,1.1-5.1,0.3
		c-0.6-0.3-1.4-0.6-2-0.8c-3.1-0.8-5.9,0-7.9,2.8c-1.4,2-1.7,4.2-0.3,6.5c2.5,4.2,7.1,5.1,10.7,2c2.3-2,4.2-3.4,6.8-4.8
		c9.9-5.1,15.5-13.3,16.9-24.3c0.3-1.7,0.3-3.1,1.1-4.5c16.7,0,33,0,49.7,0c2.5,1.1,4.8,1.1,7.3,0c16.9,0,33.6,0,50.5,0
		c0.3,0.8,0.6,1.7,0.6,2.5c-1.1,8.2-4.2,15-11.6,19.5c-2.5,1.7-5.1,2.5-7.9,0.8c-0.6-0.3-1.4-0.6-2-0.6c-4.2-0.8-9.6,3.7-7.6,9
		c1.7,4.2,7.3,5.9,10.7,2.5c2.3-2.3,5.1-3.7,7.6-5.4c9.6-5.4,15.2-13.3,16.4-24c0.3-1.7,0.3-3.1,1.1-4.5c16.7,0,33,0,49.7,0
		c2.5,1.4,4.8,0.8,7.3,0c16.9,0,33.9,0,50.5,0c0,1.1,0,2,0,3.1c-0.8,7.9-4.2,14.4-11,18.9c-2.5,1.7-5.4,2.5-8.5,1.1
		c-0.6-0.3-0.8-0.3-1.4-0.6c-2.8-0.6-5.1,0.6-6.8,2.8c-1.4,2-2,4-0.8,6.5c1.1,2.8,3.4,3.7,6.2,4c2,0,3.7-0.6,4.8-2
		c1.7-2.3,4.2-3.4,6.8-4.8c10.2-5.4,15.5-13.8,17.2-24.8c0.3-1.4,0.6-2.8,1.1-4c16.7,0,33,0,49.7,0c2.3,0.8,4.2,1.4,6.5-0.3
		c2.3,0,4.5,0.3,6.8,0.3c15,0,29.9,0,44.9,0c0.3,3.7-0.3,7.3-1.7,10.7c-2.3,5.1-6.2,8.8-10.7,12.1c-1.7,1.1-3.4,1.4-5.4,0.8
		c-0.6-0.3-1.4-0.6-2-0.8c-2.8-1.1-5.1-0.3-7.3,1.7c-2.3,2-2.8,4.5-1.7,7.1c1.1,2.8,3.1,4,5.9,4.2c2.3,0,4.2-0.6,5.6-2.5
		c1.4-2,3.4-2.8,5.4-4c10.2-5.1,15.8-13.3,17.8-24.3c0.3-1.7,0.3-3.4,1.1-5.1c16.4,0,33,0,49.4,0c2.3,0.8,4.2,1.4,6.5-0.3
		c1.7,0,3.4,0.3,5.4,0.3c15.5,0,30.8,0,46.3,0c0.6,10.2-4.5,17.2-12.4,22.6c-2,1.4-3.7,1.7-5.9,0.8c-0.8-0.3-2-0.8-3.1-0.8
		c-2.8-0.6-4.8,0.8-6.5,2.8c-1.7,2-2,4-1.1,6.5c1.7,4.5,7.3,5.9,10.7,2.5c2.5-2.5,5.4-4,8.2-5.6c4.8-2.5,8.8-6.5,11.6-11
		c3.1-5.4,4.8-11.3,4.5-17.5c16.9,0,33.6,0,50.5,0c2.3,0.8,4.2,1.4,6.5-0.3c1.7,0,3.1,0.3,4.8,0.3c15.5,0,31.3,0,46.9,0
		c0.3,8.5-3.4,15.2-9.6,20.6c-3.1,2.5-6.2,4.5-10.4,2.3c-0.3,0-0.3,0-0.6-0.3c-3.4-0.8-6.5,0.3-8.2,3.4c-1.4,3.1-0.6,7.1,2.3,9
		c2.5,1.7,6.5,1.4,8.8-1.1c1.7-2,3.7-3.1,5.9-4.2c9-4.5,14.7-11.6,17.5-21.2C1269.1,308.6,1269.1,305.7,1269.1,303.2z M739.5,394.9
		c-4.8,0-9.3,0-14.1,0c-1.1,0-2.5,0-3.7,0.3c-2.3,0.6-3.7,2.3-3.7,4.5s1.1,4.2,3.1,5.1c1.1,0.3,2.3,0.6,3.7,0.6c9.9,0,20,0,29.9,0
		c1.1,0,2,0,3.1-0.3c2.5-0.6,4-2.8,4-5.1s-1.7-4.2-4.2-4.8c-1.1-0.3-2.5-0.3-3.7-0.3C749.1,394.9,744.3,394.9,739.5,394.9z
		 M1298.7,394.9c-4.8,0-9.3,0-14.1,0c-1.4,0-2.8,0-4.2,0.3c-2.3,0.6-3.7,2.3-4,4.5c0,2.3,1.4,4.5,3.7,5.1c1.1,0.3,2,0.3,3.1,0.3
		c9.9,0,20,0,29.9,0c1.1,0,2,0,3.1-0.3c2.5-0.6,4-2.8,4-5.1s-1.7-4.2-4.2-4.8c-1.1-0.3-2.5-0.3-3.7-0.3
		C1307.7,394.9,1303.2,394.9,1298.7,394.9z M1205,405.1L1205,405.1c4.8,0,9.6,0,14.1,0c1.4,0,2.8,0,4.2-0.6c2.5-0.6,3.7-2.8,3.7-5.1
		c-0.3-2.3-1.7-4-4-4.5c-1.1-0.3-2.5-0.3-3.7-0.3c-9.6,0-18.9,0-28.5,0c-1.1,0-2,0-3.1,0.3c-2.5,0.6-4.2,2.3-4.2,4.5
		c-0.3,2.5,1.4,4.8,4.2,5.4c1.4,0.3,2.8,0.3,4.2,0.3C1196.2,405.1,1200.8,405.1,1205,405.1z M1019.5,394.9c-4.5,0-9,0-13.5,0
		c-1.4,0-2.8,0-4.2,0.3c-2.5,0.6-4.2,2.3-4.2,4.5c0,2.5,1.4,4.5,4.2,5.4c1.1,0.3,2,0.3,3.1,0.3c9.6,0,19.2,0,28.8,0
		c1.4,0,2.8-0.3,4.2-0.6c2.3-0.6,3.4-2.8,3.4-4.8c0-2-1.7-4-3.7-4.5c-1.4-0.3-2.8-0.3-4.2-0.3
		C1028.6,394.9,1024.1,394.9,1019.5,394.9z M926.1,394.9c-4.8,0-9.3,0-14.1,0c-1.4,0-2.8,0-4.2,0.3c-2.3,0.6-3.7,2.5-3.7,4.5
		c0,2,1.1,4,3.4,4.8c1.1,0.3,2.3,0.6,3.7,0.6c9.9,0,20,0,29.9,0c1.1,0,2.5-0.3,3.7-0.6c2.3-0.8,3.4-2.8,3.1-4.8c0-2.3-1.4-4-3.7-4.5
		c-1.4-0.3-2.8-0.3-4.2-0.3C935.1,394.9,930.6,394.9,926.1,394.9z M832.7,394.9c-4.5,0-9,0-13.5,0c-1.1,0-2.5,0-3.7,0.3
		c-2.8,0.6-4.5,2.5-4.5,5.1c0,2.3,1.7,4.2,4.2,4.8c1.1,0.3,2,0.3,3.1,0.3c9.9,0,19.5,0,29.4,0c1.4,0,2.8,0,4-0.8
		c2-0.8,3.1-2.3,3.1-4.5c0-2-1.4-4-3.7-4.5c-1.4-0.3-2.8-0.3-4.2-0.3C842.3,394.9,837.5,394.9,832.7,394.9z M1112.7,394.9
		c-4.8,0-9.9,0-14.7,0c-1.4,0-2.8,0-4.2,0.6c-2,0.6-3.7,2.8-3.4,4.8c0,2.3,1.4,3.7,3.1,4.2c1.1,0.3,2.3,0.6,3.7,0.6
		c9.9,0,20,0,29.9,0c1.1,0,2.5-0.3,3.7-0.6c2.3-0.8,3.4-2.5,3.4-4.8s-1.7-4.2-4.2-4.8c-1.1-0.3-2.5-0.3-3.7-0.3
		C1121.7,394.9,1117.2,394.9,1112.7,394.9z"/>
	<path class="st1" d="M625.2,311.7c1.1,2,0.8,4.5,0.8,6.8c0,11.3,0,22.9,0,34.2c0,2.8,0,5.6,0.6,8.5c0.3,2,0.3,4,0.3,5.6
		c0,6.2,0,12.4,0,18.3c0,5.1-0.3,10.2,0.8,15.2c0.3,1.4,0.3,3.1,0.3,4.8c0,6.2,0,12.7,0,18.9c0,4,0,7.6,0.8,11.6
		c0.3,1.7,0.3,3.4,0.3,5.4c0,6.2,0,12.7,0,18.9c0,4,0,7.6,0.8,11.6c0.3,1.7,0.3,3.4,0.3,5.4c0,6.2,0,12.4,0,18.3c0,4.5,0,9,0.8,13.5
		c0.3,1.7,0.3,3.4,0.3,5.4c0,6.5,0,13,0,19.5c0,4.5,0,8.8,0.8,13c0.3,1.4,0.3,3.1,0.3,4.8c0,5.9,0,11.6,0,17.5c0,4.2,0,8.5,0.8,12.7
		c0.3,1.7,0.3,3.4,0.3,5.4c0,5.9,0,11.9,0,17.8c0,5.1-0.3,10.2,0.8,15.2c0.3,1.4,0.3,3.1,0.3,4.8c0,6.2,0,12.7,0,18.9
		c0,4,0,7.6,0.8,11.6c0.3,1.7,0.3,3.4,0.3,5.4c0,6.2,0,12.4,0,18.3c0,4.5,0,9,0.8,13.5c0.3,1.7,0.3,3.4,0.3,5.4c0,6.5,0,13,0,19.5
		c0,3.4,0,7.1,0.8,10.4c0.3,1.7,0.3,3.4,0.3,5.4c0,6.5,0,13,0,19.5c0,4.2,0,8.5,0.8,12.7c0.3,1.7,0.3,3.4,0.3,5.4c0,6.5,0,13,0,19.5
		c0,4,0,8.2,0.8,12.1c0.3,1.7,0.3,3.4,0.3,5.4c0,6.2,0,12.7,0,18.9c0,4,0,7.6,0.8,11.6c0.3,1.7,0.3,3.4,0.3,5.4c0,5.9,0,11.9,0,17.8
		c0,4.8-0.3,9.6,0.8,14.1c0.3,1.4,0.3,3.1,0.3,4.8c0,5.9,0,11.9,0,17.8c0,13,5.9,23.1,15.8,31.3c1.1,0.8,2.3,1.4,3.7,2.3
		c2.5,1.4,5.4,2.5,7.9,4c-17.2,0-34.4,0-51.7,0c-1.4-1.4-3.1-2.3-5.1-3.1c-13.5-6.2-23.4-23.4-20.6-40.4c0-0.6,0.3-1.1,0.3-1.7
		c0-6.8,0.6-13.5,1.1-20.6c0.6-5.1,0.6-10.2,0.8-15.2c0.6-7.3,1.1-14.7,1.1-22c0-8.8,1.7-17.5,1.1-26.3c1.4-5.6,0.6-11.3,1.1-16.7
		c0.6-5.9,1.1-11.9,0.8-17.8c0-1.1,0-2.3,0.3-3.1c0.6-2.8,0.8-5.9,0.6-9c0-8.5,1.7-16.7,1.1-25.1c0-0.6,0-1.4,0.3-2
		c0.6-2.5,0.6-5.1,0.6-7.9c-0.3-8.5,1.7-17.2,1.1-25.7c1.4-5.6,0.6-11.3,1.1-16.7c0.6-5.9,1.1-11.9,0.8-17.8c0-1.1,0-2.3,0.3-3.1
		c0.6-2.8,0.8-5.9,0.6-9c0-8.5,1.7-16.7,1.1-25.1c0-0.6,0-1.4,0.3-2c0.6-2.5,0.6-5.1,0.6-7.9c-0.3-8.5,1.7-17.2,1.1-25.7
		c1.4-5.6,0.8-11.3,1.1-16.7c0-1.4,0.3-2.8,0.6-4.2c0.3-1.7,0.6-3.1,0.6-4.8c0-5.4,0.3-10.4,0.8-15.8c0.6-6.8,0.6-13.5,1.1-20.3
		c0.6-5.1,0.6-10.2,0.8-15.2c0.6-7.3,1.1-14.7,1.1-22c0-8.8,1.7-17.5,1.1-26.3c1.4-5.6,0.6-11.3,1.1-16.7c0.6-6.2,0.6-12.4,1.1-18.3
		s0.8-11.9,0.8-17.8c0-1.1,0.3-2,0.3-3.1c0.6-2.5,0.6-5.1,0.6-7.9c-0.3-8.5,1.7-17.2,1.1-25.7c1.1-5.1,0.8-10.4,1.1-15.8
		c0-1.1,0-2,0.3-3.1c0.6-2.8,0.6-5.6,0.6-8.5c0-3.1,0.3-6.2,0.6-9.3c0.6-4.5,1.1-9-0.6-13.5c-0.3-2.5,0.3-5.1-0.8-7.3
		c0-0.6,0-0.8,0-1.4c0.3-0.8,0.6-1.4,0.8-2.3c0-0.6,0-1.4,0.3-2C624.6,312.2,624.9,311.9,625.2,311.7z"/>
	<path class="st2" d="M623.2,318.2c1.4,2.3,0.8,4.8,0.8,7.3c-0.6,4-1.1,7.9-1.7,11.9c-0.8,6.2-1.7,12.4-2.5,18.9
		c-1.4,9.9-2.5,19.8-4,29.6c-0.8,6.2-1.7,12.4-2.5,18.9c-1.1,9.9-2.5,19.5-3.7,29.4c-0.8,6.5-1.7,13-2.5,19.2
		c-1.1,9.9-2.5,19.5-3.7,29.4c-0.8,6.5-1.7,13-2.5,19.2c-1.1,9.6-2.5,19.5-3.7,29.4c-1.4,11.6-3.1,23.4-4.5,35
		c-1.4,9.6-2.5,19.5-3.7,29.4c-0.8,6.5-1.7,13-2.5,19.2c-1.1,9.9-2.5,19.5-3.7,29.4c-1.4,11.6-3.1,23.4-4.5,35
		c-1.4,9.9-2.5,19.8-4,29.6c-1.1,9-2.3,18.1-3.7,27.1c-1.4,9.9-2.5,19.8-4,29.6c-1.4,11.6-3.1,22.9-4.5,34.4
		c-1.4,9.9-2.5,19.8-4,29.6c-1.1,9-2.3,18.1-3.7,27.1c-1.7,12.1-3.1,24-4.8,36.1c-0.6,3.7-0.6,7.3-0.8,11
		c-0.3,7.9,2.5,14.7,7.3,20.3c5.6,6.8,12.4,11,21.7,10.7c13.3-0.3,26.3,0,39.5-0.3c17.2,0,34.4,0,51.7,0c28.2,0,56.5,0,84.7,0
		c1.1,0,2,0,3.1,0c3.1,0.3,5.9,0.3,9,0.3c198.7,0,397.4,0,596.2,0c2.3,0,4.5-0.3,6.8-0.3c-0.8,1.1-2,1.1-3.4,1.1c-2,0-4.2,0-6.2,0
		c-202.4,0-404.5,0-606.9-0.3c-73.7,0-147.6,0-221.3,0c-3.1,0-6.2,0-9.6,0c-0.8-1.1-1.7-1.7-2.8-2c-8.5-4.8-11.9-12.4-10.2-22
		c1.4-7.6,2.8-15.2,4.2-22.9c1.7-9.3,3.7-18.6,5.4-27.9c0.3-1.7,0.6-3.4,0.3-5.4l0,0c0.3-0.6,0.6-1.4,0.8-2c0.6-1.1,1.1-2.3,1.1-3.4
		c0-4.2,1.4-8.5,2.3-12.7c0.3-2,0.6-4.2,1.1-6.2c0.6-3.1,1.4-6.5,2-9.6c1.7-8.8,3.1-17.2,4.8-26c4.5-23.4,9-46.9,13.5-70.3
		c0.3-1.1,0.3-2.5,0.6-3.7c0.3-0.6,0.3-1.1,0.6-1.4c1.7-7.3,2.3-15,4.8-22c0-0.3,0-0.6,0-1.1c0.3-1.7,0.6-3.4,0.8-5.1
		c1.1-6.5,2.5-13.3,3.7-19.8c1.4-2.3,0.8-5.1,1.4-7.6c5.1-25.4,9.9-50.5,14.7-75.9c2-10.2,3.7-20.3,5.6-30.5
		c1.4-7.6,3.1-15.5,4.5-23.1c1.7-8.8,3.4-17.5,5.1-26.3c0.3-0.6,0.6-1.1,0.8-2c0.8-4.2,1.4-8.8,2.3-13c1.4-6.8,2.8-13.5,4-20.3
		c0.3-1.1,0.3-2.5,0.3-3.7c1.1-4.5,2.5-9,3.1-13.8c5.6-29.9,11.6-59.8,17.2-89.5c0.3-1.7,0.6-3.4,0.8-5.1c0.8-2,1.1-4,1.4-6.2
		C618.4,342.7,621,330.3,623.2,318.2z"/>
	<path class="st3" d="M521.9,935.2c3.1,0,6.2,0,9.6,0c73.7,0,147.6,0,221.3,0c202.4,0,404.5,0,606.9,0.3c2,0,4.2,0,6.2,0
		c1.1,0,2.5-0.3,3.4-1.1c1.1-3.4,3.7-4.8,7.1-5.6c1.1-0.3,2.3-0.6,3.7-0.8c5.4-1.1,10.4-2.8,15-5.9c3.7-2.3,6.8-5.4,8.5-9.6
		c1.1,0.3,2.3,0.6,3.4,1.1c3.7,1.4,7.6,2.3,11.6,2c2.3,0,4.5,0,6.8-0.3c0.3,4.8,0.6,9.6-0.3,14.1c-0.8,5.4-0.8,5.6,4.8,5.6
		c24,0,48,0,72,0c1.1,0,2.5,0,3.7-0.3c0.8,0,1.4-0.8,1.7-1.7c0.3-0.6,0.3-1.4,0.3-2c1.4-0.8,2.8-1.7,4.8-2.3
		c4.2-1.1,6.8-4.2,8.2-8.2c1.1-3.1,1.7-6.5,1.4-9.6c0-4,0-7.6,0-11.6c0.8-1.1,2-2,3.1-2.5c5.1-2.3,9.9-5.1,14.7-7.9
		c1.4,1.7,2.8,3.1,4,4.8c1.7,2.3,3.4,4.2,4.8,7.1c1.4,3.1,1.1,5.9-0.6,8.5c-1.1,1.7-2.3,3.1-3.7,4.5c-3.4,3.7-6.2,7.3-7.1,12.7
		c-0.3,2.5-1.7,4.8-3.7,6.8c-0.6,0.3-0.8,0.6-0.8,1.1s0.6,0.8,1.1,0.8c1.7,0,3.4,0,5.4,0c26.3,0,52.8-0.3,79-0.3
		c18.3,0,37,0.3,55.3,0.3c61.3,0,122.5,0,183.8,0c1.1,3.1,0.6,4-2.3,4.2c-2.3,0-4.5,0-6.8,0c-379.4,0-759,0-1138.4,0
		c-207.8,0-415.5,0-623.3,0c-2,0-4.2,0-6.2,0c-2.8-0.3-3.1-1.4-1.7-4.2c2.3,0,4.5,0,6.8,0c66.6,0,133.5-0.3,200.1-0.3
		c17.8,0,35.8,0.3,53.6,0.3c58.7,0,117.4,0,175.9,0C517.4,935.5,519.6,935.2,521.9,935.2z"/>
	<path class="st4" d="M1857.1,935.5c-61.3,0-122.5,0-183.8,0c-18.3,0-37-0.3-55.3-0.3c-26.3,0-52.8,0.3-79,0.3c-1.7,0-3.4,0-5.4,0
		c-0.6,0-1.1-0.3-1.1-0.8s0.3-0.8,0.8-1.1c0.8,0.8,1.7,1.1,2.8,1.1c1.7,0,3.1,0,4.8,0c19.5,0,39,0,58.4,0c1.1,0,2,0,3.1,0
		c2.3,0,4-0.8,5.1-2.8c2.5-4.2,6.5-5.9,11.3-5.1c5.6,0.8,5.9-0.3,6.5-5.1c1.1-11.3,2.8-22.6,6.5-33.6c1.1-3.4,2.3-6.5,4.2-9.6
		c0.8-1.7,2-3.4,3.4-4.8c4-4.2,7.6-5.1,12.7-3.1c3.7,1.4,5.1,4,4.2,7.9c-0.6,2.8-2,5.4-3.4,7.6c-2,3.1-4,6.2-5.9,9.3
		c-6.2,9.6-10.2,20-13.8,30.8c0,0.3-0.3,0.6-0.3,1.1c-0.3,1.1,0.3,2,1.4,2.5c1.1,0.3,2.3,0.3,2.8-0.8c0.6-1.1,1.1-2.5,1.7-4
		c2-5.4,4.2-10.4,7.1-15.2c2-3.7,4.5-7.1,7.6-9.9c3.7-3.4,8.8-4,13.3-1.7c3.4,1.7,4.5,4.5,3.1,7.9c-1.7,4-4.8,6.8-8.5,9.3
		c-4.8,3.4-9.9,6.8-15,9.9c-1.7,1.1-3.4,2.5-5.1,4c-0.8,0.6-0.3,2,0.6,2c1.1,0.3,2.5,0.6,3.7,0.6c2.3,0,4.5,0,6.8,0
		c3.1,0,5.9,0.3,8.8,1.4c4.2,1.7,8.8,2,13.5,2c20.3,0,40.6,0,61.3,0c2,0,4.2,0,6.2,0c2.5,0,4.8,0.3,7.3,0.3c33.3,0,66.9,0,100.2,0
		C1852.3,934.6,1854.8,934.1,1857.1,935.5z"/>
	<path class="st4" d="M521.9,935.2c-2.3,0-4.5,0.3-6.8,0.3c-58.7,0-117.4,0-175.9,0c-17.8,0-35.8-0.3-53.6-0.3
		c-66.6,0-133.5,0.3-200.1,0.3c-2.3,0-4.5,0-6.8,0c2-1.4,4.5-0.8,6.8-0.8c18.9,0,37.8,0,56.7,0c19.8,0,39.5,0,59.3,0
		c2.3,0,4.5,0,6.8-0.3c6.2,0,12.4,0,18.3,0c15.8,0,31.6,0,47.4,0c3.7,0,7.1-0.3,10.4-1.4c4-1.1,7.9-2,11.9-1.1
		c0.3,0,0.6-0.3,1.1-0.3c-0.6-1.4-2.3-1.7-3.4-2.3c-5.1-2.3-10.2-4.5-15.2-7.1c-1.4-0.6-2.8-1.4-4-2.5c-0.6-0.6-0.3-1.7,0.3-2.3
		c1.1-0.6,2.3-0.8,3.4-0.8c5.4-0.3,9.9,1.7,14.1,5.1c3.1,2.5,5.6,5.4,7.9,8.5c0.8,0.8,1.4,2,2.8,2.3c0.6,0,1.1,0,1.4-0.3
		c0.6-0.3,0.6-0.8,0.3-1.4c-0.6-1.1-1.4-2-2.3-2.8c-6.8-8.2-13.8-16.4-19.8-25.1c-4-5.4-7.6-11-10.2-17.2c-0.6-1.4-1.1-3.1-1.4-4.5
		c-0.6-4,1.4-5.9,5.1-6.2c2,0,4,0.3,5.6,1.1c4.2,2,7.6,5.1,10.4,8.8c4.5,6.2,7.6,13.3,10.4,20.6c2.5,6.8,4.2,13.8,5.9,20.6
		c0.3,1.4,0.8,3.1,1.1,4.5c0.3,0.8,1.1,1.4,2,1.1s1.7-0.6,2-1.7c0.3-1.1,0.3-2.5,0.3-3.7c0-2.3,0.8-4.5,2.3-6.5
		c1.7-2.3,4-3.4,6.8-3.4c2,0,3.4,1.1,3.7,3.1c0.6,2.5,0,5.1-0.8,7.9c-0.6,1.7-0.3,2.3,1.7,2.5c1.7,0.6,3.4,1.4,4.5,2.5
		c1.4,1.4,2.8,2,4.8,1.7c0.8,0,1.7,0,2.5,0c57.6,0,115.2,0,172.8,0c2.3,0,4.5,0.6,6.5-1.1C520.2,933.5,521,934.1,521.9,935.2z"/>
	<path class="st5" d="M752.8,303.2c-2.5,1.4-4.8,1.4-7.3,0c0.8-1.4,0.8-3.1,1.1-4.5c2.3-13.3,12.7-26.5,31.1-27.1
		c14.4-0.3,29.1,9.6,32.2,26.5c0.3,1.7,0.8,3.4,1.1,5.1c-0.6,1.4-0.8,3.1-1.1,4.5c-1.1,11-7.1,18.9-16.4,24
		c-2.8,1.4-5.4,3.1-7.6,5.4c-3.4,3.4-9,2-10.7-2.5c-2-5.1,3.4-9.9,7.6-9c0.6,0.3,1.4,0.3,2,0.6c2.8,1.4,5.4,0.6,7.9-0.8
		c7.3-4.5,10.4-11.3,11.6-19.5c0-0.8-0.3-1.7-0.6-2.5c0.3-2.5,0.3-5.4-0.8-7.9c-3.1-8.2-8.8-13.8-17.2-16.4
		C767.5,273.3,751.1,289.6,752.8,303.2z"/>
	<path class="st5" d="M637.9,303.2c-3.1,1.7-6.2,0.8-9.6,1.1c2-1.1,3.1-2.5,3.4-5.1c0.3-2,0.6-3.7,1.4-5.6
		c4.2-13.3,16.9-22.6,30.8-22c13.5,0.6,23.4,7.3,29.4,19.8c0.8,2,1.4,4.2,1.7,6.5c0.3,1.7,0.6,3.4,1.1,5.1c-0.6,1.4-0.8,3.1-1.1,4.5
		c-1.4,11-7.1,19.2-16.9,24.3c-2.5,1.4-4.8,2.8-6.8,4.8c-3.7,3.4-8.2,2.3-10.7-2c-1.4-2.3-1.1-4.2,0.3-6.5c2-2.5,4.8-3.7,7.9-2.8
		c0.6,0.3,1.4,0.6,2,0.8c1.7,0.6,3.4,0.6,5.1-0.3c8.2-4.5,12.4-11.6,13.5-20.6c0-0.8-0.3-1.7-0.6-2.5c0-0.8,0.6-1.7,0.3-2.5
		c-0.6-6.5-3.4-11.9-8.2-16.1c-8.2-7.1-17.5-9-27.4-4.5C643.8,284.6,637.9,291.9,637.9,303.2z"/>
	<path class="st5" d="M925.5,303.2c-0.3,1.4-0.8,2.8-1.1,4c-1.7,11.3-7.1,19.8-17.2,24.8c-2.5,1.4-5.1,2.5-6.8,4.8
		c-1.1,1.4-2.8,2-4.8,2c-2.8,0-5.1-1.1-6.2-4c-1.1-2.3-0.6-4.5,0.8-6.5c1.7-2.3,4-3.4,6.8-2.8c0.6,0,1.1,0.3,1.4,0.6
		c3.1,1.7,5.6,0.8,8.5-1.1c6.8-4.5,10.2-11,11-18.9c0-1.1,0-2,0-3.1c0.3-3.7-0.6-7.1-2-10.2c-3.4-7.1-8.8-11.9-16.1-14.1
		c-18.9-5.6-34.2,10.7-32.5,24.3c-2.5,1.1-4.8,1.4-7.3,0c0.3-1.4,0.8-2.8,0.8-4c2.3-15.8,15.5-27.4,31.6-27.4c1.4,0,2.8,0,4.2,0
		c1.4,0.6,3.1,0.8,4.5,1.4c13,4,20.3,13,22.9,26.3C924.7,300.7,925,302.1,925.5,303.2z"/>
	<path class="st5" d="M625.2,311.7c-0.3,0.3-0.6,0.8-1.1,1.1c0-1.1,0.3-2.3,0.8-3.1C625.2,310.2,625.2,310.8,625.2,311.7z"/>
	<path class="st5" d="M624.1,314.5c-0.3,0.8-0.6,1.4-0.8,2.3C623.5,316.2,623.8,315.3,624.1,314.5z"/>
	<path class="st6" d="M1506.2,529c1.4,5.9,2.5,11.6,4,17.5c2.3,9.9,4.5,19.8,5.9,29.9c0.3,2.5,0.6,5.1,0,7.9
		c-2,12.1-4.5,24-7.3,36.1c-1.4,6.8-3.1,13.5-4.8,20.6c-0.3,1.7-1.1,2.8-3.1,3.1c-1.4-0.6-2.8-0.8-4.5-1.4c-3.4-0.8-6.8-2.3-9.3-5.1
		c-1.1-2-0.8-4-0.8-6.2c0.8-13.3,0.8-26.5,1.4-40.1c0.3-4.5,0.3-8.8-0.3-13.3c0-1.7-0.3-3.4-1.4-5.1c-3.1-4.2-5.9-8.8-9-13
		c-0.3-0.3-0.6-0.3-0.8-0.3c-1.1,0.8-0.8,2-0.8,2.8c0,13.5-0.3,27.1,0.8,40.6c0.6,5.6,0.8,11.3,1.1,16.9c0.3,2.3,0.3,4.2-1.7,5.6
		c-0.3,0.3-0.6,0.8-1.1,1.1l0,0c-13,5.9-26.3,11-40.4,13.3c-8.8,1.4-17.5,1.7-26.3,1.4c-4.2-0.3-8.5-1.1-12.7-0.8
		c-2-1.1-4.5-0.8-6.5-0.8c-3.4,0-7.1-0.3-10.4-1.1c-0.8-0.6-1.1-1.7-1.1-2.8c-0.3-3.1-0.6-6.2-0.6-9.3c-0.6-24.6,0.3-49.1,1.1-73.4
		c0-1.4,0-2.8,0-4.2c0-1.7-1.1-2-2.5-2c2.3-1.7,3.1-4,3.1-6.8c0-3.1-0.3-6.2,0.3-9.3c0.6-2.5,0.6-5.1,0.6-7.9c0-1.7,0-3.1,0.3-4.8
		c0.8-7.1,1.7-13.8,2.5-20.9c0.3-1.7,0-3.1-1.1-4.5c2-2,2.8-4.2,3.4-6.8c0.8-3.4,2.3-6.5,3.7-9.6c1.1-2.5,2.5-4.8,3.7-7.3
		c4-4.8,7.6-9.6,12.1-13.5c2.3-2,4.5-4.2,7.1-6.2c0.6-0.3,0.8-0.6,1.4-0.8c0.6,0,1.1,0,1.7,0c1.4,0.3,2.8,0.6,4,0.8
		c5.4,0.3,10.7-1.1,15.5-3.4c3.7-1.7,7.6-3.4,11.3-5.1c2.3-1.1,4.5-1.7,7.1-2c6.8,3.7,13.3,7.9,19.2,12.7
		c6.8,5.6,12.1,12.1,15.5,20.3c2.3,5.4,4.2,10.7,6.5,16.1c0.6,1.7,1.4,3.1,2,4.8c0.3,2.5,1.1,4.8,2.3,7.1c0.3,1.4,0.6,3.1,1.1,4.5
		c2,7.1,4,14.1,5.9,21.2C1505.1,526.5,1505.6,527.6,1506.2,529z M1474.3,565.7C1474.6,565.7,1474.6,565.7,1474.3,565.7
		c0.3-2,0-4,0.3-5.9c0.3-2.8-0.8-5.1-2.3-7.3c-4.2-6.5-8.5-13-12.7-19.5c-0.6-0.8-1.1-1.7-1.7-2.5c-0.3-0.3-0.8-0.6-1.4-0.6
		c-0.8,0-1.1,0.8-1.4,1.4c-0.6,1.4-0.3,2.8-0.3,4.2c0.3,1.1,0.6,2.5,0.6,3.7c1.1,11.3,5.6,20.9,12.1,29.9c1.4,2,3.1,3.7,5.1,5.4
		c0.6,0.3,1.7,0,1.7-0.8C1474.3,571.1,1474.3,568.5,1474.3,565.7z"/>
	<path class="st7" d="M1495.5,492c-0.6-1.7-1.4-3.1-2-4.8c-2.3-5.4-4.2-10.7-6.5-16.1c-3.4-8.2-8.8-14.7-15.5-20.3
		c-5.9-5.1-12.4-9-19.2-12.7c-4-5.1-6.8-10.7-8.5-16.9c-0.6-2.5-0.8-4.8,0.6-7.1c0.8-1.4,1.1-2.8,1.7-4.5
		c5.6-4.5,8.8-10.7,10.4-17.8c0.6-2.8,1.4-5.6,2-8.8c0.6-4.2,1.1-8.2,0.3-12.4c-0.6-4-1.4-7.6-6.2-8.2c-0.8,0-1.4-0.8-2.3-1.4
		c5.1,1.1,9.9-0.3,15-2c9.6-3.1,19.2-5.4,29.1-7.3c4-0.6,8.2-0.6,12.1-0.3c1.4,0,2.3,1.1,1.7,2.5c-0.6,1.1-1.4,2.5-2,3.7
		c-7.1,9.9-12.7,20.6-18.9,31.1c-2.3,3.7-3.7,7.6-5.4,11.6c-0.6,1.7-0.8,3.4-0.8,5.1c0.3,2,1.7,3.1,4,2.3c0.8-0.3,1.7-0.6,2.3-1.1
		c2.5-2,5.1-3.7,7.3-5.9c6.5-6.2,12.1-13,18.1-19.8c7.1-8.5,14.1-16.9,20.6-26c2.5-3.4,5.4-5.6,9.9-5.9c2.5-0.3,5.4-0.6,7.9-0.3
		c11.3,0.6,22.9,1.7,33.6,6.2c6.5,2.8,12.1,7.1,16.1,13c1.4,2.3,2.5,4.5,3.1,7.3c1.4,5.4,2.3,11,2.5,16.7c0.6,8.8-1.4,17.2-4.8,25.1
		c-2,4.5-5.4,8.2-9.3,11.3c-1.4,1.1-3.4,2.3-5.4,2.3c-4.2,0.6-8.8,1.4-13,1.4c-11.9,0-23.4,0-35.3,0c-3.4,0-6.8,0.3-9.9,1.1
		c-0.6,0.3-1.4,0.3-2,0.6c-3.1,1.1-3.7,3.1-1.1,5.4c1.1,1.1,2.5,2,3.7,2.8c9.3,5.4,19.8,8.5,30.2,10.2c2.3,0.3,4.5,0.8,6.8,0.8
		c4,0.3,8.2,0.6,12.1-0.3c0.8-0.3,1.7-0.3,2.5,0.6c0.8,0.8,0.3,2-0.3,2.8c0,0.3-0.3,0.6-0.6,0.8c-5.4,9-11,18.1-17.8,26.3
		c-5.1,6.2-11,11.3-17.5,15.5c-4.2,2.8-9.3,4.5-14.4,4.8c-4.2,0.3-8.5-0.6-12.4-2c-6.5-2-12.7-4-18.3-7.9
		C1498.6,492.6,1497.4,491.2,1495.5,492z"/>
	<path class="st8" d="M1395.5,640.2c4.2,0,8.5,0.6,12.7,0.8c8.8,0.6,17.5,0,26.3-1.4c14.1-2.3,27.4-7.3,40.4-13.3
		c1.4,11.6,2.8,22.9,3.1,34.7c0.3,5.1,0.8,10.2,2,15.2c4.2,19.2,10.2,37.5,18.6,55.3c2.3,4.8,5.1,9.3,8.2,13.5
		c4,5.1,6.5,10.7,8.8,16.7c4.5,11,7.6,22.3,10.4,33.6c6.2,24.8,10.2,50.2,13.8,75.7c0.6,4,0.8,7.6,1.4,11.6c0.3,2.3,0,4.5-1.4,6.5
		c-4.8,2.8-9.6,5.6-14.7,7.9c-1.4,0.6-2.5,1.4-3.1,2.5c-1.7-1.4-2.8-3.1-4-4.8c-9.9-16.9-19.8-33.9-29.6-50.8
		c-7.6-13.3-15.2-26.3-22-40.1c-4.2-8.5-8.5-16.9-12.7-25.4c-0.6-1.1-1.4-2.5-2-3.7c0-0.3-0.6-0.3-0.8-0.3c-0.3,0-0.6,0.6-0.6,0.8
		c0,0.6,0,1.1,0,1.7c-0.3,0-0.6,0.3-0.8,0.3c0-0.6-0.3-1.4,0-2c0.3-4.5-0.8-8.5-3.1-12.7c-2.8-5.6-5.6-11.9-8.2-17.5
		c-4-8.8-7.9-17.5-11.9-26.5c-3.1-7.3-6.5-14.4-9.6-21.7c-6.5-15.2-13-30.2-19.2-45.4c-1.1-2.8-2.3-5.6-3.1-8.5
		C1393.8,641.9,1394.4,641.1,1395.5,640.2z"/>
	<path class="st9" d="M1446.3,409.9c-0.6,1.4-0.8,3.1-1.7,4.5c-1.4,2.3-1.1,4.5-0.6,7.1c1.7,6.2,4.5,11.9,8.5,16.9
		c-2.5,0-4.8,0.8-7.1,2c-3.7,1.7-7.6,3.4-11.3,5.1c-5.1,2.3-10.2,3.7-15.5,3.4c-1.4,0-2.8-0.6-4-0.8c3.1-1.1,4.2-3.1,3.4-6.5
		c-0.6-3.1-0.8-6.2-1.1-9.3c2,2.5,2.5,2.8,4.5,2c5.1-2.3,9.9-5.1,13.5-9.6c0.3-0.3,0.6-0.8,0-1.4c-0.3-0.3-0.6-0.3-0.8-0.3
		c-4.2,1.7-8.8,1.7-13.5,1.7c-1.4,0-2.8,0.3-4,1.1c-1.7-0.8-3.4-1.1-5.1-1.1c-2-0.3-3.4-1.1-4.2-2.8c-0.8-1.4-1.7-3.1-2-4.8
		c-0.8-3.1-1.4-6.5-1.4-9.9c0-5.6,0-11.3,0-16.9c0-2.8,0-2.8-3.4-3.1c-0.6-0.3-1.4-0.8-2-1.1c4.2,0.3,8.5-0.6,12.4-2
		c3.1-1.1,6.2-1.7,9.3-1.7c3.4,0,5.9,1.1,7.6,4c0.8,1.4,1.7,2.5,2.5,4c0.6,1.1,1.1,2.5,2,3.7c1.1,2,2.5,2.3,4.2,0.8
		c0.6-0.6,1.1-0.8,1.7-1.1c1.7-0.8,3.1-0.3,3.7,1.7c0.3,1.7,0.3,3.4,0,5.4C1441.5,404.2,1443,407.4,1446.3,409.9z"/>
	<path class="st10" d="M1446.3,409.9c-3.4-2.3-4.5-5.6-4.2-9.6c0.3-1.7,0.3-3.4,0-5.4c-0.6-1.7-2-2.5-3.7-1.7
		c-0.6,0.3-1.1,0.8-1.7,1.1c-1.7,1.4-3.1,1.1-4.2-0.8c-0.8-1.1-1.4-2.5-2-3.7c-0.8-1.4-1.4-2.8-2.5-4c-2-2.5-4.5-4-7.6-4
		s-6.2,0.6-9.3,1.7c-4,1.4-8.2,2.3-12.4,2c-3.1-2.3-4.5-5.6-5.1-9.3c-0.8-5.1,1.1-9.3,5.4-12.1c2-1.4,4-2.3,6.2-2.8
		c3.1-1.1,6.5-1.7,9.9-2c6.2-0.3,12.1-0.6,18.3-0.6c5.9,0,11.6,0.8,16.9,2.5c0.8,0.6,1.4,1.4,2.3,1.4c4.8,0.8,5.6,4.5,6.2,8.2
		c0.8,4.2,0.3,8.5-0.3,12.4c-0.6,2.8-1.1,5.9-2,8.8C1455.1,398.9,1452,405.1,1446.3,409.9z"/>
	<path class="st7" d="M1400.6,386.7c3.4,0.3,3.4,0.3,3.4,3.1c0,5.6,0,11.3,0,16.9c0,3.4,0.6,6.8,1.4,9.9c0.3,1.7,1.1,3.4,2,4.8
		c0.8,1.7,2.3,2.5,4.2,2.8c1.7,0.3,3.4,0.3,5.1,1.1c0,2,0,4.2,0.3,6.2c0.3,3.1,0.6,6.2,1.1,9.3c0.8,3.4-0.6,5.4-3.4,6.5
		c-0.6,0-1.1,0-1.7,0c-0.6,0.3-0.8,0.6-1.4,0.8c-2.3,2-4.5,4.2-7.1,6.2c-4.5,4-8.2,9-12.1,13.5c-2.8-15-5.6-29.6-8.5-44.6
		c0.3-2.3-0.3-4.5-0.6-6.8c-0.8-5.1-1.7-10.2-2.5-15.2c0.8-0.6,2-0.6,2.8-1.4c5.1-4.8,11-9,16.4-13.3
		C1400.3,387.3,1400.3,387,1400.6,386.7z"/>
	<path class="st5" d="M1368.2,332.8c-3.1-0.8-5.4,0.8-7.1,3.1c-1.4,1.7-2.8,2.8-5.1,3.1c-2.8,0.3-5.1-0.6-6.5-3.4
		c-1.4-2.5-1.1-5.1,0.6-7.3c1.7-2.3,4-3.1,6.8-2.5c0.8,0.3,1.7,0.6,2.5,0.8c4.2,1.4,5.1,0.8,7.3-3.4c1.7,0.8,2.5,0,3.7-1.1
		c7.3-6.8,11-19.2,4.5-30.8c-6.8-12.1-22.3-16.9-34.4-10.2c-8.8,4.8-13.3,12.1-13.8,22c-2.3,1.1-4.2,1.1-6.5,0
		c0.6-2.8,0.6-5.9,1.7-8.8c4.5-13.8,17.5-23.7,32.5-22.6c20,1.4,33.6,19.5,29.6,38.7c-1.7,7.6-5.4,14.1-11.6,18.9
		C1370.4,330,1369,331.1,1368.2,332.8z"/>
	<path class="st5" d="M1211.2,302.9c-2,1.7-4.2,1.1-6.5,0.3c0.8-5.1,1.7-9.9,4.2-14.7c9.3-16.9,31.3-22.3,46.9-11
		c8.8,6.2,13,14.7,13.3,25.4c0,2.8,0,5.6-0.8,8.5c-2.5,9.9-8.5,16.9-17.5,21.2c-2.3,1.1-4.2,2.3-5.9,4.2c-2,2.5-6.2,2.8-8.8,1.1
		c-2.8-1.7-3.7-5.9-2.3-9c1.4-2.8,4.5-4.2,8.2-3.4c0.3,0,0.3,0,0.6,0.3c4.2,2.5,7.3,0.6,10.4-2.3c6.2-5.4,9.9-12.1,9.6-20.6
		c0-0.6,0-1.1,0-1.7c-0.8-11.3-8.8-20.3-19.8-22.9c-10.7-2.5-21.7,2-27.7,11.6C1212.9,294.2,1212.1,298.4,1211.2,302.9z"/>
	<path class="st11" d="M981.4,302.9c-2,1.7-4.2,1.1-6.5,0.3c0.3-1.7,0.8-3.4,1.1-5.1c2.8-15.8,16.1-26,30.5-26.5
		c12.7-0.6,27.4,7.1,31.9,24c0.6,2.5,0.6,5.4,2,7.6c-0.8,1.7-0.8,3.4-1.1,5.1c-2,11-7.6,19.5-17.8,24.3c-2,1.1-4,2-5.4,4
		c-1.4,1.7-3.4,2.5-5.6,2.5c-3.1,0-5.1-1.4-5.9-4.2c-1.1-2.8-0.6-5.1,1.7-7.1c2-2,4.5-2.8,7.3-1.7c0.6,0.3,1.4,0.6,2,0.8
		c2,0.8,4,0.6,5.4-0.8c4.2-3.4,8.5-6.8,10.7-12.1c1.4-3.4,2-7.1,1.7-10.7c0.3-7.1-2.5-13-7.6-17.8c-7.1-6.8-15.2-9-24.6-6.5
		c-10.2,2.8-15.8,9.6-18.6,19.5C982,299.8,981.7,301.5,981.4,302.9z"/>
	<path class="st11" d="M1096.3,302.9c-2,1.7-4.2,1.1-6.5,0.3c0.3-1.4,0.8-3.1,0.8-4.5c2.3-18.3,24.3-34.4,46-23.4
		c11.3,5.6,17.2,15.2,17.5,27.9c0.3,6.2-1.4,12.1-4.5,17.5c-2.8,4.8-6.8,8.5-11.6,11c-2.8,1.7-5.6,3.1-8.2,5.6
		c-3.4,3.4-9,2-10.7-2.5c-0.8-2.3-0.6-4.5,1.1-6.5c1.7-2,3.7-3.4,6.5-2.8c1.1,0.3,2,0.6,3.1,0.8c2.3,0.8,4,0.6,5.9-0.8
		c7.9-5.4,13.3-12.4,12.4-22.6c0.3-7.3-2.8-13.3-7.9-18.1c-13.5-12.7-31.6-6.8-39,4.2C1098.3,293.3,1097.2,298.1,1096.3,302.9z"/>
	<path class="st9" d="M1487.3,637.1c2.5,2.5,5.9,4,9.3,5.1c1.4,0.3,2.8,0.8,4.5,1.4c0,5.6-1.7,10.4-5.4,15c-2.5,2.8-5.1,5.6-7.9,8.5
		c-0.6,0.6-1.4,1.4-2.3,0.8c-1.4-0.6-0.8-1.7-0.6-2.8c0.6-2.8,1.1-5.4,1.7-8.2c0-0.6,0.3-1.4,0.3-2c0-0.3-0.3-0.6-0.6-0.6
		c0,0-0.3,0-0.6,0.3s-0.6,0.6-0.6,0.8c-0.6,0.8-0.8,2.3-2.3,1.7c-0.8-0.3-0.8-1.4-1.1-2.3c-0.8-4,0-7.6,2.3-11
		C1485.3,641.6,1487,639.9,1487.3,637.1z"/>
	<path class="st12" d="M1506.2,529c-0.6-1.4-0.8-2.5-1.4-4c-2-7.1-4-14.1-5.9-21.2c-0.3-1.4-0.8-3.1-1.1-4.5
		c5.6,4.5,10.4,9.9,15.5,15c1.1,1.1,1.7,2.3,2,3.7c0.6,2.3,0.3,4.2-2,5.6c-1.4,0.8-2.8,1.7-4.2,2.3
		C1507.9,526.5,1506.7,527.3,1506.2,529z"/>
	<path class="st8" d="M1474.9,626.7c0.3-0.3,0.6-0.8,1.1-1.1C1475.4,626.1,1475.1,626.4,1474.9,626.7z"/>
	<path class="st13" d="M576.6,558.1c-2,10.2-3.7,20.3-5.6,30.5c-4.8,25.4-9.9,50.5-14.7,75.9c-0.6,2.5,0,5.4-1.4,7.6
		c-0.8-2.5-1.1-2.8-3.1-1.7c-1.7,1.1-3.4,2.3-5.4,2.5c-0.6-1.1-1.4-2.3-2-3.7c-5.1-11.9-13-22-22-31.1c-5.6-5.9-12.1-11.3-18.6-16.4
		c-18.6-14.4-38.7-26.8-59.3-37.8c-14.1-7.3-28.5-14.4-42.9-21.2c-14.7-6.8-29.6-13-44.6-18.9c-8.5-3.4-17.2-6.8-26-9.9
		c-4.5-1.7-8.8-4-13.5-4.5c-0.3-0.3-0.6-0.3-0.8-0.6c0,0-0.3,0-0.6,0c-0.3,0.3-0.3,0.3,0.3,0.6c0.3,0,0.6,0,0.8,0
		c1.1,1.1,2.5,2,4,2.5c5.4,2.3,10.7,4.5,16.1,6.8c11.9,5.4,23.7,10.2,35.6,15.8c14.4,7.1,28.8,14.1,42.6,21.7
		c16.7,9,33.3,18.9,49.1,29.6c15.5,10.4,30.2,22,43.5,35.6c6.5,6.5,12.1,13.5,16.9,21.5c3.1,4.8,5.6,10.2,7.3,15.8
		c2.3,7.1,3.1,14.4,0.8,21.7c-0.6,1.7-0.6,3.4-0.8,5.1c-1.1,0.3-1.7,1.1-2.5,2c-6.2,9.6-15.2,15.2-25.7,19.2
		c-11.9,4.5-24,7.1-36.4,8.5c-5.4,0.6-10.4,0.8-15.8,0.8c-2,0-4,0.3-5.6,0.6c-2.8,0.3-5.6,0.6-8.5,0c-3.7-0.6-7.3-0.6-11-0.6
		c-13-0.8-26-2.5-38.1-7.1c-2.8-1.1-5.4-2.3-7.6-4.5c-2.5-2.8-2.8-4.8-1.1-8.2c0.8-1.4,2-3.1,3.1-4.2c6.8-7.3,14.1-13.5,22-19.5
		c5.1-4,11.3-6.5,17.5-8.2c10.2-2.8,20.6-4.2,31.1-5.4c6.5-0.6,13-1.4,19.2-2.3c3.7-0.6,7.3-1.4,10.4-3.1c1.7-0.8,3.4-2,3.7-4.2
		c0-2.5-2-3.7-3.7-4.5c-4.8-2.3-10.2-3.1-15.2-3.4c-5.9-0.3-11.9-0.3-17.8,0c-5.9,0.3-11.6,2.3-17.2,4.8
		c-6.8,3.1-12.7,7.3-19.2,11.3c-8.8,5.6-18.1,10.2-27.9,13.3c-6.8,2-13.5,3.4-20.6,4.2c-6.2,0.8-12.1-0.8-18.1-3.4
		c-5.9-2.5-11.3-6.2-16.1-10.7c-7.1-6.5-13.5-13.8-19.2-21.7c-8.2-11.6-15-23.7-20.9-36.4c-0.3-0.3-0.3-0.6-0.6-0.8
		c-0.3-1.1-1.4-2.3-0.6-3.4c0.8-1.4,2.3-0.6,3.4-0.3c8.5,1.7,16.9,1.7,25.1,1.1c15.8-1.4,31.3-4.8,45.7-11.3
		c2.3-1.1,4.2-2.5,6.2-3.7c1.1-0.6,2-1.7,2.5-2.5c2-2.5,1.7-4.5-1.4-5.6c-5.4-2.3-10.7-3.1-16.4-3.7c-6.2-0.6-12.7-1.1-18.9-2
		c-0.6,0-1.1,0-1.7,0c-9.6-0.3-18.9-0.6-28.5-1.1c-6.8-0.3-13.5-1.1-20.3-1.7c-4.2-0.6-7.6-2.5-10.7-5.4c-8.5-7.9-13-17.8-15-29.1
		c-3.1-16.9-0.8-33.3,4.8-49.1c2.5-7.6,7.9-13.3,14.1-18.1c5.9-4.5,12.4-7.3,19.5-9.3c10.4-2.8,20.9-4.2,31.6-4.2
		c7.6,0,15.5,0.6,23.1,1.1c0.6,0,1.1,0,1.7,0.3c5.9,0.8,5.9,0.8,9.6,6.2c9.9,14.7,20,29.4,30.8,43.5c9,11.9,17.8,23.4,28.8,33.6
		c2,2,4.2,4,6.5,5.4c0.8,0.6,2,1.1,2.8,1.4c2.5,0.8,4.2-0.3,4.5-2.8c0-1.4,0-2.8-0.3-4.2c-0.6-2.5-1.1-5.1-2.3-7.6
		c-2.3-6.2-4.8-12.1-7.6-17.8c-7.6-15.5-15.5-30.8-24.3-45.4c-2.8-4.8-2.3-5.6,3.1-5.6c6.2,0,12.1,1.4,18.1,2.8
		c13,2.8,25.4,7.3,37.8,11.6c13,4.8,25.7,10.2,38.7,15.5c3.7,1.4,7.1,3.4,10.4,4.8c2.3,0.8,3.1,2.5,3.1,4.8
		c-0.3,6.2,0,12.7-0.6,18.9c-0.8,7.6-0.6,15.5,0,23.1c0.3,2,0.6,4.2,0.6,6.2c-0.3,7.9,0.6,15.8,1.4,23.7c0.6,5.6,1.7,11,3.4,16.4
		c0.6,2.3,1.7,4.2,3.1,5.9c2.3,2.3,4.8,2.3,6.8,0c1.7-1.7,2.3-4,2.8-6.2c0.6-2.5,1.1-5.1,1.4-7.9c0.6-6.8,0.6-13.3,0-20
		c-0.6-6.2-1.1-12.7-2-18.9c-1.1-8.8-2.5-17.5-3.7-26c-0.3-2.3-0.8-4.5-1.1-6.8c-0.3-1.4,0.8-2.3,2.3-2c0.8,0.3,1.7,0.6,2.5,0.8
		c5.6,2,10.7,5.1,15.8,8.5c8.8,5.4,16.7,12.4,24.3,19.2C574.1,555.8,575.2,557,576.6,558.1z"/>
	<path class="st4" d="M523,837.3c-0.8,4.2-2,8.5-2.3,12.7c0,1.1-0.6,2.3-1.1,3.4c-0.3,0.6-0.6,1.4-0.8,2l0,0
		c-0.6,0.8-1.1,1.7-1.7,2.5c-6.5,13-15.8,24-26.5,33.9c-2.8,2.5-5.9,5.1-9.3,7.1c-1.4,0.8-2.8,1.4-4.2,2c-2.8,0.8-4.8-0.3-5.6-3.1
		c-0.6-1.4-0.8-3.1-0.8-4.5c0-4-0.3-7.6,0-11.6c0.3-5.9,2.3-11.3,5.4-16.4c2.8-4.5,5.6-8.8,8.5-13.3c1.4-2.3,3.1-4.8,4.5-7.1
		c0.8-1.4,1.4-3.1,1.4-5.1c0-2-1.4-2.8-3.1-2.3c-2,0.6-3.4,1.7-4.8,3.1c-7.6,6.5-13,14.4-14.1,24.6c-0.6,4.2-1.4,8.2-2.3,12.4
		c-1.1,5.9-3.7,11.3-6.8,16.7c-4.5,7.9-11.6,11.3-20.3,12.4c-9.6,1.1-18.9,0-28.2-1.7c-3.4-0.6-6.8-1.7-10.2-2.5
		c-1.4-0.6-1.7-1.7-0.6-2.8c3.4-3.4,7.1-7.1,9.9-11c4.2-5.9,7.6-12.1,9.9-19.2c0.6-1.7,1.1-3.7,1.4-5.6c0.3-1.4,0.6-2.8-0.8-4
		c-1.7-1.1-3.1,0-4.2,0.8c-0.8,0.6-1.7,1.1-2.5,2c-6.5,5.4-12.4,11.6-18.1,17.8c-3.1,3.1-5.9,6.2-9,9.6c-3.1,3.1-6.5,4.5-11,4.5
		c-5.1,0-9.6-1.1-14.1-3.7c-7.6-4.5-13.5-10.4-18.3-17.8s-4.5-15.2-1.7-23.1c1.4-3.7,3.4-7.3,5.6-10.7c4-5.4,8.2-10.4,13-15.2
		c2.5-2.5,5.4-3.4,9-2.8c15.8,2,31.9,3.4,47.7,2.8c1.4,0,2.8,0,4.2-0.3c1.4-0.3,2.8-0.6,4.2-0.8c1.1-0.3,2-0.8,2.3-2
		c0.3-1.4-0.8-2.3-2-2.8c-1.4-0.8-2.8-1.4-4.2-2c-4.2-1.4-8.2-2.8-12.7-4c-7.6-2-15-3.4-22.6-5.1c-1.1-0.3-2-0.3-3.1-0.8
		c-1.1-0.3-1.4-1.4-0.8-2.5c2-2.3,4.2-4.2,6.5-6.2c6.2-4.8,13-9,20-12.7c7.6-4,15.5-7.6,22.9-11.6c3.4-1.7,5.6-1.1,8.2,1.4
		c7.6,7.1,15.8,14.1,24.3,20.3c3.1,2.3,6.2,4.5,9.6,6.2c1.7,0.8,3.4,1.7,5.6,1.4c1.4-0.3,2.5-1.4,2.3-3.1c-0.3-1.7-1.1-2.8-2.3-4.2
		c-2.5-2.8-5.4-5.4-8.5-7.9c-7.1-5.4-14.4-10.2-21.7-14.7c-1.1-0.6-2-1.4-3.1-2c-0.6-0.6-0.6-1.4,0-1.7c0.6-0.6,1.4-1.1,2.3-1.4
		c3.4-1.7,7.1-2.8,11-3.7c7.9-2,15.8-2.8,24-2.5c9.3,0.3,16.9,4.5,22.6,11.9c2.5,3.7,4.5,7.3,5.6,11.9c2,7.6,3.1,15.2,2,22.9
		c-1.1,7.9-0.8,7.9,5.9,12.4c2,1.1,3.7,2.8,6.2,2.3c-0.6,3.1-1.4,6.5-2,9.6c-2.3,0.6-2.8,0.8-2.5,2.3
		C521.9,835,522.2,836.1,523,837.3z"/>
	<path class="st13" d="M589.4,493.7c-0.8,4.2-1.4,8.8-2.3,13c0,0.6-0.6,1.1-0.8,2c0-2.8-1.4-4.5-3.7-5.9
		c-7.3-4.5-14.4-9.3-21.7-13.8c-11.3-7.1-22-14.4-32.7-22c-13-9-25.7-18.3-37.8-28.5c-8.8-7.3-17.8-15-24.8-24.3
		c-1.7-2.3-3.4-4.5-4.5-7.1c-0.8-1.7-1.4-3.1-2-4.8c-1.4-5.1,0.6-9,5.6-11c4.8-2,9.6-2,14.4-0.6c5.9,1.4,11.3,4.2,16.4,7.3
		c9,5.6,17.5,12.4,25.1,19.8c7.9,7.6,15.8,15.5,23.4,23.4c6.5,6.8,12.7,14.1,18.6,21.5c7.9,9.3,15.5,19.2,23.1,28.8
		C587.1,492,587.9,493.2,589.4,493.7z"/>
	<path class="st4" d="M532.3,705.7c0.3-1.7,0.3-3.4,0.8-5.1c2.3-7.3,1.4-14.7-0.8-21.7c-1.7-5.6-4.2-10.7-7.3-15.8
		c-4.8-7.9-10.4-14.7-16.9-21.5c-13.3-13.5-27.9-25.1-43.5-35.6c-15.8-10.7-32.2-20.3-49.1-29.6c-14.1-7.6-28.2-14.7-42.6-21.7
		c-11.6-5.6-23.7-10.7-35.6-15.8c-5.4-2.3-10.7-4.5-16.1-6.8c-1.4-0.6-2.8-1.4-4-2.5l0,0c4.8,0.6,9,2.8,13.5,4.5
		c8.8,3.1,17.5,6.5,26,9.9c15,6.2,29.9,12.4,44.6,18.9c14.4,6.8,28.8,13.8,42.9,21.2c20.9,11,40.9,23.1,59.3,37.8
		c6.5,5.1,12.7,10.4,18.6,16.4c9,9.3,16.9,19.2,22,31.1c0.6,1.4,1.4,2.5,2,3.7c0,0.3-0.3,0.6-0.3,1.1c-0.8,1.4-0.8,2.8,0,4.2
		c0.3,6.2,0.8,12.4,2.3,18.6c0.3,1.4,1.1,0.6,2,0c0,0.3,0,0.8,0,1.1c-2.5,7.1-3.1,14.7-4.8,22c0,0.6-0.3,1.1-0.6,1.4
		c-0.6-0.8-1.4-1.7-2-2.5C540.2,714.2,536.6,710,532.3,705.7z"/>
	<path class="st13" d="M596.7,455.9c-0.6,4.8-1.7,9.3-3.1,13.8c-4-5.4-7.1-11.3-10.4-16.9c-6.2-10.7-12.4-21.7-17.5-33
		c-4-8.2-7.3-16.4-10.2-24.8c-1.4-4.5-2.3-9.3-2-14.1c0-5.1,4.2-8.8,9.9-6.5c2.5,0.8,4.5,2.5,6.2,4.8c4,5.1,6.8,11,9.3,16.9
		c5.1,12.7,8.8,26,11.6,39.2c1.4,6.8,2.8,13.3,4.2,20C595,457,595.8,456.5,596.7,455.9z"/>
	<path class="st14" d="M1384,424.3c2.8,15,5.6,29.6,8.5,44.6c-1.1,2.5-2.5,4.8-3.7,7.3c-1.4,3.1-2.8,6.2-3.7,9.6
		c-0.6,2.5-1.7,4.8-3.4,6.8c-1.7,1.4-3.1,2.8-4.8,4.2c-4,3.7-7.6,7.3-11.6,10.7c-2.3,2-4.8,3.7-7.1,5.4c-1.4,1.1-3.1,1.4-4.8,0.3
		c-4.2-2.8-8.8-5.1-12.7-8.5c0-3.4-0.8-6.8-1.7-10.2c-1.1-4-3.7-6.2-7.6-7.1c-1.4-0.3-2.8-0.6-4.2-0.6c-4.8,0-9.3,0-14.1,0
		c-1.4-0.8-3.1-1.7-4.5-2.5c-4.8-3.1-9.6-6.2-14.4-9.3c-1.4-2.8-1.4-6.2-2-9.3c5.9-1.1,11.9-2.3,17.8-3.4c0.8,0,1.7-0.3,2.3-0.8l0,0
		c0.8,0,1.7,0,2.5,0c4-0.6,5.6-2.8,5.9-6.8c0-2-0.3-3.7-0.8-5.6c-1.1-3.1-2.5-4.2-5.6-4.5c-2,0-4.2,0-6.2,0.8
		c-11.3,1.7-22.6,4.8-34.2,5.6c-0.8,0-1.7,0.3-2.5,0.6c-2,0.6-3.7,1.1-5.6,1.4c-13.3,2.5-26.5,5.1-39.8,7.3
		c-2.8,1.4-5.4,3.1-7.6,5.1c-2.8,1.1-5.4,3.4-7.9,4.8c-0.6,0.3-1.1,0.8-1.1,1.4c0,0.8,0.8,0.8,1.4,1.1c2.8,0.6,5.6,1.1,8.8,1.7
		c3.1,0.8,6.2,2,9.6,2c0.6,0,1.1,0,2,0c1.1,0.3,2.3,0,3.4-0.8c3.4-0.6,6.5-1.1,9.9-1.7c9-1.7,18.1-3.1,26.8-4.8c2.3,0,4,0.8,5.1,3.1
		c1.1,2.5,3.1,4.5,5.9,5.6c-0.6,1.7-0.6,3.1,0.6,4.8c1.7,2.3,3.1,4.5,4.5,6.8c-1.1,2.3-1.1,4.8-0.6,7.1c1.1,6.5,2.5,12.7,3.7,19.2
		c1.1,5.1,2,10.4,3.1,15.5c1.4,5.6,4.8,8.2,10.4,8.8c0.6,0,1.1,0,1.7,0c8.8,0,17.5,0,26.3,0c3.1,2.3,6.5,4.8,9.6,7.1
		c3.1,2.3,6.5,4,10.4,5.1c2.5,0.8,5.1,1.1,7.9,0.3c5.6-1.7,11-3.1,16.1-5.9c1.4,0,2.5,0.3,2.5,2c0,1.4,0,2.8,0,4.2
		c-0.8,24.6-1.4,49.1-1.1,73.4c0,3.1,0.3,6.2,0.6,9.3c0,1.1,0.3,2,1.1,2.8c1.7,2.3,1.7,5.4,2,7.9c1.1,15.2,2.3,30.8,3.7,46
		c0.6,6.5,0.6,13.3,2,19.8c0,2.5,0,5.1,0.3,7.9c0.6,7.9,1.4,15.8,2,23.7c-0.3,0.6-0.6,2.3-1.4,1.1c-2.8-4-6.8-5.4-11.3-5.4
		c-10.2,0-20.3,0-30.5,0c-1.7,0-3.1,0-4.8,0.6c-4,1.1-6.2,4.2-5.4,8.2c0.6,2.8,1.1,5.9,1.7,8.8c1.7,8.8,3.4,17.5,5.1,26.3
		c1.7,7.1,4.8,9.6,12.1,9.9c0.8,0,1.7,0,2.5,0c11.3,0,22.3-0.3,33.6-0.3c0.6,0,1.4,0.3,2,0.3c0.6,9,1.4,18.1,2,27.1
		c0.6,13.8,2.3,27.7,2.5,41.2c0,1.1,0,2,0.3,3.1c0.6,7.6,1.1,15.2,2,22.9c0.6,6.2,1.4,12.1,1.7,18.3c0.3,2.3,1.1,4.2,2.5,6.2
		c-1.7,4.2-4.8,7.3-8.5,9.6c-4.5,2.8-9.6,4.5-15,5.9c-1.1,0.3-2.5,0.3-3.7,0.8c-3.1,0.8-5.6,2.5-7.1,5.6c-2.3,0-4.5,0.3-6.8,0.3
		c-198.7,0-397.4,0-596.2,0c-3.1,0-5.9-0.3-9-0.3c-1.1-0.6-2.5-1.4-3.7-2c-10.2-5.1-16.7-13.3-18.9-24.6c-2-10.4-4-20.6-5.9-31.1
		c-3.4-18.6-6.8-37.3-10.2-55.9c-6.2-34.2-12.4-68.3-18.6-102.5c-3.4-19.2-7.1-38.4-10.4-57.6c-6.2-34.7-12.7-69.4-18.9-104.2
		c-3.7-19.5-7.3-39-10.7-58.4c-4.2-22.6-8.2-45.2-12.4-67.7c0-0.3,0-0.6-0.3-1.1c-0.6-4.2-0.3-4.8,4.2-4.8c2,0,4,0,5.9,0
		c239.7,0,479.3,0,719,0C1378.6,424.3,1381.4,424.3,1384,424.3z M1108.7,540.3c13,0,26.3,0,39.2,0c1.1,0,2.5,0,3.7-0.3
		c4.5-0.8,6.8-4.2,6.2-8.8c-0.8-4.5-1.7-9-2.5-13.3c1.7-1.4,3.1-2.8,4.8-4.2c4.8-4.2,9-8.8,12.4-14.1c2.5-3.7,4.2-7.6,4.8-12.1
		c0.8-5.4-2-9.6-7.1-11.6c-2.3-0.8-4.5-1.1-6.8-1.1c-7.9-0.3-15.2,1.4-22.6,4c-5.9,2-11.6,5.1-17.2,7.9c-2,0-3.7,0-5.6,0
		c-1.7,0-3.4,0-4.8-1.1c2.3-2,4.8-4,7.1-6.2c0.6-0.6,1.1-1.1,1.7-2c0,0,0-0.3,0-0.6c-0.3-0.3-0.6-0.6-0.8-0.6
		c-1.4,0-2.3,1.1-3.1,1.7c-3.4,2.8-6.8,5.4-10.2,8.2c-1.1,0-2,0-3.1,0.3c-4.8,0.8-7.1,3.4-7.3,8.2c0,0.6,0,1.4,0,2
		c-2.5,3.1-4.8,5.9-7.1,9c-3.1,4.2-5.6,8.5-7.1,13.5c-3.1,11.6,3.1,20.3,15.2,20.9C1102,540.6,1105.4,540.3,1108.7,540.3z
		 M904.7,820.6L904.7,820.6c-5.4,0-11,0-16.4,0c-7.3,0-9.9,3.1-8.5,10.4c1.7,9.3,3.7,18.6,5.4,27.9c0.6,2.5,0.8,4.8,1.4,7.3
		c0.6,3.1,2.5,5.4,5.4,6.8c2.3,1.1,4.5,1.4,7.1,1.4c8.5,0,16.9,0,25.4,0c2.5,0,4.8,0,7.3,0c5.6,0,9-4.8,7.6-9.9
		c-2-8.5-3.4-17.2-5.1-26c-0.6-3.1-1.1-6.2-2-9.3c-1.4-5.4-4.5-7.9-10.2-8.5c-1.1,0-2.5,0-3.7,0
		C914.3,820.6,909.5,820.6,904.7,820.6z M820.5,874.2c4.8,0,9.9,0,14.7,0c1.4,0,2.8,0,4.2-0.3c4-0.6,5.9-2.8,5.9-6.8
		c0-1.1,0-2-0.3-3.1c-2-11.3-4.2-22.9-6.5-34.2c-1.1-5.4-4.5-8.5-10.2-9.3c-0.6,0-1.4-0.3-2-0.3c-10.7,0-21.7,0-32.5,0
		c-7.1,0-9.6,3.1-8.5,10.2c2,11,4,22,6.5,33c1.7,7.6,5.1,10.4,12.7,10.4c1.1,0,2,0,3.1,0C812.3,874.2,816.6,874.2,820.5,874.2z
		 M1172,739.6c-5.1,0-10.2,0-15.2,0c-1.7,0-3.4,0-5.1,0.6c-2.8,0.8-4.5,2.8-4.5,5.6c0,2,0,4.2,0.6,6.2c2,10.4,4,20.9,5.9,31.6
		c0.3,2.3,1.4,4,2.8,5.6c2.5,2.8,5.6,4,9.3,4c10.7,0,21.7,0,32.5,0c0.6,0,1.1,0,1.7,0c5.4-0.6,7.9-3.4,7.3-8.8
		c0-0.8-0.3-1.7-0.6-2.5c-1.4-6.8-2.5-13.3-4-20c-0.8-4.5-1.7-9-2.5-13.3c-1.4-5.6-4.5-8.2-10.4-8.8c-1.1,0-2.5,0-3.7,0
		C1181,739.3,1176.5,739.6,1172,739.6z M993,793.2c5.4,0,10.4,0,15.8,0c1.7,0,3.1,0,4.8-0.6c3.1-0.8,4.8-2.8,4.8-6.2
		c0-1.7-0.3-3.4-0.6-5.1c-1.4-7.3-2.8-14.4-4.2-21.7c-0.8-4-1.7-7.9-2.5-11.9c-0.8-4.5-4-6.8-8.2-7.9c-1.4-0.3-2.8-0.3-4.2-0.3
		c-10.4,0-21.2,0-31.6,0c-1.4,0-2.8,0-4.2,0.6c-3.1,0.8-4.5,2.8-4.8,6.2c0,1.7,0,3.1,0.3,4.8c2,10.4,4,20.6,5.9,31.1
		c0.3,1.1,0.6,2.3,0.8,3.7c0.8,3.7,3.4,5.9,7.1,7.1c2,0.6,3.7,0.6,5.6,0.6C983.1,793.2,988.2,793.2,993,793.2z M1038.7,540.3
		c4.8,0,9.9,0,14.7,0c1.7,0,3.1,0,4.8-0.3c3.7-0.8,5.4-2.8,5.6-6.5c0-1.7-0.3-3.1-0.6-4.8c-0.6-3.4-1.1-6.5-1.7-9.9
		c-1.4-7.6-2.8-15.2-4.2-22.6c-1.1-5.4-4.5-8.5-9.9-9.3c-0.8,0-1.7-0.3-2.5-0.3c-10.7,0-21.5,0-32.2,0c-1.4,0-2.8,0.3-4.2,0.6
		c-2.8,0.8-4.5,2.8-4.5,5.6c0,2,0.3,4,0.6,5.6c1.7,9,3.4,17.8,5.1,26.8c0.6,2.3,0.8,4.5,1.4,6.8c0.8,4,3.7,6.2,7.3,7.3
		c2,0.6,3.7,0.6,5.6,0.6C1028.9,540.3,1033.7,540.3,1038.7,540.3z M866,621.3L866,621.3c5.1,0,10.2,0,15.2,0c1.7,0,3.4,0,5.1-0.6
		c2.5-0.8,4-2.8,4.2-5.4c0-2,0-4.2-0.3-6.2c-2-9.9-4-20-5.9-29.9c-1.7-8.5-5.1-11.3-13.8-11.3c-9.9,0-19.8,0-29.6,0
		c-1.1,0-2.5,0-3.7,0c-4.5,0.6-6.8,3.4-6.8,7.9c0,0.6,0,1.1,0.3,1.7c2.3,11.3,4.2,22.3,6.5,33.6c1.7,8.2,4.8,10.4,13.3,10.7
		c1.1,0,2,0,3.1,0C858.1,621.3,862,621.3,866,621.3z M949.8,567.7L949.8,567.7c-3.1,0-5.9,0-9,0c-3.1,0-6.2,0-9.6,0.3
		c-4.5,0.6-7.3,4-6.5,8.5c2.3,11.9,4.5,23.7,6.8,35.6c0.3,1.7,1.1,3.4,2.3,4.8c2.5,3.1,5.4,4.8,9.6,4.8c11,0,21.7,0,32.7,0
		c1.1,0,2,0,3.1-0.3c4.5-1.1,6.8-4.2,5.6-9c-2.3-11.9-4.5-23.7-6.8-35.6c-0.8-4-2.8-6.2-6.5-7.6c-2-0.8-4-1.1-6.2-1.1
		C960.5,567.7,955.2,567.7,949.8,567.7z M1187.5,820.6c-1.4,0-2.8,0-4.2,0c-4.5,0-8.8,0-13.3,0c-5.9,0.3-8.5,3.7-7.6,9.3
		c0.3,2.5,0.8,4.8,1.4,7.3c1.7,9,3.4,17.8,5.1,26.8c0.3,2,0.8,3.7,2,5.4c2.5,3.1,5.6,5.1,9.9,5.1c10.7,0,21.5,0,32.2,0
		c0.6,0,1.1,0,1.7,0c5.9-0.6,8.5-4,7.3-9.9c-1.7-9.3-3.7-18.6-5.4-27.9c-0.6-2.5-0.8-4.8-1.4-7.3c-0.8-4.8-4-7.3-8.5-8.2
		c-1.4-0.3-3.1-0.3-4.8-0.3C1197.4,820.6,1192.3,820.6,1187.5,820.6z M1077.7,739.6L1077.7,739.6c-5.4,0-10.4,0-15.8,0
		c-1.4,0-2.8,0-4.2,0.3c-3.7,0.8-5.6,3.4-5.4,7.3c0,1.1,0.3,2,0.6,3.1c0.8,4.5,1.7,9.3,2.5,13.8c1.4,6.8,2.8,13.8,4,20.6
		c0.6,3.7,2.8,5.9,5.9,7.3c1.7,0.8,3.7,1.1,5.6,1.1c10.7,0,21.7,0,32.5,0c1.1,0,2,0,3.1-0.3c3.7-0.8,5.6-3.4,5.4-7.3
		c0-1.7-0.3-3.4-0.6-5.1c-2-10.2-4-20.3-5.9-30.5c-1.4-7.1-5.4-10.2-12.4-10.4C1088.1,739.3,1083.1,739.6,1077.7,739.6z
		 M1276.1,793.2c5.1,0,10.2,0,15.2,0c1.7,0,3.4,0,5.1-0.6c2.5-0.8,4.2-2.8,4.2-5.4c0-1.7,0-3.4-0.6-5.4c-2-10.2-4.2-20.3-5.6-30.5
		c-1.1-8.5-6.2-11.9-13.5-11.6c-0.3,0-0.3,0-0.6,0c-9.9,0-20,0-29.9,0c-1.4,0-2.8,0-4.2,0.3c-3.4,0.6-5.1,2.8-5.6,6.2
		c-0.3,1.7,0,3.4,0.6,5.4c2,10.4,4,20.6,5.9,31.1c0.3,1.1,0.6,2.3,0.8,3.7c1.4,4.2,4.5,6.5,8.8,7.1c1.4,0.3,2.8,0.3,4.2,0.3
		C1266.2,793.2,1271,793.2,1276.1,793.2z M898.4,792.9L898.4,792.9c5.4,0,10.7,0,16.4,0c1.7,0,3.1,0,4.8-0.6
		c3.4-1.1,5.1-3.7,4.8-7.3c0-1.1-0.3-2-0.6-3.1c-1.7-8.2-3.1-16.7-4.8-24.8c-0.6-3.4-1.1-6.5-2-9.9c-1.1-4.2-4-6.8-8.5-7.6
		c-1.1-0.3-2-0.3-3.1-0.3c-10.7,0-21.7,0-32.5,0c-7.3,0-9.9,3.1-8.5,10.4c2,11,4.2,22,6.5,33c0.3,0.8,0.3,1.7,0.6,2.5
		c1.4,4.2,4.2,6.8,8.8,7.3c1.4,0.3,2.8,0.3,4.2,0.3C889.1,792.9,893.9,792.9,898.4,792.9z M761.8,567.7L761.8,567.7
		c-5.1,0-10.2,0-15.2,0c-1.7,0-3.4,0-5.1,0.6c-2.5,0.8-4,2.5-4.2,5.4c0,2,0,4.2,0.3,6.2c0.6,3.1,1.1,6.2,1.7,9.3
		c1.4,7.6,2.8,15.2,4.5,22.6c1.1,5.4,4.8,8.5,10.2,9c1.1,0,2,0.3,3.1,0.3c9.9,0,19.8,0,29.4,0c1.7,0,3.1,0,4.8-0.6
		c4.2-0.8,5.9-3.4,5.6-7.6c0-1.1-0.3-2-0.6-3.1c-0.8-5.1-2-10.4-2.8-15.5c-1.1-5.9-2.5-11.6-3.7-17.5c-0.8-5.4-4-9.3-11.3-9.6
		c-1.1,0-2.5,0-3.7,0C770.6,567.7,766.1,567.7,761.8,567.7z M1054.5,621.3L1054.5,621.3c5.1,0,10.2,0,15.2,0c1.7,0,3.4,0,5.1-0.6
		c2.8-1.1,4.2-2.8,4.2-5.9c0-1.4-0.3-2.8-0.6-4.2c-2-10.7-4-21.5-5.9-31.9c-0.3-1.1-0.6-2.3-1.1-3.7c-1.4-4.2-4.5-6.5-8.8-7.3
		c-1.1-0.3-2-0.3-3.1-0.3c-10.4,0-20.9,0-31.6,0c-1.4,0-2.8,0-4.2,0.6c-3.1,0.8-4.5,2.8-4.8,6.2c0,1.7,0,3.1,0.3,4.8
		c2,10.7,4,21.7,6.2,32.5c1.1,5.9,4.8,9,10.7,9.6c1.4,0,2.8,0,4.2,0C1045.5,621.3,1050,621.3,1054.5,621.3z M1009.1,874.2
		c4.8,0,9.9,0,14.7,0c1.7,0,3.1,0,4.8-0.3c3.1-0.6,4.8-2.8,5.4-5.9c0.3-1.7,0-3.1-0.3-4.8c-1.1-5.1-2-10.4-2.8-15.5
		c-1.1-6.2-2.3-12.4-4-18.6c-1.4-5.6-4.5-8.2-10.4-8.8c-0.6,0-1.4,0-2,0c-10.4,0-20.6,0-31.1,0c-1.4,0-2.8,0-4.2,0.6
		c-3.1,0.8-4.8,2.8-5.1,5.9c-0.3,2,0,4.2,0.6,6.2c1.4,7.3,2.8,14.4,4.2,21.7c0.6,3.4,1.1,6.5,2,9.9c1.4,5.6,4.8,8.8,10.7,9.3
		c1.4,0.3,2.8,0,4.2,0C1000.1,874.2,1004.6,874.2,1009.1,874.2z M1217.1,486.7L1217.1,486.7c-5.1,0-10.2,0-15.2,0
		c-1.7,0-3.1,0-4.8,0.6c-3.1,0.8-4.8,2.8-4.8,5.9c0,2,0.3,4,0.6,5.6c0.6,2.8,1.1,5.9,1.7,8.8c1.4,7.6,2.8,15.2,4.2,22.9
		c1.4,6.2,4.8,9.6,10.7,9.6c11.9,0.3,24,0.3,35.8,0c4.8,0,7.3-3.4,6.8-8.2c0-1.1-0.3-2-0.6-3.1c-0.8-5.1-1.7-9.9-2.8-15
		c-1.1-5.9-2.3-12.1-3.7-18.1c-1.4-5.9-4.8-8.8-10.7-9c-1.1,0-2.5,0-3.7,0C1226.2,486.7,1221.7,486.7,1217.1,486.7z M804.7,793.2
		c5.1,0,10.2,0,15.2,0c1.7,0,3.1,0,4.8-0.6c3.1-0.8,4.8-2.8,5.1-5.9c0.3-2,0-4.2-0.6-6.2c-1.7-8.5-3.1-16.9-4.8-25.4
		c-0.6-2.5-0.8-4.8-1.4-7.3c-1.1-4.5-4.2-7.1-8.8-8.2c-1.4-0.3-2.8-0.3-4.2-0.3c-10.4,0-20.6,0-31.1,0c-7.6,0-9.9,3.1-8.5,10.7
		c1.7,8.5,3.1,16.9,4.8,25.4c0.6,2.8,1.1,5.9,2,8.8c1.4,5.6,4.5,8.2,10.4,8.8c1.1,0,2.5,0,3.7,0
		C795.4,793.2,800.2,793.2,804.7,793.2z M1093.2,820.6c-5.1,0-10.2,0-15.2,0c-1.4,0-2.8,0-4.2,0.3c-3.4,0.6-5.6,3.1-5.6,6.5
		c0,1.1,0.3,2.5,0.3,3.7c1.4,7.3,2.8,15,4.2,22.3c0.8,4.2,1.7,8.5,2.8,13c0.8,3.4,2.8,5.6,5.9,6.8c2,0.8,4,1.1,6.2,1.1
		c10.4,0,21.2,0,31.6,0c1.7,0,3.1,0,4.8-0.6c2.5-0.8,4.2-2.8,4.2-5.4c0-2,0-4-0.3-5.6c-2-10.4-4.2-20.9-5.9-31.6
		c-1.1-5.9-5.6-10.7-12.4-10.2C1103.7,820.9,1098.3,820.6,1093.2,820.6z M1138.4,567.7L1138.4,567.7c-5.4,0-10.4,0-15.8,0
		c-1.7,0-3.1,0-4.8,0.6c-2.8,0.8-4.5,2.8-4.5,5.6c0,1.1,0.3,2.5,0.3,3.7c1.4,7.1,2.5,14.1,4,21.2c0.8,4.5,1.7,9.3,2.8,13.8
		c0.8,5.1,4.5,7.3,9,8.5c1.1,0.3,2.5,0.3,3.7,0.3c10.2,0,20.3,0,30.5,0c1.4,0,2.8,0,4.2-0.3c3.4-0.8,5.1-2.8,5.1-6.2
		c0-1.7,0-3.4-0.3-5.4c-2-11-4-21.7-6.2-32.5c-0.3-1.7-1.1-3.4-2.3-4.8c-2.3-2.8-5.4-4.5-9-4.5
		C1149.7,567.7,1144,567.7,1138.4,567.7z M1326.9,567.7c-5.1,0-10.2,0-15.2,0c-1.7,0-3.1,0-4.8,0.3c-3.4,0.8-5.1,2.8-5.1,6.2
		c0,1.7,0.3,3.1,0.6,4.8c2,9.9,4,20,5.9,29.9c0.3,2,0.8,3.7,1.4,5.6c1.4,3.4,3.7,5.4,7.3,6.2c1.1,0.3,2.5,0.3,3.7,0.3
		c10.7,0,21.5,0,32.2,0c1.7,0,3.4-0.3,5.1-0.8c2.3-0.8,3.7-2.5,4-5.1c0-1.7,0-3.4-0.3-5.4c-1.1-5.6-2-11.3-3.1-17.2
		c-1.1-5.6-2-11-3.4-16.7c-1.1-5.4-4.5-7.9-9.9-8.8c-1.4-0.3-2.8,0-4.2,0C1336.3,567.7,1331.5,567.7,1326.9,567.7z M1232.7,567.7
		L1232.7,567.7c-3.4,0-6.8,0-9.9,0c-2.5,0-4.8,0-7.3,0c-5.9,0.3-8.5,3.7-7.3,9.6c0.6,4,1.4,7.9,2.3,11.9c1.4,7.6,2.8,15.2,4.5,22.9
		c1.1,5.4,4.8,8.5,10.2,9.3c1.1,0,2,0.3,3.1,0.3c9.9,0,20,0,29.9,0c1.4,0,2.8,0,4.2-0.3c4.2-1.1,6.5-4.2,5.6-8.5
		c-2.3-12.1-4.8-24-7.1-36.1c-0.8-4-3.1-6.2-6.5-7.6c-2-0.8-3.7-0.8-5.6-0.8C1243.1,567.7,1238,567.7,1232.7,567.7z M1281.2,820.6
		L1281.2,820.6c-5.1,0-10.2,0-15.2,0c-1.7,0-3.4,0-5.1,0.6c-2.5,0.8-4.2,2.8-4.2,5.4c0,1.7,0,3.4,0.6,5.4c2,10.4,4,20.6,5.9,31.1
		c0.3,1.1,0.6,2.5,0.8,3.7c1.1,3.7,3.7,5.9,7.1,7.1c1.1,0.3,2.5,0.6,3.7,0.6c11.3,0,22.6,0,33.6,0c0.8,0,1.7-0.3,2.5-0.3
		c4-0.8,5.6-3.1,5.6-7.1c0-1.4-0.3-2.8-0.6-4.2c-2-9.9-3.7-19.8-5.6-29.4c-0.3-1.4-0.6-3.1-1.1-4.5c-1.4-4.8-4.8-7.3-9.6-7.6
		c-1.4,0-2.8,0-4.2,0C1290.8,820.6,1286,820.6,1281.2,820.6z M788.4,706.8L788.4,706.8c4.8,0,9.9,0,14.7,0c1.7,0,3.1,0,4.8,0
		c3.7-0.3,5.9-3.1,5.9-6.8c0-0.6-0.3-1.4-0.3-2c-2.3-11.6-4.5-23.1-6.8-34.7c-1.1-5.9-4.5-9-10.4-9c-11.9,0-24,0-35.8,0
		c-5.4,0-7.6,3.1-6.8,8.8c0.3,2.5,0.8,4.8,1.4,7.3c1.7,8.8,3.4,17.5,5.1,26.3c0,0.3,0,0.6,0.3,1.1c1.4,6.5,4.5,9.3,11.3,9.3
		C777.1,706.8,782.7,706.8,788.4,706.8z M1155.9,654.1c-5.4,0-10.4,0-15.8,0c-1.1,0-2.5,0-3.7,0c-4,0.3-5.9,2.5-6.2,6.5
		c0,1.7,0.3,3.4,0.6,5.1c1.7,9.6,3.7,19.2,5.6,29.1c0.3,2,0.8,3.7,1.4,5.6c1.4,4,4.2,5.9,8.5,6.2c0.6,0,1.4,0,2,0c11,0,22,0,33.3,0
		c1.1,0,2.5,0,3.7-0.3c2.8-0.6,4.8-2.5,5.1-5.4c0-1.4,0-3.1-0.3-4.8c-2-11-4-21.7-6.2-32.5c-0.3-1.7-0.8-3.4-1.7-5.1
		c-1.1-2.5-3.4-4-5.9-4.5c-1.4-0.3-2.8-0.3-4.2-0.3C1166.3,654.1,1161,654.1,1155.9,654.1z M1060.5,654.1L1060.5,654.1
		c-5.1,0-10.2,0-15.2,0c-1.7,0-3.1,0-4.8,0.3c-2.8,0.6-5.1,2.8-5.1,5.9c0,0.6,0.3,1.4,0.3,2c2.3,11.9,4.5,23.7,6.8,35.6
		c1.1,6.2,4.2,8.5,10.7,8.8c0.6,0,1.4,0,2,0c10.4,0,20.6,0,31.1,0c1.1,0,2,0,3.1,0c4.2-0.3,6.5-3.1,6.2-7.3c0-1.1-0.3-2-0.6-3.1
		c-1.4-6.5-2.5-13-4-19.8c-0.6-3.4-1.1-6.5-1.7-9.9c-0.3-1.7-0.6-3.4-1.1-5.1c-1.4-4.8-4.8-7.3-9.6-7.3
		C1072.9,654.1,1066.7,654.1,1060.5,654.1z M967.3,654.1L967.3,654.1c-6.2,0-12.1,0-18.3,0c-4.8,0-8.2,3.1-7.3,8.5
		c2.3,12.1,4.5,24,7.1,36.1c0.8,4.5,4.5,7.6,9,8.2c0.8,0,1.7,0,2.5,0c10.7,0,21.5,0,32.2,0c1.1,0,2.5,0,3.7-0.3
		c3.4-0.6,4.8-2,5.1-5.6c0.3-2.3,0-4.5-0.6-6.8c-2-9.9-4-20-5.9-29.9c-0.3-1.1-0.6-2.5-0.8-3.7c-1.4-4-4-5.9-8.2-6.5
		c-1.4-0.3-2.8,0-4.2,0C977.2,654.1,972.1,654.1,967.3,654.1z M1258.9,706.8L1258.9,706.8c5.4,0,10.4,0,15.8,0c1.4,0,2.8,0,4.2-0.3
		c4-0.6,5.6-3.1,5.6-7.1c0-1.1-0.3-2-0.6-3.1c-0.6-3.7-1.4-7.6-2-11.3c-1.4-7.3-2.8-14.7-4.5-22.3c-1.4-6.2-4.5-8.8-10.4-9
		c-0.6,0-1.1,0-1.7,0c-10.7,0-21.5,0-32.2,0c-1.1,0-2,0-3.1,0c-3.4,0.3-5.6,2.8-5.9,6.2c0,1.1,0,2,0.3,3.1c0.6,2.8,1.1,5.6,1.7,8.2
		c1.7,8.5,3.1,17.2,5.1,25.7c1.4,6.5,4.8,9,11.6,9.3C1247.9,706.8,1253.3,706.8,1258.9,706.8z M882.4,706.8c5.4,0,10.4,0,15.8,0
		c1.4,0,2.8,0,4.2-0.3c3.1-0.6,5.1-2.5,5.1-5.6c0-1.1,0-2.3,0-3.1c-2.3-11.6-4.2-23.1-6.8-34.4c-1.4-6.5-4.8-9-11.6-9
		c-10.7,0-21.5,0-32.2,0c-1.1,0-2.5,0-3.7,0.3c-3.4,0.6-5.4,2.5-5.6,5.9c0,1.7,0,3.4,0.3,5.1c2,10.2,4,20.3,5.9,30.5
		c0.3,1.4,0.8,3.1,1.1,4.5c1.4,4,4,5.9,8.2,6.2c1.1,0,2.5,0,3.7,0C872.2,706.8,877.3,706.8,882.4,706.8z M1353.2,706.8L1353.2,706.8
		c5.4,0,10.7,0,16.4,0c1.4,0,2.8,0,4.2-0.3c3.1-0.6,5.1-2.8,5.1-5.9c0-1.1-0.3-2.5-0.6-3.7c-1.1-6.8-2.5-13.5-3.7-20
		c-0.8-5.1-2-9.9-3.1-15c-1.4-5.1-4.5-7.6-9.9-7.9c-0.6,0-1.1,0-1.7,0c-10.7,0-21.7,0-32.5,0c-1.4,0-2.8,0-4.2,0.3
		c-2.8,0.6-4.2,2.3-4.2,5.1c0,1.7,0,3.7,0.3,5.4c2,11,4,22,6.5,33c1.4,6.5,4.5,9,11,9C1341.9,706.8,1347.5,706.8,1353.2,706.8z
		 M813.5,488.6c-14.7,0-29.1,0-43.8,0c-1.7,0-3.1,0-4.8,0.3c-0.8,0-1.7,0.6-2.3,0.8c-1.1,0.6-1.1,2.5,0,3.1c0.8,0.6,1.7,0.8,2.5,0.8
		c1.7,0.3,3.1,0.3,4.8,0.3c29.1,0,58.1,0,87.2,0c1.4,0,2.8,0,4.2,0c0.6,0,1.4-0.3,2-0.6c0.8-0.3,1.4-0.8,1.7-2c0-1.1-0.6-2-1.7-2.3
		c-2-0.8-3.7-0.6-5.6-0.6C842.8,488.6,828.2,488.6,813.5,488.6z M816.3,501.3c-12.1,0-24.6,0-36.7,0c-3.4,0-6.8,0-9.9,0
		c-1.1,0-2.5,0-3.7,0.6c-1.1,0.6-1.4,2.3-0.6,3.1c0.6,0.6,1.4,1.1,2.3,1.1c1.7,0,3.4,0.3,5.4,0.3c28.8,0,57.6,0,86.4,0
		c1.7,0,3.1,0,4.8,0c1.1,0,2-0.3,2.8-1.1c0.8-0.6,1.1-1.4,0.8-2.3c-0.3-0.6-0.8-1.4-1.4-1.4c-1.7-0.3-3.4-0.3-5.1-0.3
		C846.2,501.3,831.3,501.3,816.3,501.3z M741.5,508.7c2.5,0,4.8,0,7.3,0c2.8-0.3,4-1.4,3.4-4c-0.8-4.8-1.7-9.6-2.8-14.4
		c-0.6-2.3-2-3.7-4.5-3.7c-4.8,0-9.9-0.3-14.7,0c-2.8,0-4,1.4-3.7,4c0.8,4.8,1.7,9.6,2.8,14.4c0.6,2.5,2.5,3.7,5.1,4
		C736.7,508.7,739,508.7,741.5,508.7z"/>
	<path class="st15" d="M1326.1,303.2c0.6-9.9,5.1-17.2,13.8-22c12.1-6.8,27.7-2,34.4,10.2c6.5,11.6,2.8,24-4.5,30.8
		c-1.1,1.1-2.3,1.7-3.7,1.1c-0.3-3.1-0.8-5.9-2.3-8.5c-3.4-7.1-9.3-10.7-16.9-11.3c-4-0.3-7.9,0-12.1,0
		C1332,303.2,1329.2,303.2,1326.1,303.2z"/>
	<path class="st15" d="M1211.2,302.9c0.8-4.5,1.7-9,4.2-13c5.9-9.3,16.9-14.1,27.7-11.6c11.3,2.8,18.9,11.6,19.8,22.9
		c0,0.6,0,1.1,0,1.7c-15.5,0-31.3,0-46.9,0C1214.3,303.2,1212.9,303.2,1211.2,302.9z"/>
	<path class="st5" d="M617.9,934.4c-13.3,0-26.3-0.3-39.5,0.3c-9.3,0.3-16.4-4-21.7-10.7c-4.8-5.9-7.6-12.4-7.3-20.3
		c0.3-3.7,0.3-7.3,0.8-11c1.7-11.9,3.1-24,4.8-36.1c1.1-9,2.3-18.1,3.7-27.1c1.4-9.9,2.5-19.8,4-29.6c1.4-11.6,3.1-22.9,4.5-34.4
		c1.4-9.9,2.5-19.8,4-29.6c1.1-9,2.3-18.1,3.7-27.1c1.4-9.9,2.5-19.8,4-29.6c1.4-11.6,3.1-23.4,4.5-35c1.4-9.6,2.5-19.5,3.7-29.4
		c0.8-6.5,1.7-13,2.5-19.2c1.1-9.9,2.5-19.5,3.7-29.4c1.4-11.6,3.1-23.4,4.5-35c1.4-9.6,2.5-19.5,3.7-29.4c0.8-6.5,1.7-13,2.5-19.2
		c1.1-9.9,2.5-19.5,3.7-29.4c0.8-6.5,1.7-13,2.5-19.2c1.1-9.9,2.5-19.5,3.7-29.4c0.8-6.2,1.7-12.4,2.5-18.9c1.4-9.9,2.5-19.8,4-29.6
		c0.8-6.2,1.7-12.4,2.5-18.9c0.6-4,1.1-7.9,1.7-11.9c1.7,4.5,1.1,9,0.6,13.5c-0.3,3.1-0.8,6.2-0.6,9.3c0,2.8,0,5.6-0.6,8.5
		c-0.3,1.1-0.3,2-0.3,3.1c0,5.4,0.3,10.4-1.1,15.8c0.6,8.8-1.4,17.2-1.1,25.7c0,2.5,0,5.4-0.6,7.9c-0.3,1.1-0.3,2-0.3,3.1
		c0,5.9-0.3,11.9-0.8,17.8c-0.6,6.2-0.6,12.1-1.1,18.3c-0.6,5.6,0.3,11.3-1.1,16.7c0.6,8.8-1.1,17.5-1.1,26.3c0,7.3-0.8,14.7-1.1,22
		c-0.3,5.1-0.6,10.2-0.8,15.2c-0.6,6.8-0.6,13.5-1.1,20.3c-0.6,5.4-0.8,10.4-0.8,15.8c0,1.7-0.3,3.1-0.6,4.8
		c-0.3,1.4-0.6,2.8-0.6,4.2c-0.3,5.6,0.3,11.3-1.1,16.7c0.6,8.8-1.4,17.2-1.1,25.7c0,2.5,0,5.4-0.6,7.9c-0.3,0.6-0.3,1.4-0.3,2
		c0.3,8.5-1.4,16.7-1.1,25.1c0,3.1,0,5.9-0.6,9c-0.3,1.1-0.3,2-0.3,3.1c0,5.9-0.3,11.9-0.8,17.8c-0.6,5.6,0.3,11.3-1.1,16.7
		c0.6,8.8-1.4,17.2-1.1,25.7c0,2.5,0,5.4-0.6,7.9c-0.3,0.6-0.3,1.4-0.3,2c0.3,8.5-1.4,16.7-1.1,25.1c0,3.1,0,5.9-0.6,9
		c-0.3,1.1-0.3,2-0.3,3.1c0,5.9-0.3,11.9-0.8,17.8c-0.6,5.6,0.3,11.3-1.1,16.7c0.6,8.8-1.1,17.5-1.1,26.3c0,7.3-0.8,14.7-1.1,22
		c-0.3,5.1-0.6,10.2-0.8,15.2c-0.6,6.8-1.1,13.5-1.1,20.6c0,0.6,0,1.1-0.3,1.7c-2.8,16.7,7.1,34.2,20.6,40.4
		C614.8,932.1,616.4,933,617.9,934.4z"/>
	<path class="st16" d="M550.4,697c-0.6,0.6-1.4,1.4-2,0c-1.4-6.2-2.3-12.4-2.3-18.6c0-1.4,0-2.8,0-4.2c0-0.3,0.3-0.6,0.3-1.1
		c2-0.3,3.7-1.7,5.4-2.5c1.7-1.1,2-0.8,3.1,1.7c-1.1,6.5-2.5,13.3-3.7,19.8C550.7,693.6,550.4,695.3,550.4,697z"/>
	<path class="st17" d="M523,837.3c-0.8-1.1-1.1-2.5-1.4-3.7c-0.3-1.4,0-1.7,2.5-2.3C523.6,833.3,523.3,835.3,523,837.3z"/>
	<path class="st0" d="M1403.2,912.3c-1.4-1.7-2.3-3.7-2.5-6.2c-0.6-6.2-1.1-12.1-1.7-18.3c-0.6-7.6-1.4-15.2-2-22.9
		c0-1.1-0.3-2-0.3-3.1c0-13.8-1.7-27.7-2.5-41.2c-0.6-9-1.4-18.1-2-27.1c-0.6-5.1-1.1-10.2-1.1-15.2c0-0.6,0-1.4-0.3-2
		c-0.6-2.5-0.6-5.1-0.6-7.9c0-1.7,0-3.1-0.3-4.8c-0.8-4.2-0.8-8.8-0.8-13c0-2.3,0.3-4.5-0.8-6.8c-0.6-7.9-1.4-15.8-2-23.7
		c-0.3-2.5-0.3-5.1-0.3-7.9c0.3,0.3,0.6,0.8,0.8,1.1c11,16.9,21.7,33.9,32.7,50.8c4.2,6.5,8.2,13,12.4,19.5
		c3.7,5.9,7.6,11.9,11.3,17.8c0.8,1.1,1.1,2.5,3.1,3.1c0.6-1.7,1.1-3.1,1.7-4.8c0.6,3.7-0.6,7.3-0.8,11c-0.8,10.7-2.3,21.2-4,31.9
		c-2.3,15.5-5.6,31.1-9,46.6c-1.7,7.6-4,15-5.9,22.3c-0.6,2-1.1,3.7-3.4,4.2c-2.3,0-4.5,0-6.8,0.3c-4,0-7.9-0.6-11.6-2
		C1405.4,912.9,1404.3,912.6,1403.2,912.3z"/>
	<path class="st14" d="M1450.3,777.1c-0.6,7.9,1.1,15.8,2.5,23.4c3.7,19.5,7.3,39,10.7,58.4c2.3,11.6,4.2,23.1,6.2,34.7
		c0.8,5.6,1.1,11.3-0.6,16.7c-2.5,9.3-8.2,16.1-16.4,21.2c-1.1,0.6-2.3,0.8-3.1,2c0.8,1.4,2.3,0.8,3.4,0.8c10.4,0,20.6,0,31.1,0
		c5.4,0,11,0,16.4,0c2.8,0,5.1-0.6,6.8-3.1c0,0.6-0.3,1.4-0.3,2c-0.3,0.8-0.8,1.7-1.7,1.7c-1.1,0-2.5,0.3-3.7,0.3c-24,0-48,0-72,0
		c-5.6,0-5.6,0-4.8-5.6c0.8-4.8,0.3-9.3,0.3-14.1c2.3-0.3,3.1-2.3,3.4-4.2c2-7.6,4-15,5.9-22.3c3.7-15.2,6.8-30.8,9-46.6
		c1.7-10.7,3.1-21.2,4-31.9c0.3-3.7,1.4-7.3,0.8-11c0.6-7.3,1.4-14.7,1.4-22C1449.7,777.4,1450,777.4,1450.3,777.1z"/>
	<path class="st2" d="M1449.4,777.7c0.3,7.3-0.6,14.7-1.4,22c-0.6,1.7-1.1,3.1-1.7,4.8c-1.7-0.3-2.3-2-3.1-3.1
		c-4-5.9-7.6-11.9-11.3-17.8c-4.2-6.5-8.2-13-12.4-19.5c-11-16.9-21.7-33.9-32.7-50.8c-0.3-0.6-0.6-0.8-0.8-1.1
		c-1.4-6.5-1.4-13.3-2-19.8c-1.4-15.2-2.3-30.5-3.7-46c-0.3-2.8-0.3-5.6-2-7.9c3.4,0.8,6.8,1.1,10.4,1.1c2.3,0,4.5-0.3,6.5,0.8
		c-1.4,0.6-1.7,1.7-1.1,3.1c1.1,2.8,2,5.6,3.1,8.5c6.5,15.2,12.7,30.5,19.2,45.4c3.1,7.3,6.2,14.4,9.6,21.7
		c4,8.8,7.9,17.5,11.9,26.5c2.5,5.9,5.4,11.9,8.2,17.5c2,4,3.4,7.9,3.1,12.7C1449.2,776.3,1449.4,776.9,1449.4,777.7z"/>
	<path class="st18" d="M1294.5,474.8c4.8,3.1,9.6,6.2,14.4,9.3c1.4,0.8,2.8,1.7,4.5,2.5c8.5,6.2,17.5,11.9,26.5,17.5
		c0.3,0.3,0.6,0.3,0.8,0.3c4,3.4,8.5,5.6,12.7,8.5c1.7,1.1,3.4,0.8,4.8-0.3c2.5-1.7,4.8-3.4,7.1-5.4c4-3.4,7.6-7.1,11.6-10.7
		c1.4-1.4,3.1-2.8,4.8-4.2c1.1,1.4,1.1,2.8,1.1,4.5c-0.8,7.1-1.7,13.8-2.5,20.9c-0.3,1.7-0.3,3.1-0.3,4.8c0,2.5,0,5.4-0.6,7.9
		c-0.6,3.1-0.6,6.2-0.3,9.3c0,2.8-0.8,5.1-3.1,6.8c-5.1,2.8-10.7,4.2-16.1,5.9c-2.5,0.8-5.1,0.6-7.9-0.3c-3.7-1.1-7.1-2.8-10.4-5.1
		c-3.4-2.3-6.5-4.8-9.6-7.1c-0.3-0.3-0.3-0.6-0.6-0.8c-12.1-11-22.9-23.1-33-36.1c-3.7-4.5-7.1-9-10.7-13.5
		c-1.4-2.3-2.8-4.5-4.5-6.8c-1.1-1.7-1.1-3.1-0.6-4.8C1285.7,475.4,1290,474.5,1294.5,474.8z"/>
	<path class="st19" d="M1474.3,565.7c0,2.5,0,5.4,0,7.9c0,0.6-1.1,1.1-1.7,0.8c-2-1.4-3.7-3.4-5.1-5.4c-6.5-9-11-18.6-12.1-29.9
		c0-1.1-0.6-2.5-0.6-3.7c-0.3-1.4-0.3-2.8,0.3-4.2c0.3-0.6,0.6-1.4,1.4-1.4c0.6,0,1.1,0.3,1.4,0.6c0.6,0.8,1.1,1.7,1.7,2.5
		c4.2,6.5,8.5,13,12.7,19.5c1.7,2.3,2.5,4.5,2.3,7.3C1474.6,562,1474.6,564,1474.3,565.7C1474.6,565.7,1474.6,565.7,1474.3,565.7z"
		/>
	<path class="st9" d="M1411.6,448.8c0.6-0.3,0.8-0.6,1.4-0.8C1412.5,448,1411.9,448.3,1411.6,448.8z"/>
	<path class="st20" d="M1416.7,431.6c0-2,0-4.2-0.3-6.2c1.1-0.8,2.5-1.1,4-1.1c4.5,0,9,0,13.5-1.7c0.3,0,0.8,0,0.8,0.3
		c0.6,0.3,0.3,0.8,0,1.4c-3.7,4.5-8.5,7.3-13.5,9.6C1419.2,434.7,1419,434.4,1416.7,431.6z"/>
	<path class="st4" d="M317.5,529.6c-0.3,0-0.6,0-0.8,0c-0.6,0-0.6-0.3-0.3-0.6c0,0,0.3,0,0.6,0C317,529.3,317.2,529.6,317.5,529.6
		C317.5,529.9,317.5,529.6,317.5,529.6z"/>
	<path class="st13" d="M546.2,674.1c0,1.4,0,2.8,0,4.2C545.3,676.9,545.3,675.5,546.2,674.1z"/>
	<path class="st21" d="M904.7,820.6c4.8,0,9.6,0,14.1,0c1.1,0,2.5,0,3.7,0c5.4,0.6,8.8,3.1,10.2,8.5c0.8,3.1,1.4,6.2,2,9.3
		c1.7,8.8,2.8,17.2,5.1,26c1.4,5.4-2.3,9.9-7.6,9.9c-2.5,0-4.8,0-7.3,0c-8.5,0-16.9,0-25.4,0c-2.5,0-4.8-0.3-7.1-1.4
		c-2.8-1.4-4.8-3.7-5.4-6.8c-0.6-2.5-0.8-4.8-1.4-7.3c-1.7-9.3-3.7-18.6-5.4-27.9c-1.4-7.3,0.8-10.2,8.5-10.4
		C893.9,820.6,899.3,820.6,904.7,820.6L904.7,820.6z"/>
	<path class="st21" d="M820.5,874.2c-4.2,0-8.5,0-12.7,0c-1.1,0-2,0-3.1,0c-7.6-0.3-11.3-2.8-12.7-10.4c-2.3-11-4.5-22-6.5-33
		c-1.1-7.1,1.4-9.9,8.5-10.2c10.7,0,21.7,0,32.5,0c0.6,0,1.4,0,2,0.3c5.6,0.8,9,4,10.2,9.3c2.3,11.3,4.2,22.6,6.5,34.2
		c0.3,1.1,0.3,2,0.3,3.1c0,4-2,6.2-5.9,6.8c-1.4,0.3-2.8,0.3-4.2,0.3C830.4,874.2,825.6,874.2,820.5,874.2z"/>
	<path class="st21" d="M1172,739.6c4.5,0,9,0,13.5,0c1.1,0,2.5,0,3.7,0c5.9,0.6,9,2.8,10.4,8.8c1.1,4.5,1.7,9,2.5,13.3
		c1.4,6.8,2.5,13.3,4,20c0.3,0.8,0.3,1.7,0.6,2.5c0.6,5.4-2,8.5-7.3,8.8c-0.6,0-1.1,0-1.7,0c-10.7,0-21.7,0-32.5,0
		c-3.7,0-6.8-1.1-9.3-4c-1.4-1.7-2.3-3.4-2.8-5.6c-2-10.4-4-20.9-5.9-31.6c-0.3-2-0.6-4.2-0.6-6.2c0-3.1,1.7-4.8,4.5-5.6
		c1.7-0.6,3.4-0.6,5.1-0.6C1161.8,739.6,1166.9,739.6,1172,739.6z"/>
	<path class="st21" d="M993,793.2c-4.8,0-9.9,0-14.7,0c-2,0-4,0-5.6-0.6c-3.7-1.1-6.2-3.4-7.1-7.1c-0.3-1.1-0.6-2.3-0.8-3.7
		c-2-10.4-4-20.6-5.9-31.1c-0.3-1.4-0.6-3.1-0.3-4.8c0-3.4,1.7-5.4,4.8-6.2c1.4-0.3,2.8-0.6,4.2-0.6c10.4,0,21.2,0,31.6,0
		c1.4,0,2.8,0,4.2,0.3c4.2,0.8,7.3,3.4,8.2,7.9c0.8,4,1.7,7.9,2.5,11.9c1.4,7.3,2.8,14.4,4.2,21.7c0.3,1.7,0.6,3.4,0.6,5.1
		c0,3.4-1.7,5.4-4.8,6.2c-1.4,0.3-3.1,0.6-4.8,0.6C1003.5,793.2,998.4,793.2,993,793.2z"/>
	<path class="st21" d="M1038.7,540.3c-4.8,0-9.9,0-14.7,0c-2,0-4,0-5.6-0.6c-3.7-1.1-6.5-3.4-7.3-7.3c-0.6-2.3-1.1-4.5-1.4-6.8
		c-1.7-9-3.4-17.8-5.1-26.8c-0.3-2-0.6-3.7-0.6-5.6c0-3.1,1.7-4.8,4.5-5.6c1.4-0.3,2.8-0.6,4.2-0.6c10.7,0,21.5,0,32.2,0
		c0.8,0,1.7,0,2.5,0.3c5.4,0.8,8.8,4,9.9,9.3c1.4,7.6,2.8,15.2,4.2,22.6c0.6,3.4,1.1,6.5,1.7,9.9c0.3,1.4,0.6,3.1,0.6,4.8
		c0,3.7-2,5.9-5.6,6.5c-1.4,0.3-3.1,0.3-4.8,0.3C1048.3,540.3,1043.5,540.3,1038.7,540.3z"/>
	<path class="st21" d="M866,621.3c-4,0-8.2,0-12.1,0c-1.1,0-2,0-3.1,0c-8.5-0.3-11.6-2.5-13.3-10.7c-2.3-11.3-4.5-22.3-6.5-33.6
		c0-0.6-0.3-1.1-0.3-1.7c-0.3-4.5,2.3-7.3,6.8-7.9c1.1,0,2.5,0,3.7,0c9.9,0,19.8,0,29.6,0c8.8,0,12.1,2.8,13.8,11.3
		c2,9.9,4,20,5.9,29.9c0.3,2,0.6,4.2,0.3,6.2c-0.3,2.8-1.7,4.5-4.2,5.4c-1.7,0.6-3.4,0.6-5.1,0.6C876.1,621.3,871.1,621.3,866,621.3
		L866,621.3z"/>
	<path class="st21" d="M949.8,567.7c5.4,0,10.4,0,15.8,0c2,0,4.2,0.3,6.2,1.1c3.4,1.4,5.6,4,6.5,7.6c2.3,11.9,4.5,23.7,6.8,35.6
		c0.8,4.5-1.1,7.9-5.6,9c-1.1,0.3-2,0.3-3.1,0.3c-11,0-21.7,0-32.7,0c-4,0-7.1-1.7-9.6-4.8c-1.1-1.4-1.7-3.1-2.3-4.8
		c-2.3-11.9-4.5-23.7-6.8-35.6c-0.8-4.5,2-7.9,6.5-8.5c3.1-0.3,6.2,0,9.6-0.3C943.9,567.7,947,567.7,949.8,567.7L949.8,567.7z"/>
	<path class="st21" d="M1187.5,820.6c4.8,0,9.9,0,14.7,0c1.7,0,3.1,0,4.8,0.3c4.5,0.8,7.6,3.4,8.5,8.2c0.6,2.5,0.8,4.8,1.4,7.3
		c1.7,9.3,3.7,18.6,5.4,27.9c1.1,5.9-1.4,9.3-7.3,9.9c-0.6,0-1.1,0-1.7,0c-10.7,0-21.5,0-32.2,0c-4.2,0-7.3-1.7-9.9-5.1
		c-1.1-1.7-1.7-3.4-2-5.4c-1.7-9-3.4-17.8-5.1-26.8c-0.6-2.5-0.8-4.8-1.4-7.3c-0.8-5.6,2-9,7.6-9.3c4.5-0.3,8.8,0,13.3,0
		C1184.7,820.6,1186.1,820.6,1187.5,820.6z"/>
	<path class="st21" d="M1077.7,739.6c5.4,0,10.4,0,15.8,0c7.1,0,11,3.4,12.4,10.4c2,10.2,4,20.3,5.9,30.5c0.3,1.7,0.6,3.4,0.6,5.1
		c0,4-1.7,6.2-5.4,7.3c-1.1,0.3-2,0.3-3.1,0.3c-10.7,0-21.7,0-32.5,0c-2,0-4-0.3-5.6-1.1c-3.4-1.4-5.4-3.7-5.9-7.3
		c-1.4-6.8-2.8-13.8-4-20.6c-0.8-4.5-1.7-9.3-2.5-13.8c-0.3-1.1-0.6-2-0.6-3.1c-0.3-3.7,1.7-6.5,5.4-7.3c1.4-0.3,2.8-0.3,4.2-0.3
		C1067.2,739.3,1072.3,739.6,1077.7,739.6L1077.7,739.6z"/>
	<path class="st5" d="M1276.1,793.2c-4.8,0-9.9,0-14.7,0c-1.4,0-2.8,0-4.2-0.3c-4.5-0.6-7.3-2.8-8.8-7.1c-0.3-1.1-0.8-2.3-0.8-3.7
		c-2-10.4-4-20.6-5.9-31.1c-0.3-1.7-0.6-3.4-0.6-5.4c0.3-3.4,2.3-5.6,5.6-6.2c1.4-0.3,2.8-0.3,4.2-0.3c9.9,0,20,0,29.9,0
		c0.3,0,0.3,0,0.6,0c7.3-0.3,12.1,3.4,13.5,11.6c1.4,10.2,4,20.3,5.6,30.5c0.3,1.7,0.6,3.4,0.6,5.4c0,2.8-1.7,4.5-4.2,5.4
		c-1.7,0.6-3.4,0.6-5.1,0.6C1286.3,793.2,1281.2,793.2,1276.1,793.2z"/>
	<path class="st8" d="M898.4,792.9c-4.8,0-9.6,0-14.1,0c-1.4,0-2.8,0-4.2-0.3c-4.5-0.6-7.3-3.1-8.8-7.3c-0.3-0.8-0.6-1.7-0.6-2.5
		c-2.3-11-4.2-22-6.5-33c-1.4-7.3,1.1-10.2,8.5-10.4c10.7,0,21.7,0,32.5,0c1.1,0,2.3,0,3.1,0.3c4.2,0.8,7.3,3.4,8.5,7.6
		c0.8,3.1,1.4,6.5,2,9.9c1.7,8.2,3.1,16.7,4.8,24.8c0.3,1.1,0.6,2,0.6,3.1c0.3,3.4-1.4,6.2-4.8,7.3c-1.4,0.6-3.1,0.6-4.8,0.6
		C909.5,792.9,904.1,792.9,898.4,792.9L898.4,792.9z"/>
	<path class="st21" d="M761.8,567.7c4.5,0,8.8,0,13.3,0c1.1,0,2.5,0,3.7,0c7.3,0.3,10.4,4.2,11.3,9.6c1.1,5.9,2.3,11.6,3.7,17.5
		c1.1,5.1,2,10.4,2.8,15.5c0.3,1.1,0.6,2,0.6,3.1c0.3,4.2-1.4,6.5-5.6,7.6c-1.4,0.3-3.1,0.6-4.8,0.6c-9.9,0-19.8,0-29.4,0
		c-1.1,0-2,0-3.1-0.3c-5.6-0.6-9-3.7-10.2-9c-1.7-7.6-3.1-15.2-4.5-22.6c-0.6-3.1-1.1-6.2-1.7-9.3c-0.3-2-0.6-4.2-0.3-6.2
		c0.3-2.8,1.7-4.5,4.2-5.4c1.7-0.6,3.4-0.6,5.1-0.6C751.7,567.7,756.7,567.7,761.8,567.7L761.8,567.7z"/>
	<path class="st21" d="M1054.5,621.3c-4.5,0-9,0-13.5,0c-1.4,0-2.8,0-4.2,0c-5.9-0.6-9.6-3.7-10.7-9.6c-2-10.7-4.2-21.7-6.2-32.5
		c-0.3-1.4-0.6-3.1-0.3-4.8c0-3.4,1.7-5.4,4.8-6.2c1.4-0.3,2.8-0.6,4.2-0.6c10.4,0,20.9,0,31.6,0c1.1,0,2,0,3.1,0.3
		c4.5,0.6,7.3,2.8,8.8,7.3c0.3,1.1,0.8,2.3,1.1,3.7c2,10.7,4,21.5,5.9,31.9c0.3,1.4,0.6,2.8,0.6,4.2c0,3.1-1.4,4.8-4.2,5.9
		c-1.7,0.6-3.4,0.6-5.1,0.6C1064.7,621.3,1059.6,621.3,1054.5,621.3L1054.5,621.3z"/>
	<path class="st21" d="M1009.1,874.2c-4.5,0-9,0-13.8,0c-1.4,0-2.8,0-4.2,0c-5.9-0.6-9.3-3.7-10.7-9.3c-0.8-3.1-1.4-6.5-2-9.9
		c-1.4-7.3-2.8-14.4-4.2-21.7c-0.3-2-0.6-4.2-0.6-6.2c0.3-3.4,1.7-5.1,5.1-5.9c1.4-0.3,2.8-0.6,4.2-0.6c10.4,0,20.6,0,31.1,0
		c0.6,0,1.4,0,2,0c5.9,0.6,9,2.8,10.4,8.8c1.4,6.2,2.5,12.4,4,18.6c1.1,5.1,2,10.4,2.8,15.5c0.3,1.7,0.6,3.1,0.3,4.8
		c-0.3,3.1-2.3,5.1-5.4,5.9c-1.4,0.3-3.1,0.3-4.8,0.3C1019,874.2,1014.2,874.2,1009.1,874.2z"/>
	<path class="st5" d="M1217.1,486.7c4.5,0,9,0,13.8,0c1.1,0,2.5,0,3.7,0c5.9,0.6,9.3,3.4,10.7,9c1.4,5.9,2.5,12.1,3.7,18.1
		c0.8,5.1,2,9.9,2.8,15c0.3,1.1,0.6,2,0.6,3.1c0.3,4.8-2,7.9-6.8,8.2c-11.9,0.3-24,0.3-35.8,0c-5.9,0-9.6-3.4-10.7-9.6
		c-1.7-7.6-2.8-15.2-4.2-22.9c-0.6-2.8-1.1-5.9-1.7-8.8c-0.3-2-0.6-4-0.6-5.6c0-3.4,1.7-5.4,4.8-5.9c1.4-0.3,3.1-0.6,4.8-0.6
		C1207,486.7,1212.1,486.7,1217.1,486.7L1217.1,486.7z"/>
	<path class="st21" d="M804.7,793.2c-4.5,0-9,0-13.8,0c-1.1,0-2.5,0-3.7,0c-5.9-0.6-8.8-3.1-10.4-8.8c-0.8-2.8-1.4-5.9-2-8.8
		c-1.7-8.5-3.1-16.9-4.8-25.4c-1.4-7.6,1.1-10.7,8.5-10.7c10.4,0,20.6,0,31.1,0c1.4,0,2.8,0,4.2,0.3c4.5,0.8,7.6,3.7,8.8,8.2
		c0.6,2.3,1.1,4.8,1.4,7.3c1.7,8.5,3.1,16.9,4.8,25.4c0.3,2,0.6,4.2,0.6,6.2c-0.3,3.1-1.7,5.1-5.1,5.9c-1.4,0.3-3.1,0.6-4.8,0.6
		C814.9,793.2,809.8,793.2,804.7,793.2z"/>
	<path class="st21" d="M1093.2,820.6c5.4,0,10.4,0.3,15.8,0c6.8-0.3,11.6,4.5,12.4,10.2c2,10.4,4,20.9,5.9,31.6c0.3,2,0.3,4,0.3,5.6
		c0,2.8-1.7,4.5-4.2,5.4c-1.4,0.6-3.1,0.6-4.8,0.6c-10.4,0-21.2,0-31.6,0c-2.3,0-4.2-0.3-6.2-1.1c-3.1-1.4-5.1-3.7-5.9-6.8
		c-0.8-4.2-2-8.5-2.8-13c-1.4-7.3-2.8-14.7-4.2-22.3c-0.3-1.1-0.6-2.5-0.3-3.7c0.3-3.7,2.3-5.9,5.6-6.5c1.4-0.3,2.8-0.3,4.2-0.3
		C1083.1,820.6,1088.1,820.6,1093.2,820.6z"/>
	<path class="st21" d="M1138.4,567.7c5.6,0,11.3,0,16.9,0c4,0,6.8,1.7,9,4.5c1.1,1.4,2,2.8,2.3,4.8c2,10.7,4.2,21.7,6.2,32.5
		c0.3,1.7,0.3,3.4,0.3,5.4c0,3.7-1.7,5.6-5.1,6.2c-1.4,0.3-2.8,0.3-4.2,0.3c-10.2,0-20.3,0-30.5,0c-1.1,0-2.5,0-3.7-0.3
		c-4.5-1.1-8.2-3.4-9-8.5c-0.8-4.5-1.7-9.3-2.8-13.8c-1.4-7.1-2.8-14.1-4-21.2c-0.3-1.1-0.6-2.5-0.3-3.7c0-2.8,2-5.1,4.5-5.6
		c1.4-0.3,3.1-0.6,4.8-0.6C1127.9,567.7,1133.3,567.7,1138.4,567.7L1138.4,567.7z"/>
	<path class="st5" d="M1326.9,567.7c4.5,0,9,0,13.8,0c1.4,0,2.8,0,4.2,0c5.4,0.6,8.8,3.4,9.9,8.8c1.1,5.4,2.3,11,3.4,16.7
		c1.1,5.6,2.3,11.3,3.1,17.2c0.3,1.7,0.6,3.4,0.3,5.4c0,2.5-1.4,4.2-4,5.1c-1.7,0.6-3.4,0.8-5.1,0.8c-10.7,0-21.5,0-32.2,0
		c-1.1,0-2.5-0.3-3.7-0.3c-3.4-0.8-5.9-2.8-7.3-6.2c-0.6-1.7-1.1-3.7-1.4-5.6c-2-9.9-4-20-5.9-29.9c-0.3-1.4-0.6-3.1-0.6-4.8
		c0-3.4,1.7-5.6,5.1-6.2c1.4-0.3,3.1-0.3,4.8-0.3C1316.8,567.7,1321.9,567.7,1326.9,567.7z"/>
	<path class="st5" d="M1232.7,567.7c5.4,0,10.4,0,15.8,0c2,0,4,0,5.6,0.8c3.4,1.4,5.9,3.7,6.5,7.6c2.3,12.1,4.8,24,7.1,36.1
		c0.8,4.5-1.4,7.6-5.6,8.5c-1.4,0.3-2.8,0.3-4.2,0.3c-9.9,0-20,0-29.9,0c-1.1,0-2,0-3.1-0.3c-5.4-0.8-9-4-10.2-9.3
		c-1.7-7.6-2.8-15.2-4.5-22.9c-0.8-4-1.7-7.9-2.3-11.9c-1.1-5.9,1.4-9,7.3-9.6c2.5-0.3,4.8,0,7.3,0
		C1225.9,567.7,1229.3,567.7,1232.7,567.7L1232.7,567.7z"/>
	<path class="st5" d="M1281.2,820.6c4.8,0,9.6,0,14.1,0c1.4,0,2.8,0,4.2,0c4.8,0.6,8.2,3.1,9.6,7.6c0.6,1.4,0.8,3.1,1.1,4.5
		c2,9.9,3.7,19.8,5.6,29.4c0.3,1.4,0.6,2.8,0.6,4.2c0,4-1.7,6.2-5.6,7.1c-0.8,0.3-1.7,0.3-2.5,0.3c-11.3,0-22.6,0-33.6,0
		c-1.1,0-2.5-0.3-3.7-0.6c-3.7-1.1-6.2-3.4-7.1-7.1c-0.3-1.1-0.6-2.3-0.8-3.7c-2-10.4-4-20.6-5.9-31.1c-0.3-1.7-0.6-3.4-0.6-5.4
		c0-2.8,1.7-4.5,4.2-5.4c1.7-0.6,3.4-0.6,5.1-0.6C1271,820.6,1276.1,820.6,1281.2,820.6L1281.2,820.6z"/>
	<path class="st21" d="M788.4,706.8c-5.6,0-11.3,0-16.9,0c-6.8,0-9.9-2.8-11.3-9.3c0-0.3,0-0.6-0.3-1.1c-1.7-8.8-3.4-17.5-5.1-26.3
		c-0.6-2.5-1.1-4.8-1.4-7.3c-0.8-5.6,1.4-8.8,6.8-8.8c11.9,0,24,0,35.8,0c5.9,0,9.3,2.8,10.4,9c2.3,11.6,4.5,23.1,6.8,34.7
		c0,0.6,0.3,1.4,0.3,2c0.3,3.7-2.3,6.5-5.9,6.8c-1.7,0.3-3.1,0-4.8,0C798.2,706.8,793.2,706.8,788.4,706.8L788.4,706.8z"/>
	<path class="st21" d="M1155.9,654.1c5.4,0,10.4,0,15.8,0c1.4,0,2.8,0,4.2,0.3c2.8,0.6,4.8,2,5.9,4.5c0.8,1.7,1.4,3.4,1.7,5.1
		c2,10.7,4.2,21.7,6.2,32.5c0.3,1.4,0.6,3.1,0.3,4.8c-0.3,2.8-2.3,4.8-5.1,5.4c-1.1,0.3-2.5,0.3-3.7,0.3c-11,0-22,0-33.3,0
		c-0.6,0-1.4,0-2,0c-4-0.6-7.1-2.3-8.5-6.2c-0.6-1.7-1.1-3.7-1.4-5.6c-2-9.6-3.7-19.2-5.6-29.1c-0.3-1.7-0.6-3.4-0.6-5.1
		c0-4,2.3-6.2,6.2-6.5c1.1,0,2.5,0,3.7,0C1145.2,654.1,1150.5,654.1,1155.9,654.1z"/>
	<path class="st21" d="M1060.5,654.1c6.2,0,12.4,0,18.3,0c5.1,0,8.2,2.8,9.6,7.3c0.6,1.7,0.8,3.4,1.1,5.1c0.6,3.4,1.1,6.5,1.7,9.9
		c1.4,6.5,2.5,13,4,19.8c0.3,1.1,0.6,2,0.6,3.1c0.3,4.2-2.3,7.1-6.2,7.3c-1.1,0-2,0-3.1,0c-10.4,0-20.6,0-31.1,0c-0.6,0-1.4,0-2,0
		c-6.2-0.3-9.3-2.5-10.7-8.8c-2.3-11.9-4.5-23.7-6.8-35.6c0-0.6-0.3-1.4-0.3-2c0-2.8,2-5.4,5.1-5.9c1.4-0.3,3.1-0.3,4.8-0.3
		C1050.3,654.1,1055.4,654.1,1060.5,654.1L1060.5,654.1z"/>
	<path class="st21" d="M967.3,654.1c4.8,0,9.9,0,14.7,0c1.4,0,2.8,0,4.2,0c4,0.6,6.8,2.5,8.2,6.5c0.3,1.1,0.6,2.3,0.8,3.7
		c2,9.9,4,20,5.9,29.9c0.6,2.3,0.6,4.5,0.6,6.8c-0.3,3.4-1.7,5.1-5.1,5.6c-1.1,0.3-2.5,0.3-3.7,0.3c-10.7,0-21.5,0-32.2,0
		c-0.8,0-1.7,0-2.5,0c-4.8-0.6-8.2-3.4-9-8.2c-2.5-12.1-4.8-24-7.1-36.1c-1.1-5.4,2.5-8.5,7.3-8.5
		C955.2,654.3,961.1,654.1,967.3,654.1L967.3,654.1z"/>
	<path class="st5" d="M1258.9,706.8c-5.4,0-11,0-16.4,0c-6.8,0-10.2-2.5-11.6-9.3c-2-8.5-3.4-17.2-5.1-25.7
		c-0.6-2.8-1.1-5.4-1.7-8.2c-0.3-1.1-0.3-2-0.3-3.1c0.3-3.4,2.5-5.9,5.9-6.2c1.1,0,2,0,3.1,0c10.7,0,21.5,0,32.2,0
		c0.6,0,1.1,0,1.7,0c6.2,0.3,9.3,2.8,10.4,9c1.7,7.3,2.8,14.7,4.5,22.3c0.8,3.7,1.4,7.6,2,11.3c0.3,1.1,0.3,2,0.6,3.1
		c0.3,4-1.7,6.5-5.6,7.1c-1.4,0.3-2.8,0.3-4.2,0.3C1269.4,706.8,1264,706.8,1258.9,706.8L1258.9,706.8z"/>
	<path class="st21" d="M882.4,706.8c-5.1,0-10.2,0-15.2,0c-1.1,0-2.5,0-3.7,0c-4.2-0.3-6.8-2.3-8.2-6.2c-0.6-1.4-0.8-3.1-1.1-4.5
		c-2-10.2-4-20.3-5.9-30.5c-0.3-1.7-0.6-3.4-0.3-5.1c0.3-3.4,2.3-5.6,5.6-5.9c1.1-0.3,2.5-0.3,3.7-0.3c10.7,0,21.5,0,32.2,0
		c6.8,0,10.2,2.5,11.6,9c2.5,11.6,4.5,23.1,6.8,34.4c0.3,1.1,0.3,2,0,3.1c-0.3,3.1-2.3,5.4-5.1,5.6c-1.4,0.3-2.8,0.3-4.2,0.3
		C892.8,706.8,887.7,706.8,882.4,706.8z"/>
	<path class="st5" d="M1353.2,706.8c-5.6,0-11.3,0-16.9,0c-6.5,0-9.6-2.5-11-9c-2.3-11-4.2-22-6.5-33c-0.3-1.7-0.3-3.4-0.3-5.4
		c0.3-2.8,1.7-4.5,4.2-5.1c1.4-0.3,2.8-0.3,4.2-0.3c10.7,0,21.7,0,32.5,0c0.6,0,1.1,0,1.7,0c5.1,0.3,8.5,2.8,9.9,7.9
		c1.1,4.8,2.3,9.9,3.1,15c1.4,6.8,2.5,13.5,3.7,20c0.3,1.1,0.6,2.5,0.6,3.7c0,3.1-2,5.4-5.1,5.9c-1.4,0.3-2.8,0.3-4.2,0.3
		C1363.9,706.8,1358.6,706.8,1353.2,706.8L1353.2,706.8z"/>
	<path class="st5" d="M1388.5,743.5c1.1,2.3,0.8,4.5,0.8,6.8c0,4.5,0,8.8,0.8,13c0.3,1.4,0.3,3.1,0.3,4.8c0,2.5,0,5.4,0.6,7.9
		c0.3,0.6,0.3,1.4,0.3,2c0,5.1,0.6,10.2,1.1,15.2c-0.6,0-1.4-0.3-2-0.3c-11.3,0-22.3,0-33.6,0.3c-0.8,0-1.7,0-2.5,0
		c-7.3-0.3-10.7-2.5-12.1-9.9c-2-8.8-3.4-17.5-5.1-26.3c-0.6-2.8-1.1-5.9-1.7-8.8c-0.6-4.2,1.4-7.3,5.4-8.2c1.4-0.3,3.1-0.6,4.8-0.6
		c10.2,0,20.3,0,30.5,0c4.5,0,8.5,1.1,11.3,5.4C1387.9,746.1,1387.9,744.1,1388.5,743.5z"/>
	<path class="st21" d="M1113.3,485.5c1.4,0.8,3.1,1.1,4.8,1.1c2,0,3.7,0,5.6,0c-1.7,1.1-3.4,2.5-4.8,3.7c-0.3,0.3-0.6,0.8-0.6,1.4
		c0,0.3,0.3,0.6,0.6,0.8c0.8,0.3,1.7-0.3,2.3-0.8c3.4-2.3,6.5-4.8,10.2-5.9c2.5,1.4,5.4,0.8,8.2,1.1c6.2,0.3,10.4,3.7,11.9,9.9
		c0.8,3.7,1.4,7.6,2.3,11.3c0.6,2.3,0.8,4.5,2.3,6.5c-12.1,10.2-25.7,17.5-40.9,22c-3.1,0.8-6.5,2-9.9,2c1.1-1.1,1.1-2.3,0.8-3.7
		c-1.4-6.5-2.5-13.3-4-20c-1.1-4.8-1.4-9.6-3.1-14.1C1102.8,494.6,1107.6,489.8,1113.3,485.5z"/>
	<path class="st22" d="M1271,469.5c-9,1.7-18.1,3.1-26.8,4.8c-3.4,0.6-6.5,1.1-9.9,1.7c-1.1-0.3-2.3,0-3.4,0.8c-0.6,0-1.1,0-2,0
		c-1.4-5.4-2.5-11-3.1-16.4c13.3-2.5,26.5-4.8,39.8-7.3c2-0.3,3.7-0.8,5.6-1.4c0.8-0.3,1.7-0.6,2.5-0.6c11.6-1.1,22.6-4,34.2-5.6
		c1.4,1.4,1.7,3.4,2.3,5.1c0.6,3.7,1.4,7.1,2.3,10.7l0,0c-0.8,0.3-1.4,0.6-2.3,0.8c-5.9,1.1-11.9,2.3-17.8,3.4c-2-0.6-3.7-2-4.8-3.7
		c-0.8-0.8-1.7-1.7-2.5-2.5c-0.6-0.6-2,0-2,1.1c0,1.4,0.3,2.8,0.6,4.2c0.3,1.7-0.3,2.5-2.3,3.1c-1.1,0.3-2,0.3-3.1,0.6
		C1275.8,468.6,1273.3,468,1271,469.5z"/>
	<path class="st5" d="M1287.1,489.5c3.7,4.5,7.3,9,10.7,13.5c10.2,12.7,20.9,25.1,33,36.1c0.3,0.3,0.6,0.6,0.6,0.8
		c-8.8,0-17.5,0-26.3,0c-0.6,0-1.1,0-1.7,0c-5.6-0.6-9-3.4-10.4-8.8c-1.1-5.1-2.3-10.2-3.1-15.5c-1.1-6.5-2.5-12.7-3.7-19.2
		C1286,494.3,1286,492,1287.1,489.5z"/>
	<path class="st23" d="M1104.8,538c3.4,0.3,6.5-0.8,9.9-2c15.2-4.5,28.8-11.9,40.9-22c5.6-4,10.2-9,14.1-14.4
		c2.5-3.7,4.5-7.6,5.1-11.9c0.8-4.5-1.1-7.9-5.4-9.6c-2.3-0.8-4.5-1.1-6.8-1.1c-11.3,0-21.7,3.4-31.6,8.5c-3.7,1.4-7.1,3.7-10.2,5.9
		c-0.6,0.6-1.4,1.1-2.3,0.8c-0.3,0-0.6-0.6-0.6-0.8c0-0.6,0.3-1.1,0.6-1.4c1.7-1.4,3.4-2.5,4.8-3.7c5.6-2.8,11.3-5.9,17.2-7.9
		c7.3-2.5,15-4.2,22.6-4c2.3,0,4.5,0.3,6.8,1.1c5.1,2,7.6,6.2,7.1,11.6c-0.6,4.5-2.3,8.5-4.8,12.1c-3.4,5.4-7.6,9.9-12.4,14.1
		c-1.7,1.4-3.1,2.8-4.8,4.2c-1.4,0.8-2.8,2-4.2,2.8c-9.9,6.8-20,12.4-31.6,16.4c-3.4,1.1-7.1,2-10.4,3.1c-3.4,0-7.1,0.3-10.4,0.3
		c-12.1-0.6-18.3-9.3-15.2-20.9c1.4-5.1,4-9.3,7.1-13.5c2.3-3.1,4.8-5.9,7.1-9c3.4-3.4,7.1-7.1,10.4-10.4c3.4-2.8,6.8-5.4,10.2-8.2
		c0.8-0.8,1.7-1.7,3.1-1.7c0.3,0,0.6,0.3,0.8,0.6c0,0,0,0.3,0,0.6c-0.6,0.6-1.1,1.4-1.7,2c-2.3,2-4.8,4-7.1,6.2
		c-5.4,4.2-10.4,9.3-15,14.7l0,0c-0.3,0.3-0.8,0.8-1.1,1.1c-4.2,4.2-7.6,9-10.2,14.7c-0.8,2-1.7,4.2-2,6.5
		c-1.4,8.2,3.1,14.4,11.3,15.8C1099.1,538.3,1102,538.3,1104.8,538z"/>
	<path class="st21" d="M813.5,488.6c14.7,0,29.4,0,44,0c2,0,4-0.3,5.6,0.6c1.1,0.3,1.7,1.1,1.7,2.3c0,0.8-0.8,1.7-1.7,2
		c-0.6,0.3-1.4,0.3-2,0.6c-1.4,0-2.8,0-4.2,0c-29.1,0-58.1,0-87.2,0c-1.7,0-3.1,0-4.8-0.3c-0.8,0-1.7-0.6-2.5-0.8
		c-1.1-0.6-1.1-2.5,0-3.1c0.8-0.6,1.7-0.8,2.3-0.8c1.7-0.3,3.1-0.3,4.8-0.3C784.1,488.6,798.8,488.6,813.5,488.6z"/>
	<path class="st24" d="M816.3,501.3c15,0,29.9,0,44.6,0c1.7,0,3.4,0.3,5.1,0.3c0.8,0,1.1,0.6,1.4,1.4c0.3,0.8-0.3,1.7-0.8,2.3
		c-0.8,0.6-2,1.1-2.8,1.1c-1.7,0-3.1,0-4.8,0c-28.8,0-57.6,0-86.4,0c-1.7,0-3.4,0-5.4-0.3c-0.8,0-1.7-0.6-2.3-1.1
		c-0.8-0.8-0.6-2.5,0.6-3.1c1.1-0.6,2.3-0.6,3.7-0.6c3.4,0,6.8,0,9.9,0C791.7,501.3,804.2,501.3,816.3,501.3z"/>
	<path class="st8" d="M741.5,508.7c-2.3,0-4.5,0-6.8,0c-2.5,0-4.5-1.4-5.1-4c-1.1-4.8-2-9.6-2.8-14.4c-0.3-2.5,0.8-4,3.7-4
		c4.8-0.3,9.9,0,14.7,0c2.3,0,4,1.4,4.5,3.7c1.1,4.8,2,9.6,2.8,14.4c0.6,2.5-0.6,4-3.4,4C746.3,509,743.8,508.7,741.5,508.7z"/>
	<path class="st24" d="M1108.7,540.3c3.4-1.1,7.1-2,10.4-3.1c11.3-3.7,21.7-9.3,31.6-16.4c1.4-1.1,2.8-2,4.2-2.8
		c0.8,4.5,1.7,8.8,2.5,13.3c0.8,4.5-1.7,7.9-6.2,8.8c-1.1,0.3-2.5,0.3-3.7,0.3C1135,540.3,1122,540.3,1108.7,540.3z"/>
	<path class="st5" d="M1340.8,504.5c-0.3,0-0.6-0.3-0.8-0.3c-9-5.6-18.1-11.3-26.5-17.5c4.8,0,9.3,0,14.1,0c1.4,0,2.8,0.3,4.2,0.6
		c4,0.8,6.5,3.4,7.6,7.1C1339.9,497.7,1340.8,501.1,1340.8,504.5z"/>
	<path class="st25" d="M1271,469.5c2.3-1.4,4.8-0.8,7.1-1.4c1.1-0.3,2-0.3,3.1-0.6c1.7-0.6,2.3-1.1,2.3-3.1c0-1.4-0.3-2.8-0.6-4.2
		c0-0.8,1.1-1.7,2-1.1c0.8,0.8,1.7,1.7,2.5,2.5c1.4,1.7,2.8,3.1,4.8,3.7c0.6,3.1,0.6,6.2,2,9.3c-4.5-0.3-8.8,0.6-12.4,3.4
		c-2.8-0.8-4.5-3.1-5.9-5.6C1275,470.3,1273.3,469.5,1271,469.5z"/>
	<path class="st9" d="M1312.3,461.3c-0.8-3.7-1.4-7.1-2.3-10.7c-0.3-2-0.6-3.7-2.3-5.1c2-0.8,4-0.8,6.2-0.8c3.1,0.3,4.5,1.4,5.6,4.5
		c0.6,1.7,0.8,3.7,0.8,5.6c0,4-2,5.9-5.9,6.8C1314.2,461.3,1313.1,461.3,1312.3,461.3z"/>
	<path class="st26" d="M1226.2,460.4c0.6,5.6,1.4,11,3.1,16.4c-3.4-0.3-6.5-1.1-9.6-2c0.3-3.1-0.6-6.2-1.1-9.3
		C1221.1,463.5,1223.6,461.8,1226.2,460.4z"/>
	<path class="st27" d="M1218.5,465.5c0.6,3.1,1.4,6.2,1.1,9.3c-2.8-0.6-5.6-1.1-8.8-1.7c-0.6,0-1.4-0.3-1.4-1.1
		c0-0.8,0.6-1.1,1.1-1.4C1213.2,468.9,1215.7,466.6,1218.5,465.5z"/>
	<path class="st28" d="M1107.9,486.4c-3.4,3.4-7.1,7.1-10.4,10.4c0-0.6,0-1.4,0-2c0.3-5.1,2.5-7.3,7.3-8.2
		C1105.9,486.4,1106.8,486.7,1107.9,486.4z"/>
	<path class="st26" d="M1231,476.8c1.1-0.6,2.3-0.8,3.4-0.8C1233.5,476.8,1232.4,477.1,1231,476.8z"/>
	<path class="st9" d="M1310.3,462.1c0.8-0.3,1.4-0.6,2.3-0.8C1311.7,461.8,1311.1,462.1,1310.3,462.1z"/>
	<path class="st14" d="M1131,485.5c9.9-5.1,20.3-8.5,31.6-8.5c2.3,0,4.5,0.3,6.8,1.1c4.2,1.7,6.2,4.8,5.4,9.6
		c-0.6,4.5-2.5,8.5-5.1,11.9c-4,5.6-8.5,10.7-14.1,14.4c-1.4-2-1.7-4.2-2.3-6.5c-0.8-3.7-1.4-7.6-2.3-11.3
		c-1.4-6.2-5.4-9.6-11.9-9.9C1136.7,486.4,1133.6,487,1131,485.5z"/>
	<path class="st14" d="M1104.8,538c-2.8,0.3-5.6,0.3-8.5,0c-8.2-1.1-13-7.6-11.3-15.8c0.3-2.3,1.1-4.5,2-6.5
		c2.5-5.4,5.9-10.4,10.2-14.7c0.3-0.3,0.8-0.8,1.1-1.1l0,0c1.7,4.5,2.3,9.6,3.1,14.1c1.4,6.5,2.5,13.3,4,20
		C1105.9,535.8,1105.9,536.9,1104.8,538z"/>
	<path class="st21" d="M1098.3,500.2c-0.3,0.3-0.8,0.8-1.1,1.1C1097.7,500.8,1098,500.5,1098.3,500.2z"/>
</g>
</svg>
