<?xml version="1.0" encoding="utf-8"?>
<!-- Generator: Adobe Illustrator 24.1.0, SVG Export Plug-In . SVG Version: 6.00 Build 0)  -->
<svg version="1.1" id="Calque_1" xmlns="http://www.w3.org/2000/svg" xmlns:xlink="http://www.w3.org/1999/xlink" x="0px" y="0px"
	 viewBox="0 0 431 442.9" style="enable-background:new 0 0 431 442.9;" xml:space="preserve">
<g>
	<g>
		<path d="M15.6,424.3c-3.2-2.3-4.1-5.4-4.1-9.3c0.1-82.1,0.1-164.2,0-246.3c0-4.4,1.3-7.4,5-10C81,112,145.5,65.2,210,18.4
			c5.4-3.9,6.7-3.9,12.1,0c43.3,31.4,86.5,62.8,129.8,94.3c1.2,0.9,2.4,1.7,3.3,2.8c2,2.5,2.1,5.2,0.2,7.7s-4.5,3.3-7.4,2
			c-1.7-0.7-3.2-1.9-4.7-3C302.2,92.4,261,62.5,220,32.6c-3-2.2-4.8-2.2-7.8,0C156,73.6,99.7,114.4,43.4,155.3
			c-1.4,1-2.8,2.1-4.8,3.6c20.9,0,41.1,0,61.6,0c4.2-13,8.5-26.3,12.8-39.5c0.3-1,0.6-2,0.9-3c1.9-5.9,4.8-7.3,10.6-5.5
			c21.6,7,43.2,13.9,64.8,20.9c27.4,8.8,54.9,17.7,82.3,26.5c1.7,0.6,3.6,1,5.4,1c37.8,0.1,75.6,0,113.4,0c0.7,0,1.5-0.1,3.2-0.1
			c-1.9-1.4-3-2.4-4.3-3.3c-8.5-6.2-17-12.3-25.5-18.5c-4.1-3-4.9-6.6-2.5-9.9c2.4-3.2,6.1-3.4,10.2-0.5
			c15.1,10.9,30.1,21.9,45.2,32.8c1.4,1,2.5,2.3,3.7,3.5c0,87,0,174.1,0,261.1C285.5,424.3,150.5,424.3,15.6,424.3z M35.4,411.2
			c120.8,0,240.6,0,361.3,0c-47.1-41.5-93.5-82.5-139.9-123.4c-12.2,8.8-24.1,17.4-35.8,26c-3.4,2.5-6.5,2.5-9.8,0
			c-4-3.1-8.2-6-12.2-8.9c-7.8-5.7-15.7-11.4-23.6-17.1C128.7,328.9,82.3,369.7,35.4,411.2z M314.3,230
			c-29.4-9.5-57.9-18.6-86.3-27.8c-9.5-3.1-19-6-28.4-9.2c-5.4-1.8-7.1-7.3-3.6-10.9c2.4-2.5,5.3-2.1,8.2-1.2
			c6.7,2.1,13.4,4.3,20.1,6.5c33.2,10.7,66.5,21.4,99.7,32.1c1.4,0.4,3.4,0.8,4.4,0.1c9.4-6.5,18.5-13.3,28.5-20.5
			c-77.7-25-154.7-49.8-231.8-74.6c-0.6,1.6-1.1,2.7-1.4,3.8c-8.8,27.3-17.5,54.6-26.4,81.9c-1,3-0.5,4.6,2.1,6.5
			c37.8,27.3,75.6,54.8,113.4,82.2c1.2,0.8,2.4,1.6,3.5,2.4c13.4-9.8,26.7-19.4,40.5-29.4c-3.5-1.2-6.3-2.1-9.2-3.1
			c-4.5-1.6-6.3-4.7-5.1-8.4c1.1-3.6,4.6-5.1,9.2-3.7c5.3,1.6,10.6,3.4,16,5c1,0.3,2.5,0.5,3.3-0.1c4.8-3.2,9.4-6.7,14.6-10.5
			c-2-0.7-3.2-1.2-4.4-1.6c-44-14.2-88-28.3-132-42.5c-1.8-0.6-3.6-1.2-5.1-2.1c-2.7-1.6-3.6-4.3-2.6-7.3c0.9-2.8,3-4.5,6.1-4.2
			c2,0.2,3.9,0.7,5.8,1.3c47.4,15.2,94.8,30.5,142.2,45.7c1.3,0.4,3.1,0.8,4,0.2C304.2,237.5,308.8,234,314.3,230z M407.2,403.3
			c0-75.2,0-149.7,0-224.8c-46.8,34-93.2,67.6-139.8,101.5C314.2,321.2,360.5,362.1,407.2,403.3z M24.6,403.4
			c47-41.5,93.3-82.3,139.9-123.4c-46.8-34-93.1-67.6-139.9-101.6C24.6,253.7,24.6,328.1,24.6,403.4z M84.9,206.3
			c3.7-11.6,7.3-22.7,10.9-33.9c-19.2,0-37.9,0-57.6,0C54.2,183.9,69.3,194.9,84.9,206.3z M393.8,172.3c-26.3,0-51.4,0-77.5,0
			c2.2,0.9,3.6,1.5,5.1,1.9c13.2,4.3,26.6,8.2,39.7,13c6.2,2.3,11,2.1,16.1-2.6C382,180.2,387.6,176.8,393.8,172.3z"/>
		<path d="M136.6,219.8c1.4,0.4,2.8,0.7,4.2,1.1c29.4,9.5,58.8,19,88.2,28.5c0.9,0.3,1.8,0.5,2.6,0.9c3.5,1.6,5,4.9,3.9,8.1
			c-1.1,3.3-4.3,5-8.1,3.9c-10.3-3.1-20.5-6.5-30.7-9.7c-19.8-6.4-39.6-12.8-59.5-19.2c-1.5-0.5-3.1-1-4.4-1.8
			c-2.6-1.7-3.8-4.5-2.4-7.3c1.1-2.1,3.4-3.5,5.2-5.2C136.1,219.4,136.4,219.6,136.6,219.8z"/>
		<path d="M151.6,172.9c0.3-4.3,4-7.3,7.9-6.1c8.1,2.4,16.2,5,24.2,7.8c3.6,1.3,5,4.7,3.8,8.1c-1.2,3.3-4.3,5-8,3.9
			c-7.7-2.3-15.4-4.8-23.1-7.3C153.2,178.1,151.6,175.8,151.6,172.9z"/>
	</g>
</g>
</svg>
