<?xml version="1.0" encoding="utf-8"?>
<!-- Generator: Adobe Illustrator 24.1.0, SVG Export Plug-In . SVG Version: 6.00 Build 0)  -->
<svg version="1.1" id="Calque_1" xmlns="http://www.w3.org/2000/svg" xmlns:xlink="http://www.w3.org/1999/xlink" x="0px" y="0px"
	 viewBox="0 0 1920 1080" style="enable-background:new 0 0 1920 1080;" xml:space="preserve">
<g>
	<path d="M954.79,387.03c84.44-0.23,154.15,70.24,154.33,156.02c0.18,86.59-69.22,156.77-155.24,156.97
		c-87.26,0.21-157.38-69.26-157.54-156.06C796.18,456.15,865.73,387.27,954.79,387.03z M807.6,543.47
		c0.04,80.07,65.11,144.94,145.41,144.96c80.02,0.02,145.01-65.11,145.02-145.32c0-79.98-65.52-144.63-146.57-144.61
		C872.8,398.51,807.56,464.25,807.6,543.47z"/>
	<path d="M952.74,481.41c26.41,0,52.82-0.01,79.23,0.02c2.32,0,4.65,0.21,6.95,0.52c2.81,0.38,4.44,2.17,4.96,4.89
		c0.31,1.63,0.52,3.3,0.52,4.95c0.03,34.83,0.02,69.65-0.01,104.48c0,1.4-0.24,2.82-0.5,4.2c-0.47,2.48-2.03,4.01-4.5,4.4
		c-2.05,0.32-4.14,0.55-6.21,0.55c-53.57,0.03-107.15,0.02-160.72,0.01c-1,0-2-0.02-2.99-0.13c-6.65-0.73-8.38-2.54-8.44-9.26
		c-0.1-11.66-0.1-23.33-0.1-34.99c0-22.25,0-44.49,0.06-66.74c0.01-2.56,0.18-5.16,0.63-7.68c0.47-2.62,2.29-4.21,4.93-4.67
		c1.63-0.28,3.3-0.51,4.95-0.51c27.08-0.03,54.16-0.02,81.23-0.02C952.74,481.42,952.74,481.41,952.74,481.41z M882.83,491.6
		c-0.12,0.22-0.24,0.43-0.36,0.65c1.01,1.13,1.89,2.41,3.04,3.37c20.74,17.37,41.58,34.63,62.22,52.13
		c2.9,2.46,7.99,2.38,10.55,0.21c2.03-1.72,4.2-3.28,6.24-4.98c15.26-12.77,30.51-25.55,45.76-38.34
		c4.02-3.37,8.03-6.75,11.99-10.19c0.52-0.45,0.69-1.29,1.02-1.96c-0.71-0.3-1.4-0.63-2.13-0.88c-0.3-0.1-0.66-0.02-0.99-0.02
		c-44.82,0-89.63,0-134.45,0C884.76,491.6,883.8,491.6,882.83,491.6z M876.85,594.81c50.91,0,101.16,0,151.82,0
		c-0.64-0.61-0.96-0.95-1.31-1.25c-8.59-7.24-17.16-14.52-25.78-21.72c-7.03-5.86-14.04-11.75-21.23-17.42
		c-5.05-3.98-7.64-3.89-12.78-0.11c-2.95,2.17-5.78,4.49-8.62,6.8c-5.01,4.07-8.06,4-12.89-0.36c-2.35-2.12-4.62-4.33-7.06-6.34
		c-5.97-4.91-9.57-4.71-15.39,0.33c-11.01,9.53-22.09,18.98-33.15,28.45C886.07,586.98,881.65,590.72,876.85,594.81z
		 M1034.72,586.05c0.09-1.36,0.17-2,0.17-2.65c0.01-26.91,0.01-53.82,0-80.72c0-0.58,0.1-1.24-0.13-1.73
		c-0.54-1.14-1.34-1.99-2.7-0.94c-0.53,0.4-1.06,0.81-1.57,1.23c-13.45,11.3-26.91,22.6-40.36,33.9c-2.64,2.22-5.26,4.46-8.09,6.86
		C999.67,556.74,1016.96,571.19,1034.72,586.05z M871.06,585.95c17.75-14.88,35.04-29.38,52.57-44.08
		c-17.57-14.69-34.88-29.16-52.57-43.94C871.06,527.44,871.06,556.31,871.06,585.95z"/>
</g>
</svg>
