<?xml version="1.0" encoding="utf-8"?>
<!-- Generator: Adobe Illustrator 24.1.0, SVG Export Plug-In . SVG Version: 6.00 Build 0)  -->
<svg version="1.1" id="Calque_1" xmlns="http://www.w3.org/2000/svg" xmlns:xlink="http://www.w3.org/1999/xlink" x="0px" y="0px"
	 viewBox="0 0 267 442" style="enable-background:new 0 0 267 442;" xml:space="preserve">
<g>
	<g>
		<path d="M74.9,254.2c-12.7,0-24.8,0.1-36.8,0c-10.5-0.1-18-5.6-20.4-15c-0.6-2.3-0.7-4.7-0.7-7.1c0-19.7-0.1-39.3,0-59
			c0-14,7.9-21.8,22-21.9c10.4,0,20.7,0,31.1,0c1.4,0,2.9,0,4.9,0c0-2.1-0.1-3.8,0-5.4c0.6-16.3-0.2-32.8,2.2-48.8
			c4.6-31.4,20.4-56,48.8-71.5c13.8-7.5,28.7-11.8,44.5-11.9c19.9-0.1,39.8,0.3,59.8-0.2c8.1-0.2,16.2,6.6,18,14.1
			c0.5,2.3,0.8,4.7,0.8,7.1c0.1,18.2,0.1,36.4,0,54.6c0,13.9-8.1,22-22,22.1c-11.9,0.1-23.9,0-35.8,0.3c-8.9,0.2-10.5,1.8-10.8,10.5
			c-0.3,9.5-0.1,19-0.1,29.1c1.7,0,3.1,0,4.5,0c13.1,0,26.3,0,39.4,0c14.5,0,22.4,8,22.4,22.4c0,19.3,0,38.5,0,57.8
			c0,14.7-8,22.7-22.6,22.7c-14.5,0-28.9,0-44,0c0,1.9,0,3.6,0,5.3c0,46.3,0,92.7-0.1,139c0,3.7-0.3,7.6-1.6,10.9
			c-3.2,7.9-9.5,12.1-18,12.2c-21.9,0.2-43.8,0.2-65.7,0c-10.8-0.1-18.6-7.9-19.5-18.7c-0.1-1.7-0.2-3.4-0.2-5.2
			c0-45.9,0-91.9,0-137.8C74.9,258.1,74.9,256.4,74.9,254.2z M98.9,397.5c19.2,0,37.9,0,57.1,0c0-1.9,0-3.6,0-5.3
			c0-48.7,0-97.5,0-146.2c0-10.7,5-15.7,15.6-15.7c15.5,0,31.1,0,46.6,0c1.4,0,2.8,0,4.2,0c0-18.6,0-36.6,0-55c-1.7,0-3.1,0-4.5,0
			c-15.7,0-31.3,0.1-47,0c-8.7,0-14.5-4.7-14.6-12.9c-0.3-15.1-0.5-30.3,0.6-45.4c1.2-16.7,10.4-26.3,27.1-28.3
			c11.8-1.4,23.8-0.9,35.8-1.2c1.7,0,3.4,0,5.2,0c0-17.1,0-33.6,0-50.2c-0.6-0.2-0.9-0.4-1.3-0.4c-17.1,0.1-34.3-0.4-51.4,0.3
			c-17.7,0.7-33.9,6.1-47.4,18c-17.1,15-24.3,34.8-25.4,56.9c-0.7,15.6-0.3,31.3-0.4,47c-0.1,11.1-5,16.1-16,16.1
			c-11.6,0-23.1,0-34.7,0c-2.3,0-4.7,0-7,0c0,18.6,0,36.7,0,55c1.8,0,3.2,0,4.7,0c13,0,26-0.1,39,0c8.1,0.1,13.2,4.9,13.8,12.9
			c0.1,1.5,0.1,2.9,0.1,4.4c0,48.2,0,96.4,0,144.6C98.9,393.8,98.9,395.5,98.9,397.5z"/>
	</g>
</g>
</svg>
