<?xml version="1.0" encoding="utf-8"?>
<!-- Generator: Adobe Illustrator 25.0.0, SVG Export Plug-In . SVG Version: 6.00 Build 0)  -->
<svg version="1.1" id="Calque_1" xmlns="http://www.w3.org/2000/svg" xmlns:xlink="http://www.w3.org/1999/xlink" x="0px" y="0px"
	 viewBox="0 0 1920 1080" style="enable-background:new 0 0 1920 1080;" xml:space="preserve">
<style type="text/css">
	.st0{fill:#431F4B;}
</style>
<g>
	<path class="st0" d="M952.5,348.8c5.5,0,11,0,16.5,0c1.7,0.3,3.4,0.6,5.1,0.8c7.2,0.9,14.4,1.3,21.5,2.6
		c44.8,8.6,82.1,30.2,111.6,65c23.6,27.8,38,59.9,43.1,96c0.9,6.6,1.6,13.3,2.4,20c0,5,0,10,0,15c-0.3,1.3-0.6,2.7-0.8,4
		c-1.1,9-1.6,18.2-3.5,27c-10.6,49.8-36.9,89.5-78.5,118.9c-24.7,17.4-52.1,28.2-82.1,32.2c-6.5,0.9-13.1,1.6-19.6,2.3
		c-5,0-10,0-15,0c-1.8-0.3-3.7-0.6-5.5-0.8c-8.6-1.2-17.4-1.7-25.9-3.5c-43.4-9.1-79.5-30.8-108.1-64.7
		c-23.3-27.7-37.6-59.5-42.6-95.4c-0.9-6.4-1.6-12.8-2.3-19.3c0-5.5,0-11,0-16.5c0.3-1.6,0.6-3.2,0.8-4.8c1.2-8.6,1.7-17.4,3.5-25.9
		C783,455,807,417,844.9,388c27.8-21.4,59.4-33.9,94.3-37.8C943.6,349.8,948.1,349.3,952.5,348.8z M937.9,554.2c0,2.2,0,3.7,0,5.1
		c-0.1,23.6-0.2,47.2-0.3,70.8c0,5.9,0.9,6.8,6.6,6.8c7.4,0,14.7,0,22.1,0c6.8,0,7.3-0.5,7.3-7.2c0-23.6,0-47.2,0-70.8
		c0-1.5,0-2.9,0-4.8c1.9,0,3.2,0,4.6,0c7,0,14,0,21,0c5.3,0,6.9-1.6,7.5-6.8c0.9-7.6,1.9-15.1,2.8-22.6c0.7-5.9-1.2-8.2-7.1-8.2
		c-4.4,0-8.7,0-13.1,0c-5.1,0-10.2,0-15.4,0c0-9.2-0.5-17.9,0.1-26.6c0.6-8,5.3-11.8,13.5-12.1c5-0.2,10,0,15-0.2
		c4.2-0.1,6.2-2.2,6.3-6.3c0.1-6.9,0.1-13.7,0-20.6c-0.1-4.4-2.1-6.2-6.6-6.2c-7,0-14,0-21,0c-25.3,0.2-42.1,16.3-43.1,41.6
		c-0.4,9-0.4,18-0.3,27c0,2.8-0.9,3.7-3.7,3.6c-5.1-0.2-10.2-0.1-15.4,0c-4.9,0-6.8,1.9-6.8,6.8c0,7.6,0,15.2,0,22.9
		c0,6.3,1.6,7.9,8,7.9C925.6,554.2,931.5,554.2,937.9,554.2z"/>
</g>
</svg>
