<?xml version="1.0" encoding="utf-8"?>
<!-- Generator: Adobe Illustrator 25.0.0, SVG Export Plug-In . SVG Version: 6.00 Build 0)  -->
<svg version="1.1" id="Calque_1" xmlns="http://www.w3.org/2000/svg" xmlns:xlink="http://www.w3.org/1999/xlink" x="0px" y="0px"
	 viewBox="0 0 1920 1080" style="enable-background:new 0 0 1920 1080;" xml:space="preserve">
<style type="text/css">
	.st0{fill:#431F4B;}
</style>
<g>
	<path class="st0" d="M959.7,515.7c0.7,0,1.4,0,2.1,0c0.2,0,0.4,0.1,0.7,0.1c0.9,0.1,1.9,0.2,2.8,0.3c5.8,1.1,10.7,3.9,14.5,8.5
		c3.1,3.6,4.9,7.8,5.6,12.5c0.1,0.9,0.2,1.7,0.3,2.6c0,0.7,0,1.3,0,2c0,0.2-0.1,0.4-0.1,0.5c-0.1,1.2-0.2,2.4-0.5,3.5
		c-1.4,6.5-4.8,11.7-10.2,15.5c-3.2,2.3-6.8,3.7-10.7,4.2c-0.8,0.1-1.7,0.2-2.6,0.3c-0.7,0-1.3,0-2,0c-0.2,0-0.5-0.1-0.7-0.1
		c-1.1-0.2-2.3-0.2-3.4-0.5c-5.7-1.2-10.4-4-14.1-8.4c-3-3.6-4.9-7.7-5.5-12.4c-0.1-0.8-0.2-1.7-0.3-2.5c0-0.7,0-1.4,0-2.1
		c0-0.2,0.1-0.4,0.1-0.6c0.2-1.1,0.2-2.3,0.5-3.4c1.3-6.1,4.4-11,9.4-14.8c3.6-2.8,7.7-4.4,12.3-4.9
		C958.5,515.8,959.1,515.8,959.7,515.7z M957.8,542.5c0,0.3,0,0.5,0,0.7c0,3.1,0,6.1,0,9.2c0,0.8,0.1,0.9,0.9,0.9c1,0,1.9,0,2.9,0
		c0.9,0,1-0.1,1-0.9c0-3.1,0-6.1,0-9.2c0-0.2,0-0.4,0-0.6c0.2,0,0.4,0,0.6,0c0.9,0,1.8,0,2.7,0c0.7,0,0.9-0.2,1-0.9
		c0.1-1,0.2-2,0.4-2.9c0.1-0.8-0.2-1.1-0.9-1.1c-0.6,0-1.1,0-1.7,0c-0.7,0-1.3,0-2,0c0-1.2-0.1-2.3,0-3.5c0.1-1,0.7-1.5,1.8-1.6
		c0.7,0,1.3,0,2,0c0.5,0,0.8-0.3,0.8-0.8c0-0.9,0-1.8,0-2.7c0-0.6-0.3-0.8-0.9-0.8c-0.9,0-1.8,0-2.7,0c-3.3,0-5.5,2.1-5.6,5.4
		c-0.1,1.2-0.1,2.3,0,3.5c0,0.4-0.1,0.5-0.5,0.5c-0.7,0-1.3,0-2,0c-0.6,0-0.9,0.2-0.9,0.9c0,1,0,2,0,3c0,0.8,0.2,1,1,1
		C956.2,542.5,956.9,542.5,957.8,542.5z"/>
</g>
</svg>
