<?xml version="1.0" encoding="utf-8"?>
<!-- Generator: Adobe Illustrator 25.0.0, SVG Export Plug-In . SVG Version: 6.00 Build 0)  -->
<svg version="1.1" id="Calque_1" xmlns="http://www.w3.org/2000/svg" xmlns:xlink="http://www.w3.org/1999/xlink" x="0px" y="0px"
	 viewBox="0 0 1920 1080" style="enable-background:new 0 0 1920 1080;" xml:space="preserve">
<style type="text/css">
	.st0{fill:#431F4B;}
</style>
<g>
	<path class="st0" d="M959.2,515.8c1,0,2,0,3,0c0.1,0,0.2,0.1,0.4,0.1c3.8,0.3,7.3,1.3,10.5,3.3c6.7,4,10.7,9.7,12.2,17.4
		c0.2,0.9,0.3,1.8,0.4,2.7c0,1,0,2,0,3c0,0.2-0.1,0.3-0.1,0.5c-0.1,1-0.2,2-0.4,2.9c-1.9,10.1-10.1,18-20.2,19.7
		c-0.9,0.2-1.8,0.3-2.7,0.4c-1,0-2.1,0-3.1,0c-0.1,0-0.2-0.1-0.3-0.1c-2.1-0.2-4.2-0.5-6.2-1.3c-9.1-3.4-14.6-9.8-16.5-19.3
		c-0.2-0.9-0.3-1.9-0.4-2.8c0-1,0-2.1,0-3.1c0.1-0.9,0.2-1.8,0.4-2.7c1.7-10.1,9.7-18.3,19.7-20.2C957,516,958.1,515.9,959.2,515.8z
		 M948.2,540.7c0,1.7,0,3.3,0,5c0,4.3,3.3,7.5,7.6,7.5c3.3,0,6.6,0,9.9,0c4.2,0,7.5-3.3,7.5-7.5c0-3.3,0-6.6,0-10
		c0-4.2-3.3-7.5-7.5-7.5c-3.3,0-6.6,0-10,0c-4.2,0-7.5,3.3-7.5,7.5C948.2,537.4,948.2,539.1,948.2,540.7z"/>
	<path class="st0" d="M950.7,540.8c0-1.6,0-3.2,0-4.8c0-3.1,2.1-5.1,5.2-5.1c3.2,0,6.4,0,9.7,0c3,0,5.1,2.1,5.1,5.1
		c0,3.2,0,6.5,0,9.7c0,3-2.1,5.1-5.1,5.1c-3.2,0-6.5,0-9.7,0c-3,0-5.1-2.1-5.1-5.1C950.7,544,950.7,542.4,950.7,540.8z M954.2,540.7
		c0,3.6,2.9,6.4,6.4,6.5c3.6,0,6.5-2.9,6.5-6.4c0-3.6-2.8-6.5-6.4-6.5C957.1,534.3,954.3,537.1,954.2,540.7z M967.2,535.9
		c0.9,0,1.6-0.7,1.6-1.6c0-0.9-0.7-1.6-1.6-1.6c-0.9,0-1.6,0.7-1.6,1.6C965.6,535.1,966.3,535.9,967.2,535.9z"/>
	<path class="st0" d="M960.7,544.7c-2.2,0-3.9-1.8-3.9-3.9c0-2.2,1.8-4,4-3.9c2.2,0,3.9,1.8,3.9,4
		C964.6,543,962.9,544.7,960.7,544.7z"/>
</g>
</svg>
