<?xml version="1.0" encoding="utf-8"?>
<!-- Generator: Adobe Illustrator 25.0.0, SVG Export Plug-In . SVG Version: 6.00 Build 0)  -->
<svg version="1.1" id="Calque_1" xmlns="http://www.w3.org/2000/svg" xmlns:xlink="http://www.w3.org/1999/xlink" x="0px" y="0px"
	 viewBox="0 0 1920 1080" style="enable-background:new 0 0 1920 1080;" xml:space="preserve">
<style type="text/css">
	.st0{fill:#431F4B;}
</style>
<g>
	<path class="st0" d="M949.5,348.8c7.8,0,15.5,0,23.2,0c1,0.2,1.9,0.5,2.9,0.6c28.8,2.2,56,10.2,80.8,25
		c51.1,30.4,82.4,74.8,93.4,133.3c1.3,7,2,14.1,2.9,21.1c0,7.8,0,15.5,0,23.2c-0.2,1.2-0.5,2.4-0.6,3.6c-1,7.5-1.7,15.1-3.1,22.6
		c-14.9,77.3-77.5,138.4-155.2,151.6c-7,1.2-14,2-21.1,2.9c-8,0-16,0-24,0c-0.8-0.2-1.6-0.6-2.5-0.6c-16.3-1.2-32.2-4.2-47.5-9.8
		c-69.7-25.8-112.1-75.3-127-148.1c-1.4-7.1-2-14.3-3-21.4c0-8,0-16,0-24c1-7,1.7-14.1,2.9-21.1C785,429.9,846,367.5,923.2,352.5
		C931.9,350.9,940.7,350,949.5,348.8z M864.8,540.6c0,12.7,0,25.5,0,38.2c0.1,32.7,25.3,57.9,58,57.9c25.4,0.1,50.7,0.1,76.1,0
		c32.6-0.1,57.7-25.2,57.8-57.7c0.1-25.5,0.1-51,0-76.5c-0.1-32.5-25.3-57.7-57.8-57.7c-25.5-0.1-51-0.1-76.5,0
		c-32.3,0.1-57.5,25.3-57.7,57.5C864.7,515.1,864.8,527.8,864.8,540.6z"/>
	<path class="st0" d="M884.1,540.8c0-12.4,0-24.7,0-37.1c0.1-23.5,16.1-39.5,39.6-39.5c24.7,0,49.5,0,74.2,0
		c23.3,0,39.3,16,39.4,39.3c0.1,24.9,0.1,49.7,0,74.6c-0.1,23.3-16.1,39.2-39.4,39.3c-24.9,0.1-49.7,0.1-74.6,0
		c-23.1-0.1-39.1-16.1-39.2-39.1C884.1,565.7,884.1,553.2,884.1,540.8z M911.1,540.7c-0.1,27.5,21.9,49.5,49.4,49.7
		c27.4,0.1,49.7-22,49.8-49.3c0-27.6-21.8-49.7-49.2-49.9C933.4,491,911.2,513,911.1,540.7z M1010.7,503.3c6.7,0,12.2-5.4,12.3-12
		c0.1-6.8-5.5-12.4-12.3-12.4c-6.6,0-12.2,5.5-12.3,12.1C998.2,497.7,1003.8,503.3,1010.7,503.3z"/>
	<path class="st0" d="M960.6,571c-16.8-0.1-30.2-13.5-30.1-30.3c0-16.9,13.7-30.4,30.6-30.2c16.8,0.2,30.1,13.7,30,30.5
		C990.9,557.8,977.4,571.1,960.6,571z"/>
</g>
</svg>
