<?xml version="1.0" encoding="utf-8"?>
<!-- Generator: Adobe Illustrator 24.1.0, SVG Export Plug-In . SVG Version: 6.00 Build 0)  -->
<svg version="1.1" id="Calque_1" xmlns="http://www.w3.org/2000/svg" xmlns:xlink="http://www.w3.org/1999/xlink" x="0px" y="0px"
	 viewBox="0 0 414 402" style="enable-background:new 0 0 414 402;" xml:space="preserve">
<g>
	<g>
		<path d="M260.5,392.8c-38.2,0-76.5,0-114.8,0c-1.7-0.2-3.4-0.4-5.2-0.6c-11.5-1.3-23.2-1.9-34.5-4c-30.5-5.8-54.4-21.7-70-49
			c-9.7-17.1-13.2-35.9-14.8-55.2c-0.5-6.4-1-12.9-1.5-19.3c0-43.2,0-86.5,0-129.8c0.2-1.8,0.4-3.7,0.6-5.5
			c1.3-11.4,1.9-22.9,4-34.2c8-43.1,38.6-73.5,81.6-81.9c16.3-3.2,32.8-3.4,49.3-3.8c3.1-0.1,6.2-0.4,9.3-0.6c32,0,64,0,96,0
			c2.1,0.2,4.2,0.4,6.3,0.6c15.7,1.1,31.5,1.1,47,3.4c44.9,6.7,74.8,35.2,84.9,79.4c3.5,15.4,4.1,31.1,4.4,46.9
			c0.1,4.8,0.4,9.7,0.7,14.5c0,32,0,64,0,96c-0.2,4.5-0.6,8.9-0.7,13.4c-0.3,15.7-0.8,31.5-4.6,46.9c-10,41-35,67.2-76.2,77.4
			c-15.6,3.9-31.6,4.5-47.6,4.9C269.9,392.2,265.2,392.5,260.5,392.8z M368.5,195.2c0.2,0,0.3,0,0.5,0c0-14.2,0.4-28.5-0.1-42.7
			c-0.7-16.8-1.1-33.8-3.6-50.4c-3.7-24.3-17-42-40.8-50.7c-12.8-4.7-26.1-6.9-39.6-7.3c-26.6-0.7-53.2-1-79.8-1.2
			c-19-0.1-38,0.2-57,0.5c-14.1,0.2-28.2,0.9-42,4.5C82.8,54,67.3,68.1,60.3,91.3c-5,16.4-6.3,33.4-6.4,50.4
			c-0.3,40.4-0.4,80.7,0,121.1c0.1,12.3,1.3,24.8,3.8,36.8c6,29.8,24,48.7,54.3,54.1c12.5,2.2,25.3,3.5,38,3.7
			c36.5,0.6,73,0.9,109.5,0.5c16.7-0.2,33.5-1.2,50-3.6c29.3-4.3,49.1-23.1,55.1-51.4c2.4-11.2,3.7-22.7,4-34.2
			C368.9,244.2,368.5,219.7,368.5,195.2z"/>
		<path d="M310.3,200.6c0.1,54.4-43.8,98.4-98.3,98.5c-54.4,0.1-98.4-43.7-98.6-98.2c-0.1-54.6,44-98.8,98.5-98.7
			C266.4,102.3,310.2,146.1,310.3,200.6z M275.7,200.9c0.1-35.4-28.1-63.9-63.6-64.1c-35.4-0.2-64.1,28.2-64.2,63.5
			c-0.2,35.6,28.3,64.3,63.7,64.3C247.1,264.6,275.6,236.3,275.7,200.9z"/>
		<path d="M337.2,98.2c0,12.9-10.2,23.1-23.1,23c-12.6,0-22.8-10.3-22.9-22.9c0-12.8,10.3-23,23.1-23
			C327.1,75.4,337.2,85.5,337.2,98.2z"/>
	</g>
</g>
</svg>
