<?xml version="1.0" encoding="utf-8"?>
<!-- Generator: Adobe Illustrator 24.1.0, SVG Export Plug-In . SVG Version: 6.00 Build 0)  -->
<svg version="1.1" id="Calque_1" xmlns="http://www.w3.org/2000/svg" xmlns:xlink="http://www.w3.org/1999/xlink" x="0px" y="0px"
	 viewBox="0 0 510 507" style="enable-background:new 0 0 510 507;" xml:space="preserve">
<g>
	<path d="M11,162.6c36.9-0.1,73.8-0.1,110.7-0.2c5.4,0,10.8,0,16.5,0c0,109.8,0,219.3,0,329.7c-42.5,0-84.9,0-127.2,0
		C11,382.3,11,272.5,11,162.6z M116.8,470.4c0-95.7,0-191.1,0-286.5c-28.3,0-56.3,0-84.4,0c0,95.6,0,190.8,0,286.5
		C60.6,470.4,88.7,470.4,116.8,470.4z"/>
	<path d="M11,70c0.6-2.6,1.2-5.2,1.9-7.8c7.7-31,37.7-52.2,68.6-48.3c33,4.1,57,30.9,57.1,63.4c0.1,31.7-23.6,58.8-55.2,63.2
		c-33.9,4.7-66-18.9-71.5-52.7c-0.1-0.9-0.6-1.7-0.9-2.6C11,80.2,11,75.1,11,70z M117.1,77.4c0-23.3-19.3-42.7-42.5-42.6
		c-23.1,0.1-42,19-42.4,42.3c-0.4,22.9,19.1,42.6,42.4,42.7C98,119.8,117.1,100.8,117.1,77.4z"/>
	<path d="M499.8,491.8c-42.6,0-84.7,0-127.4,0c0-2.2,0-4.3,0-6.3c0-57-0.1-114,0.1-171c0-11.5-3.2-21.4-12.6-28.5
		c-9.8-7.4-20.8-8.8-32-3.9c-11.4,5-17.8,14-18.9,26.5c-0.2,2.5-0.2,5.1-0.2,7.6c0,56.5,0,113,0,169.5c0,1.9,0,3.7,0,5.9
		c-42.6,0-84.8,0-127.3,0c0-109.5,0-219,0-328.9c42.2,0,84.4,0,127.2,0c0,6.7,0,13.3,0,20.2c6.7-3.6,12.6-7.4,18.9-10.1
		c41.8-18.1,81.5-12.8,118.7,12.2c26.4,17.8,43.1,42.9,50.2,74c2.1,9.4,3.3,19.2,3.3,28.8c0.3,66.7,0.1,133.4,0.1,200.1
		C500,489.1,499.9,490.2,499.8,491.8z M288.4,233.5c-0.4-0.1-0.8-0.2-1.3-0.4c0-16.4,0-32.8,0-49.2c-28.5,0-56.5,0-84.6,0
		c0,95.6,0,190.8,0,286.4c28.3,0,56.3,0,84.8,0c0-2.2,0-4.1,0-6c0-50.3,0.2-100.6-0.1-150.9c-0.2-40.5,37.9-64.5,71.7-52
		c21.5,8,34.8,27.6,34.8,52c0.1,50.5,0,100.9,0,151.4c0,1.8,0,3.7,0,5.5c28.7,0,56.8,0,84.9,0c0.1-1.2,0.2-2,0.2-2.8
		c0-59.8,0.2-119.7-0.1-179.5c-0.1-27.1-9.4-51-27.9-71.1c-35.9-38.9-103.4-48.9-146.7-0.5C298.9,222.1,293.6,227.8,288.4,233.5z"/>
</g>
</svg>
