<?xml version="1.0" encoding="utf-8"?>
<!-- Generator: Adobe Illustrator 24.1.0, SVG Export Plug-In . SVG Version: 6.00 Build 0)  -->
<svg version="1.1" id="Calque_1" xmlns="http://www.w3.org/2000/svg" xmlns:xlink="http://www.w3.org/1999/xlink" x="0px" y="0px"
	 viewBox="0 0 363 361.34" style="enable-background:new 0 0 363 361.34;" xml:space="preserve">
<style type="text/css">
	.st0{fill:#FFFFFF;}
</style>
<g>
	<path class="st0" d="M304.77,241.97c1.2,0.99,0.47,1.37-0.54,1.43c-1.53,0.09-3.08,0.02-4.61,0.02c-0.08,0.37-0.16,0.74-0.23,1.11
		c1.44,0.49,2.84,1.2,4.32,1.43c4.52,0.7,9.09,1.1,13.6,1.84c1.74,0.28,3.38,1.14,5.07,1.73c-0.07,0.22-0.13,0.44-0.2,0.66
		c-0.96-0.22-1.92-0.43-3.42-0.77c2.04,2.65,3.76,4.89,5.48,7.12c-0.11,0.14-0.21,0.28-0.32,0.42c-1.8-1.76-3.52-3.6-5.41-5.26
		c-1.46-1.29-3.08-2.41-4.72-3.46c-0.33-0.21-1.09,0.24-1.64,0.37c-2.88-0.15-5.92-0.1-8.88-0.55c-1.99-0.3-4.03-1.07-5.77-2.09
		c-2.3-1.35-4.42-1.88-7.09-1.16c-1.76,0.47-3.77,0.05-5.66-0.04c-1.85-0.09-3.69-0.26-5.54-0.4c-0.11,0.33-0.22,0.65-0.32,0.98
		c0.88,0.58,1.7,1.5,2.66,1.68c4.3,0.84,8.64,1.48,12.98,2.18c4.59,0.74,9.21,1.33,13.78,2.22c3.13,0.61,5.18,2.31,6.58,5.16
		c-3.95-1.89-6.59-5.95-11.89-4.68c4.65,4.15,8.38,8.76,14.08,11.04c-4.5-0.12-7.08-3.58-10.4-6.14c0.02,3.94,2.95,7.12,7.52,8.47
		c2.18,0.65,4.39,1.19,5.25,4c-5.39,1.43-7.31-4.82-11.86-5.14c-0.05,0.55-0.11,1.16-0.16,1.77c-0.19,0.12-0.39,0.24-0.58,0.35
		c-0.58-8.47-3.74-14.73-13.03-15.86c0.52,1.05,1.01,2.03,1.88,3.78c-3.23-1.22-5.77-2.24-8.35-3.13c-1.13-0.39-2.35-0.5-3.53-0.73
		c0.66,0.94,1.24,1.96,2.01,2.81c0.59,0.66,1.41,1.13,2.12,1.68c-0.16,0.24-0.32,0.48-0.47,0.72c-1.82-1.28-4.18-2.2-5.36-3.93
		c-2.01-2.95-4.79-4.77-7.5-6.81c-2.11-1.59-4.08-3.35-6.36-4.88c0.41,2.7,2.11,4.75,3.86,6.61c1.84,1.94,4.07,3.52,5.89,5.71
		c-2.08-0.83-4.16-1.66-6.65-2.65c0.8,3.77,3.41,4.85,6.12,5.55c2.6,0.68,5.31,0.98,7.93,1.95c-2.34-0.2-4.69-0.41-7.03-0.61
		c-0.06,0.32-0.11,0.63-0.17,0.95c3.02,0.59,6.04,1.17,9.06,1.76c-0.03,0.17-0.05,0.34-0.08,0.51c-2.7-0.29-5.41-0.57-8.11-0.86
		c-0.03,0.15-0.05,0.3-0.08,0.46c3.93,1.01,7.87,2.02,12.2,3.14c-1.01-1.68-1.96-3.27-2.98-4.97c4.4-0.3,6.39,1.71,6.8,5.81
		c0.12,1.26,1.28,2.8,2.4,3.49c2.39,1.47,5.07,2.47,7.63,3.67c0.81,0.38,1.6,0.81,2.26,1.6c-1.72-0.54-3.44-1.08-5.15-1.62
		c-0.13,0.28-0.27,0.56-0.4,0.85c1.66,0.92,3.32,1.84,5.13,2.84c-0.03,0.36-0.08,1.03-0.12,1.55c-0.87-0.56-1.82-1.16-2.77-1.77
		c-0.22,0.25-0.44,0.5-0.66,0.76c1.47,2.21,2.95,4.43,4.42,6.64c-2.02-0.56-2.73-3.38-5.52-2.39c-0.25-0.79-0.66-1.62-0.77-2.49
		c-0.76-5.52-4.7-8.42-9.26-10.21c-3.55-1.4-7.53-1.71-11.33-2.46c-1.21-0.24-2.45-0.3-4.05-0.49c0.47,0.59,0.67,1.02,1.01,1.23
		c3.98,2.45,7.94,4.85,12.88,4.93c1.29,0.02,2.77,0.74,3.8,1.57c3.69,2.96,4.99,7.43,6.78,11.57c-1.71-2.67-3.43-5.33-5.14-8
		c-0.25,0.12-0.49,0.25-0.74,0.37c0.92,2.83,1.83,5.67,2.75,8.5c-0.17,0.05-0.34,0.11-0.51,0.16c-1.08-3.2-2.05-6.46-3.31-9.59
		c-0.44-1.1-1.44-2.43-2.47-2.76c-3.44-1.11-7.01-1.81-10.67-2.71c1.28,4.62,5.49,5.61,9.35,7.02c-0.16,0.23-0.31,0.46-0.47,0.69
		c-1.53-0.18-3.06-0.37-4.53-0.54c-0.15,0.3-0.31,0.53-0.27,0.56c3.15,3.36,4.77,8.07,9.72,9.88c2.5,0.92,4.54,3.08,6.79,4.69
		c-0.14,0.24-0.28,0.47-0.42,0.71c-0.52-0.04-1.04-0.09-1.82-0.15c0.25,0.74,0.44,1.31,0.65,1.93c-0.3,0.11-0.54,0.3-0.73,0.25
		c-2.52-0.68-3.98-2.46-5.2-4.68c-0.7-1.27-1.97-2.23-2.99-3.32c-0.24,0.22-0.49,0.43-0.73,0.65c1.08,1.54,2.16,3.07,3.24,4.61
		c-0.16,0.13-0.32,0.26-0.48,0.39c-1.77-1.68-3.54-3.35-5.48-5.19c-0.38,0.76-0.64,1.29-1,2.01c-1.66-5.25-1.22-11.59-8.38-13.27
		c0.92,1.33,1.84,2.66,2.76,3.98c-0.17,0.14-0.34,0.29-0.52,0.43c-0.61-0.66-1.23-1.31-1.82-1.98c-1.68-1.92-3.43-3.44-6.32-3.4
		c-1.42,0.02-2.86-1.1-4.65-1.85c0.33,4.26,0.86,8.24,4.42,10.75c3.2,2.26,6.73,4.05,10.1,6.03c-1.07-0.23-2.24-0.49-3.4-0.74
		c-0.08,0.19-0.16,0.38-0.25,0.57c1.31,0.6,2.63,1.2,4.09,1.86c-0.25,0.19-0.53,0.41-1.09,0.84c2.78,1.55,5.43,3.04,8.82,4.93
		c-3.05-0.49-5.42-0.88-7.79-1.27c-0.13,0.3-0.26,0.6-0.39,0.91c3.02,1.68,6.03,3.37,9.05,5.05c-0.03,0.07-0.05,0.15-0.08,0.22
		c-0.79-0.25-1.58-0.5-2.81-0.89c0.58,1.09,0.97,1.83,1.68,3.17c-2.24-1.87-4-3.33-6.17-5.13c-0.81,3.99,2.65,5.47,3.53,8.85
		c-1.27-1.37-2.05-2.22-3.24-3.51c0.15,1.36,0.23,2.14,0.31,2.92c-0.12,0.04-0.24,0.09-0.36,0.13c-0.25-0.82-0.6-1.62-0.74-2.45
		c-0.81-5.02-2.03-9.8-7.42-12.88c0.54,1.49,0.93,2.56,1.32,3.62c-2.83-2.81-2.74-7.65-7.25-9.55c1.66,7.21,2.11,14.66,9.58,18.84
		c-0.22,0.15-0.43,0.29-0.65,0.44c-1.3-0.76-2.61-1.52-4.1-2.38c-0.04,3.88,3.16,5.55,5.06,8.67c-1.87-1.24-3.31-2.2-5.05-3.35
		c-0.6-1.65-1.41-3.85-2.21-6.04c-0.23,0.05-0.47,0.1-0.7,0.15c-0.17,0.66-0.35,1.31-0.56,2.12c-0.23-0.24-0.46-0.37-0.49-0.54
		c-1.06-5.63-1.95-11.3-3.19-16.89c-1.14-5.17-4.34-8.92-9.02-11.37c-3.2-1.68-6.43-3.3-9.88-4.64c2.14,8.13,10.03,10.5,14.98,15.96
		c-2-1.26-4.05-2.44-5.98-3.8c-2.01-1.4-3.9-2.97-5.84-4.46c-0.23,0.2-0.45,0.41-0.68,0.61c0.7,1.01,1.25,2.18,2.12,3.01
		c2.51,2.42,5.28,4.59,7.69,7.11c2,2.1,3.62,4.55,5.4,6.85c-0.2,0.16-0.41,0.32-0.61,0.48c-1.62-2.08-3.24-4.17-4.86-6.25
		c0.53,5.63,0.93,11.13,5.34,15.16c0.77,0.71,2.29,1.29,1.11,3.19c-0.38,0.61,1.09,2.61,2.01,3.74c1.06,1.3,2.43,2.35,3.38,3.77
		c-2.8-1.68-5.15-3.7-6.4-6.88c-0.8-2.04-2.03-3.92-3.17-5.82c-1.09-1.82-2.32-3.55-3.71-5.66c0.26,1.99,0.48,3.63,0.69,5.26
		c-2.46-5.34-1.81-11.8-6.72-16.8c0.84,3.37,1.54,6.13,2.23,8.89c-0.22,0.11-0.44,0.23-0.66,0.34c-0.58-0.89-1.29-1.71-1.7-2.67
		c-0.95-2.22-1.64-4.55-2.65-6.74c-0.98-2.13-2.58-3.28-5.19-2.76c-1.21,0.24-2.54-0.14-4.03-0.26c1.53,2.82,2.91,5.35,4.28,7.88
		c-0.19,0.11-0.38,0.21-0.58,0.32c-1.97-2.75-3.93-5.5-5.9-8.25c-0.21,0.15-0.43,0.29-0.64,0.44c-0.02,3.78,2.09,6.69,5.01,8.51
		c6.57,4.1,11.42,9.62,15.07,16.32c1.54,2.83,3.27,5.41,6.43,6.66c0.38,0.15,0.72,0.4,0.75,1.1c-0.59-0.08-1.19-0.16-2.25-0.31
		c1.49,2.3,2.78,4.29,4.06,6.28c-0.19,0.14-0.38,0.28-0.57,0.42c-1.86-3.45-6.2-4.57-7.55-8.56c-0.31-0.91-1.27-1.6-1.94-2.39
		c-0.23,0.12-0.45,0.23-0.68,0.35c0.61,2.21,1.23,4.42,1.84,6.63c0.96,3.49,0.57,4.33-3.31,6.19c0.15-1.87,0.29-3.45,0.4-5.04
		c0.11-1.55,0.51-3.17,0.2-4.64c-0.71-3.33-1.6-6.65-2.74-9.85c-1.47-4.12-4.61-6.78-9-9.06c2.54,4.54,4.78,8.54,7.02,12.53
		c-0.29,0.17-0.57,0.34-0.86,0.51c-2.19-5.36-5.37-10-9.61-13.9c3.15,7.6,7.86,14.26,12.82,20.76c-0.2,0.15-0.39,0.3-0.59,0.45
		c-1.81-2.15-3.62-4.3-5.57-6.62c-0.22,2.58,0.43,4.4,2.4,6.34c2.28,2.25,2.74,4.96,2.52,8.19c-1.24-1.01-2.3-1.87-3.45-2.8
		c-0.26,0.55-0.45,0.97-0.69,1.48c-0.21-0.35-0.49-0.61-0.53-0.91c-0.34-2.38-0.55-4.79-0.98-7.16c-0.26-1.44,0.3-3.6-2.41-3.47
		c-0.22,0.01-0.52-0.76-0.72-1.2c-1.34-2.92-2.65-5.85-4.59-8.72c0.28,2.17,0.56,4.34,0.93,7.15c-1.81-2.89-2.17-5.54-1.91-8.19
		c0.84-8.38-4.24-14.95-6.59-22.37c-0.75,4.43,1.66,8.15,2.82,12.15c-0.2,0.08-0.4,0.16-0.6,0.23c-1.32-2.87-2.63-5.74-3.95-8.61
		c-0.26,0.06-0.51,0.12-0.77,0.18c0.46,2,0.69,4.09,1.45,5.96c0.76,1.87,2.05,3.52,3.1,5.27c-0.21,0.14-0.42,0.29-0.63,0.43
		c-1.46-2.17-2.91-4.33-4.53-6.75c-0.41,4.98,2.77,7.98,5.27,11.43c-0.54-0.24-1.07-0.48-1.61-0.73c-0.11,0.09-0.22,0.19-0.33,0.28
		c1.25,1.83,2.51,3.65,3.76,5.48c-0.11,0.07-0.21,0.13-0.32,0.2c-1.55-1.66-3.1-3.33-4.64-4.99c-0.24,0.07-0.48,0.14-0.72,0.2
		c0,3.12-0.08,6.25,0.08,9.37c0.03,0.54,0.95,1.27,1.61,1.51c7.26,2.62,12.2,7.25,13.61,15.14c0.41,2.27,1.15,4.48,1.58,6.75
		c0.15,0.81-0.16,1.71-0.32,3.01c-2.44-2.4-2.43-4.97-2.2-7.5c0.5-5.32-2.11-9.01-6.42-11.84c0.82,1.21,1.64,2.41,2.72,4
		c-2.26-1.78-4.46-2.69-5.1-5.62c-0.55-2.51-2.53-3.03-5.45-2.16c1.99,3.03,3.93,5.97,5.87,8.91c-0.12,0.08-0.25,0.15-0.37,0.23
		c-0.95-1.26-1.9-2.51-2.85-3.77c-0.23,0.14-0.45,0.29-0.68,0.43c1.01,4.76,4.13,8.42,7.02,12.22c-2.98-1.46-4.29-5.14-8.17-6.08
		c0.03,3.89,3.09,5.52,4.38,8.12c-2.49-2.13-4.98-4.06-5.19-7.9c-0.19-3.46-1.1-6.9-1.84-10.31c-0.24-1.11-0.97-2.12-1.76-3.07
		c-0.9,5.04-0.37,9.85,1.87,14.34c2.17,4.34,4.61,8.55,6.72,13.05c-1.61-1.97-3.22-3.95-4.83-5.92c-0.14,0.04-0.29,0.09-0.43,0.13
		c0.16,1.56,0.33,3.11,0.5,4.8c-0.26-0.16-0.38-0.2-0.38-0.24c-0.3-7.17-4.2-13.41-5.32-20.36c-0.24-1.47-0.32-2.98-0.33-4.48
		c-0.05-4.49-1.82-6.35-6.9-6.79c1.22,1.86,2.33,3.56,3.45,5.26c-0.16,0.16-0.33,0.31-0.49,0.47c-0.82-1.1-1.65-2.2-2.81-3.75
		c-0.57,3.41,0.78,5.35,2.11,7.36c1.25,1.89,2.29,3.91,3.42,5.88c-0.19,0.12-0.38,0.23-0.57,0.35c-0.81-0.95-1.62-1.89-2.43-2.84
		c-0.17,0.09-0.35,0.17-0.52,0.26c0.72,2.31,1.45,4.62,2.17,6.94c-0.15,0.06-0.31,0.12-0.46,0.18c-1.78-4.31-3.56-8.62-5.34-12.93
		c-0.32,0.12-0.63,0.23-0.95,0.35c-1.15,5.51,3.18,9.75,3.96,14.93c-5.76-5.69-5.02-13.09-5.16-20.25
		c-0.42,0.12-0.85,0.25-1.27,0.37c-1.45,11.99,2.39,22.38,10.95,31.34c-0.32,0.16-0.64,0.32-0.96,0.48
		c-1.64-1.99-3.28-3.99-5.36-6.52c0.08,1.57,0.11,2.35,0.15,3.24c-0.31-0.15-0.5-0.18-0.53-0.27c-2.5-6.83-4.63-13.78-5.46-21.02
		c-0.32-2.83,0.31-5.78,0.62-8.67c0.32-3.07-0.14-3.45-3.04-4.03c-1.39-0.28-2.58-1.57-4.05-2.52c-0.91,1.63-1.18,3.45-0.22,5.5
		c0.98,2.1,1.76,4.28,2.64,6.43c-0.22,0.08-0.43,0.17-0.65,0.25c-0.83-1.94-1.65-3.88-2.48-5.82c-1.38,2.7,0.26,5.01,0.36,7.61
		c-0.7-1.18-1.39-2.35-2.07-3.5c-0.24,0.07-0.52,0.09-0.52,0.15c-0.8,7.25-0.67,14.03,6.48,18.71c2.41,1.57,4.02,4.37,5.99,6.61
		c-0.18,0.14-0.35,0.29-0.53,0.43c-2.94-2.78-5.89-5.56-8.83-8.34c-0.23,0.23-0.45,0.46-0.68,0.68c1.44,3.62,4.83,5.59,8.06,8.69
		c-1.52-0.55-2.34-0.84-3.64-1.31c0.99,1.36,1.68,2.31,2.73,3.75c-1.87-1.13-3.23-1.94-5.06-3.05c0,2.35,0,4.11,0,5.87
		c-0.2,0.02-0.4,0.04-0.6,0.06c-0.44-2.5-0.59-5.09-1.41-7.46c-0.85-2.48-2.69-4.36-5.59-5.17c0,0.75,0,1.42,0,2.35
		c-1.27-1.55-2.35-2.86-3.68-4.47c0.35,3.95,0.65,7.42,0.96,10.89c-0.29,0.04-0.59,0.07-0.88,0.11c-0.13-1.63-0.26-3.26-0.4-4.88
		c-0.16-0.01-0.31-0.03-0.47-0.04c-0.36,0.85-0.71,1.71-1.07,2.56c-0.14-0.02-0.28-0.03-0.42-0.05c0.13-1.14,0.34-2.27,0.35-3.41
		c0.02-1.66,0.41-3.57-0.27-4.92c-2-3.97-4.45-7.72-7.08-12.16c-1.38,6.53,1.87,10.81,4.7,15.22c-0.16,0.12-0.32,0.24-0.49,0.36
		c-0.49-0.52-0.99-1.04-1.48-1.56c-0.55-0.58-1.1-1.16-1.64-1.74c-0.25,0.15-0.49,0.3-0.74,0.45c1.47,3.1,2.94,6.2,4.41,9.3
		c-0.11,0.07-0.21,0.13-0.32,0.2c-0.86-1.12-1.72-2.24-2.58-3.36c-0.2,0.08-0.4,0.15-0.6,0.23c0.23,1.65,0.47,3.3,0.7,4.95
		c-0.09,0.02-0.18,0.05-0.27,0.07c-0.36-0.85-0.72-1.7-1.08-2.55c-0.14,0-0.29-0.01-0.43-0.01c-0.11,1.8-0.23,3.59-0.34,5.39
		c-0.22,0.01-0.45,0.03-0.67,0.04c-0.4-4.25-0.79-8.5-1.19-12.75c-0.29,0.01-0.59,0.02-0.88,0.03c-0.23,0.82-0.47,1.64-0.7,2.46
		c-0.23,0-0.45,0.01-0.68,0.01c0-1.53-0.09-3.06,0.02-4.58c0.16-2.15,0.45-4.3,0.73-6.44c0.65-5.1,1.1-10.23,2.03-15.28
		c1.02-5.53,1.89-11.01,0.82-16.61c-0.18-0.93-0.56-1.81-1.45-2.75c-0.68,1.82-1.29,3.67-2.05,5.46c-1.23,2.91-2.54,5.78-3.86,8.65
		c-1.49,3.25-1.39,3.84,1.15,6.33c0.87,0.85,1.67,1.76,2.5,2.64c-0.15,0.22-0.31,0.44-0.46,0.67c-1.95-1.08-3.91-2.16-5.92-3.27
		c-0.97,1.69-1.31,2.96,0.79,4.31c3.07,1.96,4.8,4.92,4.8,8.74c-1.45-3.36-2.97-6.64-7.24-8.55c0.09,1.44-0.01,2.53,0.26,3.52
		c1.53,5.79,3.16,11.56,4.73,17.34c0.21,0.78,0.3,1.59,0.1,2.5c-0.31-0.88-0.61-1.77-1.09-3.15c-0.51,0.95-0.78,1.44-1.22,2.25
		c-0.35-2.11-0.64-3.91-0.94-5.7c-0.27,0.01-0.54,0.02-0.81,0.03c-0.26,5.14-0.52,10.27-0.77,15.41c-0.18,0.02-0.36,0.03-0.53,0.05
		c-0.16-2.76-0.32-5.53-0.48-8.29c-0.22-0.02-0.44-0.04-0.66-0.07c-0.43,1.53-0.86,3.06-1.28,4.59c-0.08,0-0.15-0.01-0.23-0.01
		c0-1.38,0-2.77,0-4.36c-0.5,0.31-0.99,0.61-2.08,1.28c1.48-3.16,2.69-5.76,3.9-8.36c-0.25-0.16-0.51-0.32-0.76-0.48
		c-1.21,1.54-2.43,3.09-3.64,4.63c-0.17-0.1-0.34-0.19-0.51-0.29c0.92-1.62,1.62-3.43,2.81-4.82c2.92-3.44,2.76-6.7-0.2-10.13
		c-0.23,0.35-0.6,0.68-0.69,1.08c-0.69,3.03-0.75,6.37-2.14,9.02c-1.37,2.62-0.63,4.91-0.51,7.8c-0.69-0.8-1.14-1.31-1.75-2.02
		c-0.23,1.12-0.44,2.1-0.64,3.08c-0.25-0.02-0.5-0.04-0.76-0.06c0.22-2.66,0.43-5.33,0.69-8.47c-1.45,1.53-2.6,2.74-3.81,4.02
		c-0.04-0.56-0.08-1.21-0.12-1.95c-0.22,0.02-0.49-0.03-0.64,0.08c-0.65,0.49-1.7,0.94-1.83,1.57c-0.65,3.2-3.87,5.74-2.47,9.46
		c0.08,0.2-0.06,0.48-0.57,0.82c-0.35-2.05-0.7-4.09-1.14-6.7c-1.9,1.61-3.42,2.89-4.93,4.18c-0.11-0.09-0.21-0.19-0.32-0.28
		c0.81-1.12,1.62-2.24,2.87-3.97c-1.41,0.5-2.05,0.73-3.2,1.14c2.68-3.05,6.27-4.8,7.17-8.67c-4.28,1.77-6.58,5.59-9.35,8.91
		c-0.17-0.12-0.34-0.23-0.51-0.35c0.86-1.32,1.58-2.79,2.62-3.94c2.07-2.28,4.31-4.4,6.5-6.56c4.96-4.89,4.73-10.93,4.28-17.03
		c-0.25-0.1-0.5-0.21-0.75-0.31c-0.97,1.61-1.95,3.23-2.92,4.84c-0.11-0.05-0.22-0.11-0.33-0.16c1.05-2.77,2.11-5.55,3.16-8.32
		c-0.31-0.14-0.62-0.28-0.94-0.42c-0.97,1.99-1.95,3.98-2.92,5.98c-0.15-0.07-0.31-0.13-0.46-0.2c0.86-2.02,1.55-4.13,2.61-6.02
		c1.11-1.97,0.87-3.58-0.57-5.42c-0.81,1.04-1.53,1.96-2.48,3.19c-0.36-0.96-0.59-1.56-1.01-2.66c-0.42,0.92-0.67,1.45-0.91,1.99
		c-0.26,0.58-0.38,1.53-0.79,1.68c-2.68,0.94-2.11,3.01-1.86,4.96c0.52,4.01,0.5,7.95-1.03,11.81c-0.51,1.28-0.69,2.76-0.73,4.15
		c-0.07,2.34-0.15,4.43-1.93,6.43c-1.04,1.16-0.91,3.37-1.39,5.5c-0.26-1.17-0.45-2-0.75-3.36c-1.9,2.39-3.51,4.41-5.11,6.42
		c-0.19-0.14-0.39-0.28-0.58-0.42c1.39-1.99,2.58-4.16,4.22-5.92c2.71-2.9,4.29-6,4.65-10.11c0.38-4.33,2.42-8.49,1.7-13.01
		c-0.15-0.94-0.26-1.89-0.39-2.83c-0.24-0.03-0.48-0.05-0.72-0.08c-0.24,0.96-0.64,1.91-0.7,2.88c-0.14,2.24-0.2,4.5-0.13,6.75
		c0.13,4.44-2.14,7.89-4.58,11.34c1.01-5.13,4.83-9.66,3.52-15.24c-0.32-0.11-0.63-0.23-0.95-0.34c-1.57,4.08-3.14,8.15-4.71,12.23
		c-0.16-0.05-0.32-0.1-0.48-0.15c0.65-2.44,1.29-4.87,1.94-7.31c-0.18-0.09-0.37-0.18-0.55-0.27c-0.85,1.05-1.71,2.1-2.56,3.15
		c-0.2-0.09-0.39-0.19-0.59-0.28c1.53-4.27,6.38-7.15,5.87-13.11c-1.7,2.18-2.99,3.83-4.28,5.48c-0.19-0.12-0.38-0.25-0.57-0.37
		c1.53-2.18,3.06-4.36,4.58-6.54c-0.1-0.17-0.2-0.33-0.3-0.5c-2.01,1.02-4.09,1.92-5.99,3.12c-0.63,0.4-1.21,1.59-1.11,2.32
		c0.97,6.88-0.73,13.12-3.76,19.27c-1,2.03-0.69,4.71-1.34,7.12c-0.06-1.07-0.12-2.15-0.21-3.77c-1.71,2.05-3.15,3.77-4.59,5.5
		c3.85-8.56,10.67-16.1,8.23-26.52c-0.26-0.14-0.52-0.28-0.78-0.42c-0.49,0.83-1.29,1.61-1.42,2.49c-0.37,2.63-0.53,5.3-0.68,7.96
		c-0.28,4.86-2.85,8.25-6.88,10.74c1.25-1.48,2.53-2.94,3.75-4.45c0.47-0.58,1-1.23,1.13-1.91c0.12-0.68-0.23-1.45-0.37-2.18
		c-0.6,0.27-1.35,0.39-1.79,0.82c-1.79,1.77-3.49,3.63-5.57,5.2c3.38-4.01,5.98-8.38,7.69-13.25c-0.27-0.19-0.53-0.39-0.8-0.58
		c-1.22,1.57-2.45,3.15-3.67,4.72c-0.14-0.08-0.28-0.16-0.42-0.23c0.78-1.22,1.54-2.46,2.36-3.66c0.89-1.3,1.93-2.5,2.72-3.85
		c0.26-0.44,0.13-1.46-0.22-1.8c-0.32-0.31-1.39-0.32-1.77-0.02c-1.13,0.92-2.72,1.92-2.97,3.14c-0.62,2.93-3.32,3.55-5.06,5.27
		c0.89-1.3,1.77-2.6,2.66-3.89c-4.34,2.34-5.98,6.61-5.25,11.57c0.32,2.17-0.1,4.46-0.64,6.71c-2.08-1.71-1.4-3.78-1.24-5.84
		c0.78-9.8,5.42-16.33,15.54-18.62c0-3.56,0-7.25,0-11.49c-1.86,2.14-3.47,4-5.09,5.87c-0.27-0.25-0.54-0.49-0.81-0.74
		c1.23-1.47,2.46-2.94,4.04-4.84c-1.11,0.39-1.78,0.62-2.44,0.86c3.65-3.4,7.11-6.81,6.11-12.57c-1.54,2.46-2.99,4.8-4.45,7.14
		c-0.21-0.11-0.43-0.22-0.64-0.33c1.77-3.81,5.22-7.07,3.81-11.98c-1.27,2.93-2.54,5.86-3.81,8.79c-0.22-0.07-0.45-0.15-0.67-0.22
		c1.37-3.58,3.6-6.96,2.93-11.44c-0.49,0.57-0.82,0.82-0.96,1.15c-3,7.04-6.2,13.98-6.47,21.88c-0.09,2.61-1.17,5.19-1.8,7.78
		c-0.31-0.07-0.62-0.14-0.93-0.21c0.53-2.62,1.05-5.24,1.58-7.86c-0.29-0.07-0.58-0.13-0.86-0.2c-0.38,1.47-0.66,2.97-1.15,4.4
		c-0.91,2.65-1,5.84-4.48,6.93c-0.47,0.15-0.8,1.39-0.84,2.15c-0.15,2.58-0.13,5.16-0.2,7.74c-0.02,0.87-0.08,1.73-0.54,2.64
		c-0.28-0.97-0.56-1.93-0.87-3.01c-1.01,0.7-1.92,1.33-2.98,2.07c-1.23-2.63-0.75-4.62,1.13-6.28c1.84-1.63,2.89-3.52,2.4-6.59
		c-2.06,2.62-3.85,4.9-5.64,7.19c-0.27-0.17-0.55-0.34-0.82-0.51c0.6-1.09,1.13-2.22,1.81-3.26c3.72-5.7,7.48-11.38,11.19-17.09
		c0.34-0.52,0.43-1.19,0.46-1.89c-4.59,3.58-7.6,8.27-9.74,13.61c0.67-4.66,2.96-8.51,6.06-12.12c-3.39,0.36-8.15,4.85-9.12,8.41
		c-1.61,5.86-3.47,11.69-1.94,17.89c0.12,0.46,0.02,0.98,0.02,1.86c-2.33-1.19-3.09-2.88-2.76-5.1c0.41-2.78,0.91-5.54,1.37-8.31
		c-0.27-0.12-0.54-0.24-0.8-0.37c-1.54,2.54-3.08,5.09-4.64,7.66c-1.34-0.47-1.34-0.47-4.81,2.51c1.43-1.98,2.86-3.96,4.72-6.53
		c-1.72,0.51-2.68,0.8-3.8,1.13c0.19-0.35,0.23-0.57,0.35-0.62c4.6-1.89,6.83-5.86,8.88-10.01c2.53-5.1,6.5-8.74,11.45-11.5
		c3.96-2.2,7.19-5.1,7.44-10.85c-2.47,2.82-4.55,5.19-6.63,7.56c-0.28-0.21-0.56-0.41-0.84-0.62c1.47-2.14,2.95-4.29,4.44-6.46
		c-5.24-1.13-9.82,0.52-9.74,4.48c1.22-0.3,2.37-0.59,3.52-0.87c0.87,2.34,0.33,4.57-1.44,5.68c-1.3,0.81-2.68,1.47-3.58-0.6
		c-0.83,1.07-1.51,1.94-2.19,2.81c-0.21-0.09-0.42-0.19-0.62-0.28c0.72-2.63,1.45-5.26,2.36-8.59c-5.2,4.65-4.17,11.13-7.05,16.57
		c-0.13-1.22-0.2-1.86-0.26-2.49c-0.86-0.22-7.14,8.97-7.67,11.23c-0.84-2.43-0.53-4.39,1.44-6.1c4.66-4.03,5.85-9.62,6.84-15.27
		c-0.23-0.16-0.45-0.32-0.68-0.47c-1.87,2.43-3.75,4.86-5.88,7.63c0.95-3.5,2.43-6.13,5.2-8.08c3.32-2.35,6.54-4.86,9.73-7.4
		c0.62-0.49,0.9-1.39,1.11-2.35c-4.95,1.39-7.9,6.49-13.56,6.78c5.48-4.83,13.55-6.8,15.9-15.6c-5.58,2.58-11.14,3.69-15.12,7.83
		c-0.97,1-1.53,2.54-1.92,3.93c-1.15,4.16-1.95,8.42-3.2,12.56c-0.93,3.1-2.33,6.05-3.45,8.9c-0.05-0.5-0.13-1.29-0.22-2.21
		c-2.23,1.1-1.77,3.27-2.47,4.93c-0.64,1.5-2.15,2.63-3.56,3.65c1.21-2.23,2.41-4.45,3.62-6.68c-0.24-0.17-0.49-0.35-0.73-0.52
		c-1.12,0.6-2.24,1.2-3.36,1.81c-0.25-0.16-0.5-0.32-0.75-0.49c8.04-3.76,7.29-11.7,9.91-18.68c-4.79,2.91-5.1,8.33-8.77,11.5
		c0.24-0.93,0.48-1.87,0.82-3.16c-5.05,2.71-5.58,7.53-6.97,11.96c0-0.76,0-1.52,0-2.71c-0.85,0.75-1.38,1.21-2.46,2.15
		c1.32-2.19,2.29-3.8,3.25-5.41c-0.18-0.16-0.35-0.32-0.53-0.47c-2.02,0.57-4.04,1.14-6.06,1.7c-0.06-0.15-0.12-0.3-0.18-0.45
		c2.71-1.48,5.41-2.96,8.12-4.44c-0.13-0.33-0.27-0.66-0.4-1c-2.23,0.3-4.45,0.61-7,0.95c2.87-1.67,5.42-3.15,8.5-4.94
		c-1.13-0.11-1.66-0.17-2.71-0.27c2.18-0.82,3.94-1.48,5.71-2.14c-0.06-0.24-0.12-0.48-0.18-0.72c-1.46,0.29-2.92,0.58-4.38,0.87
		c-0.16-0.18-0.32-0.36-0.48-0.54c8.65-1.81,15.39-5.38,15.12-15.46c-0.07-0.04-0.27-0.21-0.34-0.17c-1.96,1.22-3.87,1.98-6.39,1.87
		c-1.32-0.06-2.78,2.07-4.09,3.32c-0.75,0.71-1.29,1.63-1.93,2.45c-0.23-0.16-0.46-0.32-0.7-0.49c1.11-1.58,2.22-3.16,3.35-4.76
		c-3.01-0.25-5.34,1.24-6.26,3.97c-0.37,1.1-0.83,2.19-1.07,3.33c-0.61,2.97-0.96,5.89-5.07,6.25c-1.16,0.1-2.17,1.85-3.64,2.57
		c0.66-0.85,1.22-1.8,2-2.51c0.79-0.73,1.79-1.22,2.69-1.82c-0.34-0.4-0.67-0.79-1.01-1.19c-1.13,0.83-2.32,1.6-3.36,2.53
		c-0.46,0.41-0.56,1.21-0.95,1.74c-1.55,2.12-3.37,3.57-6.4,1.84c0.82-2.1,1.76-4.19,4.44-5.13c5.33-1.88,9.33-5.75,11.22-10.72
		c-1.65,0-3.23,0-4.82,0c-0.09-0.19-0.18-0.39-0.27-0.58c4.16-0.85,8.12-1.96,9.51-6.37c-3.41,0.62-6.85,1.07-10.17,1.96
		c-1.03,0.28-1.9,1.67-2.54,2.74c-0.52,0.86-0.58,2-1.21,2.97c-0.04-0.93-0.09-1.87-0.14-3.12c-3.07,2.52-3.32,5.82-3.76,9.07
		c-0.76-3.51,0.41-6.56,2.28-9.4c1.69-2.57,3.89-4.1,7.24-3.92c4.67,0.26,8.26-2.4,11.89-4.78c-0.05-0.27-0.09-0.53-0.14-0.8
		c-2.5,0.21-5.19-0.08-7.47,0.75c-3.72,1.35-7.92,1.07-11.25,4.07c-2.6,2.35-4.4,4.82-5.4,8.12c-0.76,2.51-1.9,4.9-2.88,7.35
		c-0.24-0.1-0.49-0.2-0.73-0.3c0.8-1.68,1.59-3.36,2.39-5.04c-0.17-0.19-0.35-0.39-0.52-0.58c-1.12,0.79-2.24,1.57-4,2.82
		c1.4-2.45,2.45-4.3,3.69-6.47c-1.29,0.19-2.24,0.34-3.79,0.57c2.34-1.32,4.11-2.32,5.88-3.31c-0.16-0.36-0.31-0.72-0.47-1.08
		c-1.69,0.53-3.37,1.07-5.06,1.6c-0.07-0.17-0.14-0.34-0.21-0.51c1.37-0.6,2.79-1.11,4.1-1.83c3.19-1.73,6.47-3.35,9.44-5.41
		c2.95-2.05,5.92-3.61,9.57-3.85c1.87-0.12,3.71-0.63,5.56-0.97c-0.01-0.23-0.03-0.46-0.04-0.7c-2.31,0.11-4.63,0.21-6.94,0.32
		c-0.01-0.13-0.02-0.26-0.04-0.39c2.52-0.45,5.03-0.91,7.55-1.36c-0.03-0.32-0.06-0.64-0.09-0.95c-2.59,0.19-5.18,0.38-7.77,0.57
		c0-0.11-0.01-0.22-0.01-0.34c3.58-0.74,7.18-1.39,10.74-2.24c2.4-0.57,3.84-2.13,3.92-5.01c-2.41,1.17-4.63,2.26-6.85,3.34
		c-0.23-0.29-0.46-0.58-0.68-0.86c7.36-2.59,9.52-10.02,14.68-14.65c-0.13-0.19-0.26-0.37-0.39-0.56c-1.54,1.1-3.27,2.01-4.6,3.33
		c-2.87,2.86-5.14,6.39-9.39,7.56c-0.5,0.14-1.17,0.66-1.27,1.11c-0.73,3.26-4.04,4-5.9,6.14c-0.36,0.42-1.22,0.4-1.85,0.58
		c-0.19-0.27-0.38-0.54-0.56-0.81c1.76-1.39,3.52-2.77,5.28-4.16c-0.2-0.27-0.4-0.54-0.59-0.82c-3.96,0.86-7.13,4.79-11.79,3.03
		c0.45-0.64,1.03-1.46,1.7-2.41c-8.71,1.29-12.82,6.32-13.09,14.85c-0.27-0.46-0.53-0.92-0.75-1.3c-4.5,0.41-6.48,5.81-11.47,5.72
		c-0.01-2.69,1.85-3.1,3.46-3.88c2.22-1.08,4.56-2.08,6.46-3.61c1.27-1.02,1.85-2.9,2.36-4.73c-3.15,2.24-5.84,4.96-9.07,5.12
		c3.87-3.1,8.22-6.59,12.57-10.08c-0.16-0.24-0.32-0.49-0.48-0.73c-3.97-0.82-6.8,2.15-10.25,3.49c1.02-2.07,2.37-3.22,5.75-3.78
		c6.47-1.08,13-1.75,19.48-2.78c2.75-0.44,5.44-1.29,8.12-2.08c0.72-0.21,1.3-0.87,1.8-1.82c-7.22,0.21-14.51-0.34-20.93,4.25
		c-0.09-0.25-0.18-0.5-0.27-0.75c1.89-1.05,3.77-2.11,5.66-3.16c-0.08-0.2-0.17-0.4-0.25-0.6c-1.16,0.56-2.29,1.18-3.48,1.66
		c-1.59,0.64-3.19,1.49-4.84,1.67c-3.2,0.36-6.5,0.05-9.67,0.57c-1.8,0.29-3.59,1.45-5.07,2.61c-1.88,1.47-3.43,3.35-5.13,5.06
		c-0.14-0.15-0.28-0.31-0.42-0.46c1.72-2.04,3.45-4.09,5.49-6.51c-1.71,0.26-3.02,0.46-4.33,0.66c6.93-4.31,15.41-1.89,22.64-4.85
		c-0.02-0.32-0.03-0.64-0.05-0.96c-1.76-0.3-3.53-0.6-5.29-0.91c3.65-1.14,8.07,1.36,10.85-3.3c-3.37,0.4-6.74,0.79-9.96,1.17
		c2.11-2.77,5.18-4,9.3-3.32c-1.64,0.42-2.84,0.72-4.52,1.14c3.44,0.87,5.74,0.12,7.32-2.44c-7.51,0.68-14.99-2.45-21.88,1.89
		c-1.33,0.84-2.18,2.45-3.24,3.72c-0.36,0.44-0.59,1.11-1.04,1.34c-3.29,1.62-6.62,3.16-9.94,4.72c-0.28,0.13-0.6,0.17-1.05-0.04
		c1.75-1.01,3.5-2.03,5.25-3.04c-0.07-0.19-0.13-0.38-0.2-0.58c-0.95-0.09-1.95-0.04-2.85-0.3c-0.95-0.27-1.83-0.84-2.73-1.28
		c0.82-0.68,1.54-1.62,2.48-1.96c1.3-0.48,2.78-0.43,4.15-0.74c1.98-0.46,4.16-0.66,5.85-1.66c3.72-2.19,7.55-3.33,11.87-3.18
		c2.92,0.1,5.85-0.16,8.78-0.26c0.04-0.4,0.07-0.8,0.11-1.2c-3.2-0.51-6.38-1.31-9.59-1.42c-2.18-0.08-4.38,0.87-6.59,1.26
		c-4.15,0.74-8.38,2.2-12.45,1.84c-2.72-0.24-4.97,0.07-7.37,0.93c-0.18-0.19-0.36-0.39-0.54-0.58c0.27-0.04,0.56-0.05,0.82-0.15
		c0.22-0.08,0.41-0.27,0.92-0.62c-0.88-0.17-1.5-0.28-2.13-0.4c0-0.09,0.01-0.19,0.01-0.28c1.77-0.12,3.55-0.25,5.32-0.37
		c0.03-0.26,0.06-0.51,0.09-0.77c-1.66-0.29-3.31-0.58-4.97-0.87c0.04-0.23,0.07-0.45,0.11-0.68c2.2,0.44,4.46,0.71,6.6,1.35
		c5.68,1.7,10.95,0.62,16.33-1.97c-0.84-0.94-1.52-1.71-2.21-2.47c2.83,2.63,6.49,1.49,9.68,2.26c4.44,1.07,8.83,2.34,13.24,3.54
		c1.01,0.28,1.99,0.63,3.45,1.09c-1.12-1.49-1.89-2.51-2.81-3.73c2.19-0.9,3.67-0.35,4.85,1.16c1.02,1.3,2.02,1.4,3.66,0.89
		c2.58-0.81,5.35-1.44,8.03-1.39c6.21,0.12,12.28-0.38,18.31-1.88c6.14-1.52,12.09,0.04,17.95,1.69c6.2,1.75,12.53,2.35,18.81,1.54
		c9.28-1.2,16.83-5.99,21.17-14.27c8.11-15.48,10.4-31.84,5.09-48.81c-2.76-8.83-9.24-11.97-18.89-10.37c-2.8,0.46-5.5,1.8-8.1,3.06
		c-2.02,0.98-2.13,4.77-0.41,6.17c2.46,2,2.95,4.19,1.63,7.48c-1.01-0.15-2.02-0.31-3.13-0.48c-0.09-0.71-0.16-1.36-0.25-2.01
		c-0.09-0.65-0.19-1.29-0.32-2.14c-0.88,0.26-1.63,0.47-2.98,0.87c-0.21-2-0.4-3.86-0.58-5.57c-4.02,2.34-6.78,8.95-5.34,13.63
		c0.56,1.82,1.48,3.54,2.07,5.35c0.28,0.87,0.2,1.85-0.04,2.81c-1.08-2.53-2.34-5-3.17-7.61c-0.64-2.02-1.57-2.19-3.28-1.44
		c-0.85,0.38-1.84,0.45-3,0.7c0.3-2.6,1.5-4.07,3.33-5.33c1.15-0.79,2.11-2.02,2.83-3.24c1.47-2.49,2.71-5.11,4.03-7.63
		c-3.9,0.71-8.62,5.06-13.99,12.98c-0.33-0.53-0.63-1.02-1.03-1.67c-3.22,3.04-6.38,5.86-9.34,8.87c-3.2,3.25-6.28,6.61-9.27,10.06
		c-1.31,1.52-1.89,3.27-1.28,5.53c0.64,2.4-0.06,4.75-2.51,6.47c-2.55-3.77,0.6-6.62,1.46-9.76c-1.89,0.03-1.82,0.06-3.09,3.1
		c-0.63,1.51-1.55,2.89-2.3,4.27c-1.17-1.19-2.17-2.2-3.37-3.4c0.3-2.46,1.79-4.52,4.4-4.74c4.61-0.38,6.49-3.83,9.21-7.21
		c-0.97-0.14-1.5-0.35-1.97-0.26c-4.42,0.8-8.81,1.71-13.24,2.44c-1.61,0.26-2.65,0.85-3.48,2.33c-0.86,1.53-2.2,2.78-3.63,3.95
		c-1.05,1.97,3.08,2.56,1.35,5.3c-1.61,2.56-4.13,1.14-6.24,2.2c-0.07-1.34-0.13-2.53-0.2-3.84c-1.55,0.24-2.97,0.47-4.46,0.7
		c0.31-3.27,2.29-5,5.46-5.05c3.3-0.05,6.09-1.86,7.34-5.01c-0.88-0.05-1.66-0.2-2.42-0.12c-6,0.71-12.01,1.39-17.99,2.27
		c-1.05,0.15-2.02,1.13-2.94,1.85c-0.57,0.45-0.87,1.25-1.45,1.69c-2.32,1.75-4.16,3.54-4.09,6.91c0.05,2.24-2.34,3.32-5.64,3.17
		c0.03-3.37,2.09-5.16,5.38-6.02c-0.2-0.24-0.4-0.48-0.6-0.72c-1.22,0.45-2.45,0.9-4.37,1.62c3.5-2.19,6.36-3.98,9.22-5.78
		c-0.12-0.19-0.25-0.38-0.37-0.57c-2.01,0.17-4.01,0.34-6.39,0.54c0.55-2.78,2.26-3.48,4.18-3.65c2.07-0.19,4.16-0.08,6.24-0.11
		c1.37-0.02,2.87,0.05,1.5-2.22c1.76,0.59,3.15,1.47,4.5,1.4c1.33-0.07,2.61-1.1,3.56-1.54c1.38,0.3,2.69,0.96,3.87,0.77
		c7.39-1.18,14.78-2.42,22.12-3.89c7.19-1.44,12.42-5.86,16.37-11.82c1.82-2.75,3.28-5.75,5.25-9.24c-2.17,0.35-3.82,0.63-5.47,0.87
		c-2.29,0.34-4.59,0.74-6.89,0.97c-2.58,0.25-2.24,0.24-2.64,2.59c-0.24,1.44-1.75,2.66-2.71,3.97c-0.64,0.88-1.63,1.64-1.92,2.61
		c-0.75,2.55-1.63,4.78-5.01,4.79c-0.15-0.88-0.32-1.89-0.52-3.03c-4.6,2.03-9.09,4.01-13.58,5.99c-0.16-0.22-0.33-0.44-0.49-0.66
		c0.79-0.39,1.59-0.78,2.79-1.37c-1.35-0.69-1.87-0.96-2.4-1.23c3.38-0.68,6.67-1.32,9.93-2.04c0.49-0.11,0.9-0.62,1.78-1.26
		c-1.01-0.1-1.52-0.15-2.04-0.19c-3.38-0.27-6.77-0.4-10.12-0.84c-2.49-0.33-3.7,0.56-3.65,3c0.01,0.66-0.27,1.68-0.75,1.95
		c-1.87,1.06-3.86,1.88-6.01,2.47c-0.02-3.96,2.79-5.05,5.85-5.92c-0.14-0.23-0.28-0.45-0.42-0.68c-1.55,0.46-3.14,0.83-4.65,1.42
		c-1.66,0.64-3.31,1.37-4.83,2.27c-0.67,0.4-1.3,1.29-1.45,2.05c-0.75,3.82-2.91,5.23-7.45,4.29c0.84-1.6,1.62-3.1,2.58-4.92
		c-2.95,1.65-5.48,3.14-8.09,4.48c-1.32,0.68-2.75,1.25-4.19,1.55c-3.98,0.83-4.11,0.75-4.67,4.85c-0.36,2.63-1.82,3.98-4.19,4.65
		c-0.29,0.08-0.64-0.03-0.98-0.06c-1.05-4.34,3.72-5.06,5.24-8.43c-6.08,0.49-11.71,0.95-17.34,1.41c-0.06-0.23-0.13-0.45-0.19-0.68
		c1.27-0.32,2.52-0.82,3.81-0.93c9.25-0.78,18.81-0.32,26.73-6.45c1.05-0.81,1.75-2.26,2.26-3.55c0.69-1.74,1.03-3.61,1.69-6.05
		c-1.24,0.83-2.2,1.44-3.11,2.12c-0.25,0.18-0.31,0.61-0.55,0.82c-0.54,0.47-1.29,1.36-1.7,1.23c-3.45-1.03-6.22,3.97-9.76,1.07
		c-0.62-0.51-0.98-1.34-1.45-2.02c0.74-0.24,1.51-0.74,2.23-0.67c2.05,0.2,4.08,0.66,6.12,0.95c0.36,0.05,0.8-0.15,1.15-0.33
		c2.77-1.45,5.53-2.92,8.29-4.39c0.2-0.1,0.34-0.3,1.02-0.91c-3.76-0.61-7.05-1.26-10.36-1.66c-5.37-0.66-5.38-0.59-7.53,5
		c0.07-1.32,0.11-2.01,0.16-2.93c-0.52,0.2-0.93,0.26-1.2,0.49c-2.55,2.12-5.08,4.25-7.59,6.41c-0.37,0.32-0.82,0.75-0.89,1.18
		c-0.53,3.59-3.78,4.21-6.5,6.09c0.99-2.99,5.34-2.81,5.08-6.85c-2.9,1.56-5.25,4.66-8.78,1.84c0.77-1.38,1.55-2.8,2.71-4.88
		c-2.71,1.01-4.65,1.73-6.58,2.45c-0.09-0.19-0.17-0.38-0.26-0.57c1.68-1,3.36-2,5.04-2.99c-0.08-0.19-0.15-0.38-0.23-0.57
		c-1.68,0-3.36,0-5.04,0c1.01-2.99,2-3.71,4.93-3.29c2.09,0.3,3.89,0.08,5.53-1.49c0.8-0.77,2.02-1.11,3.09-1.57
		c1.05-0.46,2.15-0.82,3.38-1.84c-1.04-0.41-2.09-1.18-3.11-1.15c-3.04,0.08-5.09-1.2-6.46-4.08c2.36-0.81,4.47-0.35,6.37,1.18
		c1.71,1.37,3.35,2.82,5.61,4.73c-0.23-5.02,2.57-7.57,5.73-10.49c-1.26-0.33-2.14-0.71-3.03-0.77c-3.74-0.24-7.48-0.42-11.23-0.53
		c-0.66-0.02-1.55,0.25-1.97,0.72c-2.95,3.26-6.11,6.37-7.52,10.75c-0.83,2.56-3.91,3.42-7.38,1.65c1.67-1.02,3-1.76,4.25-2.63
		c1.32-0.91,2.74-1.77,3.8-2.95c1.93-2.15,3.61-4.5,5.65-7.09c-2.66,0.18-4.99,2.1-7.3,0.19c1.36-2.07,3.98-2.74,6.24-2.4
		c4.95,0.75,9.96,1.17,15.05,1.28c-2.87-2.28-5.04-5.33-9.05-5.67c-1.71-0.14-3.35-1.13-5.02-1.73c0,0-0.05,0.06-0.05,0.06
		c1.74,0.33,3.48,0.66,5.48,1.05c-0.33-2.99-2.9-5.1-1.33-8.31c0.87,0.68,1.77,1.12,2.28,1.83c1.15,1.62,2.42,3.27,3.06,5.12
		c1.56,4.46,4.94,6.21,9.21,6.89c5.69,0.91,11.05-0.67,16.41-2.22c0.27-0.08,0.46-0.41,1.28-1.19c-3.36-0.78-6.21-1.43-9.06-2.1
		c-0.58-0.14-1.21-0.26-1.71-0.56c-3.64-2.15-7.1-4.69-10.94-6.4c-2.27-1.01-4.42-2.25-6.7-3.23c-0.9-0.39-1.8-0.98-2.45-1.7
		c-1.81-2.01-3.72-3.69-6.59-4.02c-0.74-0.08-1.39-0.9-2.09-1.39c0.1-0.34,0.19-0.69,0.29-1.03c2.23,0.26,4.47,0.52,6.7,0.78
		c-0.17,0.28-0.33,0.55-0.5,0.83c0.6,1.01,0.98,2.31,1.84,2.98c1.76,1.36,3.72,2.52,5.72,3.5c3.34,1.63,6.79,3.06,10.82,4.86
		c-0.7-1.74-1.17-3.06-1.76-4.33c-0.59-1.28-1.29-2.51-1.46-4.02c1.23,2.33,2.3,4.77,3.75,6.95c1,1.51,2.3,3.23,3.87,3.88
		c10.03,4.19,20.17,4.61,30.28,0.12c0.53-0.24,1.05-0.52,1.53-0.84c0.25-0.17,0.42-0.47,1-1.16c-5.23-0.86-10.11-1.59-14.95-2.47
		c-4.74-0.86-9.46-1.87-13.14-2.61c1.31,0.11,3.42-1.08,6.29-0.44c8.17,1.83,16.52,2.83,24.81,4.06c1.11,0.16,2.31-0.16,3.46-0.36
		c7.61-1.3,15.22-2.59,22.8-4c1.4-0.26,2.7-1.07,4.05-1.63c-0.02-0.25-0.03-0.5-0.05-0.76c-1.32-0.19-2.65-0.56-3.97-0.53
		c-4.65,0.1-9.31,0.59-13.94,0.43c-3.53-0.12-7.05-0.94-10.55-1.56c-5.6-1-8.41,0.19-11.5,5.02c-0.33,0.52-0.67,1.03-1,1.55
		c-0.26-0.17-0.52-0.33-0.77-0.5c0.74-1.15,1.39-2.37,2.24-3.44c0.96-1.21,2.1-2.29,3.16-3.44c-2.2-1.76-5.75-0.75-6.66,1.67
		c-0.88,2.31-1.13,2.49-3.93,2.7c-0.09-0.34-0.22-0.71-0.29-1.09c-0.07-0.39-0.09-0.79-0.19-1.63c-1.66,0.61-3.09,1.14-4.52,1.67
		c-0.52,0.19-1.28,0.69-1.53,0.5c-2.2-1.6-4.8-1.32-7.21-1.88c-1.67-0.39-2.94-2.48-4.16-4.1c2.45-0.79,4.31-0.63,5.84,1.43
		c2.27,3.06,4.59,3.63,8.11,2.44c3.12-1.06,6.26-2.05,9.4-3.47c-2.98-2.22-6.05-3.84-9.62-4.4c-3.36-0.53-6.71-1.14-10.08-1.67
		c-4.02-0.64-8.05-1.31-12.09-1.77c-0.66-0.08-1.8,0.7-2.09,1.35c-1.34,3.05-2.6,4.01-6.83,4.09c1.82-2.35,3.32-4.28,4.88-6.3
		c-1.58-0.27-3.6-0.28-5.32-1.01c-2.58-1.08-3.44,1.46-5.75,2.19c0-1.13-0.29-2.19,0.06-2.97c0.65-1.43,1.92-1,3.22-0.74
		c5.91,1.19,11.85,2.24,18.01,2.8c-3.72-4.07-6.38-9.05-12.01-10.79c1.23,0.24,2.46,0.49,3.83,0.75c-1.57-3.15-3-6.01-4.44-8.88
		c0.34-0.24,0.69-0.48,1.03-0.72c0.86,0.87,1.91,1.61,2.54,2.63c0.91,1.48,1.54,3.13,2.22,4.73c3.86,9.08,12.43,14.44,22.22,13.86
		c0.38-0.02,0.75-0.15,1.47-0.3c-1.94-2.29-3.73-4.32-5.42-6.42c-2.45-3.05-4.8-6.18-7.28-9.2c-0.71-0.86-1.8-1.41-2.58-2.22
		c-0.99-1.03-1.84-2.2-2.82-3.38c3.21-1.46,6.32,0.69,6.22,3.75c-0.02,0.66,0.35,1.47,0.81,1.98c4.36,4.91,8.48,10.09,13.26,14.55
		c4.88,4.56,11.32,6.21,17.83,7.13c3.87,0.55,7.78,0.78,11.68,1.13c0.87,0.08,1.76,0.01,3.08,0.01c-0.57-0.93-0.79-1.44-1.14-1.84
		c-2.39-2.77-4.95-5.41-7.19-8.3c-1.96-2.54-4.34-3.97-7.51-4.34c-1.7-0.2-3.36-0.74-4.97-1.56c2.55,0.37,5.09,0.73,7.64,1.1
		c0.17-0.26,0.33-0.52,0.5-0.77c-2.26-2.15-4.51-4.31-6.86-6.55c0.05-0.06,0.4-0.5,0.96-1.2c-3.76-2.91-8.17-3.54-12.55-4.22
		c-4.48-0.7-8.98-1.31-13.73-2c2.53-0.3,4.92-0.58,8.09-0.95c-2.49-1.95-4.45-3.48-6.4-5c0,0-0.05,0.05-0.05,0.05
		c0.4-0.07,0.79-0.14,1.81-0.32c-2.31-2.55-4.35-4.8-6.58-7.27c-1.89,4.55-3.19,4.87-6.62,2.09c-1-0.81-1.89-1.77-2.92-2.76
		c3.18-2.87,6.08-1.23,9.23,0.24c-0.23-1.07-0.35-1.64-0.52-2.46c5.01,5.11,8.85,10.98,14.36,15.17c0.3-0.17,0.59-0.33,0.89-0.5
		c-0.68-2-1.35-4-2.2-6.51c1.9,2.94,3.14,5.81,5.21,7.81c2.28,2.2,7.05,2.4,7.8,1.53c7.93,4.8,12.32,12.78,17.91,19.83
		c-0.61-3.39-3.75-6.49-0.54-10.24c1.77,1.73,2.16,3.81,1.95,6.11c-0.61,6.84,3.03,11.54,9.93,12.21
		c9.86,0.96,19.75,1.61,29.63,2.38c0.79,0.06,1.6,0.01,2.4,0.01c0.17-0.24,0.34-0.49,0.51-0.73c-1.65-1.86-3.01-4.15-5.01-5.51
		c-9.74-6.64-19.17-13.71-30.42-17.97c-6.15-2.33-11.89-6.04-16.44-11.08c-3.06-3.39-6.36-6.26-10.93-7.55
		c-1.47-0.41-2.88-1.71-3.87-2.96c-1.65-2.07-3.2-4.31-4.28-6.7c-0.58-1.29-0.1-3.06-0.1-4.62c0.3-0.05,0.61-0.1,0.91-0.15
		c0.66,2.09,1.2,4.24,2.03,6.27c0.74,1.79,1.43,3.88,2.82,5.05c2.29,1.94,5.11,3.23,7.71,4.8c0.23-0.25,0.46-0.51,0.7-0.76
		c-1.33-1.66-2.65-3.33-3.98-4.99c0.18-0.18,0.36-0.36,0.55-0.54c1.56,1.76,3.3,3.39,4.64,5.31c2.89,4.17,6.32,7.73,10.6,10.45
		c0.75,0.48,1.61,0.81,2.84,0.86c-1.71-2.49-3.43-4.98-5.14-7.48c5.2,4.14,7.94,11.43,16.57,11.64c-0.75-1.43-1.28-2.41-1.78-3.42
		c-1.99-4.02-4.21-7.95-5.9-12.09c-2.28-5.58-5.56-9.99-11.38-12.2c-3.19-1.21-6.22-2.91-9.48-3.84c-4.01-1.14-8.19-1.7-12.12-2.48
		c1.64-0.09,3.65-0.12,5.62-0.36c0.77-0.09,1.48-0.66,2.22-1.02c-0.63-0.77-1.13-1.73-1.92-2.24c-0.85-0.55-1.98-0.66-2.91-1.28
		c1,0.13,2,0.26,3,0.39c0.13-0.19,0.25-0.39,0.38-0.58c-2.36-2.74-3.2-6.67-7.78-7.69c-1.69-0.38-2.94-2.73-4.71-4.5
		c2.8-1.06,4.12-0.11,5.28,1.31c1.63,2,3.25,4.01,4.9,5.99c0.34,0.41,0.81,0.71,1.56,1.35c-0.18-1.41-0.31-2.36-0.44-3.32
		c2.41,4.24,2.38,9.95,7.41,12.5c3.82,1.94,7.83,3.48,12.09,5.34c-0.63-5.76-6.57-9.14-5.05-15.61c2.1,2.5,3.89,4.28,3.48,7.55
		c-0.2,1.57,1.07,3.39,1.89,4.99c1.33,2.6,3.23,4.71,6.06,6.35c0.42-2.18,0.02-3.39-1.78-4.38c-2.11-1.16-3.81-2.88-3.84-6.59
		c2.05,1.13,3.56,1.97,5.25,2.9c-0.71-5.33-1.79-10.61-4.61-15.41c-2.48-4.22-4.95-8.45-7.49-12.64c-0.37-0.6-1.07-1.02-1.65-1.47
		c-1.69-1.33-2.57-2.98-2.26-5.19c3.29,0.57,4.51,2.05,4.96,5.81c0.5,4.19,3.09,7.16,5.66,10.13c0.28-0.04,0.57-0.08,0.85-0.12
		c0-3.6,0-7.19,0-11.42c2.76,3.06,2.82,5.37,0.8,7.76c-0.8,0.95-0.32,5.54,1.42,7.13c0.15-1.96,0.3-3.92,0.45-5.88
		c0.09-0.02,0.17-0.03,0.26-0.05c0.11,0.44,0.35,0.88,0.31,1.31c-0.45,5.38,0.92,10.55,1.64,15.82c1.29,9.53,2.67,18.98,7.24,27.61
		c4.97,9.4,12.08,16.44,22.29,20.03c0.31,0.11,0.63,0.23,0.95,0.31c2.92,0.79,3.47,0.37,2.43-2.51c-2.07-5.71-4.39-11.32-6.64-16.96
		c-1.07-2.68-3.18-4.42-5.62-5.77c-0.69-0.38-1.62-0.64-2.38-0.53c-3.63,0.56-5.62-0.43-7.61-4.16c4.48-1.86,6.58,3.18,10.56,3.55
		c-0.79-3.22-1.09-6.47-2.48-9.17c-0.59-1.15-3.44-1.57-5.26-1.56c-3.34,0.02-4.39-0.4-5.85-3.82c4.28-2,6.94,2.06,10.92,3.13
		c-0.3-2.18-0.51-3.95-0.8-5.72c-1.46-9.02-4.94-17.27-9.85-24.91c-1.29-2.01-3.21-3.6-4.7-5.49c-0.88-1.11-1.48-2.44-2.2-3.67
		c0.22-0.11,0.44-0.22,0.66-0.32c3.08,3.5,6.56,6.74,9.14,10.58c2.55,3.79,4.2,8.19,6.25,12.33c0.24,0.04,0.49,0.08,0.73,0.12
		c0.59-2.47,1.18-4.94,1.75-7.33c3.76,1.92,3.82,2.01,2.86,5.33c-0.63-1.18-1.27-2.37-1.9-3.55c-2.43,4.44-2.42,7.29-0.85,11.89
		c1.2,3.51,1.81,7.23,2.66,10.87c0.2,0.87,0.34,1.75,0.57,2.96c0.48-0.59,0.75-0.92,1.02-1.25c0.22-0.08,0.45-0.16,0.67-0.23
		c-0.3,7.77,3.7,14.07,6.27,20.85c0.24-0.01,0.48-0.01,0.72-0.02c0-4.8,0-9.59,0-14.39c0.32-0.03,0.64-0.05,0.96-0.08
		c0.19,1.11,0.49,2.22,0.55,3.34c0.12,2.25,0.26,4.51,0.12,6.75c-0.56,8.65,3.59,15.91,6.68,23.51c3.02,7.43,9.22,12.02,15.01,17.52
		c0.25-0.87,0.49-1.37,0.52-1.87c0.28-4.91,0.53-9.82,0.79-14.72c0.15-2.8-0.95-4.99-3.15-6.71c-3.24-2.53-6.49-4.87-10.85-5.18
		c-2.38-0.17-3.67-1.96-4.38-4.39c4.32-1.13,5.85,3.81,10.15,4.25c-1.18-2.89-1.96-5.39-3.18-7.65c-1.5-2.79-1.56-4.76,0.54-7.19
		c1.66,1.84,1.67,4.09,1.6,6.24c-0.17,5.44,1.85,9.64,6.84,12.69c0-0.91,0-1.55,0-2.94c1.78,2.43,3.17,4.34,4.57,6.25
		c0.26-0.11,0.51-0.22,0.77-0.33c1.15-6.02,0.29-11.83-3.63-16.71c-6.31-7.85-14.24-14.98-19.29-13.27
		c0.99,1.59,2.26,3.07,2.88,4.79c0.59,1.63,0.48,3.52,0.74,5.76c-3.57-1.82-4.66-4.6-4.57-7.63c0.1-3.15-1.36-4.86-3.41-7.07
		c-4.03-4.36-7.24-9.48-10.75-14.32c-0.3-0.41-0.26-1.06-0.34-1.44c4.3,4.7,8.62,9.46,13,14.15c0.45,0.49,1.32,0.59,2.57,1.1
		c-0.32-1.31-0.42-2.18-0.73-2.95c-2.47-6-4.63-12.17-7.62-17.9c-1.67-3.21-4.74-5.7-7.18-8.52c-0.36-0.42-0.74-0.81-1.11-1.22
		l-0.04,0.05c1.66-1.39,1.54-5.05-0.39-6.36c-2.2-1.49-3.41-3.48-4.26-5.94c-0.42-1.2-1.61-2.13-2.66-3.44
		c-0.66,0.1-1.7,0.25-2.71,0.4c-1.62-5.32-1.21-7.73,1.84-9.74c0.82,2.36,1.79,4.63,2.37,6.99c0.53,2.16,1,4.09,3.29,5.21
		c2.22,1.09,3.19,2.96,3.28,5.66c0.09,2.65,0.66,5.51,1.88,7.84c1.18,2.27,3.45,3.97,5.66,6.39c0.14-2.12,0.13-3.73,0.37-5.29
		c0.24-1.56,0.73-3.08,1.44-4.56c2.5,3.05,1.19,6.15,0.45,9.88c-0.42-1.2-0.65-1.87-0.89-2.53c-0.22,0.03-0.44,0.06-0.66,0.09
		c0.21,1.45,0.18,3,0.68,4.34c2.48,6.62,5.11,13.19,7.69,19.77c0.78,2,1.85,3.13,4.36,3.55c2.17,0.36,4.05,2.46,6.03,3.83
		c1.68,1.17,3.31,2.4,5.48,3.97c0-1.28,0.1-1.89-0.01-2.46c-1.2-6.13-2.15-12.32-3.75-18.34c-0.87-3.29-2.42-6.6-4.42-9.35
		c-3.52-4.81-6.86-9.64-8.61-15.38c-0.79-2.59-2.35-3.95-4.97-4.64c-2.44-0.65-4.73-1.85-6.47-2.55c0-1.62,0-2.55,0-4.06
		c1.69,4,4.39,5.89,8.27,5.8c0.56-0.01,1.61-0.53,1.61-0.8c-0.11-5.54-0.33-11.07-0.55-17.09c-1.39,0.99-2.22,1.59-3.1,2.22
		c-1.09-2.89-0.3-4.77,2.94-6.65c0.31,3.12,0.54,6.07,0.92,8.99c0.72,5.61,0.98,11.35,2.45,16.77c1.24,4.56,3.89,8.74,5.98,13.07
		c0.5,1.03,1.24,1.94,1.87,2.91c0.34-0.2,0.67-0.41,1.01-0.61c0.27-0.81,0.7-1.61,0.77-2.44c0.19-2.24,0.38-4.49,0.28-6.73
		c-0.05-1.15-0.64-2.3-1.07-3.41c-0.78-2-1.63-3.98-2.44-5.97c0.23-0.13,0.47-0.26,0.7-0.39c0.76,0.43,1.52,0.87,2.88,1.64
		c-0.79-3.51,0.39-6.7-2.17-9.6c-1.1-1.24-0.96-3.56-1.1-5.45c2.63,1.15,2.63,1.15,4.26,7.71c2.4-7.27,6.44-13.28,13.06-17.26
		c-0.65,0.57-1.29,1.14-1.95,1.71c-5.47,4.75-8.47,11.03-10.99,17.61c-0.14,0.38-0.22,0.82-0.19,1.22
		c0.47,7.73,0.38,15.54,1.57,23.16c1.74,11.09,4.03,22.14,9.68,32.11c0.98,1.73,2.1,3.4,3.3,4.99c0.35,0.46,1.19,0.55,1.8,0.82
		c-0.01-0.66,0.17-1.4-0.07-1.96c-0.69-1.64-1.56-3.21-1.95-5.02c1.26,1.78,2.53,3.55,3.76,5.28c4.34-2.1,5.28-4.15,3.92-8.22
		c-0.69-2.05-1.33-4.13-2.18-6.11c-0.68-1.59-1.42-3.05-3.71-3.08c-1.76-0.03-3.07-3.3-2.72-6.12c4.18,0.25,4.68,3.97,5.98,6.91
		c0.28-0.13,0.56-0.26,0.84-0.39c-0.46-2.66-0.92-5.31-1.38-7.97c3.26,5.33,1.22,12.17,5.27,17.7c0.61-1.05,1.14-1.84,1.56-2.68
		c2.85-5.81,3.4-12.03,2.57-18.3c-0.32-2.43-0.58-5.53-4.31-6.06c-0.77-0.11-1.23-1.88-2-2.73c-1.36-1.49-2.68-3.12-4.33-4.21
		c-2.21-1.45-4.7-2.47-7.1-3.62c-1.8-0.87-2.52-1.93-1.88-4.14c0.64-2.2,0.68-4.6,0.76-6.92c0.06-1.87-0.49-3.24-2.54-4.33
		c-2.37-1.28-2.3-4.14-2.27-7.06c2.97,1.4,4.77,3.42,4.97,6.31c0.26,3.96,0.11,7.94,0.09,11.91c-0.01,1.53-1.12,3.81,2.21,2.65
		c0.44-0.15,1.23,0.71,1.87,1.06c2.52,1.39,5.13,2.65,7.55,4.2c1.35,0.86,2.56,2.07,3.53,3.36c1.43,1.88,2.59,3.96,4.17,6.44
		c3.39-10.53,0.88-19.41-4.4-27.9c0.35,0.08,0.78,0.18,1.28,0.29c-0.31-5.1-0.62-10.11-0.93-15.12c0.32-0.05,0.65-0.1,0.97-0.16
		c-0.27,8.17,1.14,15.97,4.31,23.37c0.27,0.06,0.54,0.12,0.8,0.18c0.74-1.68,1.75-3.3,2.15-5.06c0.78-3.4,1.3-6.86,1.79-10.32
		c0.45-3.12,2.24-4.74,5.52-4.51c-0.3,2.24-0.6,4.46-0.92,6.93c1.79,0.19,3.01,1.15,2.73,3.69c-0.27,2.46-2.05,3.64-4.38,2.49
		c-1.5-0.74-2.68-0.6-3.41,1.15c-0.99,2.38-2.11,4.71-3.11,7.09c-0.24,0.58-0.33,1.29-0.27,1.93c0.2,2.07,0.59,4.12,0.72,6.2
		c0.13,2.06,0.03,4.13,0.03,6.59c0.55-0.84,0.99-1.47,1.39-2.13c1.5-2.5,3.28-4.4,6.43-5.03c1.86-0.37,3.47-1.89,5.24-2.78
		c1.04-0.53,2.16-1.02,3.3-1.22c1.51-0.27,1.25-1.08,1.13-2.18c-0.5-4.27-1.05-8.55-1.25-12.84c-0.12-2.6,0.98-4.82,4.1-5.95
		c0.13,2.05,0.59,3.91,0.22,5.59c-0.18,0.83-1.9,1.32-3.51,2.33c-0.39,3-0.21,6.77,1.37,10.38c0.88,2,0.26,2.95-1.71,3.76
		c-2.68,1.1-5.29,2.44-7.75,3.96c-0.91,0.57-1.54,1.89-1.89,2.99c-0.56,1.79-1.34,3.02-3.44,2.87c-1.63-0.12-2.77,0.66-3.2,2.21
		c-0.59,2.13-1.49,4.32-1.45,6.46c0.09,4.98,0.58,9.96,1.09,14.92c0.16,1.59,0.92,3.11,1.54,5.1c5.66-5.56,3.07-13.27,6.67-18.96
		c-0.56,2.8-1.11,5.6-1.67,8.4c0.28,0.15,0.56,0.29,0.84,0.44c0.92-3.02,1.9-5.97,6.09-6.3c-0.59,2.64-1.14,5.13-1.73,7.79
		c-2.79-1.88-3.55-1.71-4.77,0.98c-1.27,2.8-2.42,5.66-3.58,8.51c-0.6,1.47,2.34,6.52,3.9,6.53c0.59,0,1.35-0.6,1.74-1.14
		c1.06-1.45,1.97-3.02,2.94-4.54c0.22,0.11,0.44,0.23,0.66,0.34c-1.03,1.95-2.05,3.89-3.13,5.94c0.72,0.6,1.4,1.17,2.5,2.09
		c1.67-3.3,3.63-6.24,4.72-9.48c5.38-16,10-32.25,8.43-49.34c-0.75-8.2-4.1-15.75-10.04-21.83c-0.39-0.4-0.95-0.63-1.11-1.21
		c7.09,4.11,8.45,11.92,11.93,18.83c2.26-3.65-0.28-9.21,5.51-11.5c-0.13,2.31-0.16,4.24-0.39,6.14c-0.07,0.56-0.78,1.53-1.06,1.49
		c-2.69-0.43-2.19,1.58-2.33,2.98c-0.13,1.3-0.03,2.61-0.03,4.04c0.92-0.04,1.64-0.07,2.97-0.13c-0.86,6.16-4.26,11.84-2.65,18.4
		c0.6-0.35,1.28-0.53,1.61-0.97c1.91-2.59,4.19-5.04,5.5-7.92c4.08-8.98,5.38-18.49,4.4-28.3c-0.09-0.95-0.01-1.91-0.01-2.96
		c2.73,1.07,4.04,3.25,3.77,6.43c-1.03-0.76-1.89-1.4-2.45-1.82c-0.31,6.09-0.62,12.39-0.94,18.69c4.99-0.23,8.73-2.03,10.18-7.35
		c0.73-2.69,2.63-3.9,5.34-4.19c0.25,2.27-0.58,3.98-2.36,5.36c-1.43,1.11-2.66,2.5-4.15,3.51c-2.04,1.39-4.16,2.71-6.4,3.73
		c-1.91,0.87-3.29,1.94-4.27,3.89c-2.08,4.15-3.99,8.52-6.82,12.13c-5.07,6.46-7.23,13.76-8.04,21.68
		c-0.27,2.61-0.52,5.22-0.77,7.86c3.51-1.63,6.75-3.04,9.87-4.69c0.46-0.24,0.62-1.69,0.4-2.43c-0.65-2.25-0.63-4.19,1.54-5.85
		c1.81,2.49,0.54,4.85,0.5,7.5c0.49-0.61,1.18-1.14,1.42-1.83c0.91-2.59,1.82-5.19,2.42-7.86c0.22-1-0.29-2.25-0.7-3.3
		c-0.91-2.32-1.36-4.58,0.47-7.7c1.05,2.64,1.87,4.68,2.9,7.29c0.85-2.22,1.65-4.13,2.3-6.08c0.95-2.86,1.63-5.59-0.06-8.64
		c-1-1.82-1.08-4.34,1.02-6.17c3.2,2.83,1.14,6.45,1.58,9.92c0.71-0.48,1.16-0.79,1.61-1.1c-0.04,0.33,0.02,0.7-0.12,0.98
		c-2.53,4.96-5.09,9.92-7.64,14.87c-1.29,2.51-2.59,5.02-0.57,7.89c6.69-2.96,8.73-10.11,13.98-14.71
		c-1.46,3.65-2.82,7.06-4.19,10.46c-0.06,0.14-0.22,0.24-0.35,0.34c-3.18,2.51-6.38,4.99-9.51,7.56c-0.56,0.46-1.07,1.31-1.12,2.01
		c-0.18,2.5-0.08,5.02-0.26,7.51c-0.06,0.77-0.71,1.49-1.25,2.57c-3.47-3.77-2.34-7.1,0.21-10.79c-7.95,1.45-13.4,5.45-16.87,11.95
		c-2.3,4.3-4.1,8.86-6.15,13.34c-0.84-0.35-1.3-0.54-1.45-0.6c0.72,3.53,1.45,7.06,2.17,10.6c0.25-0.02,0.5-0.05,0.75-0.07
		c0.8-2.01,1.53-3.94,0.7-6.3c-1.23-3.5,0.61-6.87,4.51-8.12c0,2.01,0,3.92,0,6.62c2.93-2.34,5.65-3.83,6.23-7.04
		c0.48-2.68,0.47-5.45,0.69-8.17c0.15-1.89,0.32-3.78,2.42-4.69c1.75,2.85,1.42,5.18-0.14,7.71c-1.24,2.01-1.81,4.43-2.68,6.67
		c0.35,0.21,0.7,0.43,1.05,0.64c0.97-0.9,2.19-1.64,2.87-2.73c1.49-2.37,3.48-2.44,5.81-1.89c-0.16,1.81-0.31,3.48-0.49,5.5
		c-5.97-2.17-10.32,0.7-14.38,4.46c-0.24,0.23-0.51,0.43-0.75,0.66c-3.49,3.3-5.08,7.06-3.12,11.84c0.32,0.77,0.04,1.79,0,2.69
		c-0.06,1.53-0.14,3.07-0.21,4.6c0.31,0.18,0.61,0.35,0.92,0.53c3.01-2.01,6.5-3.55,8.95-6.1c9.59-9.94,14.41-21.78,13.02-35.83
		c-0.24-2.37-0.03-4.79-0.03-7.19c0.29,0,0.59,0,0.88-0.01c0.49,5.67,0.99,11.35,1.48,17.02c1.84-2.95,3.1-6.02,4.62-8.96
		c3.21-6.24,4.89-12.88,5.79-19.79c0.26-1.97,0.57-4.03,1.4-5.79c1.16-2.47,1.13-4.66,0.16-7.16c-0.62-1.6-0.53-3.47-0.76-5.22
		c0.14,0.01,0.27,0.01,0.41,0.02c0.58,2.28,1.15,4.55,1.73,6.83c0.26,0.02,0.53,0.04,0.79,0.06c1.64-3.5,3.29-7.01,4.92-10.5
		c-1.15,0.09-2.07,0.45-2.51,0.14c-2.23-1.58-4.05-0.82-5.87,0.68c-2.03,1.68-4.1,3.31-6.15,4.96c1.11-1.34,2.28-2.64,3.29-4.04
		c0.55-0.77,0.95-1.69,1.21-2.61c0.41-1.46,0.64-2.98,1.37-4.4c-0.15,1.6-0.29,3.21-0.44,4.81c0.23,0.16,0.45,0.32,0.68,0.48
		c1.03-0.94,2.36-1.71,3.03-2.86c0.94-1.6,2.07-2.21,3.84-2.09c1.71,0.12,3.44,0.16,5.16,0.05c0.56-0.04,1.15-0.6,1.62-1.04
		c2.09-1.96,4.15-3.96,6.22-5.95c0.22,0.14,0.45,0.28,0.67,0.42c-0.72,1.12-1.21,2.52-2.18,3.33c-6.03,4.97-9.84,11.43-12.79,18.5
		c-0.28,0.68-0.35,1.45-0.52,2.18c0.19,0.08,0.39,0.16,0.58,0.23c0.47-0.61,0.95-1.22,1.41-1.82c0.76,1.78,0.4,3.16-2.27,8.19
		c0-1.74,0-3.07,0-4.4c-0.25-0.04-0.51-0.09-0.76-0.13c-0.76,4.31-1.52,8.61-2.33,13.19c0.79-0.05,1.46,0.02,1.49-0.1
		c0.56-1.96,2.92-3.1,2.12-5.76c-0.73-2.44,1.6-4.34,4.95-4.42c1,2.8-0.69,4.5-2.91,6.29c1.84,0.15,3.32,0.27,5.63,0.46
		c-1.93,2.36-3.41,4.17-5.14,6.28c-0.4-0.46-1.04-1.22-1.39-1.63c-1.31,0.09-2.39,0.04-3.4,0.27c-0.55,0.13-1.32,0.64-1.44,1.12
		c-0.73,2.95-1.31,5.94-2.01,9.29c4.18-0.38,6.47-5.91,11.04-3.3c-0.73,2.88-2.58,3.68-5.57,3.67c-2.28-0.01-4.75,0.82-6.76,1.93
		c-1.12,0.62-1.59,2.57-2.18,3.99c-2.4,5.75-4.75,11.53-7.08,17.31c-0.2,0.49-0.08,1.1-0.14,2.16c1.75-0.36,3.31-0.47,4.72-0.99
		c10.83-4.02,17.65-12.11,22.41-22.26c3.25-6.92,4.21-14.33,4.8-21.83c0.05-0.58,0.05-1.17,0.17-1.74c0.61-2.94,1.2-5.84-0.15-8.78
		c-0.38-0.82-0.28-1.86-0.18-2.83c0.53,1.32,1.06,2.64,1.59,3.96c0.25-0.05,0.5-0.1,0.76-0.15c0-2.88,0-5.75,0-8.85
		c-0.68,0.25-1.1,0.4-1.85,0.68c-0.1-2.02-0.3-3.9-0.21-5.77c0.02-0.55,0.84-1.07,1.3-1.61c0.43,0.53,1.16,1.02,1.23,1.59
		c0.32,2.56,0.44,5.14,0.66,7.7c0.08,0.87,0.25,1.73,0.47,3.27c0.8-1.05,1.36-1.54,1.59-2.15c1.72-4.47,3.38-8.97,5.06-13.47
		c0.06-0.15,0.02-0.39,0.12-0.48c1.2-1.03,2.39-2.08,3.66-3.02c0.1-0.08,1.15,0.75,1.09,0.89c-0.69,1.68-1.1,4.11-2.38,4.75
		c-1.72,0.87-2.36,1.87-3.05,3.47c-1.68,3.89-3.64,7.66-5.55,11.45c-2.07,4.09-2.94,8.42-3.09,13.04c1.91,0.16,3.39-3.17,4.79-0.8
		c0.67,1.14-0.26,3.49-1,5.04c-0.3,0.63-2.03,0.57-3.11,0.82c-0.2-0.22-0.41-0.44-0.61-0.65c-0.22,1.52-0.44,3.05-0.74,5.13
		c4.45-2.15,6.19-5.81,8.34-9.08c0.19-0.29,0.14-0.84,0.02-1.21c-1-2.85,0.54-4.74,2.28-6.65c1.86,2.33,1.84,3.63,0.03,6.31
		c-1.07,1.58-2.12,3.19-3.15,4.8c-0.22,0.34-0.34,0.73-0.54,1.15c9.18-0.23,14.42-5.15,18-17.19c0,1.5,0,2.43,0,3.6
		c4.26-2.03,3.79-8.75,9.38-9.36c0.19,3.5-0.75,4.83-3.72,5.83c-3.19,1.08-4.53,3.95-6.14,6.54c-0.08,0.12,0.47,0.63,0.73,0.96
		l-0.05-0.03c-1.11,1.35-2.21,2.69-3.32,4.04c0.16,0.23,0.31,0.46,0.47,0.69c2.02,0.16,4.03,0.32,6.05,0.48
		c-6.82,0.93-13.04,3.45-19.1,6.41c-5.62,2.75-9.45,7.14-11.95,12.89c-1.55,3.57-3.64,6.9-5.51,10.34
		c-0.62,1.14-1.28,2.26-2.13,3.73c7.53-0.16,10.49-6.11,14.75-10.17c0.16,0.13,0.31,0.26,0.47,0.38c-1.84,2.38-3.68,4.75-5.96,7.69
		c1.29-0.41,1.92-0.52,2.47-0.79c5.43-2.7,9.73-6.52,12.81-11.86c1.28-2.21,3.45-3.91,5.21-5.85c0.22,0.18,0.44,0.36,0.66,0.55
		c-1.45,1.71-2.91,3.42-4.69,5.52c2.94,1.03,5.4,1.11,7.59-0.18c1.9-1.12,3.77-2.55,5.13-4.26c2.97-3.69,5.57-7.67,8.4-11.48
		c0.82-1.11,1.88-2.04,2.83-3.05c-0.86,1.49-1.72,2.99-2.59,4.49c0.21,0.13,0.42,0.26,0.62,0.4c0.85-0.41,1.7-0.83,2.55-1.24
		l-0.05-0.06c-1,0.78-2.02,1.53-2.99,2.34c-1.41,1.17-2.79,2.39-4.18,3.59c0.1,0.18,0.21,0.36,0.31,0.54
		c0.39-0.06,0.78-0.12,1.17-0.18c0,0-0.04-0.06-0.04-0.06c-0.93,0.87-1.86,1.75-3.27,3.08c1.87-0.26,3.11-0.43,4.52-0.62
		c-1.06,3.49-2.1,4.11-4.89,3.48c-0.54-0.12-1.28,0.14-1.78,0.45c-1.42,0.87-2.66,2.11-4.16,2.74c-1.69,0.71-3.61,0.84-5.39,1.35
		c-1.68,0.48-3.6,0.76-4.89,1.79c-2.92,2.33-5.59,4.99-8.22,7.65c-3.29,3.34-7.4,4.93-11.78,6.17c-8.82,2.48-16.4,7.54-24.83,11.77
		c0.91,0.41,1.35,0.61,2.4,1.08c-5.43,0.04-8.43,3.04-11.91,6.59c2.12,0.29,3.63,0.67,5.15,0.69c8.49,0.08,16.99,0.11,25.48,0.08
		c3.13-0.01,5.73-1.27,8.05-3.44c2.32-2.17,2.49-4.94,2.94-7.73c0.29-1.8,0.71-3.58,1.2-5.33c0.13-0.45,0.78-1.02,1.19-1.02
		c0.38,0,0.89,0.63,1.11,1.09c1.1,2.32,0.29,4.26-1.75,5.71c-0.9,0.64-1.26,2.04-1.87,3.09c0.36,0.23,0.73,0.46,1.09,0.69
		c3.87-5.28,7.74-10.56,11.69-15.97c-1.34-1.58-0.99-3.51,0.52-4.86c2.4-2.15,5.13-3.94,7.96-5.61c-1.04,2.86-4.28,4.47-3.86,8.53
		c2.98-0.7,6.1-0.7,8.26-2.15c2.14-1.43,3.3-4.31,5.25-6.45c-0.88,1.91-1.76,3.81-2.64,5.72c0.15,0.17,0.31,0.34,0.46,0.5
		c0.75-0.47,1.59-0.84,2.25-1.42c6.21-5.46,11.98-11.29,16.42-18.36c1.35-2.16,3.12-4.25,6.49-3.22c-0.87,1.82-1.84,3.35-3.99,3.66
		c-2.9,0.43-4.97,3-5.01,6.6c1.75-0.84,3.35-1.61,4.98-2.38c0.55,0.43,1.22,0.83,1.73,1.39c0.63,0.68,1.55,1.47,1.57,2.24
		c0.04,1.46-0.95,2.62-2.56,2.29c-1.55-0.32-2.99-1.14-4.52-1.6c-0.88-0.27-2.21-0.71-2.71-0.3c-2.22,1.8-4.22,3.89-6.73,6.27
		c1.27,0.11,1.84,0.16,2.41,0.21c-2.31,0.73-4.76,1.05-5.59,3.8c6.3,1,12.52,1.99,18.63,2.96c0.44,3.18-0.92,6.03-3.37,7.2
		c-0.44,0.21-1.58-0.1-1.76-0.47c-0.62-1.3-0.96-2.73-1.51-4.43c-1,0.17-2.33,0.4-3.92,0.67c0.24-0.71,0.36-1.25,0.6-1.74
		c0.76-1.53,0.12-2.19-1.39-2.29c-1.91-0.13-4.2-0.93-5.66-0.16c-4.46,2.33-9.31,0.33-13.76,1.83c-2.53,0.85-5.33,1.18-7.06,3.88
		c0.92,0.64,1.63,1.14,2.38,1.65c-0.49,1.91-1.93,2.01-3.35,1.97c-2.19-0.06-3.6,0.93-4.69,3.66c3.66-0.29,6.94-0.54,10.21-0.8
		c0.03,0.13,0.05,0.26,0.08,0.39c-2.16,0.38-4.3,0.92-6.47,1.09c-3.15,0.26-5.65,1.36-7.71,3.9c-2.65,3.27-5.65,6.27-8.97,9.91
		c9.9-0.34,19.15-1.08,28.05-4.35c9.32-3.42,14.38-11.7,21.01-18.28c-3.38,6.17-7.73,11.55-12.9,16.43
		c4.89,0.48,9.59,0.45,13.84-2.03c4.99-2.91,8.67-6.94,10.22-12.69c0.61-2.26,1.54-4.4,4.32-5.1c0.9,3.82-1.89,5.78-4.38,8.56
		c1.53-0.29,2.35-0.45,3.17-0.61c-0.28-0.28-0.57-0.56-0.85-0.85c-3.11,4.32-6.23,8.64-8.92,12.37c4.63-0.18,10.41-1.75,16.92-3.32
		c-1.04-0.64-1.39-0.85-1.85-1.13c2.28-2.32,4.28-4.97,8.64-4.54c-1.18,1.87-2.17,3.44-3.19,5.06c0.53,0.63,1.12,1.34,2.14,2.56
		c-1.3,0-2.32,0.32-2.77-0.05c-1.97-1.65-3.81-0.83-5.79-0.15c-1.38,0.47-2.87,0.62-4.44,0.93c1.3,1.89,2.45,3.56,4.02,5.83
		c-2.85-0.13-4.73-0.71-5.64-2.81c-0.81-1.86-1.97-1.97-3.79-1.75c-7.51,0.93-15.06,1.52-22.54,2.55c-2.94,0.41-5.77,1.66-8.65,2.53
		c0,0.43,0.01,0.86,0.01,1.29c3.68,1.14,7.35,2.28,10.97,3.4c-0.54,0.65-0.54,0.65-5.99-0.77c-0.47,1.04-0.95,2.1-1.64,3.63
		c-2.21-2.74-3.07-6.44-7.03-6.37c-0.85,0.02-1.69,0.31-3.01,0.56c2.54,2.44,4.73,4.53,6.91,6.63c-0.17,0.16-0.33,0.33-0.5,0.49
		c-1.18-1.08-2.41-2.1-3.51-3.25c-2.48-2.57-5.53-3.01-8.75-2.13c-5.5,1.51-11.01,1.17-16.6,0.72c-4.18-0.34-8.42-0.07-12.85,0.5
		c0.95,0.55,1.84,1.41,2.85,1.58c4.81,0.83,9.66,1.46,14.49,2.2c1.69,0.26,3.47,0.37,5.02,1.01c5.96,2.46,12.01,2.25,18.15,1.05
		c2.28-0.45,4.56-1.03,6.86-1.28c4.69-0.52,8.18-2.8,11.09-6.44c1-1.25,2.84-1.84,4.3-2.73c0.34,0.28,0.69,0.56,1.03,0.84
		c-0.47,1.27-0.75,2.66-1.45,3.78c-0.71,1.14-1.82,1-3.23,0.74c-1.27-0.23-2.79,0.91-4.21,1.45c0.08,0.27,0.16,0.54,0.24,0.81
		c3.15,0,6.3,0,8.71,0c-9.14,1.64-18.96,3.41-28.78,5.17c-0.05,0.22-0.1,0.44-0.16,0.66c0.75,0.54,1.44,1.21,2.26,1.59
		c7.01,3.23,14.25,4.52,21.86,2.44c1.2-0.33,2.42-0.63,3.64-0.86c4.09-0.75,7.22-2.32,8.48-6.88c0.68-2.47,2.62-4.58,4.44-6.58
		c-1.61,3.02-3.22,6.03-4.81,9.01c0.52,0.36,0.7,0.55,0.78,0.52c4.6-1.89,9.3-3.59,13.73-5.84c1.53-0.78,2.64-2.8,3.45-4.49
		c1.02-2.13,3.91-3.02,7.36-1.22c-1.77,0.83-3.08,1.44-4.4,2.05c-0.8,0.37-2.1,0.52-2.32,1.1c-1.17,3.03-3.93,3.88-6.41,5.15
		c-0.65,0.33-1.25,0.74-1.92,1.13c0.53,1.32,0.98,2.47,1.44,3.62c-0.26,0.18-0.52,0.37-0.77,0.55c-0.99-1.03-1.98-2.07-3.33-3.46
		c-3.68,1.96-7.57,4.03-11.72,6.24c0.95,1.02,1.44,1.55,1.74,1.87c-1.75-0.18-3.71-0.64-5.62-0.51c-1.93,0.13-3.81,0.84-5.87,1.34
		c0.29,0.53,0.35,0.84,0.51,0.92c7.13,3.49,14.43,5.04,22.13,1.92c2.08-0.85,3.53-2.15,4.31-4.46c1.82-5.36,3.02-6.69,6.14-7.86
		c0.97,1.88,0.51,3.7-0.36,5.37c-0.7,1.34-1.83,1.31-3.39,1.02c-1.79-0.33-1.67,1.45-1.69,2.35c2.08-0.29,4.05-0.51,6-0.85
		c0.86-0.15,1.68-0.55,2.53-0.83l-0.01,0c-0.63,0.51-1.24,1.45-1.88,1.47c-4.58,0.14-7.86,2.84-11.62,5.63
		c0.87,0.15,1.44,0.36,2,0.32c4.29-0.33,8.57-0.65,12.85-1.1c2.56-0.27,5.88,1.34,7.41,3.92c-2.68,1.93-4.75-0.61-7.25-0.85
		c2.98,3.38,3.47,8.58,8.45,10.48c1.37,0.52,2.33,2.14,3.67,3.43c-4.04,1.31-6.32,0.04-7.78-3.26c-1.53-3.48-3.43-6.8-5.26-10.14
		c-0.32-0.58-1.07-1.31-1.64-1.32c-5.37-0.1-10.73-0.06-16.63-0.06c2.42,2.92,4.33,5.22,6.04,7.28c-0.12,0.95-0.23,1.74-0.33,2.53
		c0.88-0.2,1.88-0.2,2.62-0.64c1.56-0.93,2.9-2.26,4.51-3.06c0.7-0.35,2.22-0.11,2.72,0.44c0.76,0.84,1.82,2.08,0.34,3.41
		c-0.65,0.59-1.1,1.41-1.63,2.11c-1.93-0.42-3.01-3.41-5.49-1.87c2.44,1.45,4.29,4.09,7.84,2.94c2.43-0.79,4.16,0.96,5.56,2.93
		c-0.84,0.66-1.6,1.26-2.52,1.99c1.78,1.01,3.37,1.91,4.97,2.81c-0.1,0.2-0.2,0.4-0.3,0.6c-2.76-0.99-5.9-0.74-8.16-3.34
		c-1.56-1.79-3.47-3.28-5.3-4.81c-2.82-2.36-7.06-2.63-12.06-0.45c1.75,0.59,2.84,1.1,3.99,1.32c1.46,0.29,3.01,0.18,4.43,0.56
		c0.78,0.21,1.4,1.06,2.09,1.62c-0.12,0.19-0.24,0.39-0.36,0.58c-1.21-0.35-2.42-0.71-3.71-1.09c0.61,2.66,4.16,5.17,6.78,4.96
		c3.71-0.3,5.89,1.18,6.92,4.87c-3.97,1.75-5.81-1.88-8.36-3.6c-0.21,0.27-0.42,0.54-0.64,0.8c1.67,1.61,3.35,3.22,5.02,4.83
		c-2.32-1.08-4.79-1.87-5.6-4.82c-0.26-0.96-1.1-1.85-1.87-2.56c-1.52-1.41-3.13-2.73-4.8-3.97c-0.6-0.44-1.45-0.53-2.36-0.44
		c-1.28-3.12-3.55-3.55-6.71-2.79c-3.67,0.88-7.47,1.27-11.29,2.14c3.86,1.57,4.39,4.72,4.63,8.14c0.07,0.96,0.62,2.06,1.29,2.76
		c4.37,4.55,10.12,5.87,16.09,6.45c3.48,0.34,6.98,0.39,10.47,0.61c1.21,0.08,2.42,0.27,3.59,0.75c-5.6,0-11.2,0-17.18,0
		c1.32,2.96,5.84,4.03,5.06,8.11c-3.25-0.21-5.26-1.82-5.51-4.85c-0.24-2.85-1.35-4-4.32-4.88c-3.8-1.12-7.19-3.66-10.73-5.65
		c-1.88-1.06-3.7-2.23-5.8-3.04c2.25,2.4,5.35,4.17,4.31,8.45c-2.88-0.85-5.13-2.09-5.88-4.99c-1.15-4.43-4.03-5.96-8.82-6.05
		c2.75,2,5.27,3.9,4.98,7.57c-3.23-0.66-6.01-3.14-6.15-6.16c-0.14-2.91-2.01-3.1-3.87-2.87c-2.18,0.27-4.27,1.58-6.42,1.62
		c-2.04,0.03-4.1-1-6.16-1.57c-0.13,0.33-0.27,0.67-0.4,1c1.93,0.84,3.8,1.94,5.81,2.44c1.97,0.49,4.09,0.37,6.14,0.51
		c0,0.24-0.01,0.47-0.01,0.71c-0.74,0.12-1.48,0.24-2.68,0.44c1.09,0.88,1.94,1.55,2.78,2.23c-0.08,0.14-0.16,0.29-0.23,0.43
		c-2.46-1.25-4.9-2.51-7.37-3.74c-2.4-1.19-4.83-2.35-7.22-3.51c0.11,0.72,0.26,1.72,0.44,2.87c-2.96,0.35-3.83-1.63-4.87-3.55
		c-1.44-2.65-3.01-5.22-4.59-7.78c-0.28-0.46-0.85-0.91-1.36-1.02c-4.29-0.93-8.6-1.78-13.47-2.76c2.45,4.95,4.91,9.23,8.21,13.07
		c6.11,7.12,14.54,8.99,23.13,10.51c4.1,0.73,8.23,1.26,12.37,1.7c1.09,0.12,2.25-0.44,3.8-0.78c1.59,1.93,3.41,2.34,5.76,1.23
		c1.49,0.66,2.46,1.38,3.5,1.49c1.29,0.13,2.64-0.24,3.96-0.4c3.38-0.4,5.46,1.39,7.16,4.23c-2.75,1.25-4.84-0.56-7.1-1.27
		c-0.12,0.19-0.24,0.38-0.36,0.57c1,0.72,1.97,1.49,3.01,2.16c1.46,0.93,3.06,1.67,4.44,2.7c1.07,0.81,1.78,1.94-0.21,2.73
		c0.46,0.62,0.8,1.07,0.92,1.23c-0.52,1.12-0.94,2.02-1.48,3.18c-2.42-0.98-3.27-3.21-3.68-5.39c-0.6-3.2-2.54-5.35-4.77-7.4
		c-0.48-0.44-1.05-0.97-1.65-1.07c-7.02-1.14-14.05-2.2-21.28-3.31c0.64,3.42,4.53,6.15,7.01,5.44c2.61-0.75,3.75-0.2,5.1,2.52
		c-0.63,0.33-1.26,0.66-1.89,0.99c-0.03,0.08-0.1,0.16-0.09,0.23c0.26,1.03,0.53,2.05,0.84,3.25c-5.17,1.13-4.78-4.67-7.84-6.21
		c0.66,2.93,3.56,5.2,2.1,8.52c-2.72-0.83-4.02-3.39-3.48-6.64c0.18-1.07,0.49-2.83-0.01-3.17c-2.06-1.42-2.54-4.49-5.7-4.85
		c-3.87-0.44-7.67-1.47-11.5-2.23c-0.76-0.15-1.54-0.24-2.42-0.1c1.85,2.62,3.53,5.24,6.93,6.02c2.84,0.66,5.31,3.67,5.46,6.49
		c-5.46,0.38-6.12-5.85-10.44-7.53c0.35,4.53,3.92,8.41,1.92,13.22c-2.45-1.31-2.51-3.47-2.31-5.6c0.37-3.9-0.35-7.46-2.73-10.62
		c-0.6-0.79-1.23-1.58-1.94-2.26c-6.92-6.62-13.74-13.35-20.85-19.75c-2.71-2.44-6.1-4.11-9.46-5.81c2.57,3.86,3.18,8.98,8.31,10.97
		c2.44,0.95,3.15,3.64,3.81,6.35c-3.22-0.4-5.38-1.93-6.79-4.62c-0.95,4.25-1.88,8.36-2.8,12.47c-0.23,0-0.47-0.01-0.7-0.01
		c0.06-1.29-0.1-2.63,0.21-3.86c1.94-7.61-0.95-15.39-7.45-19.73c-0.1-0.1-0.19-0.21-0.28-0.33c-4.71-5.01-10.7-6.26-17.13-5.29
		c-6.03,0.9-9.57,4.72-11.24,10.63c-1.79,6.32-1.58,12.71-0.73,19c1.1,8.13,2.33,16.34,4.59,24.2c4.2,14.58,19.7,23.08,34.48,19.6
		c4.37-1.03,8.68-2.83,13.08-3.06c5.58-0.29,11.23,0.65,16.84,1.1c2.4,0.19,4.81,0.84,7.17,0.64c5.28-0.44,10.48-0.8,15.35,1.96
		c1.73-1.93,3.2-4.22,6.39-2.67c-0.46,0.92-0.86,1.7-1.5,2.97c1.29-0.27,2.19-0.46,3.1-0.64c5.54-1.08,11.1-2.08,16.62-3.26
		c1.72-0.37,3.35-1.18,5.06-1.81c-0.53,0.63-1.12,1.32-1.89,2.22c5.72,2.19,11.15,3.78,17.1,1.68c2.06-0.73,4.38-0.74,6.58-1.08
		c0.04,0.27,0.09,0.55,0.13,0.82c-1.7,0.22-3.39,0.44-5.12,0.66c1.91,1.21,3.54,2.24,5.16,3.27c-0.08,0.16-0.16,0.31-0.25,0.47
		c-0.82-0.31-1.63-0.69-2.47-0.91c-1.74-0.45-3.09-1.5-5.39-0.31c-1.86,0.96-4.85-0.14-7.31-0.54c-1.88-0.3-3.72-0.89-5.54-1.44
		c-5.22-1.58-10.37-1.07-15.48,0.47c-0.27,0.08-0.49,0.34-0.73,0.51c0.02,0.28,0.04,0.56,0.06,0.84c2.27,0,4.55,0.03,6.82-0.01
		c5.46-0.08,10.75,0.26,15.6,3.39c1.54,0.99,3.88,0.66,5.79,1.18c2.48,0.68,4.9,1.6,7.35,2.41c-0.06,0.31-0.12,0.63-0.18,0.94
		c-2.02,0.53-4.03,1.06-6.77,1.78c2.54,1.34,4.64,2.45,7.16,3.78c-5.31,0.05-7.42-4.6-11.43-6.21c0.55,0.83,1.11,1.65,1.66,2.48
		c-0.14,0.14-0.27,0.29-0.41,0.43c-1.17-1.13-2.73-2.05-3.45-3.42c-1.94-3.71-5.34-5.22-8.97-5.48c-6.03-0.43-12.11-0.12-18.11-0.12
		c0.82,1.77,5.46,3.62,7.06,2.65c0.2-0.12,0.07-0.79,0.1-1.34c0.89,0.21,1.84,0.44,2.79,0.64c0.97,0.2,1.95,0.37,2.54,0.49
		c0.51,1.15,0.91,2.06,1.3,2.97c-3.74-0.85-7.47-1.69-11.69-2.64C295.24,242.94,300.65,243.89,304.77,241.97z M299.51,166.9
		c-1.92-0.5-4-0.46-5.13-1.47c-2.09-1.89-4.41-2.48-6.99-2.8c-0.9-0.11-1.83-0.33-2.64-0.71c-2.61-1.23-3.09-3.72-0.92-5.9
		c-2.57-1.78-5.09-3.52-7.6-5.27c0.68,1.96,1.69,3.55,2.59,5.22c0.88,1.63,1.63,3.32,2.44,4.99c-0.25,0.12-0.49,0.25-0.74,0.37
		c-0.5-0.89-1.05-1.76-1.48-2.68c-0.99-2.1-2.66-2.87-4.89-2.61c-3.14,0.37-4.9-1.13-5.48-4.85c3.56-0.3,5.29,2.93,8.17,4.43
		c-1.66-4.44-7.59-8.61-11.34-8.53c0.77,2.02,1.59,4.16,2.61,6.84c-3.05-0.57-4.99-1.6-5.58-3.72c-0.9-3.23-2.97-4.75-6.03-5.27
		c-0.9-0.15-1.87,0.07-2.75-0.12c-3.33-0.69-6.64-1.48-9.95-2.23c-8.76-1.98-17.44-4.41-26.58-3.96
		c-5.42,0.27-10.38,1.78-14.38,5.49c-2.03,1.88-3.57,4.29-5.72,6.92c11.44-0.36,18.43,0.69,27.36,4.25
		c4.33,1.73,8.57,3.67,12.77,5.71c5.45,2.64,11.13,3.25,17.04,2.45c6.15-0.83,8.4-2.73,10.17-9.18c0.25,2.04,0.41,3.38,0.57,4.77
		c3.43,0.64,6.97-1.41,10.25,0.71c-7.82-1.75-13.68,2.51-20.11,5.89c8.98,5.8,46.48,8.54,54.87,4.05c-0.74-0.82-1.38-1.67-2.15-2.36
		c-3.35-3-7.07-5.66-10.03-9c-4.23-4.79-9.89-3.54-15.01-4.67c2.52,2.45,5.1,4.69,7.74,6.86c0.41,0.33,1.09,0.44,1.65,0.45
		C296.03,161.06,297.98,163.42,299.51,166.9z M168.43,113.58c-1.09,5.36-2.12,10.41-3.15,15.46c0.31,0.09,0.62,0.19,0.93,0.28
		c0.73-1.41,1.47-2.82,2.2-4.22c0.2,0.08,0.39,0.16,0.59,0.25c-0.48,1.7-1.09,3.37-1.41,5.1c-1.18,6.29-0.58,12.14,3.59,17.46
		c2.94,3.76,5.3,7.97,7.88,11.92c4.03-6.66,8.14-13.26,12.04-19.99c1.84-3.17,1.61-6.76,1.04-10.24c-0.36-2.21-0.98-4.38-1.62-6.53
		c-1.6-5.37-1.68-10.61,0.81-15.79c0.35-0.72,0.13-2.1-0.37-2.78c-1.76-2.41-3.67-4.74-5.7-6.94c-2.25-2.44-3.87-5.07-4.07-8.48
		c-0.06-1.09-0.53-2.15-1.01-3.99c-0.64,1.53-0.99,2.33-1.31,3.15c-1.86,4.85-3.9,9.65-8.16,12.91c-3.12,2.38-2.75,5.19-1.87,8.09
		c1.73-0.44,3.31-0.85,5.07-1.3c-0.14,2.16-0.23,3.73-0.36,5.29c-0.15,1.87-1.92,2.76-3.57,1.76
		C169.53,114.7,169.16,114.24,168.43,113.58z M160.75,150.74c0.18-0.3,0.36-0.59,0.53-0.89c-0.45-0.21-0.94-0.37-1.36-0.64
		c-13.27-8.71-27.49-11.31-42.85-6.73c-0.69,0.21-1.44,0.18-2.17,0.28c-4.99,0.67-10,1.28-14.98,2.04
		c-1.53,0.23-2.06,1.41-1.97,2.98c0.08,1.35-0.12,2.72-0.18,3.97c-2.35-0.21-4.28-0.38-6.94-0.61c1.5-2.28,2.7-4.1,3.9-5.93
		c-0.09-0.16-0.18-0.32-0.27-0.49c-2.48,1.22-4.96,2.44-7.44,3.65c0.08,0.32,0.17,0.64,0.25,0.95c0.98,0.28,1.96,0.55,3.04,0.86
		c0.6,2.68,0,5-2.78,7.16c2.53,0.35,4.44,0.62,6.57,0.92c0-1.73,0-3.14,0-4.54c0.56,3.36,2.42,5.66,5.38,7.05
		c5.18,2.43,10.61,3.56,16.26,2.11c3.37-0.86,6.71-1.98,9.91-3.34c6.52-2.77,12.97-5.68,20.04-6.76
		C150.71,152.02,155.74,151.41,160.75,150.74z M49.78,167.43c10.18,5.07,47.67,2.74,53.86-3.38c-3.03-1.47-5.87-3.3-8.98-4.24
		c-3.15-0.95-6.56-1.02-9.15-1.38c-0.49-1.23-0.85-2.15-1.22-3.07c-1.07,0.52-2.33,0.84-3.17,1.62c-0.65,0.61-0.78,1.77-1.15,2.69
		c-0.25-0.1-0.5-0.2-0.75-0.3c1.03-2.72,2.05-5.44,3.08-8.17c-0.13-0.15-0.26-0.31-0.39-0.46c-1.92,1.23-3.84,2.46-5.89,3.77
		c0.62,0.82,1.19,1.25,1.14,1.58c-0.22,1.39-0.38,2.89-1.05,4.07c-0.66,1.17-1.59,0.39-2.66-0.07c-1-0.43-3.15-0.13-3.69,0.63
		c-1.98,2.8-3.6,4.36-6.73,5.21c-0.29,0.08-0.59,0.11-1.07,0.2c0.57-3.09,2.11-4.98,5.02-5.76c0.89-0.24,1.76-0.76,2.49-1.34
		c1.52-1.22,2.91-2.6,4.41-3.85c0.93-0.78,1.94-1.46,2.91-2.19c-0.14-0.27-0.28-0.54-0.42-0.8c-2.85,0.4-5.74,0.64-8.53,1.28
		c-1.55,0.35-3.13,1.16-4.4,2.14c-4.06,3.15-7.99,6.47-11.93,9.77C50.85,165.94,50.38,166.71,49.78,167.43z M215.66,267.56
		c0,2.71,0,4.99,0,7.27c-0.21,0.04-0.41,0.07-0.62,0.11c0.29-6.02-2.13-11.18-4.67-16.34c-0.95-1.93-2.27-3.02-4.44-3.31
		c0.69,1.72,1.75,3.18,2.53,4.77c0.81,1.66,0.95,3.42-0.4,5.29c-1.2-1.46-2.23-2.72-2.78-3.4c-2.1,0-3.66,0.17-5.14-0.1
		c-0.48-0.08-1.23-1.74-1.06-1.91c1.04-1.07,2.18-2.2,3.52-2.78c2.34-1.01,2.74-2.07,0.89-3.94c-3.97-4.03-7.99-8.01-12.01-12
		c-0.12-0.12-0.41-0.05-0.86-0.1c0.31,1.6,0.53,3.06,0.87,4.5c1.58,6.66,2.92,13.48,8.18,18.43c4.48,4.22,9.29,8.07,13.82,12.24
		c3.21,2.96,6.19,6.16,9.25,9.27c1.09,1.11,2.12,2.29,3.31,3.58c0.64-2.96,0.9-5.4,1.7-7.64c2.12-6.01,1.29-11.48-1.82-17
		c-2.94-5.22-8.23-5.02-12.8-6.65c1.27,3.67,3.7,6.2,6.81,8.1c3.14,1.92,5.07,4.56,5.32,8.33c-1.57-3.21-3.27-6.28-7.12-7.74
		c2,3.62,3.83,6.94,5.65,10.23c-0.75,0.49-1.39,0.68-1.51,1.04c-0.2,0.6-0.04,1.32-0.1,1.98c-0.05,0.47-0.22,0.92-0.47,1.96
		C220.78,276.3,220.67,271.13,215.66,267.56z M172.19,266.08c-0.36-0.09-0.72-0.19-1.09-0.28c-0.4,1.29-1.15,2.57-1.15,3.86
		c0.04,7.15-3.23,12.74-7.93,17.76c-1.92,2.05-2.57,4.61-2.44,7.38c0.28,5.81,1.56,11.35,4.31,16.52c0.55,1.04,1.02,2.12,1.53,3.19
		c-0.12,0.05-0.24,0.11-0.35,0.16c-0.8-1.15-1.6-2.31-2.58-3.73c0.28,3.38,0.52,6.28,0.76,9.18c-0.2,0.01-0.4,0.03-0.59,0.04
		c-0.23-2.2-0.46-4.4-0.7-6.6c-1.09,2.62-1.81,5.18-2.48,7.76c-0.69,2.63-3.49,4.64-2.37,7.83c5.89-1.75,12.23-10.49,11.88-16.35
		c0-0.08-0.01-0.17-0.02-0.25c-0.39-3.06-0.78-6.13-1.17-9.13c-0.43,0.51-1.06,1.27-1.69,2.03c0.74-4.55,6.31-7.53,3.85-13.38
		c-0.72,0.93-1.24,1.6-1.76,2.27c-0.11-0.05-0.21-0.09-0.32-0.14c1.28-2.67,2.56-5.35,3.84-8.02c-4.76,2.07-5.41,6.74-7.42,10.6
		c0-0.78,0-1.56,0-2.34c-0.11-0.01-0.21-0.02-0.32-0.03c-0.37,0.89-0.75,1.78-1.12,2.67c1.23-5.52,3.58-10.39,9.03-12.76
		c3.41-1.48,4.92-3.78,4.7-7.35c-0.28-4.4-0.55-8.79-0.95-13.18c-0.27-2.97-0.73-5.93-1.11-8.9c-0.22,0.02-0.44,0.05-0.66,0.07
		c-0.29,4.34-0.92,8.69,0.68,12.98c1.18,3.16,0.58,5.77-2.11,8.24c-0.71-1.79-1.84-3.42-1.87-5.06
		C170.55,269.46,171.61,267.77,172.19,266.08z M168.3,240.63c-0.57,0.76-1.08,1.59-1.73,2.28c-2.84,3.02-5.71,6-8.58,8.99
		c-0.58,0.6-1.27,1.09-1.8,1.72c-1.24,1.48-1.34,2.59,0.67,3.74c1.43,0.82,2.45,2.37,3.57,3.51c-1.91,0.97-3.85,2.56-4.46,2.15
		c-1.63-1.08-2.15,0.11-3.13,0.63c-0.54,0.29-1.56,0.58-1.78,0.34c-0.41-0.45-0.72-1.42-0.51-1.95c0.6-1.51,1.5-2.91,2.26-4.36
		c0.41-0.78,0.78-1.59,1.17-2.38c-0.33-0.24-0.66-0.47-0.99-0.71c-0.97,1.19-2.42,2.23-2.82,3.59c-1.58,5.39-5.26,10.19-4.64,16.2
		c0.01,0.07-0.22,0.17-0.52,0.39c-0.2-2.45-0.39-4.79-0.6-7.3c-4.38,3.86-6.37,11.92-3.99,14.99c4.95-4.02,10.1-7.83,14.79-12.14
		c3.08-2.83,5.82-6.16,8.13-9.66C167.28,254.72,168.08,247.77,168.3,240.63z M240.76,253.92c-1.95,2.87-2.71,0.6-3.62-0.31
		c-1.37-1.38-2.32-3.74-3.91-4.25c-8.11-2.62-16.37-4.79-24.46-7.08c4.65,5.81,10.94,9.52,18.11,11.83
		c8.16,2.63,15.76,6.17,22.36,11.81c2.81,2.39,6.37,3.64,10.5,4.8c-0.84-3.29-1.49-6.02-2.22-8.71c-1.23-4.52-5.16-7.6-10.45-8.03
		c3.05,2.01,4.09,4.6,3.28,8.18c-1.78-0.97-2.9-3.11-5.32-1.89c-0.37,0.19-1.93-1.6-2.68-2.65
		C241.71,256.7,241.43,255.53,240.76,253.92z M190.16,307.66c-1.39,2.84-1.88,5.38-0.57,7.82c1.37,2.56,2.8,5.11,4.43,7.52
		c2.26,3.32,5.55,5.24,9.58,6.22c-2.12-4.9-5.2-9.36-4.69-15.07c-0.32,0.07-0.64,0.14-0.95,0.2c0,2.29,0,4.58,0,6.86
		c-0.22,0-0.45-0.01-0.67-0.01c0-2.81,0-5.63,0-8.44c-0.24-0.05-0.49-0.11-0.73-0.16c-0.59,1.53-1.18,3.06-1.77,4.6
		c-0.2-0.07-0.4-0.15-0.6-0.22c0.56-1.52,1.06-3.08,1.71-4.56c1.07-2.42,2.5-4.71,3.33-7.21c1.51-4.57-0.2-8.52-3.37-12.06
		c0.26,1.54,0.53,3.07,0.79,4.61c-2.85-4.3-2.38-10.44-7.87-13.39c0.41,5.7,2.96,10.25,5.81,14.73c-1.21-1.48-2.43-2.96-3.8-4.65
		c-1.66,4.24,2.42,5.71,3.6,8.8c-1.01-0.86-1.69-1.44-2.37-2.03c-0.17,0.16-0.34,0.31-0.51,0.47c1.19,2.16,2.38,4.32,3.56,6.47
		c-0.13,0.07-0.26,0.15-0.39,0.22c-1.28-1.74-2.57-3.47-3.85-5.21c-0.36,0.18-0.72,0.36-1.08,0.54c0.83,2.08,1.66,4.17,2.49,6.25
		c-0.08,0.07-0.16,0.14-0.25,0.21C191.39,309.31,190.77,308.49,190.16,307.66z M200.49,300.1c3.04-6,2.8-8.8-1.25-13.24
		c-3.54-3.88-6.1-8.17-7.37-13.36c-1.22-4.98-2.98-9.83-4.54-14.73c-0.14-0.45-0.56-0.82-0.85-1.23c-0.26,0.04-0.52,0.08-0.78,0.13
		c-0.24,5.15-0.5,10.3-0.7,15.45c-0.13,3.14,0.88,5.8,3.19,8.07C193.53,286.44,198.65,291.9,200.49,300.1z M150.87,242.44
		c-7.67,1.94-15.1,3.95-22.59,5.67c-3.83,0.88-7.17,2.57-10.21,4.94c-0.53,0.41-1.1,1.39-0.96,1.93c0.4,1.54,1.16,2.99,1.73,4.37
		c6.36-2.38,13.13-4.86,19.86-7.46C143.63,249.98,147.35,246.46,150.87,242.44z M147.25,258.03c-4.26,1.12-8.99,1.24-11.06,6.23
		c-0.95,2.3-2.11,4.52-3.13,6.79c-0.51,1.14-1.46,2.4-1.3,3.48c0.7,4.79,1.72,9.53,2.7,14.71c1.63-1.69,3.16-3.18,4.56-4.79
		c0.31-0.35,0.28-1.17,0.14-1.71c-0.92-3.53-2.16-7.01-0.05-10.57c0.91-1.54,1.62-3.2,2.71-5.39c-3.61,1.67-5.48,4.02-6.5,7.18
		c0.27-3.57,1.85-6.17,5.06-7.87C143.66,264.35,145.94,261.62,147.25,258.03z M250.23,281.49c-2.66-5.05-4.74-9.88-7.63-14.16
		c-1.91-2.84-5.49-3.84-8.91-4.53c2.8,4.47,5.61,8.8,6.64,14.06c-2.55-4.26-4.57-8.86-8.23-12.34c0.46,3.02,1,5.96,1.8,8.82
		c0.88,3.12,2.86,5.68,5.96,6.57C243.07,280.81,246.49,280.95,250.23,281.49z M227.97,308.18c2.92-8.67-1.74-20.37-10.32-24.78
		c0.85,3.79,1.68,7.47,2.37,10.56c-0.78,0.67-1.48,0.98-1.52,1.35c-0.24,2.05-0.39,4.12-0.39,6.18c0,0.5,0.62,1.15,1.13,1.46
		C222.14,304.76,225.1,306.48,227.97,308.18z M142.2,291.24c-0.79,0.53-1.25,0.84-1.83,1.23c1.1-3.1,2.11-5.95,3.22-9.11
		c-6.37,2.63-15.33,18.65-10.93,25.32c1.84-3.54,5.16-4.85,8.58-5.99c1.89-0.63,2.65-1.81,2.27-3.79
		C143.05,296.47,142.67,294.03,142.2,291.24z M123.52,236.32c-3.72-2.39-7.81-2.54-11.96-2.05c-5.97,0.71-11.93,1.64-16.62,5.87
		c-1.22,1.1-1.97,2.74-3.29,4.64c3.57-0.39,6.2-0.62,8.81-0.98c1.62-0.22,3.48-0.23,4.78-1.05
		C110.86,239.23,117.03,237.52,123.52,236.32z M119.82,275.99c-0.3-3.06,1.84-4.9,2.95-7.03c1.19-2.28,2.71-4.38,4.48-7.16
		c-2.59,1.03-4.53,1.8-6.82,2.71c0.85,0.65,1.34,1.02,1.87,1.43c-5.56,3.26-8.16,8.24-9.32,14.46c4.63,0.29,8.63-0.34,11.92-3.64
		c3.99-4,4.03-9.29,4.85-14.46c-0.81,0.42-1.35,1.04-1.81,1.71C125.34,267.81,122.77,271.63,119.82,275.99z M267.5,245.7
		c-1.52-4.68-4.12-8.04-7.99-9.15c-4.61-1.33-9.58-1.66-14.41-1.82c-2.72-0.09-5.49,1.06-8.39,1.68c4.78,1.48,9.12,2.74,13.39,4.18
		c1.96,0.66,3.73,1.95,5.71,2.49C259.52,244.1,263.32,244.78,267.5,245.7z M105.54,244.85c-2.65,0.21-5.07,0.18-7.39,0.65
		c-1.99,0.4-4.44,0.84-5.67,2.19c-2.85,3.12-5.08,6.8-7.56,10.26c0.2,0.29,0.4,0.58,0.61,0.87c1.71-0.65,3.6-1.02,5.07-2.01
		c2.06-1.39,3.93-2.92,6.56-3.13c0.79-0.06,1.53-0.66,2.29-1.02c-0.07-0.21-0.13-0.42-0.2-0.63c-2.79,0.24-5.59,0.48-8.38,0.72
		c-0.03-0.22-0.06-0.43-0.09-0.65c1.74-0.29,3.48-0.84,5.21-0.83C100.6,251.3,103.2,248.59,105.54,244.85z M37.64,172.34
		c1.96-2.91,5.8,0.49,7.5-2.57c-2.53-1.65-7.33-2.14-9.82-0.81c-3.77,2.02-8.33,3.48-7.72,9.51c2.38-1.17,4.71,1.83,7.26-0.12
		c2.03-1.56,4.44-2.69,5.84-5.16C39.52,172.86,38.68,172.63,37.64,172.34z M261.03,252.49c0,0.2,0,0.41,0,0.61
		c4.7,1.96,9.41,3.93,14.11,5.89c0.09-0.22,0.19-0.43,0.28-0.65c-2.4-3.23-4.77-6.49-7.23-9.68c-0.53-0.69-1.35-1.41-2.16-1.59
		c-3.92-0.88-7.87-1.58-12.38-2.45c3.3,3.2,5.2,7.41,10.56,6.85c1.49-0.15,3.09,0.77,4.64,1.2c-0.05,0.18-0.09,0.37-0.14,0.55
		C266.16,252.99,263.59,252.74,261.03,252.49z M258.51,171.39c-0.11,0.13-0.22,0.27-0.33,0.4c0.55,0.63,1.07,1.3,1.66,1.88
		c3.73,3.65,8.41,4.55,13.35,4.37c5.68-0.21,11.3-0.21,16.69,1.93c0.24,0.1,0.55,0.01,1.01,0.01c-4.06-4.19-15.01-7.36-20.11-5.83
		c0.73,0.67,1.38,1.26,2.02,1.86c-0.13,0.27-0.27,0.54-0.4,0.8C267.78,175,263.15,173.19,258.51,171.39z M90.92,172.57
		c-7.34,0.02-14.59,0.23-20.32,5.67c0.9,0.13,1.77,0.06,2.54-0.27c3.55-1.52,7.09-1.62,10.94-1.11c5.14,0.67,10.36,0.25,14.6-3.45
		c0.77-0.67,1.27-1.64,2.25-2.96c-4.78,1.96-8.78,3.6-12.78,5.24c-0.13-0.28-0.25-0.57-0.38-0.85
		C88.82,174.08,89.87,173.33,90.92,172.57z M137.02,240.44c0.01-0.26,0.02-0.52,0.03-0.77c-4.02-0.38-8.07-1.21-12.06-1.01
		c-4.34,0.23-8.99,0.81-10.61,6.01c0.93-0.11,1.85-0.23,2.85-0.35c-0.16,0.68-0.25,1.08-0.39,1.68
		C123.78,244.08,130.4,242.26,137.02,240.44z M224.55,240.95c7.79,2.33,15.57,4.67,23.62,7.08c-1.45-1.95-2.62-3.78-4.05-5.37
		c-0.94-1.04-2.15-2.09-3.44-2.5C235.24,238.39,229.88,240.08,224.55,240.95z M145.47,300.46c4.54-1.36,8.85-7.29,8.32-10.96
		c-3.73-0.12-4.57,2.28-4.59,5.34c-0.43-3.73-0.86-7.45-1.29-11.18C143.13,288.85,144.94,294.59,145.47,300.46z M213.63,283.5
		c-0.29-0.03-0.59-0.06-0.88-0.09c-0.36,3.77-0.71,7.55-1.14,12.05c-0.96-2.74-0.67-5.98-4.43-5.2c-0.32,4.02,3.32,9.49,7.26,10.59
		C215.81,294.94,217.46,289.12,213.63,283.5z M90.46,264.05c-4.63-0.24-9.59,3.6-11.3,8.19c9.61-0.13,17.87-4.39,19.07-10.51
		c-4.61,2.78-8.78,5.3-12.95,7.82c-0.12-0.14-0.24-0.29-0.36-0.43C86.62,267.56,88.32,266.01,90.46,264.05z M269.9,264.37
		c1.74,1.89,3.23,3.52,4.72,5.14c-0.16,0.16-0.32,0.33-0.48,0.49c-3.6-3-7.19-6.01-11.93-7.25c0.58,5.39,11.27,11.05,17.69,9.58
		C278.57,267.43,274.44,264.02,269.9,264.37z M157.22,274.28c-8.39,3.65-10.27,7.8-7.17,15.28c2.75-0.57,4.96-1.5,5.02-4.97
		c0.03-1.71,0.7-3.4,1.07-5.1C156.49,277.84,156.82,276.18,157.22,274.28z M60.84,155.52c-4.11,0.55-8.44,0.97-12.71,1.76
		c-3.16,0.59-5.36,2.65-6.88,5.93C49.39,163.57,56.19,161.78,60.84,155.52z M318.96,165.12c-1.72-2.46-3.93-4.26-6.66-4.95
		c-4.29-1.09-8.69-1.73-12.93-2.53C303.01,163.38,312.46,167.13,318.96,165.12z M194.17,268.78c-1.62,5.87,2.55,15.35,8.48,19.1
		C202.33,280.36,199.43,274.21,194.17,268.78z M204.14,274.43c0.91,4.35,1.91,7.95,2.34,11.61c0.33,2.84,1.95,3.46,4.68,3.81
		c0.15-3.29,0.42-6.42,0.36-9.54c-0.02-0.91-0.77-2.09-1.54-2.64C208.32,276.5,206.42,275.66,204.14,274.43z M158.32,287.94
		c7.23-6.46,10.43-13.34,8.28-18.73C161.35,274.12,159.82,280.71,158.32,287.94z M62.37,180.36c3.93-2.41,7.29-4.48,10.99-6.76
		c-3.33,0-6.14-0.1-8.94,0.07c-0.71,0.04-1.85,0.81-1.96,1.4C62.18,176.56,62.37,178.14,62.37,180.36z M256.72,250.41
		c-3.25-3.72-6.03-8.09-11.51-8.99C247.7,246.07,250.72,250.06,256.72,250.41z M109.29,267.13c0.93-1.23,2.32-2.34,2.58-3.66
		c0.23-1.18-0.78-2.61-1.25-3.93c-0.39-0.08-0.79-0.16-1.18-0.24c1.58-1.9,3.15-3.8,4.73-5.7c-2.15,0.52-4.17,1.37-6.06,2.46
		c-0.44,0.26-0.65,1.38-0.54,2.04C108.01,260.86,108.6,263.6,109.29,267.13z M298.51,182.78c-0.32-2.2-0.47-3.93-0.85-5.6
		c-0.14-0.61-0.77-1.52-1.26-1.58c-2.72-0.36-5.47-0.5-8.21-0.71c-0.01,0.18-0.01,0.37-0.02,0.55
		C291.48,177.8,294.8,180.15,298.51,182.78z M103.26,250.12c5.94-0.77,10.51-4.72,11.21-9.61
		C109.69,242.45,106.64,246.1,103.26,250.12z M105.85,264.83c-0.82,0.31-1.46,0.55-2.1,0.79c-1.8-3.18-0.29-5.59,1.47-8
		c-5.08,2.87-3.55,8.12-5.01,12.43C104.89,269.71,106.2,268.52,105.85,264.83z M266.84,233.97c4.42,2.19,8.97,3.24,13.8,1.83
		C276.35,232.81,271.61,233.29,266.84,233.97z M307.97,166.42c1.85,1.35,3.14,2.87,4.7,3.26c1.55,0.39,3.41-0.26,5.09-0.66
		c0.63-0.15,1.12-0.89,1.67-1.36c-0.63-0.41-1.24-1.16-1.88-1.19C314.63,166.35,311.69,166.42,307.97,166.42z M78.97,235.89
		c4.83,0.62,9.44,0.07,13.74-2.23C87.89,232.94,83.12,232.59,78.97,235.89z M50.63,163.81c-3.28,0.17-6.14,0.29-9,0.52
		c-0.33,0.03-0.93,0.72-0.86,0.96c0.15,0.54,0.55,1.27,1,1.42c1.58,0.5,3.21,0.98,4.84,1.06c0.76,0.04,1.65-0.77,2.31-1.38
		C49.51,165.86,49.84,165.05,50.63,163.81z M86.68,239.6c-2.65,0.17-4.94,0.56-7.19,0.39c-2.26-0.17-3.57,0.54-4.46,2.96
		C79.11,241.98,83.69,244.1,86.68,239.6z M177.06,284.46c-4.18,1.24-5.46,4.77-3.65,10.33C174.58,291.49,175.74,288.2,177.06,284.46
		z M284.7,243.04c-2.73-3.94-6.86-2.32-10.53-3.39C275.71,242.78,279.08,243.77,284.7,243.04z M93.25,275.14
		c2.29-2.06,5.23-3.43,5.29-7.13C95.52,268.58,93.6,271.21,93.25,275.14z M262.2,268.47c-0.32,3,0.83,4.63,4.42,6.31
		C266.53,271.7,265.03,269.57,262.2,268.47z M291.54,242.82c-1.74-1.1-3.04-1.92-4.58-2.89
		C287.09,244.05,287.75,244.52,291.54,242.82z M73.2,243.11c-1.74-1.17-0.14-2.42,0.12-3.57c-0.19-0.12-0.38-0.24-0.57-0.37
		c-1.2,1.06-2.4,2.13-3.59,3.19c0.16,0.25,0.32,0.5,0.47,0.75C70.82,243.11,72.01,243.11,73.2,243.11z"/>
	<path class="st0" d="M67.05,79.08c1.91,2.77,3.97,6.11,6.37,9.18c3.29,4.2,7.16,7.81,12.13,10.03c2.8,1.25,4.31,3.98,3.31,6.17
		c-3.55-1.13-5.26-4.28-7.62-6.75c-2.92-3.05-6.06-5.9-9.2-8.74c-0.63-0.57-1.71-0.6-2.49-1.04c-0.85-0.47-1.59-1.14-2.37-1.72
		c0.84-0.32,1.68-0.65,2.94-1.13c-1.07-1.31-2.18-2.91-3.55-4.26c-1.34-1.32-2.71-2.46-5-1.16c-1.62,0.92-3.89-0.89-5.08-3.56
		c2-1.16,3.89-1.57,5.76,0.32c0.88,0.88,1.85,1.68,2.87,2.39C65.49,79.06,66.11,78.96,67.05,79.08z"/>
	<path class="st0" d="M297.33,76.27c1.35-4.38,3.12-6.15,6.69-6.3c-0.25,2.3-0.5,4.53-0.78,6.98c1.47,0.56,3.59,1.06,2.61,3.81
		c-2.77,0.93-5.32-0.09-7.88-1.01c0,0,0.05,0.06,0.05,0.06c0.38-0.49,0.89-0.94,1.1-1.49c0.34-0.91,0.49-1.89,0.73-2.84
		C299.01,75.75,298.17,76.01,297.33,76.27z"/>
	<path class="st0" d="M255.78,53.56c-0.12,0.63-0.07,1.23-0.33,1.56c-2.43,3-2.84,6.48-2.66,10.18c0.06,1.17-0.48,2.37-0.75,3.58
		c-3.98-1.45-4.02-4.69-0.31-9.99c-0.73-0.36-1.44-0.71-2.11-1.05C250.26,53.83,251.85,52.69,255.78,53.56z"/>
	<path class="st0" d="M311.6,103.27c-4.06-0.45-8.08-0.9-12.46-1.38c1.65-3.58,4.28-3.03,6.67-3.29
		C309.34,98.22,310.57,100.5,311.6,103.27z"/>
	<path class="st0" d="M253.99,178.81c-3.77-2.51-8.51-3.78-8.99-9.23C249.55,169.54,254.23,174.35,253.99,178.81z"/>
	<path class="st0" d="M105.69,174.68c-0.04-2.67,1.08-4.57,3.64-5.05c2.1-0.39,4.34-0.08,7.04-0.08
		C113.23,173.23,109.52,174.88,105.69,174.68z"/>
	<path class="st0" d="M145.29,14.52c-0.07,2.54,0.07,4.73-0.3,6.83c-0.12,0.66-2.07,1.72-2.37,1.5c-1.03-0.76-2.25-1.94-2.39-3.08
		C139.94,17.23,141.63,15.47,145.29,14.52z"/>
	<path class="st0" d="M266.36,86.49c0.7,1.38,1.18,2.23,1.56,3.13c0.68,1.6-0.31,3.57-2.12,4.52c-1.51,0.79-2.97,0.3-3.31-1.01
		c-0.32-1.21,0.11-2.88,0.78-4.02C263.89,88.04,265.24,87.39,266.36,86.49z"/>
	<path class="st0" d="M302.41,176.23c2.85-0.05,5.92,1.86,6.16,4.01c2.39-1.71,4.87-2.63,8.04-0.9c-0.76,0.69-1.29,1.51-2,1.73
		c-1.23,0.38-2.62,0.67-3.87,0.5C307.16,181.09,306.31,180.43,302.41,176.23z"/>
	<path class="st0" d="M68.56,198.33c0.05,3.08-1.74,5.14-3.8,4.67c-1.07-0.25-2.32-1.54-2.68-2.63c-0.46-1.4,2.91-4.46,4.56-4.07
		C67.57,196.52,68.21,197.94,68.56,198.33z"/>
	<path class="st0" d="M283.3,71.12c2.46-0.26,4.72-0.82,6.85-2.36c0.9-0.66,2.83-0.04,4.25,0.23c0.33,0.06,0.81,1.16,0.66,1.56
		c-0.32,0.84-0.92,2.07-1.57,2.19c-1.94,0.36-3.89,0.82-5.78-0.95c-0.9-0.84-2.92-0.5-4.44-0.69
		C283.25,71.09,283.3,71.12,283.3,71.12z"/>
	<path class="st0" d="M229.63,26.54c0.42,0.96,0.84,1.91,1.25,2.87c0.82,1.91-1.08,5.05-3.12,4.94c-0.57-0.03-1.38-0.85-1.6-1.48
		C225.25,30.21,226.81,27.53,229.63,26.54z"/>
	<path class="st0" d="M243.67,123.15c-0.31,1.68-0.54,2.95-0.77,4.21c0.15,0.23,0.3,0.47,0.46,0.7c-1.77,0.1-3.67,0.63-5.28,0.16
		c-1.23-0.36-1.38-2.1-0.53-3.41C239.1,122.42,241.51,123.51,243.67,123.15z"/>
	<path class="st0" d="M239.76,95.28c0.67,3.26,2.31,6.37-0.35,9.32C235.54,102.18,235.71,97.54,239.76,95.28z"/>
	<path class="st0" d="M48.35,100.54c-3.52,2.45-6.28,1.28-8.39-3.37C43.6,95.79,45.31,96.46,48.35,100.54z"/>
	<path class="st0" d="M236.35,46.41c2.1-2.55,3.84-4.68,5.78-7.04c1.14,2.97,0.52,6.5-0.88,7.9
		C239.4,49.13,238.46,46.7,236.35,46.41z"/>
	<path class="st0" d="M61.1,96.22c-0.55,0.1-1.28,0-1.64,0.32c-2.89,2.58-5.74,1.22-8.73,0.24c1.83-3.17,3.75-3.87,6.64-2.49
		c1.26,0.6,2.46,1.32,3.69,1.98C61.06,96.27,61.1,96.22,61.1,96.22z"/>
	<path class="st0" d="M53.9,111.69c-4.06,0.04-5.89-1.46-7.06-5.61C50.32,104.61,53.7,107.22,53.9,111.69z"/>
	<path class="st0" d="M140.2,63.87c0,3.03,0.08,5.53-0.07,8.01c-0.03,0.51-0.89,1.15-1.5,1.35c-0.25,0.08-0.96-0.76-1.24-1.29
		C135.69,68.7,136.39,66.16,140.2,63.87z"/>
	<path class="st0" d="M181.22,15.81c-0.14,2.61-0.12,4.67-0.43,6.67c-0.09,0.6-1.19,1.54-1.69,1.46c-0.72-0.11-1.56-0.89-1.92-1.6
		C176.02,20.09,177.29,17.7,181.22,15.81z"/>
	<path class="st0" d="M104.74,49.38c2.26,1.45,4.52,2.9,6.51,4.19c-0.69,1.21-1.17,2.06-1.66,2.92c-3.15-0.32-5.15-2.62-5.44-6.31
		C104.35,49.91,104.55,49.64,104.74,49.38z"/>
	<path class="st0" d="M122.54,52.26c-1.42,0.03-3.19-2.25-4.06,0.9c-2.66-1.3-4.2-3.1-4.77-5.94c4.64-0.85,6.43,2.6,8.78,5.09
		C122.5,52.3,122.54,52.26,122.54,52.26z"/>
	<path class="st0" d="M313.56,102.38c1.97-3.07,3.93-3.81,7.33-2.72c-0.31,0.9-0.62,1.79-0.95,2.74c0.43,0.07,0.81,0.13,1.32,0.2
		C319.19,104.92,318.38,104.88,313.56,102.38z"/>
	<path class="st0" d="M231.1,187.12c0.6,2.94,1.21,5.35,1.51,7.79c0.08,0.67-0.76,1.45-1.18,2.18c-0.62-0.48-1.42-0.84-1.83-1.45
		C228,193.26,228.4,190.72,231.1,187.12z"/>
	<path class="st0" d="M92.15,81.57c4.35,1.57,5.89,4.83,6.33,9.12C94.12,89.12,92.73,85.76,92.15,81.57z"/>
	<path class="st0" d="M198.88,84.93c-0.09,0.64-0.28,1.3-0.25,1.94c0.13,2.69-2.17,4.37-4.64,3.21c-0.47-0.22-0.9-1.34-0.77-1.91
		C193.85,85.41,195.82,84.35,198.88,84.93z"/>
	<path class="st0" d="M76.63,118.47c-1.42-1.84-2.84-3.69-4.36-5.65c3.44-0.91,6.12-0.21,6.88,2.13c0.31,0.95-0.87,2.39-1.37,3.6
		C77.41,118.53,77.02,118.5,76.63,118.47z"/>
	<path class="st0" d="M188.86,65.5c1.91,3.89,1.4,6.18-1.98,8.73C184.62,71.87,185.09,69.82,188.86,65.5z"/>
	<path class="st0" d="M66.71,117.29c-0.85-3.51-1.6-6.63-2.35-9.74c2.77,0.59,4.1,2.13,4.19,4.3
		C68.62,113.55,69.58,115.68,66.71,117.29z"/>
	<path class="st0" d="M245.06,34.93c-0.83-2.22-0.97-4.41,0.11-6.78c3.53,2.05,3.63,5.14,3.18,8.85c-1.14-0.68-2.08-1.24-3.02-1.8
		C245.23,35.12,245.14,35.03,245.06,34.93z"/>
	<path class="st0" d="M165.59,38.44c1.71,3.22-0.01,6.07-0.73,9.14C161.65,44.45,161.96,40.81,165.59,38.44z"/>
	<path class="st0" d="M142.41,75.99c4.13,0.96,5.39,2.45,5.62,6.43C144.25,82.45,141.79,79.69,142.41,75.99z"/>
	<path class="st0" d="M129.76,25.48c3.76,2.14,5.19,5.72,3.44,8.6C130.31,32.26,128.86,28.65,129.76,25.48z"/>
	<path class="st0" d="M166.75,33.6c4.02-1.68,5.59,1.27,7.57,3.56C170.14,38.88,168.31,38.02,166.75,33.6z"/>
	<path class="st0" d="M219.04,165.37c0.08,0.12,0.17,0.23,0.28,0.33c0.85,2.28,1.78,4.53,2.49,6.85c0.14,0.47-0.54,1.2-0.85,1.82
		c-0.55-0.32-1.22-0.52-1.61-0.97C217.54,171.35,217.41,166.74,219.04,165.37z"/>
	<path class="st0" d="M280.65,82.22c-0.54,2.46-1.8,4.07-3.97,4.56c-0.86,0.2-1.93-0.5-2.9-0.79c0.29-0.78,0.4-1.71,0.91-2.32
		C276.2,81.85,278.15,81.34,280.65,82.22z"/>
	<path class="st0" d="M186.15,18.65c-0.25,2.68-0.35,4.76-0.71,6.8c-0.09,0.53-1.06,1.35-1.5,1.27c-0.66-0.11-1.46-0.77-1.76-1.41
		C181.16,23.15,182.43,20.75,186.15,18.65z"/>
	<path class="st0" d="M33.36,113.28c3.31-1.98,5.02-1.28,7.52,2.92C37.67,117.72,35.3,116.84,33.36,113.28z"/>
	<path class="st0" d="M65.32,66.65c2.93-1.49,4.97-1.34,6.65,0.53c0.41,0.45,0.87,1.21,0.74,1.68c-0.11,0.43-0.95,0.82-1.53,0.95
		C68.5,70.45,67.22,69.74,65.32,66.65z"/>
	<path class="st0" d="M293.74,120.22c-3.06-2.56-2.8-6.57,0.57-9.48C296.23,114.09,294.26,117.04,293.74,120.22z"/>
	<path class="st0" d="M297.89,204.12c-3.14,0.03-5.17-1.12-5.97-3.29c-0.56-1.51-0.08-2.23,1.57-2.03
		C295.87,199.08,297.65,201.18,297.89,204.12z"/>
	<path class="st0" d="M251.75,37.92c-2.16-3.41-1.85-6.04,0.84-8.13C254.88,32.48,254.59,35.77,251.75,37.92z"/>
	<path class="st0" d="M214.54,16.46c2.73,0.6,4.75,2.89,4.59,5.34c-0.04,0.62-0.53,1.39-1.04,1.71c-0.29,0.18-1.22-0.3-1.59-0.72
		C214.9,21.01,213.99,18.96,214.54,16.46z"/>
	<path class="st0" d="M86.45,83.02c-4.04,0.56-5.63-0.29-6.92-3.58C82.2,77.39,86.06,79.42,86.45,83.02z"/>
	<path class="st0" d="M157.51,27.21c1.47-3.53,3-4.52,6.41-4.22C162.83,27.6,160.58,29.15,157.51,27.21z"/>
	<path class="st0" d="M327.19,117.19c-2.01,3.42-3.68,4.02-7.17,2.68C320.8,116.41,324.05,115.13,327.19,117.19z"/>
	<path class="st0" d="M153.58,20.72c1.13-4.43,2.24-5.43,5.63-5.35c0.1,2.42-0.98,4.31-2.82,5.65
		C155.86,21.4,154.65,20.86,153.58,20.72z"/>
	<path class="st0" d="M214.06,77.7c-1.18,2.07-1.92,3.82-3.09,5.21c-0.49,0.58-1.89,0.4-2.87,0.57c0.03-0.88-0.18-1.85,0.13-2.62
		C209.1,78.7,210.76,77.53,214.06,77.7z"/>
	<path class="st0" d="M95.3,108.75c2.47-1.91,4.22-1.97,6.6-0.1c0.44,0.35,0.94,1.09,0.84,1.52c-0.1,0.44-0.97,1.1-1.38,1.02
		c-2.1-0.39-4.16-1-6.24-1.52C95.18,109.36,95.24,109.05,95.3,108.75z"/>
	<path class="st0" d="M109.21,36.34c-2.42-2.14-3.69-4.6-3.03-7.86C109.52,29.25,111.03,32.99,109.21,36.34z"/>
	<path class="st0" d="M111.27,65.96c-2.51-1.27-3.81-3.31-4.17-5.97c-0.07-0.49,0.23-1.42,0.5-1.48c0.54-0.11,1.28,0.1,1.75,0.43
		C111.27,60.28,112.05,63.14,111.27,65.96z"/>
	<path class="st0" d="M276.71,63.72c-0.87,2.04-1.69,4.11-2.68,6.1c-0.19,0.39-1.22,0.75-1.56,0.57c-0.44-0.24-0.77-1.03-0.8-1.6
		c-0.1-2.3,1.74-4.65,4.14-5.48C276.11,63.45,276.41,63.58,276.71,63.72z"/>
	<path class="st0" d="M167.15,89.23c-3.26,0.08-5.05-1.74-5.62-5.73C165.5,83.24,167.08,85.97,167.15,89.23z"/>
	<path class="st0" d="M200.42,60.71c0.18,3.01,0.37,6.03,0.55,9.04c-3.76-2.91-4.01-5.79-1.45-9.02
		C199.82,60.73,200.12,60.72,200.42,60.71z"/>
	<path class="st0" d="M174.37,73.52c-3.18-2.06-4.29-5.58-2.78-8.3C174.27,66.75,175.16,69.31,174.37,73.52z"/>
	<path class="st0" d="M333.08,150.52c0.82-0.74,1.72-1.4,2.44-2.23c1.8-2.06,3.46-2.46,6.25-1.29
		C340.05,151.13,336.4,150.43,333.08,150.52C333.07,150.52,333.08,150.52,333.08,150.52z"/>
	<path class="st0" d="M56.35,68.25c4.42-0.55,5.28,2.8,6.92,5.5C59.91,73.14,57.08,72.14,56.35,68.25z"/>
	<path class="st0" d="M171.02,21.89c2.56,0.99,3.94,3.98,3.24,7C171.2,28.35,169.79,25.31,171.02,21.89z"/>
	<path class="st0" d="M246.98,286.86c3.41,0.57,4.37,1.68,5.27,5.92C248.98,292.82,246.99,290.64,246.98,286.86z"/>
	<path class="st0" d="M327.69,105.92c-0.33,1.6-0.39,3.13-1.02,4.37c-0.27,0.53-1.76,0.73-2.61,0.59c-0.53-0.09-1.34-1.17-1.27-1.71
		C323.08,107.08,325.11,105.79,327.69,105.92z"/>
	<path class="st0" d="M265.41,111.35c-1.23,0.75-2.39,1.69-3.71,2.18c-0.81,0.3-1.91,0.01-2.81-0.25c-0.27-0.08-0.57-1.27-0.38-1.46
		c0.8-0.77,1.74-1.79,2.72-1.9c1.3-0.15,2.69,0.47,4.04,0.75C265.31,110.9,265.36,111.12,265.41,111.35z"/>
	<path class="st0" d="M260.69,45.75c-1.32-2.94-0.44-5.4,2.45-6.81C265.02,42.22,264.21,44.47,260.69,45.75z"/>
	<path class="st0" d="M129.23,196.05c-2.14-3.07-2.09-5.64,0.03-8.18C131.66,190.71,131.68,193.06,129.23,196.05z"/>
	<path class="st0" d="M214.8,168.88c2.86,1.83,3.64,5.01,2.23,8.48C214.4,175.07,214.01,172.3,214.8,168.88z"/>
	<path class="st0" d="M206.17,23.02c-3.49-0.27-5.68-2.85-5.34-6.06C203.57,17.32,205.27,19.2,206.17,23.02z"/>
	<path class="st0" d="M26.88,114.48c3.11-0.97,4.75-0.18,6.88,3.31C30.69,119.21,28.05,117.94,26.88,114.48z"/>
	<path class="st0" d="M272.66,59.67c-1.74-2.82-1.02-5.24,2.04-6.82C276.26,56.18,275.62,58.33,272.66,59.67z"/>
	<path class="st0" d="M83.85,48.78c3.1,0.46,4.64,2.26,4.47,4.86c-0.1,1.55-0.93,1.68-1.97,0.9C84.5,53.17,83.59,51.32,83.85,48.78z
		"/>
	<path class="st0" d="M124.92,36.47c-2.8-0.9-4.4-2.69-4.79-5.69c1.96-0.42,3.25,0.55,4.25,1.86
		C125.2,33.71,126.28,34.89,124.92,36.47z"/>
	<path class="st0" d="M176.35,46.7c1.52,3.24,1.08,5.15-1.5,6.9C172.71,51.14,173.23,48.49,176.35,46.7z"/>
	<path class="st0" d="M88.74,66.15c-3.02-1.6-4.2-3.81-3.83-7.13C87.99,59.79,89.5,62.61,88.74,66.15z"/>
	<path class="st0" d="M64.21,260.72c1.61-1.12,3.18-2.29,4.84-3.32c0.35-0.22,1.25-0.1,1.47,0.18c0.26,0.33,0.24,1.13,0.01,1.55
		c-1.27,2.36-3.33,2.96-5.79,2.5C64.56,261.33,64.38,261.02,64.21,260.72z"/>
	<path class="st0" d="M38.48,105.5c-3,1.01-4.83-0.24-5.75-3.75C35.21,100.9,37.16,102.13,38.48,105.5z"/>
	<path class="st0" d="M119.49,127.39c-3-1.08-5.75-1.78-6.37-5.15C116.51,121.82,118.11,123.05,119.49,127.39z"/>
	<path class="st0" d="M117.41,73.72c-3.74,0.48-4.8-0.34-5.89-4.39C114.34,68.75,115.87,69.84,117.41,73.72z"/>
	<path class="st0" d="M46.43,79.8c3.31-1.57,5.84-0.07,7.64,3.65c-1.18-0.2-2.73-0.17-3.99-0.76C48.78,82.1,47.76,80.9,46.43,79.8z"
		/>
	<path class="st0" d="M27.55,147.77c-1.3-0.09-2.6-0.22-3.89-0.27c-2.13-0.08-3.47-1.26-4.59-3.17c4.11-1.62,6.08,1.39,8.42,3.5
		C27.49,147.83,27.55,147.77,27.55,147.77z"/>
	<path class="st0" d="M161.18,60.2c0.6,2.65,1.19,5.31,1.93,8.6c-3.8-2.46-4.6-5.42-2.9-8.43C160.54,60.31,160.86,60.26,161.18,60.2
		z"/>
	<path class="st0" d="M38.82,90.44c2.19-1.25,4.18-1.25,5.96,0.52c0.35,0.34,0.7,1.18,0.52,1.44c-0.29,0.44-1,0.85-1.54,0.85
		C41.65,93.26,39.96,92.4,38.82,90.44z"/>
	<path class="st0" d="M286.99,117.46c-1.87,2.82-3.94,3.59-6.41,2.51C282,116.68,283.87,115.91,286.99,117.46z"/>
	<path class="st0" d="M280.52,56.88c1.82,2.31,1.71,5.41-0.14,7.75C278.7,62.68,278.71,59.31,280.52,56.88z"/>
	<path class="st0" d="M197.08,48.58c-2.9-1.8-3.54-3.47-2.88-7.55C196.33,42.06,197.4,44.88,197.08,48.58z"/>
	<path class="st0" d="M287.92,78.83c-0.29,2.92,0.63,6.04-2.88,7.39C283.52,83.88,284.35,81.62,287.92,78.83z"/>
	<path class="st0" d="M78.71,52.64c2.42,2.63,2.1,5.42,1.68,8.43C77.97,59.52,77.14,55.4,78.71,52.64z"/>
	<path class="st0" d="M196.13,23.03c1.86,1.28,3.72,2.57,5.65,3.9c-0.79,0.94-1.22,1.45-2.02,2.41c-1.6-1.85-3.08-3.58-4.57-5.3
		C195.51,23.7,195.82,23.36,196.13,23.03z"/>
	<path class="st0" d="M321.49,93.87c-1.5,0.77-2.95,1.66-4.52,2.24c-0.41,0.15-1.43-0.55-1.68-1.09c-0.16-0.34,0.48-1.48,0.95-1.61
		c1.57-0.43,3.22-0.56,4.84-0.81C321.21,93.03,321.35,93.45,321.49,93.87z"/>
	<path class="st0" d="M245.06,34.93c0.08,0.1,0.17,0.19,0.27,0.27c-0.54,0.76-1.07,1.52-1.61,2.28c-0.66-0.65-1.57-1.19-1.91-1.98
		c-0.48-1.11-0.54-2.4-0.78-3.62c0.27-0.14,0.55-0.28,0.82-0.42C242.92,32.62,243.99,33.78,245.06,34.93z"/>
	<path class="st0" d="M91.12,121.55c-1.73,0.36-2.69,0.77-3.61,0.69c-0.97-0.09-1.9-0.64-2.85-0.99c0.17-0.44,0.24-1.17,0.52-1.26
		c1.1-0.35,2.3-0.77,3.4-0.64C89.29,119.43,89.89,120.43,91.12,121.55z"/>
	<path class="st0" d="M99.69,41.52c-2.94-1.38-3.86-3.4-2.98-6.19C99.14,36.5,100.02,38.26,99.69,41.52z"/>
	<path class="st0" d="M278.62,123.39c-2.19,0.24-3.8,0.48-5.4,0.54c-0.47,0.02-0.95-0.46-1.43-0.72c0.3-0.52,0.48-1.23,0.93-1.53
		C274.85,120.27,276.54,121.17,278.62,123.39z"/>
	<path class="st0" d="M292.28,86.04c0.89-0.44,1.83-0.8,2.66-1.32c1.38-0.86,2.47-0.84,3.34,0.93c-1.96,1.26-3.97,1.07-6.03,0.35
		C292.24,85.99,292.28,86.04,292.28,86.04z"/>
	<path class="st0" d="M61.8,83.76c2.74-2.71,4.42-0.76,6.18,0.56C66.09,84.15,64.2,83.98,61.8,83.76z"/>
	<path class="st0" d="M233.78,63.18c-1.71-2.73-1-4.37,2.4-5.6C235.2,59.85,234.49,61.51,233.78,63.18z"/>
	<path class="st0" d="M239.04,151.21c3.5-1.41,7.13-0.07,8.11,2.62c0.3,0.81,0.12,2.62-0.12,2.67c-1.19,0.26-2.89,0.58-3.64-0.05
		C241.76,155.08,240.59,153.15,239.04,151.21z"/>
	<path class="st0" d="M230.79,142.92c3.53,1.38,4.88,3.74,4.46,7.74C231.51,149.56,229.39,145.87,230.79,142.92z"/>
	<path class="st0" d="M276.23,163.46c3.42-1.18,4.6-0.68,7.27,2.99C279.6,167.91,277.94,167.26,276.23,163.46z"/>
	<path class="st0" d="M184.25,121.62c0.44-0.86,0.64-1.67,1.15-2.04c0.27-0.2,1.24,0.24,1.65,0.64c0.93,0.92,2.05,1.87,2.43,3.03
		c0.31,0.94-0.35,2.2-0.58,3.32c-0.83-0.38-1.91-0.55-2.43-1.18C185.55,124.28,184.97,122.89,184.25,121.62z"/>
	<path class="st0" d="M169.37,127.23c4.43,1.06,6.05,4.39,3.82,7.62C170.76,132.94,169.57,130.54,169.37,127.23z"/>
	<path class="st0" d="M182.18,106.01c-3.05-1.9-3.8-5.31-1.87-8.57C182.13,99.41,182.92,103.04,182.18,106.01z"/>
	<path class="st0" d="M130.39,143.94c0.2,0.66,0.31,1.23,0.54,1.74c0.78,1.7,0.27,2.95-1.51,3.11c-1.86,0.17-3.75,0.04-5.69,0.04
		C124.69,145.14,126.48,143.85,130.39,143.94z"/>
	<path class="st0" d="M118.04,150.13c-0.31,5.13-3.13,6.96-7.46,5.07C111.59,152.31,111.59,152.31,118.04,150.13z"/>
	<path class="st0" d="M76.49,165.48c1.03-1.81,2.06-3.4,4.18-3.17c0.89,0.1,1.76,0.93,2.47,1.61c0.2,0.19-0.02,1.27-0.34,1.46
		c-0.84,0.52-1.83,1.06-2.76,1.06C78.95,166.44,77.85,165.88,76.49,165.48z"/>
</g>
</svg>
