<?xml version="1.0" encoding="utf-8"?>
<!-- Generator: Adobe Illustrator 24.1.0, SVG Export Plug-In . SVG Version: 6.00 Build 0)  -->
<svg version="1.1" id="Calque_1" xmlns="http://www.w3.org/2000/svg" xmlns:xlink="http://www.w3.org/1999/xlink" x="0px" y="0px"
	 viewBox="0 0 185 161.4" style="enable-background:new 0 0 185 161.4;" xml:space="preserve">
<g>
	<path d="M161.2,76.3c-0.1,18.1-4.6,32.3-13.6,45.1c-2,2.9-4.9,3.7-7.2,2c-2.2-1.6-2.3-4.4-0.3-7.3c16.2-23.3,16.3-52.4-0.3-75.2
		c-11.5-15.9-27.3-24.7-47-26.4c-32.7-2.9-62.9,20-68.8,53.4c-5.1,28.7,11.4,59,38.4,70.2c12.3,5.1,24.9,6.6,37.9,3.8
		c5.8-1.3,11.1-3.7,14.5-8.9c2-3,2.5-6.3,1.4-9.8c-0.2-0.7-1.2-1.5-1.8-1.5c-9.7,0.3-18.4-3-26.5-7.8c-17.5-10.3-31-24.6-39.3-43.3
		C45.6,63.9,43.8,57,45,49.8c0.8-4.6,2.7-8.3,7.3-10.3c2.1-0.9,4-2.1,6-3.1c1.9-1,3.5-0.7,4.9,1c3.9,4.7,7.8,9.3,11.6,14
		c1.8,2.2,1.6,3.6-0.4,5.7c-1.3,1.3-2.6,2.6-3.9,3.9c-1.5,1.5-1.8,3.3-0.8,5.2c7,13.2,17.1,23.2,30.3,30.2c1.8,1,3.5,0.8,5-0.7
		c1.3-1.4,2.7-2.7,4.1-4.1c1.7-1.7,3.6-2,5.6-0.4c4.8,3.9,9.5,7.8,14.2,11.8c1.6,1.3,1.8,3,0.9,4.7c-1.6,3.1-3.4,6.1-5,9.2
		c-0.3,0.6-0.5,1.6-0.2,2.2c3.8,9.9-0.8,20.1-9.1,25.8c-9.6,6.6-20.6,7.9-31.8,7.3c-19.7-1.1-36.6-8.8-50.1-23.4
		C19,113,12.4,94.1,14.2,72.5c2.7-31.8,24.1-57.6,55.1-65.1c29-7,54.1,0.9,74.1,23.3C155.5,44.3,161.1,60.6,161.2,76.3z M84.1,7.4
		c-19.2,0.4-38.1,9.2-52.3,27C19.2,50,14.4,68,16.9,87.9c2.2,17.8,10.3,32.6,23.7,44.3c14.4,12.6,31.4,18.4,50.6,17.5
		c6.6-0.3,13.1-1.6,19-4.6c11.2-5.6,15.2-14.8,11.4-26.6c-0.2-0.7,0-1.6,0.3-2.3c1.7-3,3.4-5.9,5.2-8.8c0.9-1.4,0.6-2.4-0.7-3.4
		c-3.2-2.6-6.4-5.3-9.7-7.9c-4.9-4-4.9-4-9.4,0.4c-3.3,3.2-5.5,3.6-9.6,1.4c-12.8-7-22.7-17-29.8-29.7c-2.3-4.2-1.9-6.4,1.5-9.8
		c0.9-0.9,1.7-1.9,2.7-2.6c1.5-1.2,1.4-2.3,0.2-3.8c-3.4-4-6.8-8-10-12.1c-1.3-1.7-2.6-2-4.4-0.8c-1.4,0.9-2.9,1.7-4.4,2.3
		c-3.4,1.5-5.1,4.1-5.9,7.5c-1.6,6.9,0.2,13.5,2.8,19.7c7.7,17.9,20.4,31.5,36.7,41.7c8.6,5.4,17.7,9.2,28.2,8.5
		c0.8-0.1,2.1,1,2.5,1.9c2.1,4.5,1.5,8.9-1,13.1c-3,4.8-7.6,7.4-12.7,9.1c-9.8,3.2-19.9,3.2-29.9,1.1c-30.2-6.2-51.6-31.6-53.4-61
		c-1.2-19.3,4.6-36.3,17.9-50.3C54.3,16.4,73.8,9.6,96.4,12.4c18.9,2.4,34.2,11.5,45.2,27c17.2,24,17.1,53.8,0.2,78.3
		c-0.9,1.3-1.6,2.6-0.1,3.7c1.6,1.2,2.7,0.1,3.7-1.3c11.5-16.4,15.7-34.6,12.1-54.3C151.4,31.8,122,7.5,84.1,7.4z"/>
</g>
</svg>
