<?xml version="1.0" standalone="no"?>
<!DOCTYPE svg PUBLIC "-//W3C//DTD SVG 20010904//EN"
 "http://www.w3.org/TR/2001/REC-SVG-20010904/DTD/svg10.dtd">
<svg version="1.0" xmlns="http://www.w3.org/2000/svg"
 width="842.000000pt" height="842.000000pt" viewBox="0 0 842.000000 842.000000"
 preserveAspectRatio="xMidYMid meet">
<metadata>
Created by potrace 1.14, written by Peter Selinger 2001-2017
</metadata>
<g transform="translate(0.000000,842.000000) scale(0.100000,-0.100000)"
fill="#000000" stroke="none">
<path d="M3967 5854 c-1 -1 -45 -4 -97 -8 -102 -6 -101 -6 -262 -36 -411 -77
-807 -283 -1113 -579 -309 -299 -521 -672 -621 -1091 -21 -90 -24 -106 -30
-153 -3 -23 -7 -53 -10 -67 -18 -107 -23 -325 -11 -470 10 -111 13 -131 43
-290 14 -72 71 -256 111 -354 139 -347 391 -687 663 -896 25 -19 47 -38 50
-42 19 -24 255 -168 364 -222 176 -86 407 -166 551 -189 17 -3 46 -8 65 -11
83 -14 99 -16 175 -23 138 -11 459 -3 485 12 3 2 27 6 53 9 76 10 147 25 207
42 30 9 62 18 70 19 81 18 252 87 387 156 206 105 379 230 538 386 113 112
135 137 227 259 220 293 361 629 422 1009 25 156 25 475 1 625 -3 14 -6 36 -8
50 -50 311 -173 619 -353 886 -41 61 -83 120 -92 130 -9 11 -44 51 -77 89
-220 254 -469 434 -815 588 -114 51 -385 127 -505 142 -27 4 -61 8 -75 11 -60
9 -335 24 -343 18z m323 -58 c19 -3 51 -8 70 -10 128 -18 336 -72 445 -117 17
-7 36 -13 42 -15 32 -6 286 -137 358 -184 79 -52 221 -156 254 -188 150 -141
201 -195 282 -297 73 -92 189 -265 189 -281 0 -3 10 -21 23 -42 41 -65 124
-263 160 -382 40 -130 50 -171 63 -249 3 -18 7 -41 9 -50 2 -9 6 -44 10 -76 4
-33 9 -71 11 -85 5 -32 5 -312 -1 -365 -9 -89 -16 -144 -20 -163 -2 -11 -6
-37 -9 -58 -4 -22 -14 -68 -22 -104 -144 -588 -516 -1086 -1036 -1382 -98 -56
-105 -60 -208 -106 -156 -71 -392 -139 -545 -158 -22 -3 -67 -9 -100 -14 -94
-13 -390 -9 -505 6 -497 67 -971 305 -1295 653 -27 30 -61 66 -75 81 -86 91
-214 283 -292 437 -47 92 -126 275 -132 308 -1 6 -10 37 -20 70 -21 70 -56
225 -62 275 -2 19 -8 60 -13 90 -10 60 -7 451 3 515 31 189 53 284 102 431 68
204 193 440 332 624 71 94 297 322 377 381 33 24 62 47 65 50 12 15 183 121
270 167 174 92 471 195 625 217 23 3 52 8 65 10 14 3 54 8 90 11 36 4 67 8 69
10 6 5 381 -4 421 -10z"/>
<path d="M3949 5633 c-1 -10 2 -89 5 -128 2 -16 0 -37 -5 -45 -6 -13 1 -14 44
-11 51 4 51 4 22 15 -30 11 -30 12 -30 85 0 65 3 75 20 82 15 6 11 8 -17 8
-21 1 -38 -2 -39 -6z"/>
<path d="M4052 5631 c91 -21 107 -128 25 -166 l-32 -15 40 5 c71 8 107 79 69
133 -20 29 -66 52 -101 51 l-28 -1 27 -7z"/>
<path d="M4284 5608 c9 -13 14 -27 12 -29 -3 -2 -7 -29 -11 -59 -3 -34 -12
-60 -22 -67 -15 -12 -11 -17 9 -14 4 0 19 -4 33 -9 24 -9 36 2 16 14 -5 3 -7
32 -4 63 3 32 5 66 5 76 -1 10 9 22 21 27 20 8 19 9 -10 9 -17 1 -39 4 -48 8
-16 6 -16 4 -1 -19z"/>
<path d="M4397 5598 c17 -6 34 -20 38 -32 7 -20 7 -20 14 4 4 14 7 26 6 28 -1
1 -22 4 -46 7 -42 4 -43 4 -12 -7z"/>
<path d="M3600 5591 l-35 -7 43 -7 c23 -4 42 -12 42 -17 0 -6 4 -10 9 -10 5 0
8 6 7 13 -2 17 -16 37 -24 36 -4 -1 -23 -5 -42 -8z"/>
<path d="M3530 5560 c-17 -31 -3 -58 33 -65 95 -19 108 -26 105 -48 -2 -13
-14 -25 -31 -32 -23 -8 -36 -5 -68 13 l-40 23 13 -23 c19 -33 29 -38 68 -32
59 10 87 34 86 74 -1 18 -61 50 -94 50 -13 0 -32 5 -43 10 -15 9 -17 15 -9 30
7 13 7 20 1 20 -6 0 -15 -9 -21 -20z"/>
<path d="M4391 5553 c-1 -8 -15 -13 -33 -14 -29 -1 -30 -2 -9 -8 13 -3 27 -15
31 -26 7 -18 8 -17 15 7 4 15 5 33 2 40 -4 10 -6 10 -6 1z"/>
<path d="M3365 5526 c-34 -11 -36 -13 -17 -18 20 -6 61 -74 62 -104 0 -6 -31
4 -68 22 -93 44 -115 49 -149 30 -25 -13 -25 -15 -7 -16 28 0 37 -12 63 -84
16 -42 19 -62 11 -71 -7 -9 1 -8 25 3 29 13 32 18 18 23 -19 7 -31 27 -57 91
l-15 37 48 -19 c48 -18 116 -54 138 -72 22 -18 21 7 -4 81 -20 59 -23 79 -14
93 6 10 10 18 9 17 -2 -1 -21 -7 -43 -13z"/>
<path d="M4734 5510 c-44 -18 -38 -41 29 -113 37 -39 39 -62 7 -72 -25 -8 -69
22 -76 51 -8 31 -24 31 -24 -1 0 -19 9 -29 42 -45 55 -27 84 -25 103 4 20 30
11 51 -41 101 -35 34 -43 60 -21 68 21 7 67 -23 78 -51 9 -24 11 -25 20 -9 6
9 7 21 4 27 -5 7 -94 52 -99 49 0 0 -10 -4 -22 -9z"/>
<path d="M4422 5444 c-18 -8 -44 -12 -59 -10 -14 3 -22 2 -17 -3 22 -20 71
-20 93 0 11 11 21 22 21 24 0 6 3 7 -38 -11z"/>
<path d="M3048 5383 c-28 -14 -36 -28 -20 -35 13 -5 72 -114 72 -132 0 -20 9
-20 34 -1 18 14 18 16 4 28 -29 22 -76 123 -66 141 5 9 8 16 6 15 -2 -1 -15
-8 -30 -16z"/>
<path d="M4964 5380 c-11 -4 -29 -24 -38 -44 -16 -34 -16 -38 0 -72 33 -68
126 -108 186 -77 124 62 -17 246 -148 193z m119 -21 c28 -13 47 -48 47 -85 0
-27 -40 -73 -65 -75 -8 -1 -21 -2 -27 -3 -23 -4 -63 22 -77 47 -18 33 -6 82
26 107 29 22 60 25 96 9z"/>
<path d="M4068 5286 c-1 -2 -57 -6 -123 -10 -139 -7 -152 -9 -271 -35 -208
-47 -433 -145 -579 -253 -196 -146 -315 -267 -427 -435 -116 -172 -209 -389
-244 -566 -2 -10 -5 -26 -8 -35 -3 -9 -7 -42 -10 -72 -3 -30 -8 -66 -11 -80
-12 -60 -5 -355 10 -410 2 -8 7 -35 10 -60 4 -24 8 -47 10 -51 2 -3 7 -21 10
-40 11 -63 77 -243 122 -334 137 -271 338 -495 593 -661 164 -105 421 -207
585 -230 17 -2 41 -6 55 -9 51 -10 144 -17 233 -18 90 0 256 11 268 19 4 2 22
6 40 8 217 29 496 153 707 314 334 255 549 613 626 1047 18 98 24 339 12 435
-18 135 -34 210 -73 335 -45 143 -190 421 -256 490 -7 7 -27 31 -46 54 -268
330 -715 561 -1136 587 -38 3 -75 6 -82 9 -6 2 -13 2 -15 1z m167 -59 c11 -3
43 -8 70 -11 240 -31 573 -186 775 -362 122 -106 249 -256 332 -394 44 -73
116 -220 123 -250 2 -8 14 -42 25 -75 74 -204 99 -516 60 -751 -11 -67 -24
-133 -30 -148 -5 -14 -8 -26 -5 -26 9 0 -69 -201 -110 -285 -57 -115 -143
-247 -211 -325 -54 -61 -163 -169 -209 -205 -27 -22 -52 -42 -55 -45 -17 -18
-169 -111 -245 -150 -110 -56 -253 -107 -347 -125 -10 -2 -22 -6 -26 -9 -5 -3
-26 -7 -48 -10 -21 -3 -66 -10 -99 -15 -77 -11 -315 -12 -380 -1 -28 4 -74 11
-103 15 -28 3 -82 15 -119 26 -38 11 -77 22 -88 24 -11 3 -56 19 -100 37 -300
120 -565 334 -742 598 -138 207 -226 437 -260 683 -10 68 -10 347 0 417 26
193 74 344 164 525 36 71 128 218 154 245 8 8 26 31 40 50 76 101 252 253 394
340 124 76 331 166 423 185 9 2 46 10 82 18 36 8 94 18 130 22 36 4 67 9 69
10 5 5 312 -3 336 -8z"/>
<path d="M4375 4834 c-11 -8 -19 -18 -19 -22 1 -4 -1 -12 -3 -19 -3 -7 -3 -18
0 -25 3 -7 6 -2 6 12 1 21 3 22 12 10 9 -13 10 -13 6 1 -3 9 1 26 9 38 18 25
16 26 -11 5z"/>
<path d="M4293 4809 c-2 -23 3 -25 10 -4 4 8 3 16 -1 19 -4 3 -9 -4 -9 -15z"/>
<path d="M4551 4756 c-23 -28 -51 -120 -40 -131 7 -7 8 -4 3 9 -6 14 -4 17 6
11 8 -5 11 -3 8 6 -3 8 5 38 18 67 24 54 25 62 5 38z"/>
<path d="M4471 4734 c0 -11 3 -14 6 -6 3 7 2 16 -1 19 -3 4 -6 -2 -5 -13z"/>
<path d="M4318 4715 c15 -30 73 -86 82 -80 4 3 10 -2 14 -10 6 -18 1 -19 -25
-5 -10 6 -19 8 -19 6 0 -6 57 -37 65 -36 3 0 12 -6 20 -13 8 -8 25 -12 38 -10
14 3 30 -2 39 -11 9 -8 17 -13 19 -11 2 2 29 6 59 9 30 4 69 11 85 16 30 10
30 10 -5 5 -97 -15 -142 -17 -135 -5 5 9 2 10 -13 6 -13 -4 -22 -1 -26 9 -3 9
-2 14 2 11 4 -2 23 -1 42 4 l35 8 -44 -1 c-30 0 -48 5 -56 16 -18 25 -23 21
-19 -18 2 -29 1 -33 -11 -22 -7 6 -12 16 -12 22 1 5 -4 9 -10 10 -7 0 -13 5
-12 10 0 6 7 9 15 7 10 -2 8 5 -7 22 -13 15 -25 26 -28 26 -3 0 0 -5 7 -12 18
-18 15 -27 -9 -25 -12 1 -39 22 -61 47 -23 25 -36 36 -30 25z m132 -111 c0 -8
-19 -13 -24 -6 -3 5 1 9 9 9 8 0 15 -2 15 -3z"/>
<path d="M4390 4711 c0 -6 4 -13 10 -16 6 -3 7 1 4 9 -7 18 -14 21 -14 7z"/>
<path d="M4757 4713 c-3 -5 5 -8 18 -8 13 0 21 3 18 8 -2 4 -10 7 -18 7 -8 0
-16 -3 -18 -7z"/>
<path d="M4463 4695 c0 -8 4 -12 9 -9 5 3 6 10 3 15 -9 13 -12 11 -12 -6z"/>
<path d="M4720 4700 c-9 -6 -10 -10 -3 -10 6 0 15 5 18 10 8 12 4 12 -15 0z"/>
<path d="M4277 4679 c7 -7 15 -10 18 -7 3 3 -2 9 -12 12 -14 6 -15 5 -6 -5z"/>
<path d="M4666 4681 c-4 -5 3 -7 14 -4 23 6 26 13 6 13 -8 0 -17 -4 -20 -9z"/>
<path d="M4751 4670 c-13 -11 -19 -20 -14 -20 6 0 18 9 28 20 23 25 17 25 -14
0z"/>
<path d="M4779 4653 l-24 -28 30 25 c17 14 32 26 34 28 2 1 0 2 -6 2 -5 0 -20
-12 -34 -27z"/>
<path d="M4596 4645 c-11 -8 -15 -15 -9 -15 6 0 16 7 23 15 16 19 11 19 -14 0z"/>
<path d="M4854 4644 c-18 -14 -18 -15 4 -4 12 6 22 13 22 15 0 8 -5 6 -26 -11z"/>
<path d="M4720 4625 c-14 -8 -20 -14 -14 -15 5 0 19 7 30 15 24 18 16 19 -16
0z"/>
<path d="M4640 4620 c-9 -6 -10 -10 -3 -10 6 0 15 5 18 10 8 12 4 12 -15 0z"/>
<path d="M4815 4620 c-7 -11 22 -26 32 -16 4 3 -1 6 -11 6 -9 0 -14 5 -11 10
3 6 4 10 1 10 -3 0 -8 -5 -11 -10z"/>
<path d="M4763 4597 c-18 -5 -33 -14 -33 -18 0 -4 12 -4 28 1 15 5 34 10 42
12 7 3 10 7 5 10 -6 2 -25 0 -42 -5z"/>
<path d="M4625 4590 c-3 -6 1 -7 9 -4 18 7 21 14 7 14 -6 0 -13 -4 -16 -10z"/>
<path d="M4580 4580 c-9 -6 -10 -10 -3 -10 6 0 15 5 18 10 8 12 4 12 -15 0z"/>
<path d="M4496 4546 c2 -6 -9 -79 -26 -161 -17 -83 -33 -166 -36 -185 -3 -19
-8 -39 -11 -43 -3 -5 -7 -30 -10 -55 -3 -34 -11 -52 -28 -65 -27 -20 -50 -80
-41 -104 6 -14 9 -14 28 3 23 21 51 81 44 93 -3 5 10 64 29 132 20 68 38 142
41 164 3 22 8 51 10 65 3 14 7 46 9 73 7 63 9 71 18 78 5 3 0 9 -11 11 -13 4
-19 1 -16 -6z"/>
<path d="M3741 4494 c0 -11 3 -14 6 -6 3 7 2 16 -1 19 -3 4 -6 -2 -5 -13z"/>
<path d="M3942 4470 c-7 -11 -8 -20 -3 -20 9 0 24 30 18 36 -1 2 -8 -6 -15
-16z"/>
<path d="M4175 4460 c-3 -6 1 -7 9 -4 18 7 21 14 7 14 -6 0 -13 -4 -16 -10z"/>
<path d="M3923 4419 c-2 -23 3 -25 10 -4 4 8 3 16 -1 19 -4 3 -9 -4 -9 -15z"/>
<path d="M4274 4408 l-19 -23 23 19 c21 18 27 26 19 26 -2 0 -12 -10 -23 -22z"/>
<path d="M4180 4400 c-9 -6 -10 -10 -3 -10 6 0 15 5 18 10 8 12 4 12 -15 0z"/>
<path d="M4993 4375 c-17 -20 -34 -49 -38 -65 -5 -24 -30 -47 -117 -110 -61
-44 -116 -80 -123 -80 -7 0 -18 -7 -25 -15 -10 -12 -10 -15 0 -15 12 0 208
133 246 168 20 18 54 26 54 12 0 -4 7 -10 14 -13 11 -4 13 -1 10 11 -5 15 -4
15 9 -1 11 -14 19 -15 38 -7 l24 10 -25 -3 c-18 -1 -25 3 -28 18 -2 14 0 16 6
7 9 -14 42 -6 42 10 0 6 -6 6 -14 -1 -11 -9 -15 -9 -19 1 -4 10 -7 11 -18 1
-7 -7 -19 -13 -26 -13 -11 0 -9 6 4 24 10 13 21 22 25 20 4 -2 9 0 13 6 10 16
-17 12 -37 -7 -13 -11 -18 -12 -18 -3 0 7 15 25 33 41 20 18 25 27 13 23 -13
-5 -17 -4 -12 4 13 21 2 13 -31 -23z"/>
<path d="M4110 4356 c7 -7 13 -7 20 0 6 6 3 10 -10 10 -13 0 -16 -4 -10 -10z"/>
<path d="M4227 4359 c7 -7 15 -10 18 -7 3 3 -2 9 -12 12 -14 6 -15 5 -6 -5z"/>
<path d="M3727 4349 c7 -7 15 -10 18 -7 3 3 -2 9 -12 12 -14 6 -15 5 -6 -5z"/>
<path d="M3795 4351 c-3 -5 -2 -12 3 -15 5 -3 9 1 9 9 0 17 -3 19 -12 6z"/>
<path d="M3970 4345 c-7 -9 -11 -17 -9 -20 3 -2 10 5 17 15 14 24 10 26 -8 5z"/>
<path d="M4200 4349 c0 -5 -4 -8 -8 -5 -4 2 -19 -5 -32 -15 l-25 -20 25 12
c14 8 29 13 34 14 10 0 22 25 12 25 -3 0 -6 -5 -6 -11z"/>
<path d="M3852 4338 c2 -8 -5 -12 -17 -11 -11 1 -14 0 -7 -3 6 -3 10 -10 7
-15 -4 -5 1 -6 9 -3 19 7 28 31 15 39 -5 4 -8 1 -7 -7z"/>
<path d="M3904 4336 c5 -14 2 -17 -10 -12 -15 6 -15 4 -3 -11 12 -15 12 -16
-3 -10 -10 3 -18 2 -18 -3 0 -12 23 -13 34 -2 4 4 12 8 17 8 5 1 14 2 19 3 6
0 10 6 10 13 0 9 -3 9 -12 0 -10 -10 -15 -7 -26 10 -9 16 -12 17 -8 4z"/>
<path d="M4105 4310 c-3 -6 1 -7 9 -4 18 7 21 14 7 14 -6 0 -13 -4 -16 -10z"/>
<path d="M3540 4290 c-6 -11 -8 -20 -6 -20 3 0 10 9 16 20 6 11 8 20 6 20 -3
0 -10 -9 -16 -20z"/>
<path d="M4045 4295 c-16 -8 -23 -14 -15 -14 8 0 26 6 40 14 32 18 15 18 -25
0z"/>
<path d="M3910 4291 c0 -12 63 -23 84 -15 14 5 15 9 4 15 -7 5 -17 9 -23 9 -5
0 -3 -5 5 -10 13 -8 13 -10 -2 -10 -9 0 -28 4 -42 10 -14 5 -26 6 -26 1z"/>
<path d="M3881 4273 c0 -6 -4 -20 -7 -30 -5 -14 -4 -15 5 -7 7 7 11 20 8 30
-3 11 -5 14 -6 7z"/>
<path d="M3914 4248 c-1 -77 -4 -99 -16 -92 -10 6 -10 4 -2 -7 6 -8 10 -23 8
-34 -1 -10 -6 -53 -9 -95 -9 -98 -12 -124 -15 -127 -1 -2 -3 -8 -4 -15 0 -6
-9 -12 -19 -14 -9 -1 -15 2 -11 7 3 5 2 14 -2 21 -4 6 -9 27 -10 46 -1 18 -5
36 -9 40 -4 4 -4 -9 -1 -28 8 -51 -9 -72 -20 -23 -4 21 -8 43 -9 50 -1 27 -13
21 -19 -9 l-7 -33 -29 55 c-48 91 -34 29 25 -106 30 -70 55 -141 55 -156 l0
-29 -35 27 c-54 41 -76 82 -66 126 6 26 5 38 -3 41 -8 3 -11 -5 -8 -27 l3 -31
-25 28 c-14 15 -23 34 -20 42 4 11 2 13 -9 9 -8 -3 -21 3 -28 14 -25 34 -93
115 -140 165 -33 34 -49 45 -54 36 -5 -8 -4 -10 3 -5 8 5 12 0 12 -13 0 -12 4
-21 9 -21 16 0 62 -54 57 -67 -3 -7 1 -13 8 -13 7 0 24 -14 37 -32 31 -41 70
-89 86 -106 7 -7 13 -20 13 -28 0 -8 7 -14 15 -14 8 0 15 -4 15 -10 0 -18 -13
-11 -53 28 -26 25 -36 31 -31 17 6 -18 4 -17 -19 4 -15 14 -27 22 -27 20 0 -3
14 -18 32 -35 17 -16 28 -23 24 -16 -8 14 10 17 19 2 3 -5 1 -10 -5 -10 -6 0
-8 -5 -4 -11 4 -7 -1 -7 -16 1 -12 6 -28 9 -35 6 -8 -3 -12 0 -9 7 2 7 -4 17
-15 24 -15 10 -20 9 -25 -2 -3 -9 0 -12 8 -9 8 3 16 -4 19 -17 4 -14 11 -20
21 -16 10 4 16 1 16 -8 0 -7 5 -17 12 -21 8 -5 9 -2 4 11 -6 17 -5 18 11 4 10
-9 31 -14 47 -13 22 2 38 -5 64 -30 36 -36 36 -59 -1 -52 -12 3 -25 5 -29 5
-4 1 -13 7 -20 14 -24 23 -143 96 -191 117 -50 22 -49 21 -33 90 13 54 14 80
5 80 -5 0 -9 -18 -9 -39 0 -22 -4 -41 -9 -43 -5 -1 -11 -12 -13 -23 -1 -11
-12 -23 -23 -26 -11 -3 -19 -11 -17 -18 1 -7 -2 -10 -8 -6 -8 5 -7 11 1 21 8
10 8 14 1 14 -6 0 -28 15 -48 33 -31 26 -35 28 -25 9 7 -13 23 -28 37 -34 28
-13 31 -25 7 -31 -17 -4 -17 -5 0 -6 9 0 17 -8 17 -17 0 -9 5 -12 12 -8 7 4 8
3 4 -5 -6 -9 -11 -9 -21 -1 -9 8 -17 7 -28 -4 -11 -11 -17 -12 -27 -3 -10 9
-11 9 -6 0 11 -20 -47 -10 -66 11 -10 10 -18 14 -18 8 0 -15 30 -43 40 -37 5
3 11 1 15 -5 4 -7 12 -7 24 0 21 11 31 4 31 -19 0 -11 -3 -12 -8 -4 -5 7 -13
9 -21 3 -14 -8 -20 -8 -56 6 -11 4 -24 8 -30 9 -29 4 -45 20 -46 44 0 14 -3
20 -6 13 -2 -6 -9 -10 -14 -6 -5 3 -9 -2 -9 -11 0 -8 7 -18 15 -21 8 -4 15
-14 15 -24 0 -12 11 -20 36 -24 19 -4 38 -14 41 -22 3 -7 10 -14 15 -14 6 0 7
7 4 16 -4 11 -1 14 12 12 9 -2 16 -10 14 -18 -2 -10 0 -11 11 -2 10 9 36 8
108 -4 51 -8 118 -17 149 -21 30 -3 65 -9 78 -14 12 -5 22 -5 22 0 0 10 -47
27 -95 35 -16 2 -55 9 -85 15 -83 16 -103 19 -122 20 -10 1 -18 6 -18 12 0 5
5 7 11 3 8 -5 8 -1 0 14 -8 15 -8 23 1 28 6 4 8 3 4 -4 -14 -24 14 -21 44 5
30 25 34 26 56 12 13 -8 63 -38 111 -66 88 -53 162 -116 146 -126 -12 -8 -87
-12 -98 -5 -11 6 -43 4 -65 -5 -8 -4 -24 -8 -35 -10 -11 -2 -27 -7 -35 -10
-48 -18 -130 -30 -130 -19 0 16 -52 103 -58 97 -3 -3 0 -11 6 -17 19 -19 14
-29 -7 -16 -11 7 -18 15 -15 19 2 4 -2 12 -10 18 -11 9 -15 9 -19 -1 -4 -10
-6 -10 -6 0 -1 6 -6 12 -12 12 -8 0 -8 -4 1 -14 6 -8 19 -12 28 -9 9 3 14 3
10 -2 -13 -14 11 -44 33 -40 15 3 19 0 15 -11 -4 -10 -2 -13 6 -8 7 5 9 2 5
-8 -3 -9 0 -21 6 -27 8 -8 8 -11 -1 -11 -6 0 -18 12 -26 28 -8 15 -15 20 -16
12 0 -8 -18 4 -45 30 -25 24 -44 51 -42 59 1 8 -6 16 -16 17 -11 1 -12 0 -3
-3 8 -2 13 -10 10 -16 -2 -7 18 -35 46 -62 27 -27 50 -45 50 -40 0 15 20 -18
20 -33 0 -7 -4 -10 -10 -7 -5 3 -18 1 -27 -5 -16 -10 -15 -11 4 -7 13 3 26 1
29 -4 3 -5 0 -9 -7 -9 -7 0 -5 -6 6 -14 23 -17 28 -43 8 -50 -9 -4 -12 -13 -8
-25 4 -13 -4 -26 -25 -45 -18 -14 -28 -26 -23 -26 19 0 64 57 57 73 -7 19 6
23 23 6 7 -7 10 1 9 30 -1 23 2 41 6 41 5 0 6 12 4 26 -3 15 -3 24 0 22 2 -3
25 -1 51 3 31 6 50 5 59 -2 16 -13 66 -6 108 16 16 8 42 18 58 20 16 3 33 6
36 7 4 1 20 -2 36 -7 l28 -8 -33 -28 c-19 -16 -38 -29 -42 -29 -5 0 -37 -14
-72 -31 -35 -17 -69 -28 -74 -24 -13 7 -52 -12 -48 -24 3 -11 -220 -161 -228
-153 -3 4 -3 -2 1 -11 6 -16 8 -16 30 -2 89 58 210 125 226 125 10 0 16 5 13
10 -3 6 2 10 12 10 11 0 24 5 30 11 7 7 12 6 16 -5 4 -10 1 -13 -7 -10 -8 3
-17 0 -22 -7 -4 -8 -3 -10 4 -5 7 4 12 4 12 1 0 -10 -28 -35 -39 -35 -5 0 -12
-4 -15 -9 -7 -11 34 -2 51 11 29 23 -2 -35 -35 -63 -30 -27 -32 -30 -11 -24
22 7 23 7 9 -11 -14 -17 -14 -18 2 -6 10 8 14 20 11 29 -5 12 -2 15 10 10 10
-4 17 -1 17 6 0 7 9 23 20 37 11 14 20 36 20 50 0 18 13 34 50 60 27 19 49 38
50 43 0 4 4 7 10 7 11 0 1 -31 -15 -45 -31 -27 -116 -136 -146 -188 -32 -55
-36 -58 -64 -52 -16 4 -38 8 -47 9 -10 1 -21 5 -24 9 -4 4 -14 7 -23 7 -9 0 0
-8 19 -19 19 -10 38 -17 42 -14 4 2 17 -4 28 -15 20 -19 20 -19 -20 -62 -22
-24 -38 -45 -36 -47 7 -7 61 49 58 60 -2 6 5 4 14 -4 10 -8 15 -9 11 -2 -4 6
-3 14 3 18 5 3 10 -1 10 -9 0 -9 5 -16 11 -16 5 0 7 -4 4 -10 -4 -6 1 -7 11
-3 14 5 15 3 5 -15 -14 -27 -14 -29 5 -36 14 -5 15 -4 4 9 -10 12 -10 15 3 15
10 0 14 6 11 15 -9 23 2 18 21 -11 15 -24 15 -27 0 -51 -9 -13 -14 -27 -11
-30 3 -3 -5 -14 -17 -24 -20 -17 -20 -18 -2 -12 18 6 19 5 5 -12 -8 -10 -10
-16 -5 -13 11 7 37 -17 28 -26 -3 -3 -13 0 -21 7 -13 10 -15 9 -9 -6 5 -13 0
-20 -16 -26 -12 -5 -26 -6 -31 -3 -5 3 -6 0 -3 -6 8 -11 44 -5 67 12 13 9 13
9 3 -5 -7 -9 -9 -19 -5 -23 4 -4 0 -6 -8 -4 -9 2 -14 -4 -14 -14 1 -10 -2 -18
-6 -18 -4 0 -10 -12 -13 -27 -3 -16 -15 -38 -27 -50 -11 -13 -16 -23 -11 -23
21 0 68 88 62 118 -3 20 23 9 31 -13 6 -15 7 -13 4 8 -2 15 1 27 6 27 5 0 6 5
2 12 -4 7 -3 8 4 4 7 -4 12 -2 12 5 0 7 3 10 6 7 3 -4 0 -17 -7 -29 l-12 -23
28 18 c26 17 28 17 21 1 -7 -20 20 -69 34 -60 4 3 18 -7 30 -22 15 -20 18 -22
10 -6 -10 21 -26 36 -42 39 -5 1 -10 2 -13 3 -3 0 -1 9 4 20 8 14 6 23 -9 36
-11 10 -20 15 -20 11 0 -3 -13 8 -29 26 -25 28 -27 36 -18 61 5 16 24 38 41
49 25 16 26 18 7 13 -22 -7 -23 -5 -17 21 4 16 18 53 32 81 14 29 22 57 19 63
-4 6 -1 9 7 8 7 -2 12 4 10 12 -3 11 0 12 8 4 6 -6 12 -20 13 -32 0 -11 5 -18
9 -16 4 3 8 0 8 -5 0 -6 -4 -11 -9 -11 -5 0 -11 -12 -14 -27 l-5 -27 19 25
c13 16 18 33 14 52 -3 17 -1 26 5 22 6 -3 10 -1 10 4 0 6 -4 11 -10 11 -5 0
-10 8 -10 18 0 10 -5 23 -11 29 -8 8 -6 27 7 70 10 32 18 63 18 69 -1 6 4 11
10 11 6 0 18 4 26 7 9 4 24 0 35 -8 18 -13 18 -18 6 -97 -7 -46 -19 -94 -27
-106 -13 -20 -11 -26 6 -25 3 0 3 -25 0 -56 -3 -31 -9 -57 -15 -57 -25 -2
-115 -29 -115 -36 0 -4 9 -5 20 -2 12 3 20 0 20 -6 0 -7 -4 -10 -9 -6 -5 3
-12 1 -15 -4 -4 -5 2 -8 11 -6 10 2 27 4 38 5 19 1 18 2 -2 10 -13 5 -23 11
-23 14 0 2 10 4 23 4 12 0 33 3 46 7 16 6 22 5 17 -3 -3 -6 -2 -13 3 -17 10
-5 8 -30 -4 -85 -4 -19 -1 -16 10 8 9 18 13 36 11 40 -2 4 5 19 16 32 11 14
17 20 14 14 -7 -14 49 -68 62 -60 6 3 8 16 4 28 -3 14 -2 19 6 14 7 -4 12 -2
12 4 0 8 -7 9 -17 5 -33 -13 -53 -14 -53 -3 0 5 7 8 15 5 8 -4 17 -2 20 2 5 9
-32 23 -68 26 -10 1 -21 6 -25 10 -4 5 2 5 13 1 15 -6 17 -4 8 5 -7 7 -9 19
-3 34 4 12 7 36 6 53 -1 17 0 30 3 30 19 -2 22 4 10 19 -10 11 -10 14 -1 9 6
-4 12 -3 12 3 0 5 -4 12 -8 15 -10 6 -8 68 2 85 10 16 26 14 26 -4 0 -9 7 -29
15 -46 16 -29 16 -30 -10 -23 -24 6 -36 -8 -15 -21 5 -3 6 -13 3 -22 -4 -11
-3 -14 5 -9 7 4 12 1 12 -8 0 -9 5 -16 10 -16 6 0 10 -5 10 -11 0 -5 -4 -8 -8
-5 -4 2 -8 -4 -8 -15 0 -19 1 -19 13 -3 7 10 10 27 7 38 -4 15 -3 18 4 11 15
-14 44 -85 35 -85 -5 0 -3 -4 3 -8 6 -4 27 -38 47 -77 49 -98 62 -113 79 -97
11 11 10 12 -2 8 -11 -4 -28 26 -69 127 -29 72 -64 155 -77 183 -40 87 -63
152 -57 158 14 14 41 4 51 -19 8 -17 20 -25 36 -25 14 0 28 -4 31 -10 4 -6 -1
-7 -12 -3 -17 6 -17 6 0 -14 17 -19 17 -23 2 -58 -8 -21 -13 -41 -10 -44 3 -3
8 5 12 17 3 12 13 22 22 22 14 0 14 2 1 10 -8 5 -12 11 -9 14 2 3 18 -7 34
-22 17 -15 59 -52 94 -82 36 -30 73 -63 84 -73 10 -10 25 -16 32 -13 8 3 23
-10 37 -30 12 -18 27 -34 32 -34 4 0 -4 16 -18 35 -15 19 -23 35 -19 35 4 0 2
4 -6 9 -23 15 -4 28 36 25 27 -3 34 -1 23 6 -13 8 -13 10 0 10 9 0 7 6 -8 16
-24 17 -39 14 -27 -5 3 -6 11 -8 17 -5 7 4 8 2 4 -4 -9 -15 -12 -15 -29 3 -13
13 -19 11 -47 -18 -17 -17 -30 -27 -28 -22 1 6 -21 34 -50 63 -28 29 -52 57
-52 63 0 5 -4 8 -9 4 -6 -3 -15 3 -20 14 -9 16 -8 18 9 14 11 -3 28 -15 38
-27 9 -12 23 -26 30 -30 11 -7 12 -4 3 11 -6 11 -8 23 -5 25 2 3 -3 11 -13 19
-15 12 -16 12 -9 -1 5 -8 -2 -3 -15 12 -16 19 -35 29 -57 30 -26 2 -43 13 -73
47 -45 52 -49 65 -16 55 12 -4 28 -7 35 -7 6 0 12 -4 12 -9 0 -4 5 -8 11 -8
10 0 30 -15 87 -61 6 -5 12 -7 12 -3 0 3 6 2 13 -4 6 -5 55 -31 107 -57 52
-27 97 -51 100 -54 3 -3 12 -6 20 -6 8 0 14 -7 12 -16 -1 -9 5 -20 14 -23 12
-5 15 -2 10 10 -4 11 -1 14 12 12 9 -2 18 -9 18 -16 3 -25 6 -26 14 -7 8 19 9
19 9 -2 1 -13 6 -23 12 -23 5 0 8 4 5 9 -9 14 5 42 18 38 6 -3 19 2 29 11 11
10 17 11 17 4 0 -7 5 -12 11 -12 5 0 7 5 3 12 -5 7 -2 9 8 5 9 -3 24 1 35 9
17 14 17 14 -1 7 -13 -4 -17 -3 -12 5 4 7 0 15 -9 19 -10 3 -21 0 -26 -8 -5
-8 -9 -10 -9 -5 0 5 -12 -1 -26 -15 -25 -24 -26 -24 -40 -5 -8 11 -14 15 -14
10 0 -6 5 -15 12 -22 9 -9 9 -12 1 -12 -7 0 -19 10 -29 23 -9 12 -14 15 -11 6
4 -13 1 -15 -13 -12 -11 3 -22 14 -26 25 -4 13 -9 16 -13 10 -11 -18 -221 94
-221 118 0 10 -5 22 -11 26 -8 4 -9 -1 -4 -16 l7 -23 -34 20 c-18 11 -46 23
-61 27 -16 4 -37 22 -52 46 -27 44 -32 58 -12 42 6 -5 31 -16 55 -23 25 -7 38
-15 31 -20 -7 -4 -9 -15 -5 -24 3 -10 9 -15 12 -12 4 3 15 -4 26 -16 l19 -22
-10 22 c-8 15 -8 24 -1 28 6 4 8 11 4 17 -3 5 7 3 24 -6 16 -8 45 -17 63 -20
19 -2 43 -7 54 -9 88 -22 104 -24 115 -13 8 8 9 4 2 -15 -6 -15 -7 -31 -1 -40
11 -18 12 -32 1 -25 -10 6 -9 -30 1 -40 7 -7 9 5 11 64 1 38 28 46 77 23 21
-11 41 -15 44 -11 3 5 -13 15 -35 21 -26 8 -39 17 -36 25 3 9 -1 11 -12 8 -12
-4 -10 1 6 15 13 11 21 25 17 31 -7 11 38 60 55 60 5 0 10 8 10 19 0 17 -10
18 -117 20 -65 0 -131 2 -148 4 -16 1 -36 -2 -43 -7 -9 -6 -11 -4 -6 7 4 11
18 16 45 15 22 0 43 2 46 6 4 3 -9 6 -28 7 -28 0 -31 2 -14 9 15 7 10 8 -17 5
-21 -2 -50 -12 -65 -23 -24 -17 -37 -18 -93 -11 -36 4 -85 15 -109 23 -24 9
-55 16 -70 16 l-26 0 25 13 c25 13 29 18 80 131 37 79 92 247 85 254 -8 8 -9
5 -63 -143 -28 -77 -54 -148 -57 -157 -4 -10 -13 -18 -21 -18 -8 0 -14 -6 -15
-12 0 -7 -4 -3 -9 9 -5 12 -6 36 -4 55 3 18 7 41 8 50 1 10 10 26 19 36 22 24
22 38 0 21 -9 -8 -14 -9 -10 -2 14 23 32 229 28 336 -1 46 -17 69 -17 25z
m-86 -429 c-1 -36 -3 -35 -21 19 -15 42 -15 43 3 27 11 -10 18 -30 18 -46z
m48 -16 c-1 -24 -10 -51 -19 -61 -19 -19 -20 -15 -17 53 2 47 4 52 24 52 11 0
14 -11 12 -44z m-681 -13 c3 -5 1 -10 -4 -10 -6 0 -11 5 -11 10 0 6 2 10 4 10
3 0 8 -4 11 -10z m871 -207 c16 -3 36 -6 44 -6 20 -1 40 -21 32 -33 -4 -5 -24
-11 -45 -12 -31 -3 -43 1 -62 22 -14 16 -22 33 -18 42 4 11 8 12 13 4 4 -6 20
-13 36 -17z m419 -18 c-11 -8 -26 -19 -33 -25 -7 -6 -18 -8 -25 -4 -9 6 -9 4
-1 -7 16 -22 11 -40 -16 -56 -25 -15 -25 -15 -5 4 11 10 21 24 23 31 4 23 -13
11 -40 -27 l-27 -38 -58 19 c-32 10 -65 20 -73 22 -65 15 -81 20 -85 27 -3 4
7 4 22 0 16 -4 33 -6 40 -4 7 2 22 -1 35 -7 22 -11 22 -10 4 4 -14 12 -16 16
-5 16 8 0 3 6 -10 13 -14 6 -26 18 -29 25 -3 10 23 13 123 11 69 0 129 2 132
5 4 3 16 6 27 6 21 -1 21 -1 1 -15z m-291 -11 c9 -24 7 -28 -9 -14 -17 14 -20
30 -6 30 5 0 12 -7 15 -16z m-526 -21 c-18 -16 -44 -38 -57 -50 -23 -21 -46
-22 -39 -2 3 10 107 77 121 78 5 1 -6 -11 -25 -26z m-334 2 c-4 -8 -11 -12
-16 -9 -6 4 -5 10 3 15 19 12 19 11 13 -6z m392 -62 c-13 -72 -39 -133 -58
-133 -27 0 -63 -19 -77 -42 -10 -17 -7 -16 22 6 43 33 61 34 51 4 -8 -27 -35
-49 -48 -40 -6 3 0 10 12 15 11 5 23 16 26 24 4 10 -3 8 -22 -6 -15 -10 -28
-29 -28 -40 0 -19 2 -20 25 -5 18 13 23 13 19 3 -3 -8 -13 -39 -23 -69 -10
-30 -19 -57 -21 -59 -2 -2 -15 10 -29 25 -15 16 -24 23 -20 17 11 -22 -4 -14
-16 8 -9 17 -8 20 3 14 7 -4 4 1 -7 12 -12 11 -27 23 -35 26 -12 4 -11 6 2 6
10 1 23 11 29 23 7 13 17 28 23 34 6 7 36 47 66 90 56 80 94 124 106 124 3 0
3 -17 0 -37z m374 14 c0 -8 -7 -14 -15 -14 -11 0 -12 4 -4 14 6 7 13 13 15 13
2 0 4 -6 4 -13z m-600 -7 c0 -5 -8 -10 -17 -10 -15 0 -16 2 -3 10 19 12 20 12
20 0z m358 -71 c-3 -8 -7 -3 -11 10 -4 17 -3 21 5 13 5 -5 8 -16 6 -23z m709
-122 c0 -8 -10 -13 -21 -12 -12 1 -30 -5 -41 -14 -20 -16 -20 -16 -1 6 10 13
22 20 27 18 4 -3 10 -1 14 5 9 14 22 12 22 -3z m-663 -234 c3 -7 2 -13 -3 -13
-5 0 -14 6 -20 13 -8 10 -7 14 4 14 8 0 16 -6 19 -14z m-299 -93 c3 -5 1 -10
-4 -10 -6 0 -11 5 -11 10 0 6 2 10 4 10 3 0 8 -4 11 -10z m65 -54 c0 -3 -4 -8
-10 -11 -5 -3 -10 -1 -10 4 0 6 5 11 10 11 6 0 10 -2 10 -4z"/>
<path d="M3796 4244 c-8 -20 -8 -24 2 -24 4 0 8 9 9 20 2 24 -3 26 -11 4z"/>
<path d="M3966 4222 c-13 -26 -13 -29 7 -42 20 -12 21 -11 9 2 -13 16 -7 47
12 60 8 5 7 8 -1 8 -7 0 -19 -13 -27 -28z"/>
<path d="M3350 4220 c0 -5 5 -10 11 -10 5 0 7 5 4 10 -3 6 -8 10 -11 10 -2 0
-4 -4 -4 -10z"/>
<path d="M3824 4215 c-4 -8 -11 -12 -17 -8 -6 3 -7 1 -3 -5 10 -16 14 -15 26
8 6 11 8 20 5 20 -3 0 -8 -7 -11 -15z"/>
<path d="M3489 4203 c-13 -16 -12 -17 4 -4 9 7 17 15 17 17 0 8 -8 3 -21 -13z"/>
<path d="M4055 4209 c-4 -6 -5 -12 -2 -15 2 -3 7 2 10 11 7 17 1 20 -8 4z"/>
<path d="M3843 4183 c-28 -43 -79 -90 -70 -65 1 4 -2 8 -8 10 -5 1 -11 -1 -11
-5 -5 -28 -18 -52 -24 -48 -5 3 -11 1 -15 -5 -3 -5 -11 -10 -18 -10 -6 0 1 11
16 25 32 30 35 40 7 25 -11 -6 -20 -15 -20 -21 0 -6 -6 -9 -12 -6 -7 2 -13 9
-13 15 0 5 -3 14 -7 18 -5 4 -8 18 -8 31 0 13 -4 23 -10 23 -5 0 -3 -19 5 -45
12 -40 11 -47 -3 -65 -16 -18 -20 -18 -57 -5 -35 12 -38 12 -21 -1 11 -7 14
-14 8 -14 -7 0 -12 -4 -12 -8 0 -5 7 -9 15 -9 8 0 12 4 9 9 -3 4 2 8 11 8 9 0
14 -4 11 -9 -4 -5 8 -7 26 -4 18 3 38 6 44 7 32 5 174 133 174 157 0 5 5 7 12
3 7 -4 8 -3 4 4 -10 17 -13 15 -33 -15z"/>
<path d="M3742 4170 c-7 -11 -9 -20 -4 -20 4 0 13 9 20 20 7 11 9 20 4 20 -4
0 -13 -9 -20 -20z"/>
<path d="M3780 4171 c-5 -11 -6 -22 -1 -25 13 -8 20 4 14 22 -5 11 -3 13 7 7
9 -5 11 -4 6 3 -10 16 -14 15 -26 -7z"/>
<path d="M3956 4167 c3 -10 9 -15 12 -12 3 3 0 11 -7 18 -10 9 -11 8 -5 -6z"/>
<path d="M4072 4141 c-12 -21 -18 -42 -14 -47 17 -20 -35 22 -56 45 -14 16
-20 19 -16 9 4 -13 1 -16 -13 -13 -35 6 -22 -25 22 -55 24 -16 45 -27 48 -24
3 3 14 0 25 -7 17 -11 26 -10 49 1 15 7 33 13 40 11 6 -1 15 4 19 10 5 9 2 10
-9 6 -9 -3 -17 -1 -19 5 -3 8 -9 8 -24 0 -14 -8 -15 -12 -4 -12 12 0 13 -2 1
-9 -7 -5 -22 -6 -32 -4 -25 7 -25 48 1 91 11 17 16 32 12 32 -5 0 -18 -17 -30
-39z m-58 -30 c9 -7 13 -18 10 -23 -3 -5 -14 -2 -25 8 -10 9 -19 14 -19 10 0
-4 -5 -4 -10 -1 -14 9 -4 24 14 21 8 -1 21 -8 30 -15z"/>
<path d="M3990 4116 c0 -2 8 -10 18 -17 15 -13 16 -12 3 4 -13 16 -21 21 -21
13z"/>
<path d="M3385 4150 c2 -8 4 -17 5 -20 1 -3 2 -9 1 -13 -1 -5 3 -6 9 -2 8 5 7
11 -1 21 -9 11 -7 14 10 14 11 0 21 3 21 8 0 4 -11 7 -24 7 -16 0 -22 -5 -21
-15z"/>
<path d="M3596 4147 c3 -10 9 -15 12 -12 3 3 0 11 -7 18 -10 9 -11 8 -5 -6z"/>
<path d="M3040 4136 c0 -2 7 -9 15 -16 9 -7 15 -8 15 -2 0 5 -7 12 -15 16 -8
3 -15 4 -15 2z"/>
<path d="M3517 4129 c6 -6 9 -17 7 -24 -3 -6 3 -18 12 -26 15 -12 17 -12 9 0
-6 11 -4 13 11 7 16 -6 16 -4 -3 14 -13 11 -23 25 -23 30 0 6 -5 10 -12 10 -9
0 -9 -3 -1 -11z"/>
<path d="M4256 4128 c3 -5 10 -6 15 -3 13 9 11 12 -6 12 -8 0 -12 -4 -9 -9z"/>
<path d="M4198 4123 c6 -2 18 -2 25 0 6 3 1 5 -13 5 -14 0 -19 -2 -12 -5z"/>
<path d="M3098 4098 c5 -21 4 -22 -14 -8 -18 14 -18 14 -2 -5 15 -18 62 -126
58 -133 -5 -7 13 -82 20 -82 8 0 -16 114 -31 142 -5 10 -7 18 -4 18 3 0 0 10
-7 23 -7 12 -11 29 -10 39 2 9 -1 19 -7 22 -5 4 -7 -3 -3 -16z"/>
<path d="M3623 4104 c10 -12 15 -29 11 -40 -5 -18 -5 -18 6 0 10 15 8 22 -11
40 -23 21 -23 21 -6 0z"/>
<path d="M4158 4113 c7 -3 16 -2 19 1 4 3 -2 6 -13 5 -11 0 -14 -3 -6 -6z"/>
<path d="M4240 4115 c0 -5 4 -16 9 -23 6 -10 11 -9 22 4 11 14 11 16 0 10 -8
-5 -17 -3 -22 5 -5 8 -9 10 -9 4z"/>
<path d="M4090 4085 c-7 -8 -9 -15 -6 -15 4 0 14 7 22 15 9 8 11 15 6 15 -5 0
-15 -7 -22 -15z"/>
<path d="M4208 4093 c-22 -5 -24 -20 -3 -20 8 0 15 4 15 9 0 5 5 6 12 2 7 -4
8 -3 4 4 -4 7 -8 11 -9 11 -1 -1 -10 -3 -19 -6z"/>
<path d="M4320 4090 c-9 -6 -10 -10 -3 -10 6 0 15 5 18 10 8 12 4 12 -15 0z"/>
<path d="M3387 4083 c-2 -4 5 -17 16 -28 l20 -20 -13 25 c-16 32 -17 33 -23
23z"/>
<path d="M3036 4058 c10 -14 21 -24 23 -22 3 3 -6 15 -18 27 l-24 22 19 -27z"/>
<path d="M3458 4050 c2 -16 6 -30 8 -30 2 0 4 14 4 30 0 17 -4 30 -8 30 -5 0
-7 -13 -4 -30z"/>
<path d="M3590 4070 c8 -5 20 -10 25 -10 6 0 3 5 -5 10 -8 5 -19 10 -25 10 -5
0 -3 -5 5 -10z"/>
<path d="M4283 4073 c-20 -8 -15 -19 10 -20 12 0 16 1 9 4 -6 3 -10 9 -6 14 6
10 5 10 -13 2z"/>
<path d="M2982 4049 c9 -5 15 -16 12 -23 -3 -8 -1 -17 5 -21 7 -3 8 0 5 9 -4
10 -1 16 7 16 8 0 5 6 -7 15 -10 8 -23 14 -29 14 -5 0 -2 -4 7 -10z"/>
<path d="M4170 4050 l-35 -7 38 -2 c20 0 37 4 37 9 0 6 -1 9 -2 9 -2 -1 -19
-5 -38 -9z"/>
<path d="M4220 4056 c0 -9 30 -14 35 -6 4 6 -3 10 -14 10 -12 0 -21 -2 -21 -4z"/>
<path d="M3429 4028 c-1 -7 -3 -23 -4 -36 -1 -12 1 -24 4 -26 4 -3 7 13 8 35
1 35 -5 57 -8 27z"/>
<path d="M3070 4020 c1 -8 7 -24 15 -34 19 -25 19 -16 0 20 -8 16 -15 22 -15
14z"/>
<path d="M3030 4016 c0 -2 8 -10 18 -17 15 -13 16 -12 3 4 -13 16 -21 21 -21
13z"/>
<path d="M3381 3994 c0 -11 3 -14 6 -6 3 7 2 16 -1 19 -3 4 -6 -2 -5 -13z"/>
<path d="M3010 3976 c0 -8 4 -17 9 -20 5 -4 7 3 4 14 -6 23 -13 26 -13 6z"/>
<path d="M3385 3961 c-3 -5 -2 -12 3 -15 5 -3 9 1 9 9 0 17 -3 19 -12 6z"/>
<path d="M3100 3954 c0 -6 7 -19 16 -30 14 -18 14 -18 3 6 -14 31 -19 36 -19
24z"/>
<path d="M3410 3948 c0 -9 -5 -18 -12 -20 -8 -3 -8 -9 -1 -22 9 -16 11 -14 17
14 3 18 4 35 1 38 -3 3 -5 -2 -5 -10z"/>
<path d="M3030 3931 c0 -6 4 -13 10 -16 6 -3 7 1 4 9 -7 18 -14 21 -14 7z"/>
<path d="M3860 3910 c-8 -5 -12 -12 -9 -15 4 -3 12 1 19 10 14 17 11 19 -10 5z"/>
<path d="M3676 3901 c-3 -4 1 -17 9 -27 8 -10 15 -14 15 -7 0 6 -5 15 -10 18
-6 4 -8 11 -5 16 4 5 4 9 1 9 -3 0 -7 -4 -10 -9z"/>
<path d="M3101 3874 c0 -11 3 -14 6 -6 3 7 2 16 -1 19 -3 4 -6 -2 -5 -13z"/>
<path d="M3290 3886 c0 -3 9 -10 20 -16 11 -6 20 -8 20 -6 0 3 -9 10 -20 16
-11 6 -20 8 -20 6z"/>
<path d="M3071 3863 c7 -12 15 -20 18 -17 3 2 -3 12 -13 22 -17 16 -18 16 -5
-5z"/>
<path d="M4758 3843 c6 -2 18 -2 25 0 6 3 1 5 -13 5 -14 0 -19 -2 -12 -5z"/>
<path d="M4625 3829 c-4 -6 -5 -12 -2 -15 2 -3 7 2 10 11 7 17 1 20 -8 4z"/>
<path d="M2960 3811 c28 -22 60 -33 60 -21 0 4 -8 10 -17 14 -10 3 -29 10 -43
16 l-25 10 25 -19z"/>
<path d="M3109 3803 c26 -31 21 -40 -11 -20 -15 9 -32 12 -48 7 -14 -5 -20 -8
-13 -9 6 -1 24 -6 40 -13 15 -6 31 -11 35 -10 4 1 12 -8 19 -19 8 -16 8 -24
-1 -33 -8 -8 -10 -7 -5 7 4 10 2 17 -5 17 -6 0 -8 5 -5 10 12 19 -2 10 -31
-22 -16 -18 -21 -26 -10 -18 24 19 46 21 39 4 -3 -7 -8 -12 -11 -11 -4 1 -17
-5 -28 -13 -19 -14 -20 -17 -6 -30 14 -13 15 -12 9 2 -6 17 15 43 26 31 12
-11 8 -25 -5 -17 -7 4 -8 3 -4 -5 9 -14 29 -3 23 13 -3 7 4 18 15 25 13 8 18
19 15 32 -4 13 0 19 11 20 10 0 12 3 6 5 -7 3 -10 14 -7 24 3 12 0 20 -6 20
-7 0 -9 -6 -5 -12 3 -7 -5 -1 -20 15 -34 35 -44 35 -17 0z"/>
<path d="M4695 3820 c-3 -5 -1 -10 4 -10 6 0 11 5 11 10 0 6 -2 10 -4 10 -3 0
-8 -4 -11 -10z"/>
<path d="M4666 3793 c-6 -14 -5 -15 5 -6 7 7 10 15 7 18 -3 3 -9 -2 -12 -12z"/>
<path d="M4615 3789 c-4 -6 -5 -12 -2 -15 2 -3 7 2 10 11 7 17 1 20 -8 4z"/>
<path d="M4760 3778 c8 -8 25 -15 39 -16 29 -2 15 10 -28 23 -20 6 -22 5 -11
-7z"/>
<path d="M4655 3744 l-30 -26 33 22 c17 12 32 23 32 26 0 7 -4 5 -35 -22z"/>
<path d="M4710 3753 c-14 -9 -40 -30 -59 -47 -23 -21 -32 -25 -28 -13 5 12 3
16 -5 11 -7 -5 -9 -2 -5 8 4 11 0 15 -10 14 -17 -3 -34 -35 -26 -48 2 -5 -1
-8 -7 -8 -6 0 -10 -6 -8 -12 1 -7 -4 -24 -11 -36 -7 -13 -10 -26 -7 -30 3 -3
6 0 6 6 0 7 7 12 15 12 9 0 12 6 8 17 -4 10 -2 14 4 10 6 -4 14 0 17 9 3 8 12
12 18 9 7 -4 6 -1 -2 7 -8 7 -16 24 -18 38 -2 25 -2 25 14 -4 l16 -28 31 30
c18 16 48 39 67 51 19 11 30 21 25 21 -6 0 -22 -7 -35 -17z m-120 -93 c0 -5
-5 -10 -11 -10 -5 0 -7 5 -4 10 3 6 8 10 11 10 2 0 4 -4 4 -10z"/>
<path d="M2940 3740 c8 -5 22 -9 30 -9 10 0 8 3 -5 9 -27 12 -43 12 -25 0z"/>
<path d="M3210 3741 c0 -6 4 -13 10 -16 6 -3 7 1 4 9 -7 18 -14 21 -14 7z"/>
<path d="M2998 3733 c7 -3 16 -2 19 1 4 3 -2 6 -13 5 -11 0 -14 -3 -6 -6z"/>
<path d="M3535 3690 c-3 -11 -11 -20 -16 -20 -6 0 -8 4 -5 9 4 5 -3 7 -14 4
-18 -5 -16 -7 12 -22 29 -15 34 -16 46 -2 7 9 12 10 12 3 0 -7 5 -12 11 -12
16 0 5 25 -12 26 -31 3 -33 5 -20 13 8 5 9 11 3 15 -6 3 -13 -3 -17 -14z"/>
<path d="M3010 3660 c-8 -5 -10 -10 -5 -10 6 0 17 5 25 10 8 5 11 10 5 10 -5
0 -17 -5 -25 -10z"/>
<path d="M4750 3662 c0 -4 10 -9 22 -9 18 -2 20 0 8 7 -18 12 -30 13 -30 2z"/>
<path d="M2884 3641 c21 -23 26 -26 26 -11 0 5 -10 15 -22 21 -23 12 -23 12
-4 -10z"/>
<path d="M4670 3649 c0 -5 5 -7 10 -4 6 3 10 8 10 11 0 2 -4 4 -10 4 -5 0 -10
-5 -10 -11z"/>
<path d="M2929 3633 c-7 -7 -6 -14 1 -18 6 -4 9 -1 8 6 -2 6 7 12 19 14 33 3
39 13 8 11 -15 0 -31 -6 -36 -13z"/>
<path d="M3066 3595 c-13 -25 -21 -43 -15 -40 10 7 52 85 45 85 -2 0 -16 -20
-30 -45z"/>
<path d="M4592 3623 c-15 -27 -14 -32 3 -49 8 -9 15 -23 15 -32 0 -14 2 -15
10 -2 5 9 5 17 -1 20 -13 8 -20 50 -9 50 5 0 12 -5 16 -11 3 -6 18 -9 31 -6
14 2 48 -1 76 -9 27 -7 46 -9 41 -5 -17 15 -69 28 -102 26 -20 -2 -29 1 -25 8
4 6 1 7 -7 2 -8 -5 -18 -2 -26 9 -12 17 -13 17 -22 -1z"/>
<path d="M2990 3619 c0 -5 5 -7 10 -4 6 3 10 8 10 11 0 2 -4 4 -10 4 -5 0 -10
-5 -10 -11z"/>
<path d="M3040 3619 c0 -5 5 -7 10 -4 6 3 10 8 10 11 0 2 -4 4 -10 4 -5 0 -10
-5 -10 -11z"/>
<path d="M3006 3595 c-11 -8 -15 -15 -9 -15 6 0 16 7 23 15 16 19 11 19 -14 0z"/>
<path d="M4520 3586 c0 -9 7 -16 15 -16 8 0 15 -9 15 -20 0 -16 -5 -19 -25
-16 -15 3 -23 1 -20 -5 4 -5 10 -7 14 -5 16 10 48 -24 61 -64 7 -22 18 -44 23
-47 7 -4 7 1 2 13 -27 62 -45 127 -38 137 11 18 12 37 3 37 -5 0 -10 -6 -13
-12 -3 -10 -7 -10 -20 1 -15 12 -17 11 -17 -3z"/>
<path d="M2955 3570 c-3 -6 1 -7 9 -4 18 7 21 14 7 14 -6 0 -13 -4 -16 -10z"/>
<path d="M3215 3560 c26 -11 35 -12 35 -2 0 4 -12 8 -27 9 -24 1 -25 1 -8 -7z"/>
<path d="M4570 3551 c0 -6 4 -13 10 -16 6 -3 7 1 4 9 -7 18 -14 21 -14 7z"/>
<path d="M4470 3519 c-7 -11 -9 -23 -6 -27 3 -3 6 0 6 6 0 7 8 12 18 13 10 0
12 3 4 6 -6 2 -10 9 -6 14 3 5 3 9 0 9 -3 0 -10 -9 -16 -21z"/>
<path d="M4650 3521 c0 -6 4 -13 10 -16 6 -3 7 1 4 9 -7 18 -14 21 -14 7z"/>
<path d="M2940 3516 c0 -3 9 -10 20 -16 11 -6 20 -8 20 -6 0 3 -9 10 -20 16
-11 6 -20 8 -20 6z"/>
<path d="M3238 3513 c7 -3 16 -2 19 1 4 3 -2 6 -13 5 -11 0 -14 -3 -6 -6z"/>
<path d="M3276 3471 l-30 -36 34 32 c19 18 32 34 29 36 -2 2 -17 -12 -33 -32z"/>
<path d="M4595 3490 c3 -5 8 -10 11 -10 2 0 4 5 4 10 0 6 -5 10 -11 10 -5 0
-7 -4 -4 -10z"/>
<path d="M2918 3483 c7 -3 16 -2 19 1 4 3 -2 6 -13 5 -11 0 -14 -3 -6 -6z"/>
<path d="M2993 3475 c0 -8 12 -18 27 -24 33 -11 154 -98 159 -114 2 -7 10 -20
19 -30 19 -22 14 -27 -20 -20 -16 3 -25 10 -21 16 3 6 1 7 -6 3 -17 -11 -5
-24 29 -31 30 -7 29 -7 -37 -41 -38 -19 -73 -34 -80 -34 -6 0 -14 -4 -17 -9
-4 -5 4 -7 16 -4 33 7 86 32 93 43 3 5 12 7 20 3 9 -3 22 0 29 6 12 10 14 7
10 -21 l-4 -33 14 33 c21 45 23 44 27 -23 1 -14 5 -25 10 -25 4 0 6 9 4 20 -2
13 2 20 11 20 8 0 14 5 14 10 0 6 -8 10 -17 8 -10 -2 -18 3 -18 12 0 8 -5 15
-12 15 -6 0 -15 4 -20 9 -4 5 -3 6 3 3 6 -4 19 -1 29 7 12 8 32 10 62 6 24 -4
40 -3 35 2 -11 11 -82 13 -104 4 -12 -6 -20 1 -32 26 -9 18 -29 42 -45 53
-155 108 -178 122 -178 110z"/>
<path d="M4630 3480 c0 -5 5 -10 11 -10 5 0 7 5 4 10 -3 6 -8 10 -11 10 -2 0
-4 -4 -4 -10z"/>
<path d="M2958 3473 c7 -3 16 -2 19 1 4 3 -2 6 -13 5 -11 0 -14 -3 -6 -6z"/>
<path d="M4616 3457 c3 -10 9 -15 12 -12 3 3 0 11 -7 18 -10 9 -11 8 -5 -6z"/>
<path d="M4710 3440 c12 -16 24 -30 26 -30 3 0 -4 14 -16 30 -12 17 -24 30
-26 30 -3 0 4 -13 16 -30z"/>
<path d="M4478 3453 c7 -3 16 -2 19 1 4 3 -2 6 -13 5 -11 0 -14 -3 -6 -6z"/>
<path d="M3269 3433 c-13 -16 -12 -17 4 -4 16 13 21 21 13 21 -2 0 -10 -8 -17
-17z"/>
<path d="M4510 3446 c0 -2 7 -7 16 -10 8 -3 12 -2 9 4 -6 10 -25 14 -25 6z"/>
<path d="M4655 3429 c7 -22 7 -23 -11 -9 -18 14 -18 14 -5 -2 13 -18 7 -24
-21 -19 -5 0 -8 -5 -8 -13 0 -8 -14 -26 -30 -40 -28 -23 -28 -25 -8 -22 40 4
78 18 78 27 0 5 -4 9 -10 9 -18 0 -11 25 11 39 19 11 24 10 43 -8 l20 -21 -29
-1 c-26 0 -27 -1 -10 -9 11 -4 28 -18 38 -30 10 -12 21 -19 24 -16 3 3 -5 14
-17 24 -29 24 -13 36 23 17 31 -16 37 -2 12 31 -13 16 -14 16 -9 2 11 -33 -22
-20 -61 23 -29 32 -35 36 -30 18z m-40 -86 c-28 -20 -41 -16 -20 7 10 11 22
17 28 13 6 -4 3 -12 -8 -20z"/>
<path d="M3210 3430 c17 -11 47 -14 36 -3 -3 4 -17 8 -29 10 -17 2 -19 1 -7
-7z"/>
<path d="M3331 3424 c0 -11 3 -14 6 -6 3 7 2 16 -1 19 -3 4 -6 -2 -5 -13z"/>
<path d="M2980 3420 c8 -5 22 -9 30 -9 10 0 8 3 -5 9 -27 12 -43 12 -25 0z"/>
<path d="M3046 3395 c10 -8 15 -15 10 -15 -12 0 14 -30 27 -30 6 0 2 7 -9 15
-10 8 -15 15 -10 15 12 0 -14 30 -27 30 -6 0 -2 -7 9 -15z"/>
<path d="M4400 3406 c0 -4 7 -14 15 -22 8 -9 15 -11 15 -6 0 5 -7 15 -15 22
-8 7 -15 9 -15 6z"/>
<path d="M2950 3396 c0 -2 7 -7 16 -10 8 -3 12 -2 9 4 -6 10 -25 14 -25 6z"/>
<path d="M2900 3386 c0 -2 9 -6 20 -9 11 -3 20 -1 20 4 0 5 -9 9 -20 9 -11 0
-20 -2 -20 -4z"/>
<path d="M3010 3386 c0 -2 7 -7 16 -10 8 -3 12 -2 9 4 -6 10 -25 14 -25 6z"/>
<path d="M3104 3366 c11 -9 24 -16 30 -16 12 0 7 5 -24 19 -24 11 -24 11 -6
-3z"/>
<path d="M3505 3370 c-16 -7 -17 -9 -3 -9 9 -1 20 4 23 9 7 11 7 11 -20 0z"/>
<path d="M3850 3364 c0 -10 5 -26 10 -34 8 -11 9 -7 4 15 -8 37 -14 45 -14 19z"/>
<path d="M4397 3356 c-4 -10 -3 -15 3 -11 6 3 10 -1 10 -10 0 -9 -4 -14 -9
-11 -5 4 -8 -2 -6 -11 2 -10 4 -22 4 -27 2 -17 12 1 17 28 2 15 1 34 -4 43 -8
14 -10 13 -15 -1z"/>
<path d="M4783 3355 c0 -7 6 -11 14 -8 7 3 13 6 13 8 0 2 -6 5 -13 8 -8 3 -14
-1 -14 -8z"/>
<path d="M2977 3349 c7 -7 15 -10 18 -7 3 3 -2 9 -12 12 -14 6 -15 5 -6 -5z"/>
<path d="M3150 3340 c0 -5 5 -10 11 -10 5 0 7 5 4 10 -3 6 -8 10 -11 10 -2 0
-4 -4 -4 -10z"/>
<path d="M3010 3334 c0 -7 52 -25 57 -20 2 2 -10 8 -26 14 -17 6 -31 9 -31 6z"/>
<path d="M3101 3337 c2 -1 13 -9 24 -17 19 -14 19 -14 6 3 -7 9 -18 17 -24 17
-6 0 -8 -1 -6 -3z"/>
<path d="M4630 3320 c0 -11 14 -11 50 0 22 7 21 8 -12 9 -21 1 -38 -3 -38 -9z"/>
<path d="M4005 3312 c-13 -9 -17 -32 -6 -32 5 0 11 9 14 20 6 22 6 22 -8 12z"/>
<path d="M4656 3301 c-4 -6 11 -10 39 -9 53 1 54 5 3 13 -20 3 -39 1 -42 -4z"/>
<path d="M4753 3295 c0 -8 4 -12 8 -9 4 2 9 -2 12 -8 2 -7 7 -10 11 -7 3 3 -2
13 -12 22 -15 14 -19 15 -19 2z"/>
<path d="M4615 3290 c-3 -6 1 -7 9 -4 18 7 21 14 7 14 -6 0 -13 -4 -16 -10z"/>
<path d="M4012 3275 c-15 -8 -20 -15 -13 -19 6 -4 11 -4 11 1 0 4 5 1 11 -7 9
-13 10 -13 6 1 -3 9 0 22 6 28 14 14 9 13 -21 -4z"/>
<path d="M4666 3267 c3 -10 9 -15 12 -12 3 3 0 11 -7 18 -10 9 -11 8 -5 -6z"/>
<path d="M4700 3271 c0 -5 11 -16 25 -25 14 -9 25 -15 25 -13 0 2 -11 13 -25
25 -14 12 -25 18 -25 13z"/>
<path d="M3338 3253 c6 -3 10 -8 8 -12 -3 -4 1 -8 9 -8 8 0 12 4 9 9 -3 4 2 8
11 8 9 0 14 -4 11 -8 -2 -4 5 -9 16 -9 20 -2 20 -2 2 11 -10 8 -32 13 -49 13
-16 0 -24 -2 -17 -4z"/>
<path d="M4315 3251 c-6 -11 13 -26 22 -17 4 3 1 6 -6 6 -7 0 -9 5 -6 10 3 6
4 10 1 10 -3 0 -7 -4 -11 -9z"/>
<path d="M4510 3240 c0 -6 -8 -10 -17 -8 -11 2 -18 -3 -18 -12 0 -9 -10 -26
-21 -38 -14 -15 -19 -31 -16 -52 5 -37 9 -35 17 9 6 36 34 80 50 80 6 0 19 -6
29 -14 10 -8 23 -12 27 -9 5 3 9 1 9 -5 0 -5 9 -13 20 -16 11 -4 32 -17 45
-31 27 -27 45 -33 24 -8 -23 28 -103 79 -119 75 -22 -4 0 16 25 23 12 3 9 4
-7 2 -16 -2 -28 1 -28 5 0 5 -4 9 -10 9 -5 0 -10 -5 -10 -10z"/>
<path d="M3308 3233 c7 -3 16 -2 19 1 4 3 -2 6 -13 5 -11 0 -14 -3 -6 -6z"/>
<path d="M3840 3220 c-6 -11 -8 -20 -6 -20 3 0 10 9 16 20 6 11 8 20 6 20 -3
0 -10 -9 -16 -20z"/>
<path d="M3430 3219 c0 -5 12 -9 27 -9 30 0 27 9 -6 15 -11 2 -21 0 -21 -6z"/>
<path d="M4620 3220 c8 -5 22 -10 30 -10 13 0 13 1 0 10 -8 5 -22 10 -30 10
-13 0 -13 -1 0 -10z"/>
<path d="M3155 3178 l-40 -43 43 40 c39 36 47 45 39 45 -2 0 -21 -19 -42 -42z"/>
<path d="M3300 3216 c0 -2 7 -7 16 -10 8 -3 12 -2 9 4 -6 10 -25 14 -25 6z"/>
<path d="M4348 3213 c7 -3 16 -2 19 1 4 3 -2 6 -13 5 -11 0 -14 -3 -6 -6z"/>
<path d="M4386 3196 c4 -11 12 -26 19 -33 11 -10 14 -10 19 3 3 8 2 13 -3 10
-5 -3 -12 1 -15 10 -3 8 -2 12 4 9 5 -3 7 0 4 8 -8 23 -35 17 -28 -7z"/>
<path d="M3230 3186 c0 -31 6 -34 13 -6 3 11 1 23 -4 26 -5 3 -9 -6 -9 -20z"/>
<path d="M4504 3193 c1 -10 8 -29 15 -43 11 -24 11 -24 5 5 -4 17 -7 36 -7 43
0 6 -4 12 -9 12 -4 0 -6 -8 -4 -17z"/>
<path d="M4671 3207 c2 -1 15 -11 29 -22 l25 -20 -19 23 c-11 12 -24 22 -29
22 -6 0 -8 -1 -6 -3z"/>
<path d="M3260 3150 c-9 -6 -10 -10 -3 -10 6 0 15 5 18 10 8 12 4 12 -15 0z"/>
<path d="M4175 3138 c-11 -34 -11 -48 -1 -47 5 0 12 -5 16 -11 5 -8 9 -7 13 5
4 9 3 14 -2 11 -5 -3 -11 3 -14 14 -3 11 -1 20 4 20 5 0 9 7 9 15 0 23 -17 18
-25 -7z"/>
<path d="M4210 3134 c0 -10 5 -26 10 -34 7 -11 8 -8 6 13 -3 32 -16 49 -16 21z"/>
<path d="M4317 3139 c7 -7 15 -10 18 -7 3 3 -2 9 -12 12 -14 6 -15 5 -6 -5z"/>
<path d="M4496 3133 c-6 -14 -5 -15 5 -6 7 7 10 15 7 18 -3 3 -9 -2 -12 -12z"/>
<path d="M3080 3125 c-7 -9 -8 -15 -2 -15 5 0 12 7 16 15 3 8 4 15 2 15 -2 0
-9 -7 -16 -15z"/>
<path d="M3251 3123 c-1 -6 -4 -20 -7 -30 -5 -17 -5 -17 6 0 6 10 9 23 6 30
-3 9 -5 9 -5 0z"/>
<path d="M3270 3121 c0 -6 4 -13 10 -16 6 -3 7 1 4 9 -7 18 -14 21 -14 7z"/>
<path d="M4472 3110 c0 -14 2 -19 5 -12 2 6 2 18 0 25 -3 6 -5 1 -5 -13z"/>
<path d="M3454 3098 l-19 -23 23 19 c21 18 27 26 19 26 -2 0 -12 -10 -23 -22z"/>
<path d="M3571 3104 c0 -11 3 -14 6 -6 3 7 2 16 -1 19 -3 4 -6 -2 -5 -13z"/>
<path d="M4530 3106 c0 -8 4 -17 9 -20 5 -4 7 3 4 14 -6 23 -13 26 -13 6z"/>
<path d="M3176 3073 c-6 -14 -5 -15 5 -6 7 7 10 15 7 18 -3 3 -9 -2 -12 -12z"/>
<path d="M3543 3083 c-7 -2 -13 -11 -13 -19 0 -8 -4 -14 -10 -14 -5 0 -10 -4
-10 -10 0 -17 25 0 37 25 6 14 10 25 10 24 -1 0 -8 -3 -14 -6z"/>
<path d="M3767 3076 c-4 -10 -1 -13 9 -9 15 6 19 23 5 23 -5 0 -11 -7 -14 -14z"/>
<path d="M4431 3003 c-1 -48 1 -84 5 -80 9 9 12 167 3 167 -3 0 -7 -39 -8 -87z"/>
<path d="M4140 3044 c-15 -47 -40 -86 -40 -64 0 13 -1 13 -10 0 -5 -8 -20 -15
-33 -15 -22 -1 -87 -45 -87 -58 0 -11 32 0 41 14 5 8 9 10 9 4 0 -5 4 -4 9 4
5 8 18 15 28 16 10 0 25 5 33 10 13 8 13 6 1 -8 -7 -9 -18 -14 -24 -10 -5 3
-7 2 -4 -3 3 -5 -15 -27 -39 -48 -25 -22 -54 -53 -66 -70 -11 -17 -1 -9 22 17
25 28 48 46 56 43 8 -3 14 1 14 9 0 18 38 45 55 38 10 -3 12 2 8 17 -5 19 -3
21 13 16 15 -4 20 -1 21 14 1 11 -2 20 -7 20 -4 0 -3 16 2 35 6 19 15 32 20
29 4 -3 6 -8 4 -12 -2 -4 2 -13 9 -19 11 -10 13 -8 11 10 -1 12 -6 23 -10 24
-5 1 -12 7 -16 13 -5 8 -12 -2 -20 -26z"/>
<path d="M3190 3055 c-19 -22 -8 -25 13 -3 9 10 13 18 8 18 -5 0 -14 -7 -21
-15z"/>
<path d="M3635 3044 c-28 -23 -28 -24 -3 -9 15 9 32 14 37 10 7 -3 8 0 5 9 -8
20 -3 21 -39 -10z"/>
<path d="M3291 3044 c0 -11 3 -14 6 -6 3 7 2 16 -1 19 -3 4 -6 -2 -5 -13z"/>
<path d="M3946 3040 c6 -8 16 -24 22 -35 6 -11 12 -15 12 -8 0 7 -10 22 -22
35 -13 13 -18 17 -12 8z"/>
<path d="M4210 3041 c0 -6 4 -13 10 -16 6 -3 7 1 4 9 -7 18 -14 21 -14 7z"/>
<path d="M4541 3034 c0 -11 3 -14 6 -6 3 7 2 16 -1 19 -3 4 -6 -2 -5 -13z"/>
<path d="M3227 3033 c-10 -9 -9 -23 1 -23 5 0 9 7 9 15 0 17 -1 18 -10 8z"/>
<path d="M3111 3018 c-12 -4 -21 -9 -21 -12 0 -5 70 11 77 18 7 7 -32 3 -56
-6z"/>
<path d="M3625 3004 c-9 -15 -12 -23 -6 -20 11 7 35 46 28 46 -3 0 -12 -12
-22 -26z"/>
<path d="M3664 3015 c-18 -13 -18 -14 4 -8 12 3 25 9 28 14 8 14 -10 11 -32
-6z"/>
<path d="M3916 3022 c-3 -5 1 -9 9 -9 8 0 15 4 15 9 0 4 -4 8 -9 8 -6 0 -12
-4 -15 -8z"/>
<path d="M4470 3018 c0 -4 4 -8 9 -8 6 0 12 4 15 8 3 5 -1 9 -9 9 -8 0 -15 -4
-15 -9z"/>
<path d="M3843 3005 c0 -8 4 -12 9 -9 5 3 6 10 3 15 -9 13 -12 11 -12 -6z"/>
<path d="M4548 2983 c5 -21 7 -23 10 -9 2 10 0 22 -6 28 -6 6 -7 0 -4 -19z"/>
<path d="M3189 2974 c-23 -25 -23 -26 -2 -13 13 7 25 19 27 26 8 19 2 16 -25
-13z"/>
<path d="M3410 2993 c0 -5 14 -9 31 -9 35 -2 33 5 -5 12 -14 2 -26 1 -26 -3z"/>
<path d="M3483 2987 c-3 -5 -1 -7 5 -3 6 3 13 2 16 -3 4 -5 -4 -12 -16 -14
-13 -3 -7 -4 12 -3 42 3 55 30 15 32 -14 1 -28 -3 -32 -9z"/>
<path d="M3918 2993 c7 -3 16 -2 19 1 4 3 -2 6 -13 5 -11 0 -14 -3 -6 -6z"/>
<path d="M3276 2978 c3 -4 14 -8 25 -8 10 0 19 4 19 8 0 4 -11 8 -24 8 -14 0
-22 -4 -20 -8z"/>
<path d="M3343 2983 c9 -2 23 -2 30 0 6 3 -1 5 -18 5 -16 0 -22 -2 -12 -5z"/>
<path d="M4180 2980 l25 -8 -28 -1 c-17 -1 -26 -5 -22 -12 4 -6 13 -8 20 -5 8
3 15 1 17 -3 2 -5 14 -11 28 -15 19 -6 21 -5 10 3 -16 11 -9 14 25 12 l20 -1
-20 9 c-11 5 -24 5 -29 0 -18 -16 -27 -9 -16 11 10 18 8 20 -22 19 -31 -1 -32
-1 -8 -9z"/>
<path d="M4481 2974 c0 -11 3 -14 6 -6 3 7 2 16 -1 19 -3 4 -6 -2 -5 -13z"/>
<path d="M3240 2976 c0 -2 7 -7 16 -10 8 -3 12 -2 9 4 -6 10 -25 14 -25 6z"/>
<path d="M3916 2971 c-4 -5 -2 -12 3 -15 5 -4 12 -2 15 3 4 5 2 12 -3 15 -5 4
-12 2 -15 -3z"/>
<path d="M3410 2960 c0 -5 5 -10 10 -10 6 0 10 5 10 10 0 6 -4 10 -10 10 -5 0
-10 -4 -10 -10z"/>
<path d="M3975 2960 c-3 -5 -1 -10 4 -10 6 0 11 5 11 10 0 6 -2 10 -4 10 -3 0
-8 -4 -11 -10z"/>
<path d="M3225 2950 c-3 -6 1 -7 9 -4 18 7 21 14 7 14 -6 0 -13 -4 -16 -10z"/>
<path d="M3373 2935 c0 -7 6 -11 14 -8 7 3 13 6 13 8 0 2 -6 5 -13 8 -8 3 -14
-1 -14 -8z"/>
<path d="M4123 2938 c3 -9 1 -20 -4 -25 -5 -5 0 -9 14 -10 12 0 17 1 10 4 -7
2 -10 10 -7 18 3 7 0 16 -7 21 -8 5 -11 2 -6 -8z"/>
<path d="M4290 2940 c8 -5 20 -10 25 -10 6 0 3 5 -5 10 -8 5 -19 10 -25 10 -5
0 -3 -5 5 -10z"/>
<path d="M4490 2945 c0 -5 5 -17 10 -25 5 -8 10 -10 10 -5 0 6 -5 17 -10 25
-5 8 -10 11 -10 5z"/>
<path d="M4547 2936 c-3 -8 2 -20 11 -27 14 -11 15 -11 5 0 -6 7 -9 20 -6 27
3 8 3 14 0 14 -3 0 -7 -6 -10 -14z"/>
<path d="M3185 2930 c-3 -6 1 -7 9 -4 18 7 21 14 7 14 -6 0 -13 -4 -16 -10z"/>
<path d="M3306 2931 c-4 -5 3 -7 14 -4 23 6 26 13 6 13 -8 0 -17 -4 -20 -9z"/>
<path d="M3340 2920 c-9 -6 -10 -10 -3 -10 6 0 15 5 18 10 8 12 4 12 -15 0z"/>
<path d="M4286 2896 c19 -19 34 -42 34 -52 0 -16 -2 -17 -11 -4 -9 12 -10 12
-5 -3 3 -10 6 -21 6 -23 0 -2 5 -4 10 -4 21 0 9 51 -21 85 -17 19 -35 35 -39
35 -4 0 7 -15 26 -34z"/>
<path d="M3265 2910 c-3 -6 1 -7 9 -4 18 7 21 14 7 14 -6 0 -13 -4 -16 -10z"/>
<path d="M3470 2910 c-8 -5 -10 -10 -5 -10 6 0 17 5 25 10 8 5 11 10 5 10 -5
0 -17 -5 -25 -10z"/>
<path d="M3295 2892 c-11 -9 -27 -26 -35 -37 -8 -11 3 -4 23 14 33 31 42 42
35 41 -2 -1 -12 -8 -23 -18z"/>
<path d="M4086 2895 c4 -8 8 -15 10 -15 2 0 4 7 4 15 0 8 -4 15 -10 15 -5 0
-7 -7 -4 -15z"/>
<path d="M4230 2906 c0 -2 7 -7 16 -10 8 -3 12 -2 9 4 -6 10 -25 14 -25 6z"/>
<path d="M4350 2906 c0 -2 8 -10 18 -17 15 -13 16 -12 3 4 -13 16 -21 21 -21
13z"/>
<path d="M3420 2890 c-8 -5 -10 -10 -5 -10 6 0 17 5 25 10 8 5 11 10 5 10 -5
0 -17 -5 -25 -10z"/>
<path d="M3891 2834 c-48 -50 -61 -68 -52 -77 9 -9 10 -7 5 7 -5 13 -4 17 3
13 6 -4 19 6 29 21 9 15 33 42 53 59 19 18 32 35 30 38 -3 3 -34 -25 -68 -61z"/>
<path d="M3615 2880 c3 -5 8 -10 11 -10 2 0 4 5 4 10 0 6 -5 10 -11 10 -5 0
-7 -4 -4 -10z"/>
<path d="M3969 2873 c-13 -16 -12 -17 4 -4 16 13 21 21 13 21 -2 0 -10 -8 -17
-17z"/>
<path d="M4109 2879 c-2 -16 -1 -20 17 -79 l14 -45 -5 40 c-9 76 -23 121 -26
84z"/>
<path d="M4150 2886 c0 -2 8 -10 18 -17 15 -13 16 -12 3 4 -13 16 -21 21 -21
13z"/>
<path d="M4270 2881 c0 -6 4 -13 10 -16 6 -3 7 1 4 9 -7 18 -14 21 -14 7z"/>
<path d="M4460 2870 c6 -11 13 -20 16 -20 2 0 0 9 -6 20 -6 11 -13 20 -16 20
-2 0 0 -9 6 -20z"/>
<path d="M3345 2870 c-3 -6 1 -7 9 -4 18 7 21 14 7 14 -6 0 -13 -4 -16 -10z"/>
<path d="M3741 2847 c2 -1 13 -9 24 -17 19 -14 19 -14 6 3 -7 9 -18 17 -24 17
-6 0 -8 -1 -6 -3z"/>
<path d="M4181 2845 c0 -5 6 -21 14 -35 8 -14 14 -20 14 -15 0 6 -6 21 -14 35
-8 14 -14 21 -14 15z"/>
<path d="M3661 2794 c0 -11 3 -14 6 -6 3 7 2 16 -1 19 -3 4 -6 -2 -5 -13z"/>
<path d="M3692 2781 c1 -16 5 -28 9 -26 6 5 0 55 -7 55 -3 0 -3 -13 -2 -29z"/>
<path d="M3986 2778 l-18 -33 21 25 c18 22 26 40 18 40 -1 0 -11 -15 -21 -32z"/>
<path d="M3570 2779 c-7 -11 -10 -23 -7 -25 2 -2 9 7 15 21 14 30 7 33 -8 4z"/>
<path d="M3726 2787 c3 -10 9 -15 12 -12 3 3 0 11 -7 18 -10 9 -11 8 -5 -6z"/>
<path d="M3926 2763 c-6 -14 -5 -15 5 -6 7 7 10 15 7 18 -3 3 -9 -2 -12 -12z"/>
<path d="M3741 2744 c0 -11 3 -14 6 -6 3 7 2 16 -1 19 -3 4 -6 -2 -5 -13z"/>
<path d="M3800 2745 c-7 -9 -10 -18 -7 -21 3 -3 10 4 17 15 13 25 8 27 -10 6z"/>
<path d="M3825 2729 c-4 -6 -5 -12 -2 -15 2 -3 7 2 10 11 7 17 1 20 -8 4z"/>
<path d="M3945 2720 c-10 -11 -21 -18 -24 -15 -4 2 -7 -8 -8 -23 -1 -15 1 -20
4 -12 3 8 17 27 31 43 14 15 23 27 20 27 -3 0 -13 -9 -23 -20z"/>
<path d="M3660 2702 c-6 -14 -8 -27 -6 -30 3 -3 9 4 13 14 4 10 13 24 21 30
13 9 13 11 -1 11 -8 0 -20 -11 -27 -25z"/>
<path d="M3736 2673 c-6 -14 -5 -15 5 -6 7 7 10 15 7 18 -3 3 -9 -2 -12 -12z"/>
<path d="M2830 5249 c-52 -21 -100 -84 -100 -133 0 -14 10 -37 23 -51 76 -89
265 42 211 146 -24 47 -75 61 -134 38z m82 -37 c23 -19 32 -70 20 -103 -6 -14
-25 -33 -42 -41 -90 -44 -170 72 -97 140 36 33 84 35 119 4z"/>
<path d="M5286 5215 c10 -25 -67 -129 -100 -137 -12 -2 -8 -8 14 -20 29 -17
31 -17 37 0 7 18 71 102 88 114 5 4 14 4 20 1 5 -4 1 4 -10 16 -27 31 -57 47
-49 26z"/>
<path d="M5447 5089 c11 -13 5 -24 -34 -68 -26 -29 -55 -56 -65 -60 -16 -6
-14 -11 17 -41 19 -19 35 -31 35 -28 0 4 -7 13 -15 22 -13 13 -9 20 41 68 61
59 65 61 79 50 30 -21 54 -66 49 -89 -7 -25 -6 -25 15 -7 11 10 21 20 21 22 0
4 -113 114 -136 132 -17 14 -18 13 -7 -1z"/>
<path d="M2581 5031 c-22 -17 -22 -17 17 -17 26 1 38 5 35 13 -8 20 -28 22
-52 4z"/>
<path d="M5453 4968 c9 -15 17 -34 17 -43 0 -13 3 -13 20 -3 28 18 31 34 8 35
-11 1 -30 10 -41 20 l-21 18 17 -27z"/>
<path d="M2515 4957 c-15 -55 35 -74 99 -36 43 25 80 22 84 -7 5 -35 -34 -58
-108 -64 -10 0 -6 -6 10 -15 34 -19 30 -20 78 24 51 48 58 94 17 113 -21 9
-35 7 -84 -14 -62 -27 -76 -26 -83 7 -4 17 -6 16 -13 -8z"/>
<path d="M5410 4883 c0 -5 11 -20 24 -32 17 -16 30 -20 50 -15 31 8 27 16 -10
20 -14 2 -35 11 -45 20 -10 9 -19 13 -19 7z"/>
<path d="M5422 2458 c-5 -18 -6 -41 -4 -52 5 -17 6 -17 14 -1 15 26 20 73 9
79 -6 4 -14 -8 -19 -26z"/>
<path d="M2541 2427 c-33 -16 -37 -33 -10 -40 16 -4 27 0 36 14 18 25 58 19
91 -15 l25 -24 -71 -47 c-75 -50 -110 -58 -137 -31 -17 17 -35 21 -35 8 0 -16
89 -104 99 -97 8 4 6 11 -4 21 -20 20 -20 21 13 21 33 0 183 98 176 116 -7 20
-99 78 -130 83 -16 2 -40 -2 -53 -9z"/>
<path d="M5482 2403 c-36 -14 -50 -120 -22 -173 26 -49 59 -53 101 -11 24 24
29 38 29 76 0 27 -4 44 -10 40 -5 -3 -7 -11 -4 -19 8 -20 -13 -64 -37 -76 -29
-16 -43 -1 -30 33 12 31 4 35 -15 10 -18 -26 -36 -4 -32 38 2 26 8 35 26 37
21 3 27 -6 22 -38 -3 -25 11 -4 15 23 6 28 -23 68 -43 60z"/>
<path d="M5363 2268 c-32 -31 -33 -31 -53 -13 -11 10 -20 14 -21 9 -7 -72 -5
-104 4 -95 18 18 26 13 57 -38 38 -61 54 -68 86 -36 23 23 35 73 14 60 -6 -4
-8 -10 -5 -15 3 -4 -1 -13 -8 -19 -16 -13 -31 -2 -70 51 l-27 37 31 35 c40 46
34 66 -8 24z"/>
<path d="M2660 2239 c0 -5 4 -7 10 -4 5 3 17 2 26 -3 14 -8 14 -10 -1 -25 -9
-10 -37 -31 -62 -49 -42 -29 -45 -32 -28 -44 15 -11 22 -10 49 9 47 33 117 41
143 15 13 -13 8 -20 -36 -58 -52 -44 -64 -73 -35 -84 24 -9 72 -7 79 3 3 6 -8
8 -25 6 -16 -2 -30 0 -30 5 0 5 23 28 50 51 28 23 50 51 50 61 0 25 -53 44
-130 47 -10 1 -7 6 8 17 29 20 28 38 -3 52 -32 15 -65 15 -65 1z"/>
<path d="M5224 2142 c-8 -12 -6 -27 7 -56 18 -41 18 -72 0 -118 -16 -42 -34
-34 -67 30 -36 67 -60 75 -81 25 -8 -20 -9 -34 -3 -38 6 -3 10 3 10 14 0 37
18 22 51 -44 18 -36 36 -65 41 -65 20 0 57 50 68 91 12 43 13 44 27 22 18 -28
31 -29 49 -5 18 23 19 48 1 34 -10 -9 -20 1 -45 44 -18 31 -32 60 -32 64 0 17
-16 18 -26 2z"/>
<path d="M5330 2059 c0 -5 5 -7 10 -4 6 3 10 8 10 11 0 2 -4 4 -10 4 -5 0 -10
-5 -10 -11z"/>
<path d="M2910 2052 c-22 -7 -29 -22 -22 -51 3 -14 6 -43 6 -63 0 -28 4 -38
16 -38 37 0 40 18 16 118 -7 29 20 30 51 0 25 -23 46 -17 22 7 -18 19 -69 34
-89 27z"/>
<path d="M3085 1990 c-3 -6 -17 -8 -30 -6 -14 3 -27 0 -30 -5 -4 -5 1 -9 9 -9
23 0 20 -15 -13 -52 -37 -43 -54 -76 -47 -93 7 -20 74 -31 89 -15 9 10 7 11
-9 6 -13 -4 -26 -1 -34 9 -10 12 -5 23 27 64 l39 49 38 -20 c49 -25 68 -9 20
17 -29 15 -34 23 -29 42 4 16 1 23 -9 23 -8 0 -18 -5 -21 -10z"/>
<path d="M4969 1965 c-68 -51 -96 -162 -51 -207 16 -17 19 -17 48 1 21 13 35
33 45 66 l16 47 13 -31 c7 -17 16 -31 19 -31 24 0 69 74 51 85 -5 3 -10 -5
-12 -17 -5 -40 -22 -25 -47 45 -14 37 -30 67 -36 67 -6 0 -27 -11 -46 -25z
m36 -25 c13 -21 7 -89 -11 -119 -23 -38 -40 -39 -56 -3 -12 25 -14 36 -9 84 0
10 13 24 29 32 33 18 39 19 47 6z"/>
<path d="M2790 1960 c0 -9 69 -60 82 -60 4 0 -9 16 -29 35 -36 35 -53 43 -53
25z"/>
<path d="M4560 1933 c-17 -21 -35 -54 -40 -73 -9 -35 -8 -47 6 -155 4 -33 7
-70 8 -83 0 -21 3 -23 36 -17 103 19 164 135 106 202 l-24 28 -41 -43 c-23
-24 -41 -50 -41 -59 0 -25 -11 -8 -15 24 -18 122 -11 154 36 173 34 14 47 40
19 40 -10 0 -32 -17 -50 -37z m95 -173 c20 -64 -3 -115 -55 -122 -22 -3 -25 1
-28 29 -7 69 65 150 83 93z"/>
<path d="M3270 1935 c-26 -14 -17 -24 15 -17 33 6 55 32 26 29 -12 -1 -30 -6
-41 -12z"/>
<path d="M3165 1885 c-19 -14 -19 -15 6 -6 15 5 29 7 32 4 4 -3 -14 -35 -39
-71 -34 -49 -42 -67 -32 -74 21 -13 63 -9 84 7 18 14 17 15 -8 5 -41 -14 -45
6 -11 48 35 44 57 82 50 89 -14 13 -64 12 -82 -2z"/>
<path d="M4235 1883 c-52 -13 -100 -70 -111 -131 -7 -36 -12 -42 -38 -42 -32
0 -102 -64 -116 -105 -27 -81 39 -100 113 -32 l27 26 0 -29 c0 -16 5 -32 10
-35 14 -9 56 20 71 47 11 23 11 23 -15 -1 -24 -23 -26 -23 -27 -5 -1 10 -1 21
-1 24 0 3 3 41 6 85 11 150 11 150 66 165 24 6 40 17 40 25 0 8 -1 14 -2 14
-2 -1 -12 -4 -23 -6z m-120 -215 c-9 -43 -17 -58 -46 -83 -36 -30 -55 -32 -64
-6 -8 27 22 97 47 108 34 15 67 5 63 -19z"/>
<path d="M4793 1878 c-27 -13 -63 -83 -63 -124 0 -41 26 -74 57 -74 27 0 93
58 93 81 0 8 -11 2 -25 -14 -26 -27 -68 -36 -80 -17 -4 6 7 25 25 43 32 33 44
63 38 93 -4 22 -17 25 -45 12z m25 -51 c4 -18 -27 -57 -44 -57 -18 0 -23 22
-11 45 19 37 49 44 55 12z"/>
<path d="M3335 1860 c-3 -5 -18 -10 -33 -10 -26 -1 -26 -1 -7 -16 19 -14 19
-16 -14 -75 -25 -46 -30 -63 -22 -73 17 -21 56 -25 82 -9 l24 14 -28 -6 c-39
-8 -44 14 -16 71 25 50 44 63 62 45 6 -6 24 -11 41 -11 34 0 28 10 -17 26 -24
9 -31 17 -30 33 2 15 -3 21 -17 21 -10 0 -22 -4 -25 -10z"/>
<path d="M3443 1780 c-32 -13 -28 -21 7 -14 30 6 30 6 16 -22 -46 -96 -48
-104 -37 -118 15 -18 80 -8 133 21 5 2 3 -8 -2 -23 -7 -17 -7 -31 -1 -37 14
-14 70 2 82 25 10 19 10 19 -16 2 -14 -9 -27 -15 -29 -13 -2 2 10 37 26 77 17
40 29 75 26 77 -11 12 -34 -8 -50 -43 -23 -49 -88 -89 -123 -76 -10 4 -8 17
10 57 34 76 35 92 5 94 -14 1 -35 -2 -47 -7z"/>
<path d="M3740 1760 c0 -5 -15 -16 -32 -24 -19 -8 -26 -15 -16 -15 27 -1 29
-15 10 -72 -27 -80 -19 -95 43 -89 11 1 27 8 35 16 13 13 12 14 -13 5 -37 -14
-44 4 -25 72 15 52 15 52 52 49 39 -2 90 16 54 19 -10 1 -22 3 -28 4 -5 1 -19
3 -30 4 -13 1 -20 8 -20 21 0 11 -7 20 -15 20 -8 0 -15 -4 -15 -10z"/>
<path d="M4268 1715 c-61 -57 -76 -138 -29 -161 37 -19 123 23 120 59 0 9 -2
9 -6 -1 -9 -22 -56 -40 -80 -31 -29 11 -30 36 -2 44 32 11 80 66 77 89 -5 32
-47 32 -80 1z m52 -24 c0 -22 -35 -51 -62 -51 -15 0 -16 4 -7 27 12 31 26 43
52 43 10 0 17 -8 17 -19z"/>
</g>
</svg>
