<?xml version="1.0" standalone="no"?>
<!DOCTYPE svg PUBLIC "-//W3C//DTD SVG 20010904//EN"
 "http://www.w3.org/TR/2001/REC-SVG-20010904/DTD/svg10.dtd">
<svg version="1.0" xmlns="http://www.w3.org/2000/svg"
 width="1280.000000pt" height="1280.000000pt" viewBox="0 0 1280.000000 1280.000000"
 preserveAspectRatio="xMidYMid meet">
<metadata>
Created by potrace 1.14, written by Peter Selinger 2001-2017
</metadata>
<g transform="translate(0.000000,1280.000000) scale(0.100000,-0.100000)"
fill="#000000" stroke="none">
<path d="M7290 10060 c-6 -11 -21 -31 -34 -45 -48 -52 -70 -114 -70 -200 -1
-94 18 -158 73 -242 68 -104 166 -198 307 -291 10 -7 1 -4 -21 7 -75 36 -189
125 -291 225 -85 86 -108 115 -146 192 -55 110 -74 204 -60 285 11 59 10 64
-13 56 -21 -9 -21 -173 1 -248 41 -140 165 -300 334 -432 36 -28 70 -55 75
-61 11 -11 8 -9 -160 96 -172 107 -311 188 -324 188 -37 0 10 -37 162 -128
368 -220 502 -303 505 -315 2 -10 -68 -361 -279 -1404 -7 -34 -16 -53 -24 -53
-29 0 -86 -64 -121 -136 -79 -159 -41 -272 61 -183 73 64 130 204 119 288 -5
38 3 76 50 226 118 383 210 842 232 1163 4 51 8 92 9 92 0 0 49 9 109 20 59
11 162 26 229 35 67 9 185 31 262 49 136 33 465 106 478 106 4 0 7 7 7 15 0
19 -2 19 -107 -5 -48 -11 -99 -22 -113 -25 -14 -3 12 16 57 42 81 47 164 104
233 163 27 22 32 31 23 41 -9 9 -24 2 -65 -33 -108 -91 -229 -164 -368 -221
-132 -55 -420 -107 -575 -106 l-120 2 80 7 c130 12 398 96 553 174 84 42 232
148 232 166 0 24 -26 19 -58 -12 -89 -85 -231 -157 -443 -228 -177 -58 -304
-83 -369 -74 l-44 7 32 27 c28 23 45 28 120 34 259 19 453 91 584 214 69 65
128 150 128 185 0 28 -19 19 -37 -18 -11 -23 -19 -31 -24 -23 -12 19 -274 -73
-444 -157 -82 -40 -187 -99 -233 -129 -46 -31 -94 -56 -107 -56 l-24 0 25 55
c17 37 27 81 31 133 5 65 13 91 50 166 25 49 56 107 70 129 33 53 21 59 -27
12 -62 -61 -90 -108 -115 -192 -13 -43 -39 -121 -58 -173 -35 -94 -35 -95 -47
-65 -52 134 -52 303 -1 453 36 108 35 102 17 102 -19 0 -61 -117 -76 -213 -18
-107 -8 -236 24 -328 l25 -72 -50 49 c-88 85 -171 196 -213 284 -40 83 -41 88
-41 190 0 101 5 123 42 191 2 4 -3 9 -11 12 -10 4 -20 -1 -26 -13z m-7 -358
c41 -103 87 -169 192 -280 55 -58 93 -102 85 -97 -46 27 -136 103 -197 168
-131 141 -179 285 -137 408 l19 54 6 -95 c5 -67 14 -114 32 -158z m1168 -81
c-55 -78 -191 -168 -316 -211 -61 -21 -296 -63 -323 -58 -24 5 106 84 258 157
114 55 389 156 398 146 2 -2 -5 -17 -17 -34z m-756 -138 c-4 -21 -15 -53 -26
-73 -22 -39 -19 -20 9 63 20 56 27 61 17 10z m-195 -209 c0 -2 -9 0 -20 6 -11
6 -20 13 -20 16 0 2 9 0 20 -6 11 -6 20 -13 20 -16z m188 -69 c35 -8 66 -16
68 -18 3 -2 -15 -7 -38 -10 -38 -5 -53 0 -125 39 -46 25 -83 47 -83 49 0 2 26
-8 58 -22 31 -14 86 -31 120 -38z"/>
<path d="M5475 9171 c-3 -16 -13 -32 -21 -35 -31 -12 -58 -96 -59 -182 0 -73
3 -87 38 -157 53 -108 138 -196 293 -305 54 -38 -94 50 -166 99 -198 134 -311
307 -314 481 -1 59 -4 78 -15 78 -11 0 -13 -20 -9 -99 3 -95 6 -104 51 -195
60 -120 149 -214 295 -310 173 -114 322 -173 447 -177 l40 -1 -49 -15 c-62
-19 -57 -21 -436 162 -253 122 -367 175 -376 175 -2 0 -4 -7 -4 -15 0 -9 28
-27 68 -45 209 -94 552 -267 552 -278 0 -24 -52 -145 -93 -217 -40 -69 -224
-269 -312 -338 -36 -28 -34 -25 16 29 130 143 237 311 255 402 10 50 -20 42
-36 -10 -22 -76 -67 -152 -156 -267 -107 -138 -220 -243 -207 -192 3 10 34 43
70 72 87 71 177 179 216 258 26 53 32 78 35 152 4 77 2 89 -12 89 -11 0 -16
-9 -16 -29 0 -16 -3 -31 -8 -33 -36 -16 -203 -260 -262 -384 -50 -104 -65
-118 -75 -67 -3 21 -19 58 -35 83 -25 39 -30 60 -38 150 l-8 105 -13 -44 c-15
-54 -10 -139 16 -248 18 -75 18 -81 2 -73 -27 15 -105 106 -125 147 -10 21
-23 58 -29 82 -17 64 -40 69 -32 7 10 -68 62 -163 125 -224 l55 -54 -44 7
c-194 30 -303 104 -333 228 -9 36 -22 34 -30 -4 -10 -51 -7 -82 14 -127 34
-75 102 -122 214 -148 l61 -14 -80 4 c-116 6 -175 32 -256 112 -53 53 -65 70
-61 90 3 17 0 24 -12 24 -9 0 -16 -5 -16 -12 0 -6 -9 -3 -20 7 -11 10 -20 22
-20 26 0 12 113 193 195 314 38 55 88 141 111 190 24 50 86 166 139 260 52 93
95 175 95 182 0 37 -31 2 -78 -88 -30 -55 -55 -99 -57 -97 -2 2 4 32 11 68 8
36 18 122 21 193 5 105 3 127 -8 127 -11 0 -15 -21 -17 -93 -6 -231 -55 -388
-191 -622 -105 -180 -168 -264 -241 -323 l-45 -37 45 52 c57 64 94 131 166
308 70 172 103 301 111 428 5 82 4 97 -9 97 -12 0 -16 -20 -21 -97 -7 -122
-31 -214 -102 -395 -73 -185 -115 -263 -176 -329 l-50 -54 5 46 c4 36 22 70
82 160 120 177 165 288 179 444 11 111 -34 295 -71 295 -18 0 -18 -14 1 -50 8
-16 11 -30 7 -32 -11 -5 -75 -150 -111 -252 -42 -119 -76 -258 -97 -392 -12
-83 -22 -119 -39 -140 l-22 -28 -22 50 c-12 27 -48 76 -81 109 -60 61 -92 119
-141 258 -13 37 -27 67 -30 67 -4 0 -5 -21 -2 -47 9 -100 25 -153 58 -200 19
-27 50 -79 71 -117 20 -39 47 -87 60 -108 l25 -39 -38 16 c-144 60 -294 200
-359 338 -17 35 -44 51 -44 25 0 -28 79 -147 143 -214 77 -81 166 -145 240
-172 26 -9 47 -20 47 -24 0 -15 -288 -9 -363 8 -149 33 -276 121 -323 221 -22
49 -51 60 -39 16 4 -16 9 -41 12 -58 7 -53 62 -153 101 -185 46 -38 120 -73
192 -91 74 -18 275 -16 369 5 41 8 76 14 79 12 7 -8 -108 -36 -230 -57 -277
-48 -483 2 -627 153 -30 30 -44 39 -52 31 -8 -8 -1 -22 26 -51 93 -103 252
-171 420 -179 91 -4 130 -1 335 32 51 8 36 3 -175 -60 -242 -71 -305 -94 -305
-111 0 -18 1 -18 82 11 39 14 177 57 307 95 233 68 340 101 373 115 24 10 47
-75 55 -202 5 -80 1 -131 -18 -250 l-24 -148 -6 200 c-6 207 -22 299 -55 312
-24 9 -25 0 -4 -56 48 -125 43 -486 -8 -577 -8 -14 -10 -13 -16 9 -3 14 -2 36
3 49 4 13 16 67 26 121 31 172 10 316 -60 418 -35 50 -78 67 -61 23 3 -9 8
-103 9 -208 3 -151 8 -213 26 -295 12 -57 20 -106 17 -108 -3 -3 -22 8 -43 25
-21 16 -55 35 -76 42 -27 9 -56 33 -109 96 -39 46 -73 82 -76 80 -6 -6 34 -92
59 -127 12 -17 38 -41 58 -54 50 -33 126 -103 120 -109 -3 -3 -31 -1 -63 4
-72 12 -169 56 -219 100 -25 22 -41 30 -48 23 -15 -15 63 -80 138 -115 45 -21
88 -33 141 -37 l77 -7 -85 -41 c-105 -51 -192 -69 -263 -53 -55 12 -112 42
-126 68 -7 13 -13 14 -21 6 -9 -9 -8 -19 6 -40 76 -123 192 -152 349 -89 76
31 44 5 -51 -41 -62 -29 -81 -34 -147 -34 l-75 0 -29 45 c-15 25 -31 45 -35
45 -18 0 -17 -23 2 -50 30 -42 11 -38 -69 16 l-69 45 -15 82 c-9 45 -21 117
-27 160 -11 89 -44 224 -67 277 -8 19 -39 127 -68 239 -30 111 -56 206 -60
209 -3 3 -9 1 -15 -4 -5 -5 2 -50 20 -114 16 -58 27 -106 26 -108 -2 -1 -20
25 -41 59 -37 61 -173 231 -195 244 -7 4 -17 2 -22 -3 -8 -8 9 -32 56 -83 76
-83 157 -200 210 -307 46 -92 125 -402 132 -517 l4 -80 -23 80 c-48 166 -145
387 -214 492 -47 71 -121 153 -139 153 -25 0 -15 -25 27 -65 82 -80 158 -212
236 -413 62 -161 83 -245 83 -327 l-1 -70 -33 38 c-29 32 -34 47 -41 109 -11
120 -59 290 -107 380 -57 110 -167 222 -260 267 -61 30 -88 34 -88 11 0 -5 16
-14 35 -20 24 -8 35 -18 35 -31 0 -32 87 -245 146 -357 55 -105 132 -226 189
-297 19 -23 34 -55 36 -76 l5 -36 -51 23 c-39 19 -67 24 -127 24 -68 0 -88 5
-170 41 -51 22 -114 52 -141 66 -26 15 -50 24 -52 21 -3 -3 18 -27 47 -53 57
-52 138 -95 178 -95 31 0 260 -72 260 -82 0 -12 -99 -38 -187 -50 -94 -13
-203 -2 -304 32 -43 15 -65 18 -72 11 -7 -7 1 -15 27 -26 162 -68 393 -66 555
6 l46 20 -95 -96 c-168 -170 -300 -239 -460 -239 -66 0 -96 5 -132 21 -25 12
-49 19 -52 15 -12 -11 -5 -23 21 -35 15 -6 38 -22 51 -34 41 -38 114 -56 211
-51 124 6 211 50 340 173 l95 90 -49 -65 c-171 -225 -354 -335 -557 -334 -66
0 -88 -3 -88 -13 0 -10 24 -13 94 -13 110 0 196 23 296 77 77 43 232 194 305
298 50 72 80 109 53 65 -129 -211 -278 -478 -278 -500 0 -23 21 -7 43 33 13
23 68 119 123 212 54 94 136 235 181 314 46 80 83 140 83 134 0 -6 34 -16 75
-22 73 -12 75 -13 130 -73 30 -34 86 -111 124 -172 83 -134 104 -177 64 -126
-96 119 -198 230 -240 261 -73 55 -96 69 -110 69 -26 0 -12 -26 26 -47 112
-64 345 -338 376 -441 13 -46 -35 0 -67 63 -109 217 -244 341 -391 361 -39 6
-47 4 -47 -10 0 -10 9 -16 25 -16 14 0 25 -5 25 -11 0 -15 82 -120 154 -196
33 -36 100 -97 149 -136 48 -38 92 -77 97 -86 7 -14 3 -16 -31 -13 -21 2 -58
-3 -82 -11 -44 -15 -104 -11 -212 13 -26 6 -50 8 -53 6 -3 -3 24 -19 59 -36
60 -28 71 -30 189 -30 l125 -1 -25 -21 c-56 -47 -147 -80 -235 -86 -62 -3 -85
-8 -85 -18 0 -10 16 -14 58 -14 98 0 224 42 280 93 32 30 27 7 -18 -83 -67
-133 -155 -203 -257 -204 -35 -1 -53 -5 -53 -13 0 -7 9 -13 19 -13 11 0 21 -5
23 -12 6 -17 119 -22 162 -8 44 14 89 51 127 104 33 44 36 42 14 -11 -40 -95
-138 -186 -218 -202 -40 -8 -48 -31 -10 -31 38 1 102 31 147 70 54 48 97 115
128 200 15 41 27 72 27 68 1 -3 -8 -66 -19 -140 -24 -159 -23 -148 -5 -148 8
0 15 6 15 13 0 6 14 99 30 205 16 106 32 221 36 256 l6 63 122 17 c66 10 129
20 139 23 11 3 17 -1 17 -11 0 -12 12 -16 53 -18 43 -1 45 -2 15 -5 -26 -3
-38 -9 -38 -20 0 -13 9 -14 56 -8 72 9 150 32 192 56 l34 19 -21 -29 c-25 -34
-26 -41 -8 -41 8 0 40 27 72 60 l57 61 134 20 133 20 29 -21 c16 -12 48 -24
72 -27 l43 -6 -56 -29 c-31 -15 -64 -40 -74 -54 -9 -14 -42 -37 -72 -50 -31
-14 -138 -64 -239 -111 l-182 -86 -51 22 c-29 11 -56 21 -60 21 -18 0 -8 -27
14 -38 20 -10 18 -11 -18 -12 -57 -2 -116 -22 -107 -36 5 -9 24 -8 72 2 91 19
114 17 65 -7 -22 -10 -48 -19 -57 -19 -10 0 -22 -9 -27 -19 -6 -11 -39 -35
-73 -54 -87 -49 -383 -245 -495 -328 l-93 -69 -118 90 c-64 49 -151 117 -192
150 -41 34 -102 77 -135 97 -33 20 -144 94 -246 165 -103 70 -192 128 -198
128 -32 0 0 -34 84 -90 53 -35 94 -64 92 -66 -1 -2 -36 7 -77 20 -144 46 -319
72 -327 50 -2 -8 26 -16 79 -23 123 -18 258 -56 377 -106 83 -35 142 -71 270
-165 101 -73 186 -143 220 -182 56 -63 53 -63 -30 0 -67 51 -293 176 -394 217
-139 58 -335 93 -335 61 0 -9 20 -15 63 -19 139 -14 280 -67 490 -187 144 -82
227 -144 268 -202 l23 -31 -43 7 c-34 5 -63 23 -140 87 -169 141 -265 197
-406 234 -110 28 -328 15 -342 -22 -8 -21 0 -24 34 -11 26 10 33 8 50 -9 28
-28 189 -114 298 -159 124 -51 211 -80 339 -114 99 -27 146 -49 146 -72 0 -4
-10 -8 -22 -8 -36 -1 -103 -35 -162 -83 -49 -40 -66 -47 -195 -78 -77 -19
-141 -37 -141 -41 0 -14 165 -9 213 6 25 7 58 22 74 33 15 11 60 31 98 45 39
14 87 33 108 42 l38 17 -23 -43 c-13 -23 -61 -81 -108 -128 -69 -70 -102 -95
-175 -131 -49 -25 -100 -48 -112 -51 -13 -3 -23 -12 -23 -18 0 -36 190 50 283
127 69 58 135 137 177 212 l31 56 -6 -105 c-6 -118 -25 -219 -55 -300 -45
-119 -150 -231 -250 -267 -69 -24 -67 -46 3 -38 203 25 313 125 364 332 17 72
23 258 11 353 l-7 55 16 -50 c12 -39 16 -98 17 -265 1 -214 1 -215 -28 -290
-51 -132 -133 -238 -226 -290 -11 -7 -12 -12 -3 -20 8 -9 22 -5 55 18 24 17
50 37 57 45 8 11 41 17 109 22 53 3 115 8 137 11 30 3 18 -4 -50 -29 -88 -33
-271 -123 -309 -152 -15 -11 -17 -18 -9 -26 9 -9 19 -6 40 9 99 70 337 165
496 198 113 23 476 25 557 2 l55 -16 -102 -1 c-177 -2 -486 -65 -623 -127 -78
-36 -150 -84 -150 -100 0 -21 17 -17 54 11 51 39 177 93 278 120 219 57 500
86 567 58 l25 -10 -29 -19 c-25 -17 -56 -20 -245 -25 -233 -7 -283 -16 -400
-70 -36 -17 -88 -48 -117 -70 -83 -62 -156 -170 -115 -169 4 0 18 17 31 37 12
20 26 31 30 26 4 -7 37 -6 103 3 188 26 362 76 559 160 95 41 134 53 154 48
23 -6 24 -8 12 -23 -27 -30 -48 -83 -63 -153 -16 -74 -45 -124 -143 -247 -28
-35 -49 -66 -47 -69 7 -6 94 59 134 101 18 19 43 58 55 88 13 30 44 95 71 144
27 50 52 96 56 104 11 21 23 -61 22 -156 -1 -104 -30 -214 -83 -312 -24 -45
-36 -78 -31 -83 22 -22 104 140 128 253 16 74 16 269 0 314 -12 32 38 -29 104
-129 33 -49 74 -126 92 -170 28 -72 32 -92 32 -182 1 -97 0 -104 -36 -173 -20
-39 -32 -74 -27 -77 15 -9 117 95 139 141 50 103 45 226 -15 352 -44 94 -82
149 -164 236 -62 67 -63 69 -17 32 61 -50 210 -225 255 -299 80 -134 111 -301
77 -418 -20 -68 -20 -68 -1 -68 19 0 35 58 42 155 13 190 -70 362 -282 585
l-80 84 125 -105 c168 -142 329 -269 340 -269 28 0 13 24 -42 67 -35 26 -158
127 -273 223 -116 96 -227 189 -248 205 l-38 30 33 93 33 94 62 35 c35 19 129
54 214 79 172 50 220 57 109 15 -171 -64 -286 -127 -362 -199 -33 -31 -49 -62
-33 -62 3 0 36 25 73 56 103 86 355 200 482 219 l45 6 -25 -20 c-14 -11 -32
-21 -41 -21 -40 0 -220 -54 -278 -83 -84 -41 -178 -128 -207 -192 -14 -29 -20
-53 -15 -58 12 -12 31 0 31 18 0 7 12 16 28 19 56 14 310 148 392 207 46 34
94 65 107 70 21 8 22 6 13 -17 -6 -14 -10 -53 -10 -86 0 -51 -7 -76 -45 -156
-25 -52 -43 -97 -41 -100 6 -5 63 59 88 98 10 15 22 50 28 79 5 28 17 77 26
109 l17 57 20 -45 c27 -61 34 -190 14 -258 -8 -28 -12 -54 -9 -57 13 -13 22
-1 37 47 22 76 19 180 -8 260 l-23 66 41 -28 c69 -48 161 -153 179 -206 18
-55 21 -111 6 -150 -8 -20 -8 -30 1 -38 8 -8 13 -8 16 2 3 7 11 19 19 27 25
25 44 82 44 132 -1 68 -30 126 -100 194 l-61 59 53 -32 c123 -75 210 -197 211
-299 1 -36 5 -49 15 -49 23 0 11 124 -18 179 -26 52 -109 142 -157 172 -19 12
-32 23 -30 25 1 2 48 -14 103 -36 101 -40 138 -48 132 -29 -3 9 -79 42 -408
174 l-105 42 3 64 c2 35 8 66 13 67 5 2 9 11 9 19 0 8 13 32 29 52 30 38 75
122 97 181 l13 35 0 -31 c1 -17 8 -53 16 -80 8 -27 15 -75 15 -106 0 -47 3
-58 16 -58 15 0 16 11 12 93 l-5 92 17 -51 c10 -27 23 -83 30 -122 9 -47 18
-72 27 -72 7 0 13 4 13 9 0 28 -34 182 -50 225 l-19 51 31 -35 c36 -42 94
-163 103 -217 11 -60 15 -73 29 -73 7 0 30 -37 50 -82 20 -46 75 -154 122
-242 l86 -158 -24 -25 c-13 -13 -79 -75 -148 -136 -115 -103 -511 -499 -574
-574 -15 -18 -24 -38 -20 -44 4 -7 41 24 98 80 l92 92 -48 -98 c-63 -128 -114
-283 -96 -294 9 -6 23 24 53 110 44 124 97 232 170 341 56 83 289 313 375 370
l65 43 -54 -54 c-73 -74 -211 -251 -276 -355 -78 -123 -145 -304 -113 -304 9
0 24 32 41 83 15 45 47 118 72 162 63 110 204 294 295 386 70 71 160 132 160
109 0 -26 -37 -97 -59 -115 -155 -122 -259 -237 -320 -354 -54 -105 -71 -169
-71 -272 0 -96 5 -119 26 -119 13 0 12 35 -2 80 -3 8 -2 11 2 8 3 -4 24 14 47
40 119 138 248 342 323 511 38 87 55 112 86 135 l38 27 0 -43 c1 -54 18 -102
57 -159 32 -46 44 -98 59 -264 l8 -80 12 40 c20 63 17 188 -5 243 -22 55 -69
252 -61 252 14 0 50 -47 50 -64 0 -13 5 -17 20 -13 43 11 174 -209 200 -335 7
-38 16 -58 26 -58 18 0 18 2 -6 94 -26 104 -90 222 -161 300 -35 38 -59 73
-59 86 0 20 3 22 37 15 73 -13 199 -57 267 -93 125 -65 218 -180 233 -287 4
-29 11 -45 20 -45 23 0 13 193 -15 253 -40 90 -156 178 -289 222 -77 24 -80
40 -7 31 215 -25 404 -137 483 -285 18 -34 39 -61 47 -61 12 0 12 5 -1 38 -72
175 -270 303 -518 337 -30 4 -47 11 -44 18 4 14 93 24 227 26 105 1 140 8 140
25 0 8 -45 9 -170 2 -94 -5 -173 -7 -175 -4 -3 3 2 38 11 79 9 41 18 144 21
229 3 85 10 163 15 174 9 17 11 16 29 -13 10 -17 40 -46 67 -65 44 -32 67 -65
141 -201 10 -19 10 -19 11 -1 0 47 -35 139 -69 179 -65 76 -103 128 -98 134 3
3 28 -3 56 -12 63 -21 158 -89 191 -138 14 -20 31 -37 38 -37 27 0 9 35 -50
94 -66 66 -148 112 -221 125 l-42 7 85 23 c121 33 212 32 283 -3 31 -15 69
-42 86 -61 45 -52 61 -47 41 12 -8 24 -8 25 3 9 34 -52 50 -67 60 -57 6 6 -4
32 -32 76 -39 61 -85 155 -77 155 13 0 76 -32 98 -50 15 -12 32 -19 38 -15 13
8 6 -51 -35 -290 -8 -49 -15 -142 -15 -206 0 -103 -8 -249 -25 -451 -5 -55 -3
-68 8 -68 15 0 26 74 28 190 l1 55 14 -50 c52 -185 113 -335 135 -335 15 0 7
28 -36 133 -48 115 -84 262 -91 367 -8 119 28 475 57 558 11 35 23 62 25 60 2
-2 -2 -35 -7 -73 -12 -77 -5 -341 12 -468 17 -132 85 -317 115 -317 19 0 18 4
-16 76 -16 35 -39 98 -50 141 -25 97 -44 343 -37 488 5 103 26 197 47 210 5 3
14 -12 21 -34 10 -33 9 -60 -7 -153 -22 -133 -25 -328 -5 -408 24 -100 84
-210 150 -275 48 -47 63 -57 73 -47 10 10 7 17 -15 35 -27 22 -27 23 -31 177
-6 202 -37 381 -97 568 -15 44 -19 74 -14 102 l7 40 48 -43 c35 -31 69 -50
119 -66 60 -19 83 -34 164 -106 51 -46 101 -94 109 -107 28 -41 29 -12 2 38
-44 80 -89 128 -151 162 -32 18 -98 62 -146 97 l-89 65 74 0 c136 0 309 -60
422 -146 47 -36 70 -39 50 -6 -18 29 -112 89 -187 121 -99 41 -218 63 -316 59
-45 -2 -81 -2 -81 -1 0 1 37 21 83 46 94 51 195 92 249 102 l37 7 32 -71 c17
-39 38 -71 45 -71 20 0 18 10 -16 82 -26 54 -28 63 -14 66 10 2 42 -21 78 -56
67 -65 163 -142 177 -142 23 0 5 29 -38 63 -27 20 -73 59 -103 87 l-55 49 41
1 c62 0 167 -36 219 -75 25 -19 50 -35 55 -35 16 0 11 28 -7 42 -10 7 -25 26
-33 41 -8 16 -37 45 -65 65 -27 20 -52 39 -55 43 -3 3 -34 30 -69 59 -47 39
-60 55 -50 61 25 16 56 10 130 -25 90 -42 149 -55 149 -33 0 9 -13 17 -35 21
-33 6 -53 22 -42 32 3 3 34 -6 68 -20 47 -19 65 -22 71 -13 9 15 -40 42 -107
58 -50 12 -50 12 -113 119 -85 143 -177 264 -293 385 -68 71 -99 110 -104 134
-7 33 -6 33 19 27 60 -15 115 -17 170 -7 64 12 130 -1 285 -54 118 -40 106
-15 -25 51 -55 28 -89 37 -155 44 -124 12 -253 32 -262 40 -12 10 119 67 198
86 53 12 100 15 190 11 66 -3 130 -8 143 -12 16 -5 22 -3 22 8 0 37 -219 50
-358 21 -42 -9 -114 -33 -160 -54 l-83 -39 43 62 c24 34 77 97 118 141 156
165 295 218 484 184 28 -5 31 19 4 27 -13 4 -48 19 -78 33 -46 23 -68 27 -137
26 -73 0 -89 -4 -156 -37 -123 -61 -236 -185 -325 -357 -42 -81 -32 -40 14 56
54 114 164 273 237 341 94 88 211 144 312 151 54 3 75 8 75 18 0 35 -166 7
-268 -45 -124 -64 -210 -153 -312 -322 -70 -118 -72 -121 -49 -59 165 430 165
430 144 430 -8 0 -17 -6 -20 -12 -6 -20 -135 -362 -208 -553 l-65 -170 -87 -3
c-57 -2 -92 1 -101 9 -11 9 -18 9 -26 1 -15 -15 -558 -17 -558 -3 0 11 -109
31 -181 32 l-54 1 55 14 c54 15 185 14 223 -1 11 -5 17 -2 17 8 0 23 -73 47
-148 48 l-67 1 45 10 c25 5 71 7 103 5 40 -2 57 0 57 9 0 27 -122 29 -218 4
-29 -8 -32 -7 -21 6 7 9 9 18 3 24 -6 6 -55 -22 -124 -70 -63 -44 -122 -78
-130 -75 -8 2 -91 13 -185 25 -163 20 -324 60 -352 87 -7 6 -48 14 -90 18 -43
3 -89 8 -102 11 -22 5 -23 6 -5 19 11 8 31 15 45 15 15 0 39 10 54 22 39 31
85 107 85 141 0 16 33 97 74 180 113 231 213 504 257 702 l12 53 76 6 c42 3
126 5 186 5 61 -1 160 3 220 9 61 6 154 14 208 18 77 5 97 9 97 21 0 13 -12
14 -72 9 l-73 -7 55 24 c80 35 158 75 164 86 16 25 -20 18 -86 -15 -166 -84
-251 -103 -473 -109 -140 -3 -164 -2 -107 5 223 29 472 111 472 156 0 19 2 19
-77 -20 -96 -48 -129 -55 -58 -12 60 36 135 110 135 134 0 19 -28 14 -39 -7
-7 -12 -18 -17 -34 -14 -58 11 -317 -52 -458 -112 -46 -19 -92 -35 -102 -35
-18 0 -17 1 2 26 11 14 25 50 31 80 9 42 25 71 70 128 32 41 63 77 69 81 27
16 8 24 -20 8 -65 -38 -108 -85 -143 -156 -20 -39 -45 -83 -55 -96 l-19 -25
-7 56 c-9 70 7 150 45 225 27 54 30 73 10 73 -5 0 -22 -28 -39 -62 -38 -77
-55 -182 -42 -258 l9 -55 -30 35 c-53 62 -108 152 -123 204 -21 71 -19 115 10
172 13 26 21 52 16 57 -11 11 -74 -49 -97 -93 -29 -56 -23 -136 14 -212 17
-35 47 -83 67 -108 22 -26 8 -15 -33 27 -39 39 -85 96 -101 125 -29 50 -31 59
-31 160 l0 107 43 11 c23 6 87 24 142 40 55 15 143 38 195 50 52 12 133 36
180 54 47 18 174 61 284 96 174 57 221 79 204 95 -2 2 -55 -14 -117 -36 -63
-22 -115 -38 -117 -36 -2 2 28 26 68 52 120 82 271 235 232 235 -3 0 -41 -33
-85 -73 -99 -93 -211 -173 -319 -231 -130 -69 -472 -167 -575 -165 -24 0 -20
3 20 14 119 32 381 152 494 225 120 78 214 171 194 191 -5 5 -41 -22 -84 -64
-87 -83 -190 -147 -372 -229 -197 -89 -329 -128 -378 -110 -19 7 -18 9 10 36
23 22 49 32 123 47 276 57 462 153 564 291 37 51 84 150 84 178 0 23 -29 8
-35 -17 -5 -24 -15 -31 -66 -47 -143 -45 -410 -199 -578 -334 -64 -51 -125
-82 -138 -69 -2 2 4 21 14 43 12 28 17 64 16 129 -2 96 12 149 76 290 17 38
29 70 26 73 -9 9 -74 -71 -101 -125 -14 -29 -30 -80 -34 -115 -9 -62 -54 -245
-63 -254 -7 -8 -46 91 -62 158 -20 83 -19 219 1 293 27 100 28 108 13 103 -23
-7 -51 -108 -56 -208 -7 -115 14 -231 57 -327 34 -75 29 -74 -82 21 -208 178
-295 371 -243 542 18 61 18 64 1 64 -8 0 -17 -13 -21 -29z m14 -313 c37 -95
146 -224 296 -346 l40 -33 -35 17 c-126 61 -269 195 -324 304 -43 87 -53 145
-36 219 l13 56 12 -80 c7 -44 22 -106 34 -137z m1185 10 c-9 -18 -49 -65 -89
-104 -56 -56 -94 -82 -166 -118 -90 -44 -222 -87 -305 -101 l-39 -6 35 31 c42
38 211 153 295 200 60 34 263 129 278 130 4 0 0 -15 -9 -32z m-1977 -116 c6
-88 -12 -187 -51 -282 -27 -68 -105 -202 -143 -247 l-24 -28 6 60 c14 132 76
334 171 563 23 56 34 38 41 -66z m1240 -112 c-3 -27 -13 -62 -22 -77 -18 -32
-19 -37 6 75 15 66 24 67 16 2z m5 -172 c-9 -9 -15 -9 -24 0 -9 9 -7 12 12 12
19 0 21 -3 12 -12z m-62 -133 c35 -18 35 -17 19 -197 -10 -105 -14 -126 -25
-117 -8 6 -21 8 -31 5 -15 -6 -13 -10 11 -30 l29 -22 -27 -295 -27 -294 -43
-45 c-24 -25 -57 -64 -73 -86 l-29 -42 3 62 c2 33 8 92 14 129 8 49 8 72 0 80
-14 14 -30 -28 -41 -108 -7 -50 -8 -39 -6 63 1 92 -1 122 -10 122 -19 0 -27
-74 -22 -200 2 -60 3 -110 2 -110 -1 0 -17 39 -35 88 -28 76 -33 100 -33 185
-1 65 -5 97 -12 97 -15 0 -34 -75 -35 -142 -1 -45 -3 -49 -9 -23 -4 17 -8 58
-9 93 -1 50 -4 62 -17 62 -15 0 -16 -10 -11 -84 3 -47 17 -116 30 -155 13 -39
22 -71 21 -71 -1 0 -27 51 -56 113 -30 61 -73 145 -97 186 l-41 74 59 53 c32
30 81 71 108 92 26 21 93 88 148 148 55 60 128 138 163 175 58 62 74 89 52 89
-5 0 -28 -19 -50 -42 l-41 -43 24 50 c13 28 32 74 41 103 10 28 20 52 22 52 3
0 18 -7 34 -15z m-325 -185 c-9 -28 -34 -76 -55 -108 -38 -56 -180 -205 -180
-188 0 26 118 216 199 320 52 66 63 58 36 -24z m-1245 21 c23 -33 58 -112 42
-96 -14 14 -75 125 -69 125 3 0 15 -13 27 -29z m1798 -166 c11 -22 41 -69 66
-105 l47 -65 -50 55 c-85 93 -130 196 -115 263 7 29 8 26 19 -38 7 -39 21 -88
33 -110z m-2303 40 c107 -50 165 -60 364 -60 159 0 178 -2 141 -12 -161 -47
-368 -40 -493 15 -58 26 -123 85 -149 136 l-20 40 51 -46 c29 -26 76 -59 106
-73z m628 7 c-3 -12 -12 -22 -19 -22 -12 0 -11 5 2 25 19 30 26 28 17 -3z
m129 -42 c-10 -17 -20 -26 -26 -20 -6 6 0 17 15 29 13 11 25 20 26 21 1 0 -6
-13 -15 -30z m1487 -94 c52 -55 53 -58 16 -31 -102 74 -105 76 -105 108 l0 31
16 -24 c9 -14 42 -52 73 -84z m-1541 52 c-4 -11 -40 -26 -98 -42 -14 -4 0 7
30 23 61 33 74 37 68 19z m2392 -54 c-22 -25 -97 -65 -163 -86 -70 -22 -316
-38 -285 -19 51 33 358 118 432 120 25 1 27 -1 16 -15z m-806 -90 c71 -52 142
-102 158 -112 15 -9 28 -21 28 -26 0 -6 -73 -209 -162 -453 -133 -364 -165
-443 -180 -443 -10 0 -39 -19 -65 -42 -44 -41 -46 -42 -39 -16 3 15 0 45 -8
68 -13 38 -12 53 18 198 l32 157 52 28 c29 16 52 35 52 44 0 9 -6 13 -15 9
-21 -7 -19 -4 15 50 27 43 31 64 12 64 -4 0 -28 -30 -52 -67 -36 -55 -46 -64
-48 -46 -2 12 6 39 17 61 14 27 17 42 10 49 -8 8 -6 56 5 158 9 81 19 208 23
281 3 74 9 134 12 134 3 0 64 -43 135 -96z m-1205 -38 c45 -23 129 -49 196
-60 17 -2 -2 -3 -40 -1 -96 5 -178 37 -232 91 -23 24 -43 49 -43 55 0 7 16 -4
36 -25 19 -20 57 -47 83 -60z m-299 27 c0 -32 -5 -28 -14 10 -4 19 -3 26 4 22
5 -3 10 -18 10 -32z m607 -15 c-3 -8 -6 -5 -6 6 -1 11 2 17 5 13 3 -3 4 -12 1
-19z m-492 -110 c42 -52 44 -57 25 -63 -31 -10 -24 -25 13 -25 30 0 44 -15
215 -231 139 -175 188 -245 202 -285 l19 -54 -65 57 c-35 32 -78 75 -95 96
-26 32 -59 49 -59 31 0 -13 42 -74 63 -91 12 -10 29 -27 37 -38 26 -33 -48 23
-115 87 -41 40 -62 55 -70 47 -7 -7 11 -30 60 -77 39 -38 84 -78 100 -90 29
-22 29 -23 5 -17 -54 13 -168 76 -218 121 -31 27 -57 43 -62 38 -14 -15 55
-100 112 -139 29 -19 49 -35 44 -35 -13 0 -95 49 -137 82 -58 45 -83 34 -31
-14 42 -40 111 -80 180 -104 l63 -22 -38 -4 c-33 -4 -57 5 -169 66 -72 39
-162 85 -200 100 -38 16 -70 30 -71 30 -2 1 32 165 51 247 9 36 20 115 26 175
5 60 13 136 17 168 l6 59 24 -29 c13 -16 44 -55 68 -86z m1924 80 c-138 -29
-306 -32 -267 -4 9 7 69 11 158 11 83 0 129 -3 109 -7z m-2222 -55 c36 -78 43
-207 17 -335 l-18 -93 -13 60 c-23 107 -35 425 -17 425 3 0 17 -25 31 -57z
m1928 -3 c13 -6 15 -9 5 -9 -8 0 -22 4 -30 9 -18 12 -2 12 25 0z m-1371 -50
c62 0 38 -7 -49 -14 -76 -6 -81 -5 -97 17 l-16 23 61 -13 c34 -7 80 -13 101
-13z m-1613 -115 c60 -73 110 -168 138 -258 24 -78 55 -237 48 -244 -8 -8
-142 202 -195 305 -44 86 -106 234 -127 301 -7 23 -5 22 40 -10 26 -19 70 -61
96 -94z m2102 -297 l177 -413 0 -82 c0 -46 -3 -83 -6 -83 -3 0 -37 28 -75 63
-38 34 -74 64 -80 66 -6 2 -44 54 -84 117 -65 99 -73 117 -66 141 5 16 14 57
20 93 7 36 15 75 18 88 4 16 1 22 -11 22 -9 0 -16 -8 -17 -17 0 -14 -2 -15 -6
-3 -3 8 -14 39 -25 68 -11 29 -26 52 -34 52 -18 0 -18 -14 2 -51 8 -17 21 -60
29 -95 11 -53 11 -73 1 -107 l-12 -42 -7 70 c-9 85 -35 168 -50 162 -7 -2 -11
-12 -10 -22 1 -19 -1 -17 -41 38 -31 43 -50 40 -41 -6 9 -39 9 -39 -92 88 -44
55 -101 125 -126 154 -26 30 -44 58 -40 61 5 4 91 15 193 24 102 10 187 20
189 22 2 2 7 4 11 4 3 0 85 -186 183 -412z m367 52 c0 -24 -8 -35 -40 -56 -22
-15 -43 -25 -45 -22 -5 5 72 108 81 108 2 0 4 -13 4 -30z m-625 -70 c21 -41
18 -60 -5 -30 -18 23 -27 60 -15 60 2 0 11 -13 20 -30z m454 -185 c0 -27 -4
-59 -8 -70 -7 -18 -9 -17 -15 10 -4 17 -22 73 -41 125 l-34 95 50 -55 c45 -51
49 -59 48 -105z m121 150 c0 -6 -62 -45 -72 -45 -20 0 -4 23 25 35 35 15 47
18 47 10z m40 -23 c0 -5 -12 -14 -27 -21 l-28 -12 25 21 c29 22 30 23 30 12z
m-958 -264 c197 -116 357 -212 356 -213 -2 -1 -100 22 -218 52 -197 49 -652
133 -720 133 -16 0 -31 4 -34 9 -3 5 25 35 62 67 37 32 93 82 125 111 32 29
61 53 64 53 4 0 168 -95 365 -212z m944 115 c-12 -158 -18 -193 -31 -193 -7 0
-24 -13 -38 -29 -40 -47 -47 -26 -47 136 l0 142 48 15 c78 24 76 27 68 -71z
m-1506 41 c0 -11 -128 -65 -181 -76 -57 -12 -114 -6 -142 15 -14 10 2 12 90
12 108 0 117 3 231 54 1 0 2 -1 2 -5z m941 -47 c-1 -12 -15 -9 -19 4 -3 6 1
10 8 8 6 -3 11 -8 11 -12z m-1552 -175 c-24 -46 -48 -86 -52 -89 -5 -3 3 18
18 46 14 29 33 84 42 124 l17 72 10 -34 c9 -31 6 -43 -35 -119z m121 83 c0 -1
-11 -5 -24 -7 -20 -4 -25 0 -28 23 l-4 28 28 -20 c15 -11 28 -22 28 -24z m400
-10 c-23 -24 -50 -33 -50 -17 0 7 54 39 69 41 3 1 -6 -10 -19 -24z m-711 -12
c59 -25 27 -24 -45 2 -52 18 -59 23 -29 18 22 -3 55 -12 74 -20z m111 6 c0 -5
-4 -9 -10 -9 -5 0 -10 7 -10 16 0 8 5 12 10 9 6 -3 10 -10 10 -16z m1750 -64
c52 -46 95 -91 94 -100 -4 -80 -2 -75 -30 -65 -14 6 -45 10 -70 10 -39 0 -55
8 -137 69 -52 39 -130 93 -173 120 l-79 51 150 0 150 -1 95 -84z m3080 56 c21
-6 18 -9 -25 -15 -166 -26 -324 -148 -466 -359 -66 -98 -78 -94 -24 8 135 260
351 413 515 366z m-4350 -96 c-19 -20 -27 -45 -14 -45 3 0 22 14 43 30 l38 31
549 -86 c345 -54 550 -91 553 -98 2 -7 24 -32 47 -56 24 -24 44 -47 44 -51 0
-9 -43 -16 -195 -31 l-120 -12 -35 43 c-69 84 -174 179 -187 169 -8 -7 -29 -5
-62 5 -45 13 -51 13 -51 0 0 -8 8 -17 18 -20 72 -23 144 -61 173 -90 l34 -36
-52 35 c-29 20 -68 41 -88 47 -38 12 -71 7 -60 -10 4 -6 -11 -10 -39 -10 -25
0 -46 -4 -46 -10 0 -5 7 -10 16 -10 8 0 32 -13 52 -29 20 -17 63 -43 94 -59
l56 -30 -34 -7 c-19 -3 -66 -3 -105 1 -60 6 -69 4 -69 -10 0 -10 8 -16 23 -16
36 -1 0 -16 -56 -24 -42 -6 -261 -57 -308 -72 -17 -5 -55 53 -132 198 -20 37
-55 95 -79 129 -56 81 -108 158 -108 162 0 2 27 -1 60 -6 l61 -10 -21 -22z
m-532 -52 c-92 -130 -238 -251 -350 -289 -63 -22 -169 -23 -216 -3 -33 14 -32
14 40 15 154 4 302 78 461 234 51 49 93 90 95 90 2 0 -12 -21 -30 -47z m281
-47 c94 -48 187 -152 256 -286 l18 -34 -49 41 c-92 78 -300 303 -280 303 4 0
28 -11 55 -24z m928 -92 c-3 -3 -12 -4 -19 -1 -8 3 -5 6 6 6 11 1 17 -2 13 -5z
m60 -66 c18 -11 32 -23 29 -25 -3 -3 -29 9 -58 26 -29 18 -42 29 -29 26 13 -4
39 -16 58 -27z m88 -29 c22 -22 33 -37 25 -34 -14 6 -77 75 -68 75 2 0 22 -18
43 -41z m2888 -147 c-4 -36 -10 -52 -20 -52 -9 0 -13 6 -10 14 3 8 11 32 18
55 16 53 20 48 12 -17z m292 18 c39 -8 39 -8 -15 -8 -30 0 -71 6 -90 14 l-35
13 50 -5 c28 -4 68 -10 90 -14z m-1829 -8 c-21 -2 -42 0 -47 5 -4 4 13 6 39 3
l47 -5 -39 -3z m1652 -27 c-9 -9 -30 14 -23 25 6 9 10 8 17 -4 6 -10 8 -19 6
-21z m-3158 14 c-14 -6 -54 -12 -90 -14 l-65 -4 70 13 c89 17 120 19 85 5z
m2087 4 c-20 -2 -52 -2 -70 0 -17 2 0 4 38 4 39 0 53 -2 32 -4z m-2577 -51 c0
-15 -2 -15 -10 -2 -13 20 -13 33 0 25 6 -3 10 -14 10 -23z m2132 3 c81 -8 150
-15 153 -15 3 0 5 -9 5 -21 0 -11 4 -29 10 -39 9 -17 1 -22 -70 -49 -90 -35
-93 -35 -155 -19 -31 8 -45 17 -45 29 0 22 -43 74 -80 96 -22 13 -27 20 -18
30 5 7 20 11 32 8 11 -3 87 -12 168 -20z m1553 -100 c29 -103 84 -237 125
-302 33 -53 36 -64 24 -74 -18 -15 -23 -9 -104 132 -80 139 -129 255 -137 320
l-6 53 41 -35 c32 -27 44 -46 57 -94z m-215 105 c0 -5 -8 -10 -17 -10 -15 0
-16 2 -3 10 19 12 20 12 20 0z m-113 -34 c-72 -30 -99 -48 -160 -105 l-49 -46
56 82 c61 89 55 86 176 91 33 1 31 0 -23 -22z m-897 -42 c23 -25 39 -48 36
-51 -9 -9 -66 38 -81 68 -22 42 -4 36 45 -17z m298 35 c103 0 247 4 321 7 114
6 133 5 126 -7 -22 -36 -228 -345 -235 -353 -13 -13 -482 125 -476 140 3 7 -7
22 -22 34 l-27 20 40 -6 c22 -3 67 -17 101 -30 71 -28 74 -28 74 -11 0 8 -16
22 -35 33 -42 22 -46 39 -8 29 45 -11 48 -11 48 4 0 15 -55 39 -91 40 -18 1
-36 19 -98 100 -9 12 -3 13 42 7 30 -4 138 -7 240 -7z m737 -26 c9 -20 18 -48
22 -61 6 -24 5 -24 -25 -8 -18 9 -55 16 -89 16 -71 0 -134 -28 -218 -95 -60
-48 -60 -48 19 33 82 83 151 126 229 142 23 4 43 8 44 9 2 1 10 -16 18 -36z
m144 -181 c18 -35 59 -109 92 -164 32 -55 59 -103 59 -107 0 -4 -13 -19 -28
-34 l-29 -27 -12 27 c-51 111 -132 332 -145 396 -22 107 -19 124 8 42 12 -38
37 -99 55 -133z m-2796 37 l-155 -131 -36 14 c-19 7 -37 18 -39 23 -3 11 368
235 379 228 4 -2 -63 -62 -149 -134z m3081 -119 c65 -86 176 -259 176 -274 0
-3 -16 -6 -36 -6 -30 0 -46 10 -101 63 -104 99 -164 200 -224 377 l-28 85 70
-75 c39 -41 103 -118 143 -170z m-2873 206 c-13 -13 -28 -40 -35 -59 -6 -20
-54 -82 -105 -139 -52 -57 -126 -145 -165 -195 -39 -51 -72 -89 -73 -85 -1 4
6 56 15 116 l18 109 174 138 c167 132 220 168 171 115z m-1136 -74 c-45 -143
-126 -237 -222 -257 -45 -9 -42 8 4 24 65 24 143 114 193 223 25 53 46 95 48
93 1 -1 -9 -38 -23 -83z m2465 78 c0 -5 -4 -10 -9 -10 -6 0 -13 5 -16 10 -3 6
1 10 9 10 9 0 16 -4 16 -10z m-302 -96 c5 -3 22 -188 18 -192 -2 -1 -44 19
-94 45 -85 45 -91 51 -101 89 -6 22 -29 61 -51 86 -22 25 -40 51 -40 56 0 8
249 -70 268 -84z m1380 61 c1 -1 -21 -5 -50 -8 -66 -8 -158 -54 -229 -115
l-54 -46 50 53 c58 61 119 100 184 117 38 10 86 9 99 -1z m65 -48 c25 -11 34
-27 67 -127 21 -64 54 -148 74 -188 20 -39 36 -76 36 -81 0 -6 -48 -52 -107
-103 -59 -51 -153 -134 -209 -185 l-101 -92 -23 92 c-25 106 -72 232 -124 335
-47 94 -47 106 1 81 21 -10 50 -19 65 -19 41 0 91 -23 165 -76 35 -25 69 -44
75 -42 14 5 -105 128 -123 128 -8 0 -51 18 -97 39 -89 42 -89 46 2 57 60 7
136 -6 214 -37 29 -12 55 -19 59 -16 13 14 -22 37 -85 58 -70 24 -197 31 -257
15 l-30 -8 25 27 c39 42 146 115 198 136 54 21 134 24 175 6z m-1163 -11 c0
-12 -7 -12 -37 -4 -52 14 -53 18 -5 18 30 0 42 -4 42 -14z m95 -35 c17 -11 17
-12 2 -7 -11 3 -30 9 -43 12 -16 4 -24 13 -24 27 l0 20 23 -20 c12 -11 31 -26
42 -32z m-1375 -131 c-23 -93 -54 -190 -78 -243 -40 -85 -42 -87 -75 -87 -19
0 -62 -9 -96 -20 -34 -11 -80 -24 -102 -30 -40 -11 -50 -37 -13 -33 10 1 14 0
7 -3 -6 -3 -28 -25 -49 -50 -26 -32 -33 -49 -26 -56 8 -8 26 5 62 45 50 55
135 107 174 107 12 0 -3 -13 -40 -35 -61 -36 -124 -98 -124 -122 0 -22 12 -15
65 35 41 39 44 40 14 7 -63 -69 -96 -155 -59 -155 5 0 10 6 10 14 0 12 110 82
115 73 0 -1 -30 -93 -68 -205 l-70 -203 -51 68 c-28 37 -86 111 -129 166 -43
54 -77 102 -75 106 2 4 129 177 283 383 268 360 281 375 320 384 22 5 41 9 42
9 1 0 -16 -70 -37 -155z m1098 84 c2 -56 -12 -44 -23 20 -6 31 -5 38 6 34 9
-3 15 -23 17 -54z m226 -35 c52 -28 61 -30 70 -17 10 14 27 11 140 -18 71 -18
174 -41 230 -50 55 -9 104 -20 108 -23 3 -3 12 -82 18 -175 6 -93 15 -188 19
-210 l8 -41 -356 179 c-280 141 -362 187 -386 215 l-30 36 38 -32 c56 -49 98
-68 108 -51 6 8 3 16 -9 21 -10 5 -26 32 -36 60 -10 29 -35 77 -55 107 -20 30
-39 60 -43 66 -10 15 100 -27 176 -67z m-617 7 c18 -9 46 -16 64 -16 22 0 65
-22 145 -72 63 -40 114 -77 114 -83 0 -5 4 -16 9 -24 8 -12 12 -12 24 -3 12
10 22 5 53 -28 22 -23 44 -38 53 -35 7 3 61 -21 120 -54 110 -61 380 -196 489
-245 35 -15 62 -29 60 -31 -2 -1 -97 -55 -211 -120 l-208 -116 -37 32 c-132
115 -185 168 -198 196 -9 18 -52 71 -97 119 l-81 86 50 -25 c67 -34 153 -105
188 -156 16 -22 35 -41 42 -41 19 0 18 3 -12 62 -14 28 -49 74 -77 102 l-52
50 49 -34 c27 -19 65 -54 86 -77 38 -44 60 -54 60 -29 0 22 -133 141 -190 169
l-54 27 37 0 c20 0 37 5 37 10 0 14 -3 15 -171 40 l-147 22 -76 96 c-94 119
-148 201 -140 214 4 5 13 3 22 -5 10 -8 31 -22 49 -31z m-429 -15 c28 -12 32
-19 38 -68 5 -39 0 -86 -14 -161 -12 -59 -29 -161 -37 -227 l-17 -120 -46 -41
c-29 -26 -43 -45 -38 -53 6 -8 11 -9 21 -1 9 7 7 -8 -5 -54 -17 -60 -17 -76 1
-76 4 0 18 33 31 73 l23 72 3 -164 c1 -90 1 -165 -1 -167 -2 -2 -62 -18 -133
-35 -71 -17 -169 -44 -219 -61 -220 -72 -203 -68 -197 -46 2 10 7 16 10 13 3
-2 11 0 19 6 10 9 10 15 2 25 -8 9 5 54 48 172 31 88 62 158 68 156 14 -6 34
28 61 105 30 88 30 47 -1 -75 -16 -62 -21 -102 -15 -108 16 -16 53 106 66 217
7 57 8 60 16 32 16 -51 12 -215 -6 -270 -19 -61 -20 -65 -2 -65 19 0 66 110
66 154 0 20 5 36 10 36 13 0 13 -24 -1 -112 -7 -48 -8 -73 -1 -80 20 -20 34
72 30 187 -3 60 -8 119 -12 130 -4 11 2 4 15 -15 12 -19 24 -37 26 -39 2 -3 8
0 14 6 8 8 -11 49 -65 144 l-76 133 66 182 c64 177 67 182 98 188 17 4 44 18
61 31 28 23 30 23 46 6 9 -10 30 -23 47 -30z m830 -95 l21 -36 -28 14 c-33 18
-61 79 -61 134 l0 37 24 -57 c13 -31 33 -73 44 -92z m62 83 c42 -69 54 -100
35 -93 -22 9 -75 94 -75 121 0 13 2 23 4 23 2 0 19 -23 36 -51z m-1665 13 c-3
-3 -11 0 -18 7 -9 10 -8 11 6 5 10 -3 15 -9 12 -12z m15 -40 c25 -10 30 -16
18 -19 -9 -2 -38 7 -65 21 -38 21 -42 25 -18 20 17 -4 46 -13 65 -22z m1040
-33 c24 -50 79 -109 103 -109 7 0 33 -24 58 -52 78 -93 74 -86 57 -116 -31
-54 -89 -212 -82 -223 5 -9 11 -7 20 6 11 15 13 13 19 -21 10 -61 20 -87 34
-92 10 -3 12 4 7 29 -4 19 -9 68 -12 109 -5 70 -3 79 26 135 17 33 28 51 25
41 -21 -72 -27 -154 -16 -208 13 -60 18 -67 39 -46 9 9 12 9 12 -1 0 -17 39
-71 50 -71 5 0 9 12 9 28 0 15 3 69 7 120 l6 93 82 -79 c87 -84 223 -199 322
-271 l60 -45 -59 -140 c-32 -78 -82 -207 -110 -288 l-51 -148 -57 0 c-31 0
-70 -3 -86 -6 l-29 -6 -133 314 c-72 172 -141 333 -153 358 -47 103 -49 108
-31 106 28 -2 23 18 -9 39 -28 17 -48 57 -149 293 -76 175 -113 275 -106 277
14 5 98 22 113 24 6 1 21 -22 34 -50z m-1105 12 c15 -6 8 -10 -32 -15 -55 -8
-86 0 -62 15 17 11 67 10 94 0z m1005 -286 c27 -82 48 -150 47 -152 -1 -1 -16
7 -33 17 -29 19 -32 27 -67 197 -40 193 -47 256 -16 153 11 -36 42 -132 69
-215z m-991 217 c-24 -16 -50 -36 -58 -45 -7 -9 -38 -31 -67 -48 -30 -17 -54
-37 -54 -45 0 -21 32 -10 100 33 l55 36 -35 -38 c-19 -20 -57 -53 -85 -73 -27
-20 -52 -37 -54 -39 -3 -2 0 -8 6 -14 14 -14 79 30 170 114 l67 62 -30 -55
c-29 -54 -136 -172 -183 -201 -14 -9 -21 -20 -18 -26 12 -19 85 17 146 72 67
60 51 34 -33 -52 -48 -50 -58 -65 -48 -75 18 -18 137 110 180 192 22 44 32 56
32 40 0 -13 -35 -78 -79 -144 -43 -67 -88 -140 -100 -164 -16 -31 -27 -42 -39
-38 -121 34 -334 86 -486 117 -104 21 -190 40 -192 41 -1 2 138 87 309 190
l312 187 114 0 115 1 -45 -28z m2517 -27 c8 -19 14 -66 14 -105 0 -98 25 -213
64 -292 31 -62 32 -66 11 -56 -26 12 -53 83 -90 238 -22 95 -35 250 -19 250 3
0 12 -16 20 -35z m-1241 -35 l30 -35 -32 29 c-18 17 -33 34 -33 40 0 5 1 7 3
5 1 -2 16 -20 32 -39z m2098 -27 c32 -31 57 -58 57 -60 0 -1 -15 -3 -34 -3
-28 0 -39 8 -70 47 -28 35 -33 49 -25 60 6 7 12 13 14 13 1 0 27 -25 58 -57z
m-874 -210 c12 -45 26 -94 31 -109 6 -15 9 -29 7 -31 -6 -5 -57 18 -57 26 0 3
-7 62 -15 131 -8 69 -14 145 -14 170 1 40 3 36 14 -30 7 -41 22 -112 34 -157z
m801 177 l32 -40 -27 -10 c-62 -24 -73 -23 -91 6 l-18 27 34 28 c19 16 35 29
36 29 1 0 17 -18 34 -40z m-650 -199 c21 -64 41 -134 45 -156 l7 -40 -27 25
c-58 54 -105 191 -118 345 l-6 60 31 -59 c17 -33 47 -112 68 -175z m-4207 193
c83 -21 159 -57 235 -110 96 -67 195 -148 184 -152 -16 -5 -235 66 -347 113
-60 25 -156 71 -213 103 -89 49 -100 58 -80 64 32 10 151 0 221 -18z m2494
-200 c-1 0 -20 -14 -41 -30 l-39 -29 6 55 c3 30 9 91 13 135 l7 79 28 -104
c15 -58 27 -105 26 -106z m2243 147 c0 -5 3 -16 6 -24 3 -10 -2 -18 -14 -22
-11 -3 -71 -40 -134 -81 -121 -80 -117 -72 31 55 91 78 111 91 111 72z m395
-1 c8 -13 -5 -13 -25 0 -13 8 -13 10 2 10 9 0 20 -4 23 -10z m-170 -52 l46
-43 -80 1 c-75 0 -82 2 -101 27 -12 15 -20 27 -18 27 2 0 21 7 43 15 57 20 59
20 110 -27z m-2020 -17 c3 -5 1 -12 -5 -16 -5 -3 -10 1 -10 9 0 18 6 21 15 7z
m1831 -39 c-3 -2 -40 -19 -83 -36 -85 -35 -170 -86 -248 -148 l-50 -40 58 56
c60 58 139 115 247 178 63 37 65 38 73 17 4 -12 5 -24 3 -27z m-1793 -125 c-3
-31 -9 -60 -13 -62 -4 -3 -13 16 -20 40 -14 51 -9 118 12 142 11 14 14 11 20
-23 4 -21 4 -65 1 -97z m197 35 c0 -8 -75 61 -84 77 -5 9 12 -4 38 -29 25 -24
46 -46 46 -48z m1895 43 c29 -14 58 -32 65 -40 11 -13 6 -13 -31 1 -24 8 -79
18 -121 21 -65 5 -81 10 -100 31 l-23 25 78 -6 c56 -4 95 -13 132 -32z m-4417
-24 c13 -16 17 -51 5 -51 -7 0 -52 69 -62 95 -4 11 37 -21 57 -44z m1282 41
c0 -5 -16 -13 -35 -19 -42 -13 -45 -9 -7 11 31 18 42 19 42 8z m2920 -30 c-7
-3 -16 2 -21 9 -16 25 -9 32 12 13 13 -12 16 -20 9 -22z m-52 6 c2 -11 -19
-22 -80 -41 -46 -15 -123 -47 -171 -72 -49 -25 -86 -41 -82 -36 13 23 156 108
230 138 84 34 98 36 103 11z m-2911 -56 c-15 -16 -46 -39 -70 -52 l-42 -24 26
35 c25 33 99 83 108 73 2 -2 -8 -17 -22 -32z m-1122 14 l60 -13 -68 -4 c-59
-4 -67 -2 -67 14 0 20 -2 20 75 3z m3695 -10 c0 -2 -8 -10 -17 -17 -16 -13
-17 -12 -4 4 13 16 21 21 21 13z m-2020 -9 c0 -2 -10 -12 -22 -23 l-23 -19 19
23 c18 21 26 27 26 19z m64 -12 c-3 -8 -14 -17 -25 -20 -10 -3 -34 -25 -54
-47 -19 -23 -35 -38 -35 -34 0 10 101 116 111 116 5 0 6 -7 3 -15z m-1395 -45
c124 -30 191 -56 121 -45 -181 27 -310 31 -406 14 -83 -14 -94 -18 -94 -35 0
-17 0 -17 75 1 110 27 383 10 509 -31 120 -39 61 -47 -69 -9 -191 55 -342 54
-456 -4 l-57 -28 -12 61 c-6 33 -14 71 -17 83 -4 19 0 22 39 26 99 11 243 -2
367 -33z m-558 3 c13 -16 12 -17 -3 -4 -10 7 -18 15 -18 17 0 8 8 3 21 -13z
m128 -28 l0 -20 -9 20 c-5 11 -9 27 -9 35 -1 13 0 13 9 0 5 -8 9 -24 9 -35z
m3313 13 c8 -7 18 -23 20 -34 5 -20 0 -22 -62 -28 -38 -3 -97 -15 -132 -26
-34 -11 -65 -20 -68 -20 -10 0 205 119 216 120 5 0 17 -6 26 -12z m-1536 -65
c-19 -38 -42 -77 -51 -88 -15 -19 -16 -19 -9 15 10 57 62 136 92 140 1 0 -13
-30 -32 -67z m1883 22 c-17 -24 -36 -42 -41 -39 -8 5 58 84 70 84 2 0 -11 -20
-29 -45z m-229 -2 c9 -2 22 -13 29 -25 11 -18 10 -19 -11 -13 -55 18 -68 25
-68 41 0 11 5 14 18 9 9 -4 24 -9 32 -12z m-3601 -7 c-7 -8 -109 -46 -109 -41
0 9 75 44 94 45 11 0 17 -2 15 -4z m1598 -18 c-3 -8 -6 -5 -6 6 -1 11 2 17 5
13 3 -3 4 -12 1 -19z m2273 18 c0 -2 -8 -10 -17 -17 -16 -13 -17 -12 -4 4 13
16 21 21 21 13z m-2925 -48 c19 -22 19 -22 -10 2 -48 40 -51 43 -30 32 11 -6
29 -21 40 -34z m-826 -128 c1 -219 -81 -400 -211 -466 -26 -13 -50 -24 -52
-24 -3 0 18 21 46 48 121 112 173 250 195 517 6 84 7 87 14 45 4 -25 8 -79 8
-120z m68 128 c-3 -8 -6 -5 -6 6 -1 11 2 17 5 13 3 -3 4 -12 1 -19z m474 -3
c35 -9 68 -20 72 -24 14 -14 -188 -20 -314 -10 -68 5 -125 11 -127 13 -4 4 80
32 118 40 44 8 186 -2 251 -19z m3066 11 c1 -1 -1 -13 -5 -27 l-7 -26 -23 35
-23 34 28 -7 c15 -3 29 -8 30 -9z m-214 -23 c3 -16 4 -29 3 -31 -2 -1 -17 3
-35 9 -19 7 -70 10 -123 7 -93 -4 -92 0 7 27 28 8 71 14 96 14 43 1 47 -1 52
-26z m255 -16 c-16 -33 -18 -33 -18 1 0 24 4 30 15 26 12 -5 12 -10 3 -27z
m125 -7 c-3 -11 -7 -20 -8 -20 -1 0 -5 9 -8 20 -3 12 0 20 8 20 8 0 11 -8 8
-20z m173 -68 c-8 -7 -69 34 -96 64 -19 21 -11 18 38 -16 34 -24 60 -45 58
-48z m-3794 -325 c20 -94 36 -151 45 -154 8 -3 15 -4 17 -2 2 2 -4 38 -15 79
-36 140 -90 443 -81 452 5 5 47 4 98 -3 88 -11 442 -8 474 5 8 3 22 2 30 -4
12 -7 11 -13 -10 -35 -13 -14 -36 -47 -50 -73 -19 -35 -44 -59 -105 -100 -94
-63 -111 -77 -75 -67 101 30 129 48 214 133 l88 87 -7 -45 c-11 -72 -59 -165
-115 -221 -37 -37 -48 -55 -41 -62 17 -17 107 77 141 148 17 33 34 84 40 114
6 30 12 56 14 58 2 2 18 -36 36 -84 58 -158 51 -260 -21 -338 -23 -24 -38 -49
-34 -54 8 -13 69 16 115 56 21 17 35 23 37 16 3 -8 12 -9 34 -1 52 18 45 -1
-25 -64 -47 -43 -64 -64 -57 -71 8 -8 19 -3 38 14 16 14 37 32 48 40 19 14 19
13 2 -11 -21 -31 -22 -54 -2 -46 8 3 15 2 15 -3 0 -13 -120 -21 -319 -21 -102
0 -235 -4 -295 -10 -206 -18 -428 -31 -434 -25 -3 2 2 13 11 22 30 34 87 169
103 243 12 57 15 117 12 249 l-3 174 22 -124 c13 -68 37 -191 55 -272z m3297
362 c9 -27 9 -30 -4 -19 -8 7 -15 21 -15 31 0 28 7 23 19 -12z m-83 -4 c17 -7
35 -19 39 -26 6 -9 3 -10 -11 -5 -54 22 -97 28 -179 23 -49 -3 -101 -8 -115
-11 -14 -4 -7 1 15 9 88 35 182 38 251 10z m-2626 -39 c0 -2 -8 -10 -17 -17
-16 -13 -17 -12 -4 4 13 16 21 21 21 13z m2145 -36 c-10 -11 -21 -18 -23 -15
-3 3 3 12 14 20 27 20 30 18 9 -5z m-1973 -89 c29 -76 36 -187 13 -230 -21
-42 -27 -36 -14 15 16 54 6 145 -24 234 -28 82 -9 68 25 -19z m115 -21 l60
-75 -17 -60 -17 -60 -6 51 c-4 28 -28 93 -53 145 -51 105 -50 105 33 -1z
m2782 -30 c41 -157 60 -274 70 -442 5 -79 8 -144 7 -146 -7 -6 -60 73 -87 131
-45 97 -62 193 -56 317 5 93 27 264 33 257 1 -1 16 -54 33 -117z m-944 -47
c-55 -127 -75 -204 -75 -300 0 -42 -4 -73 -10 -73 -40 0 42 386 102 480 41 66
32 4 -17 -107z m-1872 5 c14 -40 28 -90 32 -111 6 -39 6 -40 -62 -61 -22 -7
-22 -7 -7 31 17 39 16 166 -1 207 -6 13 -5 17 2 13 6 -4 22 -40 36 -79z m1918
-115 c-7 -63 -19 -148 -28 -189 -14 -66 -19 -74 -40 -74 -22 0 -23 3 -23 73 0
85 17 156 62 264 39 93 44 81 29 -74z m-131 14 c-16 -65 -33 -153 -36 -197 -4
-48 -11 -80 -18 -80 -6 0 -21 -3 -32 -6 l-22 -6 14 76 c14 70 111 342 120 333
2 -2 -10 -56 -26 -120z m-797 -96 c71 -68 92 -114 88 -196 -2 -23 -6 -14 -19
35 -20 74 -68 147 -140 211 -38 33 -40 37 -12 19 19 -13 57 -44 83 -69z m-414
60 c-79 -61 -363 -210 -377 -197 -11 12 103 110 163 140 54 28 192 74 224 75
8 1 3 -7 -10 -18z m-493 -307 c92 -71 113 -95 35 -39 -54 39 -124 72 -191 91
l-45 12 59 1 c57 1 60 0 142 -65z m1652 29 c-10 -2 -28 -2 -40 0 -13 2 -5 4
17 4 22 1 32 -1 23 -4z m72 -3 c0 -5 -7 -10 -15 -10 -8 0 -15 5 -15 10 0 6 7
10 15 10 8 0 15 -4 15 -10z m55 0 c-3 -5 -10 -10 -16 -10 -5 0 -9 5 -9 10 0 6
7 10 16 10 8 0 12 -4 9 -10z m-300 -10 c-69 -10 -133 -29 -180 -51 l-40 -20
39 33 c47 39 69 46 161 46 69 0 69 -1 20 -8z m178 -27 c-13 -2 -33 -2 -45 0
-13 2 -3 4 22 4 25 0 35 -2 23 -4z m87 -12 c0 -5 -9 -7 -20 -4 -11 3 -20 7
-20 9 0 2 9 4 20 4 11 0 20 -4 20 -9z m-240 -21 c0 -5 -2 -10 -4 -10 -3 0 -8
5 -11 10 -3 6 -1 10 4 10 6 0 11 -4 11 -10z m60 -5 c0 -8 -7 -15 -15 -15 -8 0
-15 7 -15 15 0 8 7 15 15 15 8 0 15 -7 15 -15z m202 -19 c201 -51 338 -159
363 -286 l7 -35 -29 45 c-72 111 -213 197 -404 247 -66 17 -109 33 -109 40 0
20 67 16 172 -11z m-1847 -6 c3 -5 -3 -10 -15 -10 -12 0 -18 5 -15 10 3 6 10
10 15 10 5 0 12 -4 15 -10z m1525 -15 c0 -1 -12 -10 -26 -20 -15 -9 -24 -13
-22 -9 3 5 8 17 11 26 4 11 12 15 22 12 8 -3 15 -7 15 -9z m-1307 -146 c142
-177 186 -343 127 -475 -24 -56 -40 -65 -29 -16 37 161 -32 355 -210 587 l-46
60 48 -39 c27 -22 76 -74 110 -117z m1426 135 c1 -1 1 -7 0 -13 -2 -5 -15 -1
-29 10 l-25 20 25 -7 c14 -3 27 -8 29 -10z m-1834 -3 c27 -6 20 -10 -75 -48
-183 -72 -389 -127 -549 -146 l-44 -5 39 39 c47 48 170 113 255 135 109 28
301 41 374 25z m1788 -151 l6 -35 -20 42 c-10 23 -21 63 -24 90 l-5 48 18 -55
c10 -31 21 -71 25 -90z m-1624 58 c-36 -72 -39 -77 -39 -57 0 15 57 119 65
119 3 0 -9 -28 -26 -62z m1414 -65 c-50 -122 -151 -289 -260 -435 -90 -119
-97 -124 -88 -67 10 70 34 138 78 224 33 65 63 102 158 198 64 64 119 117 122
117 3 0 -1 -17 -10 -37z"/>
<path d="M9141 8734 c-29 -26 -68 -70 -87 -98 -20 -29 -34 -43 -34 -33 0 9 -6
17 -13 17 -10 0 -20 -33 -33 -102 -10 -57 -19 -107 -19 -113 0 -18 -614 -460
-657 -473 -48 -15 -135 -70 -143 -91 -13 -32 14 -33 77 -2 96 47 422 274 645
448 l93 72 42 -15 c54 -19 202 -54 229 -54 14 0 19 5 16 14 -4 10 8 18 44 26
32 8 49 17 49 27 0 11 -6 14 -22 9 -77 -21 -157 -29 -199 -19 l-44 11 68 1
c92 1 157 18 157 41 0 9 12 22 26 29 24 11 29 39 6 34 -6 -2 -62 -5 -124 -7
-62 -2 -122 -7 -133 -11 -24 -9 27 30 113 86 34 23 62 45 62 50 0 12 -27 11
-52 -2 -39 -21 -9 9 32 32 37 21 54 49 30 49 -18 0 -118 -67 -167 -113 -30
-27 -42 -34 -34 -20 24 45 109 139 149 163 49 29 57 56 15 46 -16 -4 -48 -20
-73 -37 l-45 -30 50 45 c37 32 47 47 39 56 -8 8 -25 -2 -63 -36z m99 -314
c-14 -4 -52 -8 -85 -8 -47 0 -54 2 -30 8 42 11 149 11 115 0z"/>
</g>
</svg>
