<?xml version="1.0" standalone="no"?>
<!DOCTYPE svg PUBLIC "-//W3C//DTD SVG 20010904//EN"
 "http://www.w3.org/TR/2001/REC-SVG-20010904/DTD/svg10.dtd">
<svg version="1.0" xmlns="http://www.w3.org/2000/svg"
 width="1280.000000pt" height="1280.000000pt" viewBox="0 0 1280.000000 1280.000000"
 preserveAspectRatio="xMidYMid meet">
<metadata>
Created by potrace 1.14, written by Peter Selinger 2001-2017
</metadata>
<g transform="translate(0.000000,1280.000000) scale(0.100000,-0.100000)"
fill="#000000" stroke="none">
<path d="M7050 9389 c-7 -11 -21 -30 -32 -41 -60 -60 -68 -178 -18 -282 57
-121 242 -287 353 -317 59 -16 148 -4 280 36 139 42 241 84 315 129 61 37 132
96 116 96 -6 0 -21 -11 -34 -25 -55 -59 -225 -140 -406 -193 -118 -35 -196
-47 -254 -37 l-42 7 36 24 c27 18 59 27 119 34 241 28 371 81 474 192 38 42
91 128 78 128 -2 0 -13 -17 -24 -37 -48 -94 -159 -184 -274 -222 -73 -25 -214
-51 -272 -51 l-40 0 52 35 c101 68 254 140 408 191 55 18 93 33 84 34 -21 0
-167 -50 -256 -89 -88 -38 -168 -81 -254 -138 -61 -39 -71 -43 -124 -41 l-58
3 -82 88 c-56 60 -96 114 -122 165 -36 72 -38 80 -38 171 0 73 4 104 18 129
10 17 15 32 13 32 -3 0 -10 -9 -16 -21z m-25 -136 c0 -89 3 -104 31 -163 41
-86 203 -280 234 -280 6 0 9 -4 6 -9 -3 -5 3 -11 13 -14 14 -3 18 -1 14 9 -4
10 3 14 23 14 l29 -1 -24 -19 c-13 -11 -27 -20 -31 -20 -24 0 -167 110 -220
168 -117 129 -153 258 -101 365 13 26 24 47 24 47 1 0 2 -44 2 -97z"/>
<path d="M6835 9345 c-10 -64 9 -159 47 -235 77 -153 337 -363 478 -385 24 -4
18 0 -20 13 -105 35 -178 82 -300 191 -134 120 -192 232 -194 373 -1 49 -2 88
-3 88 -1 0 -5 -20 -8 -45z"/>
<path d="M7284 9273 c-22 -52 -44 -159 -44 -213 0 -59 25 -172 45 -207 9 -15
13 -19 9 -8 -3 11 -13 40 -22 65 -9 29 -15 83 -15 150 -1 88 3 116 25 178 28
76 29 97 2 35z"/>
<path d="M7432 9168 c-18 -23 -38 -60 -44 -83 -6 -22 -26 -81 -44 -132 -19
-51 -34 -100 -34 -110 0 -10 14 22 31 72 17 49 33 92 36 95 13 12 -10 -106
-28 -141 -11 -22 -17 -39 -14 -39 15 0 47 90 52 148 4 52 15 86 48 150 23 45
39 82 36 82 -4 0 -21 -19 -39 -42z m-14 -53 c-6 -14 -13 -23 -15 -21 -5 5 15
46 22 46 3 0 -1 -11 -7 -25z"/>
<path d="M6780 9017 c0 -3 57 -39 128 -82 70 -42 163 -99 207 -126 44 -28 113
-68 153 -91 41 -22 69 -44 64 -47 -5 -3 -62 -265 -125 -581 -64 -316 -121
-576 -127 -578 -58 -20 -133 -151 -128 -223 4 -55 27 -63 70 -22 61 58 106
169 88 217 -5 15 4 60 31 146 86 274 145 542 184 839 8 63 15 134 15 158 0 36
3 43 23 47 12 3 45 10 72 16 28 6 66 12 85 15 168 20 215 27 222 31 5 3 19 7
31 9 12 2 74 15 137 30 63 14 157 35 208 47 51 11 91 22 89 25 -3 2 -54 -8
-115 -22 -141 -32 -151 -32 -74 5 34 16 93 49 130 74 66 43 143 105 131 106
-3 0 -19 -11 -35 -25 -37 -33 -148 -106 -199 -132 -146 -75 -364 -126 -536
-127 -59 -1 -102 -4 -95 -8 6 -4 22 -8 36 -9 14 -1 -2 -7 -35 -14 -56 -11 -63
-10 -110 13 -27 14 -115 65 -195 115 -222 138 -330 201 -330 194z"/>
<path d="M5605 8689 c-4 -6 -5 -12 -2 -15 2 -3 7 2 10 11 7 17 1 20 -8 4z"/>
<path d="M5586 8647 c3 -10 9 -15 12 -12 3 3 0 11 -7 18 -10 9 -11 8 -5 -6z"/>
<path d="M5591 8604 c0 -11 3 -14 6 -6 3 7 2 16 -1 19 -3 4 -6 -2 -5 -13z"/>
<path d="M5851 8574 c0 -11 3 -14 6 -6 3 7 2 16 -1 19 -3 4 -6 -2 -5 -13z"/>
<path d="M5542 8530 c0 -14 2 -19 5 -12 2 6 2 18 0 25 -3 6 -5 1 -5 -13z"/>
<path d="M6018 8526 c-11 -15 -13 -27 -7 -37 6 -10 9 -11 10 -1 3 22 4 27 13
40 14 23 2 21 -16 -2z"/>
<path d="M6585 8499 c-4 -6 -5 -12 -2 -15 2 -3 7 2 10 11 7 17 1 20 -8 4z"/>
<path d="M5430 8470 c6 -11 13 -20 16 -20 2 0 0 9 -6 20 -6 11 -13 20 -16 20
-2 0 0 -9 6 -20z"/>
<path d="M6510 8470 c-8 -5 -10 -10 -5 -10 6 0 17 5 25 10 8 5 11 10 5 10 -5
0 -17 -5 -25 -10z"/>
<path d="M5831 8454 c0 -11 3 -14 6 -6 3 7 2 16 -1 19 -3 4 -6 -2 -5 -13z"/>
<path d="M5980 8465 c0 -5 4 -16 9 -23 6 -11 10 -10 15 4 3 9 4 19 1 22 -3 3
-5 -1 -5 -9 0 -11 -2 -11 -10 1 -5 8 -10 11 -10 5z"/>
<path d="M6566 8453 c-6 -14 -5 -15 5 -6 7 7 10 15 7 18 -3 3 -9 -2 -12 -12z"/>
<path d="M6430 8435 c-14 -8 -20 -14 -15 -14 6 0 21 6 35 14 14 8 21 14 15 14
-5 0 -21 -6 -35 -14z"/>
<path d="M5556 8427 c3 -10 9 -15 12 -12 3 3 0 11 -7 18 -10 9 -11 8 -5 -6z"/>
<path d="M6815 8388 l-50 -53 53 50 c48 46 57 55 49 55 -1 0 -25 -24 -52 -52z"/>
<path d="M5460 8411 c5 -11 15 -23 21 -27 6 -3 3 5 -6 20 -20 30 -30 35 -15 7z"/>
<path d="M5972 8403 c-1 -15 -3 -37 -6 -49 -2 -11 0 -27 5 -35 6 -10 8 -7 5
11 -1 14 1 38 5 55 5 16 5 33 0 38 -4 4 -8 -5 -9 -20z"/>
<path d="M6605 8368 l-40 -43 43 40 c39 36 47 45 39 45 -2 0 -21 -19 -42 -42z"/>
<path d="M6340 8390 c-9 -6 -10 -10 -3 -10 6 0 15 5 18 10 8 12 4 12 -15 0z"/>
<path d="M5595 8356 c10 -14 19 -26 22 -26 7 0 -17 39 -28 46 -6 3 -3 -5 6
-20z"/>
<path d="M5841 8364 c0 -11 3 -14 6 -6 3 7 2 16 -1 19 -3 4 -6 -2 -5 -13z"/>
<path d="M6494 8358 l-19 -23 23 19 c21 18 27 26 19 26 -2 0 -12 -10 -23 -22z"/>
<path d="M5490 8366 c0 -2 8 -10 18 -17 15 -13 16 -12 3 4 -13 16 -21 21 -21
13z"/>
<path d="M5668 8355 c6 -11 23 -31 39 -45 l28 -25 -30 35 c-47 55 -48 56 -37
35z"/>
<path d="M8499 8311 c-67 -71 -88 -113 -68 -139 13 -16 13 -16 -5 -2 -16 13
-19 13 -15 1 9 -26 28 -23 44 8 21 42 72 99 119 133 21 15 33 28 25 28 -19 0
-55 -24 -101 -69 -60 -56 -44 -18 18 43 30 31 52 56 47 56 -4 0 -33 -27 -64
-59z m1 -55 c0 -2 -8 -10 -17 -17 -16 -13 -17 -12 -4 4 13 16 21 21 21 13z
m-37 -49 c-3 -5 -10 -4 -15 1 -6 6 -7 16 -3 22 6 9 9 9 16 -1 4 -7 5 -17 2
-22z"/>
<path d="M6264 8344 c-18 -14 -18 -15 4 -4 12 6 22 13 22 15 0 8 -5 6 -26 -11z"/>
<path d="M6444 8318 l-19 -23 23 19 c21 18 27 26 19 26 -2 0 -12 -10 -23 -22z"/>
<path d="M6219 8313 c-13 -16 -12 -17 4 -4 9 7 17 15 17 17 0 8 -8 3 -21 -13z"/>
<path d="M6534 8308 l-19 -23 23 19 c21 18 27 26 19 26 -2 0 -12 -10 -23 -22z"/>
<path d="M6719 8303 c-13 -16 -12 -17 4 -4 9 7 17 15 17 17 0 8 -8 3 -21 -13z"/>
<path d="M5665 8270 c21 -22 41 -40 44 -40 3 0 -13 18 -34 40 -21 22 -41 40
-44 40 -3 0 13 -18 34 -40z"/>
<path d="M6394 8284 c-18 -14 -18 -15 4 -4 12 6 22 13 22 15 0 8 -5 6 -26 -11z"/>
<path d="M5585 8270 c10 -11 20 -20 23 -20 3 0 -3 9 -13 20 -10 11 -20 20 -23
20 -3 0 3 -9 13 -20z"/>
<path d="M5941 8274 c0 -11 3 -14 6 -6 3 7 2 16 -1 19 -3 4 -6 -2 -5 -13z"/>
<path d="M6159 8273 c-13 -16 -12 -17 4 -4 9 7 17 15 17 17 0 8 -8 3 -21 -13z"/>
<path d="M6674 8274 c-18 -14 -18 -15 4 -4 12 6 22 13 22 15 0 8 -5 6 -26 -11z"/>
<path d="M5775 8240 c21 -22 41 -40 44 -40 3 0 -13 18 -34 40 -21 22 -41 40
-44 40 -3 0 13 -18 34 -40z"/>
<path d="M8564 8241 c-32 -21 -74 -55 -93 -75 -32 -33 -36 -34 -52 -20 -12 11
-16 27 -13 57 2 24 -3 11 -11 -28 -23 -117 -22 -121 33 -139 84 -27 179 -46
159 -32 -15 12 -11 14 32 20 28 4 52 10 55 14 2 4 -28 1 -68 -6 -66 -13 -78
-13 -132 4 -32 9 -63 18 -68 18 -14 1 -19 23 -7 31 6 3 9 0 6 -7 -3 -8 2 -15
12 -16 110 -12 154 -13 193 -2 25 7 39 15 31 18 -10 3 -4 10 17 21 l31 16 -60
3 c-33 1 -88 -2 -122 -8 -33 -5 -62 -8 -64 -6 -3 3 117 86 152 105 12 6 14 11
6 11 -8 0 -36 -14 -63 -31 -28 -16 -52 -28 -55 -26 -4 4 86 74 133 104 11 6
16 12 13 12 -3 1 -32 -16 -65 -38z m-154 -121 c0 -5 -5 -10 -11 -10 -5 0 -7 5
-4 10 3 6 8 10 11 10 2 0 4 -4 4 -10z m225 -20 c-3 -5 -14 -10 -23 -11 -14 0
-13 -2 3 -8 16 -7 13 -9 -20 -15 -55 -9 -155 -1 -169 14 -8 10 -5 11 14 6 37
-10 87 -17 70 -10 -8 3 -22 8 -30 12 -18 7 45 19 113 21 30 0 46 -3 42 -9z"/>
<path d="M8543 8073 c9 -2 25 -2 35 0 9 3 1 5 -18 5 -19 0 -27 -2 -17 -5z"/>
<path d="M5159 8263 c-1 -5 -1 -12 0 -17 1 -4 -4 -16 -11 -25 -12 -14 -11 -14
4 -3 9 7 16 22 15 33 -1 19 -6 26 -8 12z"/>
<path d="M6119 8243 c-13 -16 -12 -17 4 -4 9 7 17 15 17 17 0 8 -8 3 -21 -13z"/>
<path d="M6629 8243 c-13 -16 -12 -17 4 -4 9 7 17 15 17 17 0 8 -8 3 -21 -13z"/>
<path d="M5497 8239 c7 -7 15 -10 18 -7 3 3 -2 9 -12 12 -14 6 -15 5 -6 -5z"/>
<path d="M5620 8246 c0 -2 8 -10 18 -17 15 -13 16 -12 3 4 -13 16 -21 21 -21
13z"/>
<path d="M5931 8234 c0 -11 3 -14 6 -6 3 7 2 16 -1 19 -3 4 -6 -2 -5 -13z"/>
<path d="M6695 8230 c-3 -6 1 -7 9 -4 18 7 21 14 7 14 -6 0 -13 -4 -16 -10z"/>
<path d="M5544 8216 c11 -9 24 -16 30 -16 12 0 7 5 -24 19 -24 11 -24 11 -6
-3z"/>
<path d="M5740 8205 c13 -14 26 -25 28 -25 3 0 -5 11 -18 25 -13 14 -26 25
-28 25 -3 0 5 -11 18 -25z"/>
<path d="M6079 8213 c-13 -16 -12 -17 4 -4 16 13 21 21 13 21 -2 0 -10 -8 -17
-17z"/>
<path d="M5886 8207 c3 -10 9 -15 12 -12 3 3 0 11 -7 18 -10 9 -11 8 -5 -6z"/>
<path d="M6238 8213 c7 -3 16 -2 19 1 4 3 -2 6 -13 5 -11 0 -14 -3 -6 -6z"/>
<path d="M6354 8204 c-18 -14 -18 -14 6 -3 31 14 36 19 24 19 -6 0 -19 -7 -30
-16z"/>
<path d="M6574 8207 c-3 -8 -10 -14 -17 -14 -7 0 -43 -12 -81 -27 -38 -15 -78
-29 -89 -32 -11 -2 -41 -10 -66 -18 -25 -8 -68 -20 -95 -27 -28 -7 -46 -14
-40 -16 5 -2 50 8 99 22 50 14 97 27 105 29 8 2 47 16 85 31 62 24 87 32 106
34 6 1 8 31 2 31 -2 0 -6 -6 -9 -13z"/>
<path d="M6605 8200 c-3 -6 1 -7 9 -4 18 7 21 14 7 14 -6 0 -13 -4 -16 -10z"/>
<path d="M5845 8180 c10 -11 20 -20 23 -20 3 0 -3 9 -13 20 -10 11 -20 20 -23
20 -3 0 3 -9 13 -20z"/>
<path d="M6168 8193 c7 -3 16 -2 19 1 4 3 -2 6 -13 5 -11 0 -14 -3 -6 -6z"/>
<path d="M5125 8179 c-4 -6 -5 -12 -2 -15 2 -3 7 2 10 11 7 17 1 20 -8 4z"/>
<path d="M5617 8179 c7 -7 15 -10 18 -7 3 3 -2 9 -12 12 -14 6 -15 5 -6 -5z"/>
<path d="M5920 8179 c0 -5 -4 -8 -8 -5 -5 3 -6 -9 -4 -27 3 -18 7 -26 10 -19
3 9 7 10 17 2 11 -9 12 -7 8 9 -4 15 -1 19 14 17 10 -2 12 -1 5 1 -8 3 -11 12
-8 21 4 10 -3 6 -14 -8 -21 -24 -21 -24 -15 -2 4 12 4 22 1 22 -3 0 -6 -5 -6
-11z"/>
<path d="M6128 8183 c7 -3 16 -2 19 1 4 3 -2 6 -13 5 -11 0 -14 -3 -6 -6z"/>
<path d="M6300 8180 c-8 -5 -10 -10 -5 -10 6 0 17 5 25 10 8 5 11 10 5 10 -5
0 -17 -5 -25 -10z"/>
<path d="M6017 8165 c-8 -8 -17 -12 -19 -10 -3 3 -5 -2 -5 -10 0 -12 6 -10 24
7 13 12 23 23 23 25 0 7 -9 2 -23 -12z"/>
<path d="M5650 8166 c0 -2 7 -7 16 -10 8 -3 12 -2 9 4 -6 10 -25 14 -25 6z"/>
<path d="M5740 8166 c0 -3 9 -10 20 -16 11 -6 20 -8 20 -6 0 3 -9 10 -20 16
-11 6 -20 8 -20 6z"/>
<path d="M5697 8139 c7 -7 15 -10 18 -7 3 3 -2 9 -12 12 -14 6 -15 5 -6 -5z"/>
<path d="M5830 8146 c0 -2 7 -7 16 -10 8 -3 12 -2 9 4 -6 10 -25 14 -25 6z"/>
<path d="M5817 8119 c7 -7 15 -10 18 -7 3 3 -2 9 -12 12 -14 6 -15 5 -6 -5z"/>
<path d="M5750 8116 c0 -2 7 -7 16 -10 8 -3 12 -2 9 4 -6 10 -25 14 -25 6z"/>
<path d="M6135 8110 c-3 -6 1 -7 9 -4 18 7 21 14 7 14 -6 0 -13 -4 -16 -10z"/>
<path d="M5860 8100 c8 -5 20 -10 25 -10 6 0 3 5 -5 10 -8 5 -19 10 -25 10 -5
0 -3 -5 5 -10z"/>
<path d="M5920 8100 c8 -5 22 -9 30 -9 10 0 8 3 -5 9 -27 12 -43 12 -25 0z"/>
<path d="M5075 8091 c-3 -5 -2 -12 3 -15 5 -3 9 1 9 9 0 17 -3 19 -12 6z"/>
<path d="M6134 8068 c-4 -5 -3 -12 0 -15 3 -4 6 -1 6 5 0 6 7 9 15 6 8 -4 15
-2 15 3 0 12 -29 13 -36 1z"/>
<path d="M6058 8063 c7 -3 16 -2 19 1 4 3 -2 6 -13 5 -11 0 -14 -3 -6 -6z"/>
<path d="M6098 8063 c7 -3 16 -2 19 1 4 3 -2 6 -13 5 -11 0 -14 -3 -6 -6z"/>
<path d="M8118 7880 c-135 -99 -252 -180 -260 -180 -19 0 -118 -59 -118 -70 0
-13 26 -13 53 1 11 7 93 61 181 122 255 175 424 307 393 307 -1 0 -114 -81
-249 -180z"/>
<path d="M5055 8039 c-4 -6 -5 -12 -2 -15 2 -3 7 2 10 11 7 17 1 20 -8 4z"/>
<path d="M5900 8046 c0 -2 7 -7 16 -10 8 -3 12 -2 9 4 -6 10 -25 14 -25 6z"/>
<path d="M5861 7998 c-31 -102 -82 -181 -195 -294 -104 -104 -161 -152 -171
-143 -2 3 20 29 49 59 61 64 139 168 168 224 24 48 52 125 40 111 -5 -6 -16
-31 -26 -56 -36 -98 -192 -299 -265 -342 -63 -37 -33 12 68 111 119 116 162
193 162 287 0 32 -2 59 -5 63 -3 3 -6 -5 -6 -17 0 -12 -24 -52 -54 -89 -65
-82 -112 -154 -159 -249 -20 -39 -41 -74 -46 -78 -6 -3 -8 -12 -4 -20 7 -20
-5 -19 -54 5 -53 25 -118 99 -138 158 -27 75 -35 92 -29 57 15 -76 70 -159
149 -220 19 -15 16 -15 -35 -9 -30 3 -84 15 -118 26 -78 24 -144 84 -159 144
l-10 39 -7 -36 c-18 -86 63 -176 178 -198 65 -12 237 -21 231 -11 -2 4 9 7 26
8 24 1 28 -2 19 -13 -8 -10 -47 -12 -173 -10 -218 4 -246 12 -329 93 -32 31
-48 55 -48 72 0 19 -3 21 -9 11 -13 -20 -36 -1 -62 53 -21 42 -20 33 6 -64 8
-30 15 -66 15 -82 0 -15 4 -29 8 -32 13 -8 -5 -164 -33 -301 -10 -44 -18 -88
-18 -97 -1 -9 -5 -14 -9 -12 -4 3 -5 -8 -2 -23 4 -21 0 -33 -15 -47 -25 -23
-27 -15 -5 19 9 13 13 28 10 33 -3 5 -1 24 4 43 11 36 26 278 18 269 -3 -3 -8
-57 -11 -120 -4 -64 -13 -138 -21 -165 -8 -26 -13 -52 -10 -56 2 -4 0 -11 -6
-14 -6 -4 -10 -3 -9 2 1 4 -3 20 -8 34 -9 19 -6 45 9 110 26 108 22 242 -9
309 -21 46 -54 90 -68 90 -5 0 -1 -8 8 -18 12 -14 14 -21 6 -29 -17 -17 -6
-260 17 -366 16 -78 17 -89 3 -102 -14 -14 -19 -13 -54 15 -21 16 -31 30 -23
30 8 0 25 -11 38 -25 13 -14 25 -23 28 -21 9 10 -35 45 -76 61 -25 10 -59 36
-82 64 -22 25 -40 42 -40 36 0 -20 36 -65 75 -94 22 -16 56 -43 75 -61 l35
-31 -65 4 c-71 5 -144 35 -192 80 -16 15 -28 22 -28 17 0 -13 76 -68 120 -87
19 -8 69 -18 110 -22 l75 -7 -70 -36 c-38 -21 -66 -37 -62 -38 4 0 35 14 68
31 34 17 63 28 65 26 7 -6 -82 -62 -141 -88 -65 -30 -159 -32 -199 -6 -38 25
-29 30 32 16 40 -10 64 -10 107 0 73 16 66 25 -8 10 -69 -14 -133 -1 -185 39
l-36 27 29 -42 c34 -49 95 -83 148 -83 46 0 140 34 194 71 50 34 53 35 46 9
-3 -12 -8 -19 -11 -16 -2 3 -24 -8 -48 -25 -61 -41 -164 -89 -194 -89 -65 0
-101 13 -117 41 -10 16 -21 29 -26 29 -5 0 1 -12 13 -27 18 -24 19 -29 6 -31
-17 -4 -136 73 -136 88 0 10 -22 150 -41 257 -7 40 -15 60 -22 56 -6 -4 -8 0
-4 10 3 9 -3 41 -13 72 -11 31 -35 118 -55 193 -41 157 -44 166 -50 161 -2 -3
9 -52 26 -109 36 -130 36 -138 0 -72 -49 88 -175 251 -186 240 -2 -2 13 -21
34 -43 54 -58 124 -160 165 -243 58 -115 117 -369 115 -497 l-1 -80 -18 85
c-42 202 -170 469 -263 553 -38 33 -29 17 23 -40 99 -112 231 -429 234 -562 1
-70 -20 -143 -35 -119 -5 7 -1 20 8 30 15 17 15 20 -9 46 -21 22 -29 47 -43
130 -19 118 -41 188 -85 271 -52 96 -157 195 -230 215 -20 5 -18 3 8 -12 18
-10 30 -21 26 -25 -20 -20 111 -300 208 -443 71 -105 97 -165 80 -191 -5 -8
-30 -3 -92 17 -78 26 -82 28 -45 29 22 0 60 -8 84 -19 57 -26 67 -25 16 2 -26
14 -68 24 -120 28 -62 5 -98 15 -157 43 -43 19 -78 32 -78 29 0 -13 84 -63
125 -73 22 -6 89 -25 149 -44 l110 -33 -57 -18 c-31 -10 -55 -20 -52 -22 3 -4
58 13 108 33 34 14 16 -14 -55 -84 -93 -92 -162 -139 -246 -168 -37 -12 -58
-22 -47 -23 30 0 124 42 175 77 63 43 200 175 200 193 0 10 3 11 11 3 9 -9 0
-28 -34 -76 -93 -130 -228 -227 -339 -243 -45 -6 -151 16 -162 34 -2 4 25 7
62 6 l67 -3 -70 9 c-38 4 -83 13 -99 19 -16 6 -31 10 -33 7 -3 -2 6 -7 18 -11
12 -4 32 -16 43 -27 32 -29 120 -51 174 -43 124 18 247 108 352 257 56 79 67
77 18 -4 -43 -72 -83 -124 -137 -180 -25 -27 -41 -48 -36 -48 13 0 89 87 143
164 61 87 94 160 86 193 -4 19 -3 24 4 15 10 -15 21 25 23 87 1 20 3 27 5 16
3 -11 9 -39 15 -61 12 -46 6 -62 -81 -209 -190 -324 -230 -395 -230 -412 0 -4
19 26 41 67 44 81 168 293 204 351 52 81 87 161 80 186 l-6 25 30 -18 c38 -22
48 -45 19 -41 -11 1 -23 -3 -25 -9 -2 -7 17 -14 49 -18 28 -4 57 -10 62 -14 6
-4 27 -7 46 -8 19 0 57 -4 84 -8 l48 -8 -23 -26 -24 -27 30 26 30 26 235 -37
c129 -20 331 -52 448 -70 142 -23 212 -38 212 -46 0 -6 15 -25 33 -41 37 -32
52 -59 34 -60 -7 -1 -67 -7 -134 -13 l-123 -13 -86 89 c-47 49 -83 83 -79 77
8 -17 -5 -16 -48 2 -40 17 -56 19 -41 7 5 -5 29 -15 53 -23 46 -14 162 -111
149 -124 -3 -4 -21 8 -40 25 -34 33 -85 63 -128 74 -14 4 2 -6 35 -23 59 -29
134 -95 123 -107 -4 -3 -26 13 -51 35 -49 46 -91 66 -157 76 l-45 6 30 -16
c16 -9 37 -22 45 -30 8 -7 44 -27 80 -44 l65 -31 -48 0 c-27 0 -46 -4 -43 -8
3 -5 -1 -9 -9 -9 -8 0 -12 4 -9 9 3 4 -19 8 -48 7 l-53 -1 40 -12 40 -12 -53
-7 c-29 -4 -103 -19 -165 -33 -61 -15 -122 -28 -134 -31 -16 -4 -25 2 -37 26
-9 17 -22 31 -28 31 -6 0 -8 3 -5 6 9 9 -64 142 -131 239 -69 99 -69 99 -69
78 0 -9 11 -29 24 -43 37 -42 134 -200 158 -258 12 -29 24 -50 27 -46 12 12
32 -42 29 -81 -1 -22 -13 -113 -27 -203 -13 -89 -24 -173 -23 -185 1 -30 58
329 58 373 l1 35 217 33 c119 17 218 30 221 28 9 -10 -104 -36 -157 -37 -52
-1 -53 -2 -21 -9 19 -5 55 -6 80 -3 65 8 44 -6 -26 -17 l-59 -9 56 4 c63 4
162 42 152 58 -3 5 -2 7 4 4 6 -4 19 0 29 8 37 28 35 14 -5 -27 -22 -23 -38
-44 -36 -46 1 -2 24 19 49 46 l47 50 115 17 c107 17 116 17 133 1 10 -9 35
-20 55 -23 20 -3 36 -9 36 -12 0 -4 -18 -15 -40 -25 -22 -9 -48 -28 -59 -42
-10 -13 -53 -40 -95 -59 -42 -19 -127 -59 -190 -90 l-114 -55 -46 20 c-25 10
-46 17 -46 14 0 -3 14 -11 31 -18 31 -13 31 -13 -31 -19 -34 -3 -67 -10 -73
-16 -8 -8 -1 -8 24 -1 18 6 54 10 79 10 l45 -1 -35 -19 c-19 -11 -45 -19 -57
-20 -13 0 -23 -6 -23 -12 0 -7 -31 -31 -68 -52 -102 -60 -284 -181 -378 -251
l-84 -64 -82 62 c-46 33 -108 82 -138 107 -30 26 -109 83 -175 127 -66 44
-164 109 -217 146 -54 37 -98 63 -98 59 0 -4 45 -36 99 -72 55 -36 98 -66 97
-68 -2 -1 -43 11 -92 27 -86 29 -263 66 -272 57 -2 -3 13 -7 34 -11 92 -14
245 -55 316 -84 98 -41 304 -185 385 -269 99 -104 152 -229 153 -359 0 -28 4
-54 8 -57 17 -10 -10 185 -35 250 -3 8 1 14 9 14 10 0 18 -22 27 -67 54 -282
91 -462 101 -483 l11 -25 -6 25 c-3 14 -22 107 -42 208 -32 158 -35 184 -23
192 8 6 22 7 30 3 8 -4 122 -8 254 -8 131 -1 230 2 220 6 -17 6 -16 7 6 12 19
4 17 5 -10 5 -19 0 -82 12 -139 27 -87 23 -118 27 -185 23 -79 -5 -166 -35
-183 -61 -7 -11 -31 88 -32 131 -1 22 1 22 109 22 113 0 266 -28 353 -65 21
-8 41 -13 46 -11 4 3 24 1 45 -5 36 -10 72 -50 224 -250 l42 -56 -18 -59 -18
-59 -8 50 c-14 90 -98 245 -169 314 -19 18 -40 30 -46 26 -6 -3 -10 -1 -9 6 2
6 -3 14 -11 17 -8 3 -11 0 -7 -7 5 -7 1 -9 -9 -4 -14 5 -14 8 -3 15 9 7 8 8
-6 4 -11 -4 -42 -2 -71 4 -73 15 -225 27 -225 18 0 -4 24 -8 54 -8 77 0 221
-27 266 -50 20 -10 41 -16 45 -12 5 4 5 1 0 -7 -5 -9 -4 -12 3 -7 6 3 13 2 17
-3 3 -6 -3 -8 -15 -6 -11 2 -20 1 -21 -3 0 -4 -2 -36 -3 -72 -2 -79 -29 -138
-89 -200 -27 -28 -33 -37 -16 -26 61 39 119 152 119 232 0 23 4 45 9 49 22 13
88 -106 107 -195 8 -34 13 -45 13 -27 1 15 -7 51 -18 80 -10 28 -22 61 -26 72
l-7 20 17 -20 c31 -37 84 -161 91 -212 6 -50 6 -50 -25 -61 -17 -6 -31 -13
-31 -16 0 -3 12 -1 26 4 32 13 34 13 34 -2 0 -7 -23 -34 -52 -60 -29 -26 -50
-48 -46 -48 4 0 13 6 20 13 8 6 25 22 38 34 l25 22 0 -24 c0 -13 -3 -21 -7
-19 -4 3 -12 -6 -19 -18 -11 -20 -10 -21 3 -10 13 10 16 9 21 -9 7 -26 23 -18
31 15 3 13 16 46 28 73 12 26 20 52 19 56 -1 5 3 6 8 2 6 -3 27 3 48 14 67 34
273 91 347 96 l71 5 -60 -14 c-141 -33 -309 -114 -383 -183 l-47 -44 58 46
c32 25 90 61 128 81 92 46 243 96 283 93 17 -1 42 3 55 8 22 9 19 11 -30 18
-44 6 -49 9 -29 15 14 4 44 0 70 -8 l44 -15 -34 -12 c-19 -7 -35 -16 -35 -21
0 -5 -9 -9 -20 -10 -11 0 -27 -3 -35 -7 -8 -3 -60 -18 -115 -32 -143 -37 -243
-102 -286 -186 -22 -44 -25 -66 -4 -29 8 14 14 22 15 18 0 -4 19 1 43 11 136
59 196 92 302 168 79 57 111 56 142 -6 30 -60 38 -135 21 -204 -8 -31 -11 -54
-7 -51 4 2 13 30 20 62 13 63 2 148 -26 204 -8 17 -13 33 -11 36 8 7 101 -65
137 -105 51 -59 72 -117 66 -181 l-6 -54 25 33 c52 71 24 177 -69 252 -23 19
-67 49 -97 66 -70 41 -26 30 60 -15 131 -68 211 -160 229 -265 l10 -54 -4 52
c-7 95 -72 179 -198 257 -57 35 -57 39 -2 22 11 -3 2 3 -20 13 -22 11 -48 18
-58 15 -10 -3 -16 -1 -15 6 2 7 -22 22 -53 34 l-55 21 12 65 c9 48 24 83 57
132 25 37 48 80 52 97 3 16 12 34 19 40 9 8 13 1 15 -30 1 -22 6 -51 11 -65 6
-14 10 -46 10 -70 0 -25 4 -43 8 -40 10 6 3 115 -9 138 -5 10 -5 19 0 22 10 7
46 -93 60 -169 5 -27 9 -39 10 -25 1 36 -26 135 -53 196 -18 38 -20 51 -10 51
8 0 22 -9 31 -20 10 -12 12 -17 4 -12 -9 5 -12 4 -10 -4 3 -7 9 -13 14 -13 14
0 36 -19 30 -27 -2 -4 9 -33 25 -64 16 -31 34 -83 41 -115 6 -31 14 -51 16
-44 3 7 45 -68 94 -166 82 -164 124 -231 136 -219 2 3 -35 97 -83 209 -48 111
-97 228 -109 258 -13 30 -34 81 -49 113 l-26 58 22 -12 c19 -9 18 -6 -4 13
-32 27 -213 440 -204 464 3 8 19 14 35 14 16 0 41 4 55 10 21 8 26 7 26 -7 0
-29 48 -100 79 -114 16 -8 50 -38 77 -68 l48 -53 -17 -31 c-21 -42 -67 -154
-67 -164 1 -4 7 3 14 16 13 23 14 22 20 -30 4 -30 12 -61 17 -69 9 -12 10 -11
4 5 -3 11 -9 47 -12 81 -5 53 -2 69 22 120 29 63 43 61 26 -3 -12 -43 -13
-116 -1 -153 5 -15 6 1 3 40 -6 68 12 159 27 144 6 -6 3 -26 -5 -49 -8 -22
-14 -48 -15 -57 0 -23 29 -108 45 -131 12 -17 13 -17 13 5 1 13 4 58 8 101 l7
79 61 -60 c68 -66 221 -193 279 -232 32 -21 37 -29 31 -50 -4 -14 -7 -33 -8
-42 0 -10 -3 -18 -7 -18 -8 0 -75 -163 -120 -291 l-33 -96 -88 -5 c-54 -4 -92
-11 -101 -19 -7 -8 -56 -52 -108 -99 -84 -75 -201 -192 -431 -429 -40 -41 -65
-69 -55 -61 10 7 52 48 94 92 42 43 78 76 80 74 2 -1 -12 -29 -31 -61 -39 -63
-91 -183 -101 -230 -3 -16 9 8 27 55 68 174 149 293 291 425 145 136 286 222
162 100 -133 -132 -274 -344 -309 -464 -21 -73 -9 -58 19 24 30 84 84 176 173
290 113 146 214 235 266 235 17 0 18 2 6 10 -10 7 -1 8 30 4 53 -8 57 -11 41
-27 -9 -9 -14 -9 -21 3 -6 9 -10 10 -10 3 0 -7 -12 -11 -27 -10 -23 2 -29 -4
-42 -39 -12 -30 -39 -61 -96 -111 -132 -114 -208 -224 -241 -348 -15 -55 -17
-139 -5 -170 5 -11 6 10 4 50 -10 155 81 320 261 473 21 18 40 31 43 28 9 -8
-97 -209 -157 -298 -33 -49 -56 -88 -52 -88 7 0 102 144 144 220 14 25 40 78
58 119 33 77 56 103 102 120 26 9 26 9 48 -71 12 -44 19 -82 16 -85 -8 -8 -46
74 -46 99 0 13 -5 30 -10 38 -26 41 6 -72 37 -127 26 -49 36 -82 44 -150 6
-48 12 -90 14 -91 10 -11 16 94 7 126 -32 110 -69 257 -67 260 9 9 54 -35 55
-53 0 -15 3 -16 9 -7 6 10 19 1 48 -35 65 -79 123 -201 123 -258 0 -13 4 -26
9 -29 13 -8 -4 72 -29 133 -25 64 -77 145 -119 185 -36 34 -45 91 -13 82 9 -3
37 -10 62 -16 203 -51 324 -147 355 -284 l12 -51 1 74 c2 82 -15 133 -62 189
-31 36 -130 94 -193 113 -23 6 -44 18 -47 25 -8 20 46 18 138 -6 142 -36 246
-109 307 -215 33 -57 39 -54 9 5 -54 106 -193 196 -351 228 -100 19 -91 15
-83 36 5 13 22 16 93 17 47 1 113 5 146 9 36 4 2 5 -82 2 -79 -3 -143 -1 -143
3 0 5 6 45 14 89 17 94 29 240 17 211 -4 -11 -9 -45 -10 -75 -1 -30 -9 -94
-17 -142 -15 -81 -18 -88 -39 -88 -14 0 -25 7 -28 18 -4 16 -5 16 -6 0 0 -10
-8 -18 -16 -18 -37 0 11 275 66 381 13 24 22 48 21 52 -1 5 2 6 8 2 19 -12 10
-60 -30 -152 -35 -82 -70 -227 -57 -239 2 -3 9 28 15 68 12 79 68 229 84 225
6 -1 12 9 13 23 1 14 5 34 9 45 6 16 6 17 -3 5 -9 -13 -11 -13 -11 3 0 26 18
20 35 -12 8 -17 32 -43 52 -58 47 -34 58 -47 84 -96 11 -22 22 -37 25 -34 10
10 -17 59 -66 119 -28 35 -56 71 -62 81 -9 17 -7 18 24 12 71 -16 157 -71 194
-125 13 -19 24 -31 24 -26 0 21 -56 80 -104 111 -55 35 -112 54 -174 59 -26 2
-36 7 -34 17 2 8 -13 -2 -33 -21 -35 -33 -37 -33 -30 -10 4 14 8 25 9 26 0 0
13 8 28 17 35 22 38 21 33 -2 -3 -17 1 -19 34 -16 21 2 62 11 91 19 63 19 157
21 212 4 22 -6 58 -30 81 -52 23 -23 36 -33 28 -23 -7 9 -11 17 -7 17 8 0 -20
54 -37 72 -15 14 -30 88 -19 88 4 0 15 -20 25 -44 19 -46 86 -157 87 -143 0 5
-8 21 -19 35 -24 35 -71 128 -71 142 0 12 66 -14 90 -35 29 -27 31 -16 4 25
-15 22 -29 38 -32 35 -3 -2 1 -11 8 -20 16 -19 11 -19 -43 4 -25 11 -47 18
-49 16 -1 -2 -3 8 -3 21 0 13 1 24 1 24 1 0 19 -8 40 -17 45 -19 53 -22 94
-30 24 -4 29 -9 25 -27 -2 -11 -7 -48 -10 -81 -4 -33 -15 -110 -25 -170 -29
-171 -26 -321 9 -459 26 -101 82 -246 95 -246 2 0 -9 30 -26 67 -55 122 -79
240 -82 402 -1 80 1 136 5 125 6 -14 8 -8 9 21 5 213 70 360 211 472 61 48
207 143 220 143 3 0 11 -11 17 -25 11 -23 9 -26 -16 -36 -72 -26 -92 -35 -152
-70 -85 -49 -166 -121 -190 -170 -29 -56 -42 -167 -35 -304 6 -123 23 -260 32
-252 2 3 0 31 -6 63 -26 159 -21 409 10 478 17 36 26 33 40 -12 9 -30 8 -59
-5 -139 -36 -227 -9 -378 91 -501 19 -23 44 -47 55 -53 12 -6 0 10 -25 36 -82
82 -127 206 -127 345 0 74 18 216 30 239 9 16 45 -113 71 -254 15 -81 18 -88
13 -36 -3 35 -19 116 -37 180 -19 73 -31 138 -30 176 0 55 -1 57 -9 25 l-10
-35 -12 30 c-11 26 -11 31 5 37 29 11 58 1 116 -39 58 -40 71 -53 53 -53 -23
0 -89 41 -109 67 -11 15 -21 23 -21 17 0 -21 68 -72 125 -93 69 -26 82 -35
152 -102 29 -28 56 -50 58 -47 10 10 -74 104 -110 122 -50 26 -194 128 -194
139 -1 12 99 8 172 -8 77 -16 153 -49 224 -95 42 -28 44 -28 18 -5 -81 72
-266 131 -382 122 -35 -3 -63 -1 -63 3 0 11 150 88 217 111 85 29 90 27 120
-41 14 -33 28 -59 30 -57 2 2 -8 29 -22 61 -30 68 -30 66 -6 66 11 0 41 -21
68 -46 60 -58 128 -114 137 -114 4 0 -7 12 -26 27 -62 50 -137 126 -132 135 3
4 -1 8 -9 8 -7 0 -24 12 -36 26 l-23 27 73 -5 c71 -5 123 -23 173 -63 32 -25
12 -27 -53 -5 -33 11 -73 20 -88 19 -17 0 -4 -6 32 -14 76 -17 133 -41 164
-68 19 -18 18 -14 -8 25 -17 26 -47 56 -67 68 -19 12 -63 48 -97 81 l-62 59
47 0 c29 0 64 -9 95 -24 26 -13 60 -26 76 -30 47 -11 29 1 -28 20 -31 9 -58
21 -61 25 -8 14 30 10 45 -3 11 -11 12 -10 7 0 -9 15 24 9 84 -14 30 -12 33
-12 17 0 -10 8 -40 20 -65 26 -45 11 -49 16 -95 94 -62 106 -150 222 -239 315
-60 62 -88 109 -88 144 0 4 10 3 21 -4 21 -11 66 -14 179 -12 88 2 119 0 115
-7 -2 -4 19 -14 46 -23 69 -21 48 4 -25 32 -59 22 -109 25 -181 10 -48 -10
-98 -5 -149 16 -17 8 -18 5 -12 -31 l7 -39 -23 23 -22 22 21 21 c20 21 25 21
103 10 45 -7 84 -10 87 -8 2 3 -22 9 -54 13 -103 12 -107 18 -30 54 37 18 100
38 140 46 66 13 68 13 17 9 -68 -6 -139 -29 -202 -67 -27 -15 -48 -23 -48 -19
0 18 118 167 173 219 97 91 238 139 330 114 21 -6 35 -6 32 -1 -4 5 -13 9 -20
9 -8 0 -29 9 -47 20 -18 11 -46 19 -63 19 -28 -1 -27 -2 8 -9 56 -10 54 -17
-8 -25 -72 -9 -177 -62 -241 -122 -53 -50 -149 -171 -167 -210 -9 -20 -37 -33
-37 -17 0 13 73 151 97 184 72 98 199 190 262 190 15 0 33 5 41 11 33 22 -67
-4 -128 -34 -103 -50 -217 -188 -273 -330 -10 -26 -19 -52 -19 -57 0 -6 17
-27 39 -48 30 -29 45 -56 66 -122 15 -47 48 -124 73 -173 41 -78 44 -89 31
-103 -14 -13 -19 -9 -53 43 -66 104 -136 255 -149 323 -10 57 -12 61 -18 35
l-7 -30 -1 30 c-4 101 113 342 221 455 78 82 185 139 283 150 59 7 59 7 13 9
-56 1 -144 -29 -208 -72 -136 -91 -297 -351 -316 -509 -6 -48 -9 -55 -26 -51
-23 7 -26 -4 64 228 95 246 149 397 144 402 -2 2 -10 -13 -16 -34 -7 -21 -56
-153 -110 -293 -54 -140 -101 -265 -104 -277 -5 -14 -18 -25 -34 -29 -77 -16
-119 -40 -194 -112 -43 -41 -78 -72 -78 -69 0 3 27 46 60 94 l59 88 82 10
c107 13 120 35 22 35 -222 0 -563 8 -593 13 -31 5 -32 5 -5 -2 22 -7 8 -9 -59
-10 -79 -1 -91 1 -107 20 -18 21 -19 21 -46 4 -22 -14 -25 -15 -15 -3 7 9 26
21 42 28 16 7 27 17 23 23 -3 5 -2 7 4 4 5 -3 32 1 59 9 27 8 83 19 124 23 65
7 68 8 25 9 -44 1 -88 -5 -160 -24 -18 -5 -18 -3 4 15 43 38 11 22 -77 -38
l-87 -59 -165 23 c-149 21 -267 49 -280 66 -8 10 -59 18 -122 21 -32 1 -58 5
-58 8 0 14 29 32 56 35 39 4 101 73 109 121 4 22 29 84 55 139 27 55 69 150
94 212 46 116 129 390 122 402 -3 4 11 5 30 3 21 -3 34 0 34 7 0 7 4 10 10 6
16 -10 249 -5 405 9 120 11 136 14 80 15 l-70 2 63 25 c63 26 154 74 140 74
-4 0 -38 -16 -76 -35 -38 -19 -90 -40 -117 -47 -40 -11 -43 -14 -24 -19 29 -7
-121 -14 -293 -14 -71 0 -128 -3 -128 -7 0 -17 -47 -7 -83 18 -48 32 -43 40 9
15 36 -18 51 -19 143 -11 57 5 105 11 107 12 1 2 -51 3 -117 2 -65 -1 -119 0
-119 2 0 2 13 10 29 18 21 11 46 14 92 10 91 -9 213 11 284 45 62 30 125 83
125 104 0 8 -3 8 -9 -1 -5 -8 -31 -15 -62 -16 -72 -4 -212 -40 -317 -82 -138
-56 -165 -39 -160 101 3 63 9 92 31 135 20 40 22 48 8 30 -45 -56 -67 -206
-41 -274 18 -47 -11 -40 -70 19 -101 100 -137 194 -103 268 l18 39 0 -69 c0
-58 5 -77 33 -128 18 -33 53 -82 78 -110 50 -54 42 -38 -17 35 -80 98 -106
193 -73 265 10 22 20 45 22 50 2 6 -14 -9 -36 -32 -45 -48 -58 -93 -42 -152
14 -52 70 -136 128 -188 56 -53 42 -57 -19 -6 -64 54 -118 112 -148 157 -23
34 -27 53 -31 144 -4 82 -8 106 -20 109 -13 4 -13 3 -1 -5 11 -8 12 -14 4 -24
-6 -7 -14 -56 -18 -108 -9 -126 -11 -133 -38 -119 -20 10 -20 9 2 -9 l23 -19
-22 -239 -22 -239 -43 -45 c-23 -25 -50 -58 -59 -73 -10 -15 -21 -27 -25 -27
-9 0 -4 91 9 153 13 60 13 77 0 57 -5 -8 -12 -43 -16 -77 -11 -104 -27 -75
-22 42 2 65 0 97 -5 83 -7 -20 -4 -159 5 -237 2 -13 -3 -25 -10 -27 -7 -1 -8
0 -2 3 27 13 1 24 -30 13 -3 -1 -9 -2 -14 -1 -4 1 10 -19 33 -45 23 -27 39
-54 36 -62 -3 -7 -5 -44 -5 -80 l0 -67 -46 130 c-25 72 -47 137 -48 145 -1 8
-9 29 -19 45 -9 17 -46 89 -83 160 -36 72 -70 133 -76 136 -5 3 33 41 84 85
51 43 115 103 143 134 27 30 85 91 127 136 43 44 78 84 78 88 0 4 -19 -13 -42
-38 -22 -26 -43 -44 -45 -42 -3 2 7 26 20 53 28 55 51 122 45 129 -3 2 -10
-15 -17 -38z m-182 -83 c-4 -24 -19 -66 -33 -93 -23 -45 -113 -146 -175 -197
-22 -19 -22 -17 8 42 50 100 183 293 202 293 3 0 3 -20 -2 -45z m396 -232 c30
-31 53 -58 51 -61 -4 -3 -91 56 -128 88 -12 9 -18 29 -18 55 l0 40 20 -33 c11
-18 45 -58 75 -89z m-988 -54 c45 -41 107 -64 221 -85 l77 -13 -100 3 c-105 3
-165 21 -212 63 -25 22 -53 82 -53 110 1 11 6 7 14 -12 7 -16 31 -46 53 -66z
m1042 -14 c6 3 24 -4 41 -16 39 -29 30 -38 -9 -9 -17 12 -31 19 -31 17 0 -3
24 -22 53 -43 28 -21 56 -41 61 -45 4 -4 -47 -157 -114 -341 -68 -183 -127
-345 -132 -360 -5 -14 -19 -29 -32 -32 -13 -3 -39 -23 -59 -45 l-35 -39 5 33
c3 19 3 45 -1 59 -8 34 -48 35 -74 2 -35 -46 -46 -20 -43 110 1 65 4 121 7
126 3 4 -2 11 -11 14 -13 6 -14 8 -3 15 7 5 22 9 33 9 22 0 88 49 68 50 -7 0
-13 -4 -13 -9 0 -11 -56 -34 -71 -29 -9 3 -9 7 2 16 22 20 109 60 109 51 0 -4
-4 -10 -9 -13 -4 -3 -6 -16 -4 -29 4 -20 -1 -26 -28 -36 -17 -6 -44 -11 -58
-11 -21 -1 -23 -2 -10 -10 10 -6 30 -5 53 1 21 6 40 9 42 7 2 -2 -1 -44 -6
-93 -19 -179 -10 -180 26 -4 26 128 31 138 89 166 l30 14 -28 -6 -28 -6 30 45
c17 24 31 48 31 53 0 4 -16 -16 -35 -44 -19 -28 -39 -54 -45 -58 -16 -10 -11
47 5 69 17 23 20 40 5 31 -7 -4 -9 2 -6 17 9 40 25 199 32 318 6 98 9 135 13
147 1 2 32 -20 71 -48 38 -28 74 -48 79 -44z m612 71 c-33 -35 -127 -74 -207
-86 -87 -12 -174 -13 -174 -1 0 24 281 107 369 110 l34 1 -22 -24z m-1841 -83
c0 -17 -4 -35 -10 -38 -6 -3 -10 4 -10 18 0 14 -3 40 -6 58 -6 32 -6 33 9 14
9 -11 17 -34 17 -52z m130 -142 c0 -5 -6 -11 -12 -14 -7 -2 -4 -3 8 -1 17 3
42 -22 120 -123 54 -69 104 -131 109 -137 44 -48 94 -130 108 -175 9 -29 14
-52 12 -50 -2 2 -43 42 -91 89 -95 93 -103 87 -12 -8 43 -46 53 -62 41 -66
-40 -16 -170 43 -241 107 -41 38 -43 39 -27 12 57 -91 201 -161 269 -130 14 6
17 5 12 -3 -25 -40 -164 -9 -262 59 -32 23 -50 32 -39 19 11 -12 38 -33 60
-46 76 -44 126 -57 230 -59 93 -2 101 0 102 17 2 15 -1 17 -11 9 -17 -14 -29
10 -19 36 4 10 2 14 -4 10 -6 -4 -13 4 -15 18 -3 14 -4 25 -3 25 1 0 17 -21
35 -47 19 -27 46 -61 62 -77 15 -17 28 -35 28 -40 0 -6 -14 4 -30 22 -23 24
-30 28 -29 15 0 -10 36 -49 80 -87 50 -44 78 -75 74 -84 -3 -7 -5 -24 -5 -38
0 -21 -3 -23 -26 -14 -14 6 -41 10 -61 10 -27 0 -52 12 -102 49 -119 88 -244
164 -399 243 -151 77 -172 85 -172 70 0 -4 137 -88 304 -187 167 -99 303 -181
302 -182 -1 -1 -91 20 -199 47 -109 27 -286 63 -395 80 -108 18 -208 34 -221
37 -23 4 -22 7 30 56 59 55 43 46 -29 -16 -24 -21 -53 -37 -67 -37 -33 0 -32
12 4 28 16 7 56 30 88 51 32 21 63 36 68 34 6 -2 34 21 64 50 l54 53 28 125
c15 68 30 153 34 189 3 36 10 100 16 142 l11 77 59 -75 c32 -40 59 -78 59 -83z
m-263 40 c18 -62 14 -217 -8 -286 l-12 -40 -14 55 c-16 63 -29 319 -19 347 7
17 8 17 22 -2 8 -11 22 -44 31 -74z m1487 69 c-6 -6 -15 -5 -24 1 -13 9 -12
10 3 5 9 -3 17 0 17 6 0 6 3 8 7 5 4 -4 2 -12 -3 -17z m-759 -30 c-3 -5 -13
-6 -21 -3 -12 4 -13 8 -3 14 15 9 32 2 24 -11z m-379 -35 c126 -16 288 -27
234 -15 -24 5 -15 6 30 3 35 -2 65 -5 67 -7 1 -1 66 -150 143 -330 l141 -329
-2 -73 -2 -73 -79 67 c-87 74 -195 221 -183 250 6 17 36 163 34 172 0 3 -5 -6
-11 -20 -10 -25 -10 -24 -22 15 -7 23 -18 50 -25 60 -12 20 -12 20 -6 0 39
-110 43 -151 20 -200 -7 -16 -14 -24 -14 -17 -1 6 0 15 2 18 1 3 -6 10 -15 15
-11 6 -18 22 -18 38 0 29 -42 122 -63 140 -10 8 -12 2 -9 -27 l3 -37 -20 25
c-11 14 -46 57 -77 95 -31 39 -75 92 -97 119 -23 27 -42 52 -42 55 0 3 43 11
95 17 55 7 76 12 50 12 -25 0 -71 -3 -102 -7 -58 -7 -58 -7 -95 32 l-38 39 31
-16 c18 -8 49 -18 70 -21z m-1269 -37 c84 -74 141 -162 177 -273 15 -50 49
-226 43 -231 -6 -6 -134 195 -174 274 -41 82 -103 234 -103 253 0 17 19 9 57
-23z m2033 -263 c0 -29 -6 -39 -32 -55 -35 -21 -62 -26 -56 -11 4 12 79 101
84 101 2 0 4 -16 4 -35z m-500 -57 c29 -64 26 -92 -5 -46 -22 33 -34 88 -20
88 4 0 15 -19 25 -42z m-625 -38 c3 -5 1 -10 -4 -10 -6 0 -11 5 -11 10 0 6 2
10 4 10 3 0 8 -4 11 -10z m992 -27 c0 -9 -4 -10 -14 -2 -7 6 -13 12 -13 14 0
1 6 2 13 2 8 0 14 -6 14 -14z m-978 -12 c8 -14 4 -24 -22 -47 -17 -16 -25 -21
-18 -11 10 12 10 17 2 17 -7 0 -9 5 -4 13 8 12 9 17 12 37 2 16 20 11 30 -9z
m437 -89 c-5 -4 -66 26 -66 33 0 3 16 -3 35 -12 19 -9 33 -18 31 -21z m71 -18
c-3 -3 -12 -4 -19 -1 -8 3 -5 6 6 6 11 1 17 -2 13 -5z m-1166 -87 c-13 -13
-17 -9 -25 28 l-6 30 20 -24 c14 -17 18 -27 11 -34z m30 -34 c-12 -20 -14 -14
-5 12 4 9 9 14 11 11 3 -2 0 -13 -6 -23z m1579 -201 c0 -15 -2 -15 -10 -2 -13
20 -13 33 0 25 6 -3 10 -14 10 -23z m-665 -21 c36 -16 88 -61 71 -61 -10 0
-98 46 -121 64 -29 22 -1 20 50 -3z m156 -65 c5 3 9 1 9 -5 0 -5 -4 -13 -10
-16 -5 -3 -10 -4 -10 -1 0 2 -2 10 -3 18 -2 7 -2 10 0 5 3 -4 9 -5 14 -1z
m429 -40 c0 -3 -4 -8 -10 -11 -5 -3 -10 -1 -10 4 0 6 5 11 10 11 6 0 10 -2 10
-4z m1874 -31 c-4 -8 -10 -15 -15 -15 -5 0 -9 7 -9 15 0 8 7 15 15 15 9 0 12
-6 9 -15z m-1214 -15 c64 -8 64 -8 -29 -6 -63 1 -96 5 -98 13 -3 8 6 10 29 7
18 -3 62 -9 98 -14z m1537 -6 c-3 -3 -12 -4 -19 -1 -8 3 -5 6 6 6 11 1 17 -2
13 -5z m-1502 -34 c50 -5 97 -10 106 -10 9 0 19 -10 22 -22 2 -13 7 -30 11
-39 6 -13 -8 -21 -66 -42 -63 -23 -78 -26 -111 -16 -22 6 -45 8 -53 5 -9 -3
-12 -1 -9 5 15 23 -7 61 -49 88 -39 24 -42 29 -28 39 10 6 33 9 52 7 19 -3 76
-10 125 -15z m-257 -42 c7 -16 8 -28 2 -28 -12 0 -30 34 -30 56 0 22 12 9 28
-28z m450 5 c19 -30 -2 -30 -22 -1 -9 12 -16 17 -16 11 0 -7 5 -15 11 -18 6
-4 8 -13 5 -21 -3 -8 1 -14 8 -14 7 0 19 -7 26 -15 10 -13 9 -15 -9 -15 -20 0
-40 28 -55 76 -5 17 -2 21 15 20 12 0 28 -11 37 -23z m582 -125 c-52 -79 -99
-149 -105 -155 -8 -10 -58 1 -230 51 -121 35 -251 73 -290 84 -51 15 -62 21
-40 22 28 1 29 1 10 12 -29 17 -55 20 -51 5 1 -6 1 -9 -1 -5 -3 5 -17 6 -31 3
-31 -6 -22 -1 60 31 44 17 58 20 54 9 -2 -7 0 -16 7 -19 7 -2 -4 -2 -23 0 -33
5 -34 5 -16 -10 11 -9 28 -16 37 -16 10 0 23 -8 29 -17 11 -17 11 -17 6 0 -7
23 1 22 41 -9 19 -14 36 -24 39 -21 3 2 -10 14 -28 26 -18 11 -28 21 -21 21 6
0 20 3 30 6 15 5 15 4 3 -5 -12 -9 -10 -11 13 -11 15 0 53 -9 84 -20 71 -25
79 -25 30 1 -21 11 -35 24 -32 29 4 6 1 10 -4 10 -6 0 -11 -4 -11 -8 0 -5 -7
-9 -16 -9 -14 0 -14 2 2 14 18 13 29 12 81 -2 10 -3 5 1 -12 9 -16 8 -37 15
-46 16 -9 0 -34 22 -57 49 l-41 48 212 -2 c117 -1 255 0 307 4 52 3 97 5 99 4
2 -2 -38 -67 -89 -145z m-519 114 c53 -60 53 -62 31 -62 -23 0 -82 54 -82 76
0 23 25 16 51 -14z m844 -38 c17 -46 20 -61 9 -61 -7 0 -11 4 -8 9 3 5 -12 16
-32 24 -75 31 -170 -3 -260 -94 -68 -68 -91 -107 -69 -116 8 -3 15 -18 15 -33
0 -26 -1 -26 -15 -7 -15 17 -15 16 -2 -11 8 -16 17 -73 20 -125 6 -105 32
-194 73 -247 28 -38 23 -41 -22 -14 -27 16 -35 31 -54 102 -12 46 -28 110 -35
144 -7 33 -14 49 -14 35 -1 -14 13 -76 29 -139 17 -62 30 -115 30 -118 0 -7
-60 27 -61 35 0 4 -6 57 -12 117 -12 108 -8 239 5 170 3 -16 4 -7 2 20 -2 35
-1 44 6 30 8 -18 9 -18 9 -2 1 10 8 20 16 23 14 6 14 8 -1 18 -15 12 -15 15 1
45 9 18 15 35 12 37 -5 5 -57 -109 -57 -125 0 -6 -4 -11 -10 -11 -5 0 -10 7
-10 16 0 20 90 167 98 160 3 -3 -1 -12 -8 -21 -8 -10 -9 -15 -1 -15 6 0 11 4
11 9 0 14 107 126 150 156 40 27 121 56 149 52 7 -1 23 -29 36 -63z m16 20 c9
-54 4 -54 -15 1 -11 33 -12 45 -3 42 6 -2 15 -21 18 -43z m34 -1 c7 -41 105
-235 153 -305 l31 -45 -31 -26 c-16 -15 -34 -25 -38 -22 -9 5 -108 248 -114
280 -3 11 -9 40 -15 65 -13 56 -14 90 -2 90 5 0 12 -16 16 -37z m-2051 8 c3
-5 -38 -44 -92 -88 -53 -44 -111 -93 -129 -110 l-31 -29 -43 21 -42 22 159 96
c87 53 162 96 166 97 4 0 9 -4 12 -9z m2319 -187 c49 -65 157 -233 157 -245 0
-4 -11 -9 -25 -11 -13 -3 -22 -1 -19 3 3 5 -5 9 -18 9 -33 0 -136 112 -182
199 -21 39 -51 111 -67 159 l-29 87 68 -70 c38 -38 89 -98 115 -131z m-2259
158 c-27 -23 -58 -71 -50 -79 3 -3 -29 -43 -72 -87 -43 -45 -107 -119 -142
-164 l-65 -84 -7 39 c-5 21 -13 48 -19 60 -11 20 -14 17 -44 -45 -34 -69 -88
-134 -138 -167 -39 -25 -26 -30 20 -7 43 23 91 71 122 122 11 19 21 29 21 22
0 -27 -42 -93 -97 -154 -32 -35 -44 -52 -29 -38 59 51 87 87 122 155 l35 70
-4 -45 c-4 -33 -19 -67 -59 -126 -29 -44 -65 -102 -78 -128 -22 -42 -28 -46
-50 -40 -14 4 -36 8 -50 8 -14 1 -27 4 -30 7 -7 8 -153 47 -235 63 -47 9 -103
11 -168 7 -53 -3 -97 -3 -97 1 0 3 -2 12 -5 20 -3 8 6 18 23 24 16 6 147 82
293 169 334 201 311 189 355 175 48 -16 33 -28 -41 -33 -33 -2 -23 -3 22 -2
45 2 84 0 87 -3 3 -2 -14 -18 -37 -34 -61 -41 -109 -75 -132 -92 l-20 -16 20
7 c11 3 45 24 76 44 31 21 63 40 70 41 8 2 18 9 24 15 14 17 30 4 42 -32 9
-29 10 -28 17 27 7 58 2 83 -15 73 -5 -3 -6 1 -3 10 4 9 3 15 -2 14 -5 -2 -29
3 -53 10 -31 9 -40 15 -31 21 8 5 26 2 44 -8 17 -9 38 -17 46 -18 8 -2 16 -8
19 -15 2 -8 6 -8 10 -1 15 25 286 228 305 229 l21 2 -21 -17z m1071 -2 c10
-11 14 -20 8 -20 -5 0 -18 9 -28 20 -10 11 -14 20 -8 20 5 0 18 -9 28 -20z
m-265 -125 c0 -27 3 -67 7 -88 l6 -38 -87 43 c-61 30 -86 48 -86 61 0 26 -17
57 -52 94 -17 17 -28 36 -24 41 3 6 52 -5 121 -27 l115 -36 0 -50z m1105 90
c29 -13 29 -13 -31 -14 -77 -1 -147 -35 -218 -105 -47 -45 -34 -37 32 21 46
41 125 73 179 73 86 0 98 -9 123 -92 12 -40 46 -124 76 -187 30 -63 54 -115
54 -116 0 -1 -43 -28 -97 -61 -58 -35 -129 -91 -177 -138 -45 -44 -88 -79 -96
-77 -11 1 -12 0 -3 -7 10 -6 7 -22 -12 -67 l-24 -60 6 60 c5 51 11 66 42 98
33 36 220 203 300 270 18 15 32 30 29 32 -2 2 -17 -8 -33 -23 -17 -15 -62 -54
-100 -87 -94 -80 -131 -113 -176 -157 l-38 -37 -12 57 c-15 74 -64 212 -100
285 -19 37 -29 70 -27 92 2 40 2 40 48 15 38 -21 17 -29 -23 -9 -21 10 -21 9
-3 -5 10 -8 39 -18 65 -22 25 -4 56 -13 68 -21 12 -8 28 -11 34 -7 7 4 9 3 6
-3 -4 -6 4 -18 18 -27 14 -9 25 -13 25 -8 0 17 -46 49 -100 71 -30 12 -71 30
-90 41 l-35 18 30 12 c43 17 161 7 218 -18 26 -11 47 -17 47 -13 0 5 -31 19
-70 31 -69 22 -99 23 -227 6 -19 -2 -33 0 -33 6 0 6 33 43 73 83 96 96 177
125 252 90z m-842 -2 c-7 -2 -21 -2 -30 0 -10 3 -4 5 12 5 17 0 24 -2 18 -5z
m77 -7 c-4 -4 -21 -4 -37 2 -28 11 -28 11 9 9 21 -1 33 -6 28 -11z m-1067 -28
c-22 -45 -27 -49 -19 -13 6 24 20 44 33 45 1 0 -6 -15 -14 -32z m755 -28 c1
-58 60 -190 83 -190 5 0 -4 18 -20 40 -29 40 -56 119 -49 141 2 7 11 13 20 15
11 1 15 -3 11 -12 -3 -8 -2 -35 2 -60 7 -52 58 -115 117 -147 18 -10 26 -12
17 -5 -9 7 -21 29 -28 48 -13 40 -81 154 -88 147 -2 -3 10 -25 27 -50 37 -55
64 -117 51 -117 -5 0 -25 18 -44 41 -36 41 -53 95 -42 129 6 18 7 18 58 -2 29
-11 73 -31 99 -44 55 -28 72 -31 43 -7 -19 15 -19 15 5 9 108 -28 314 -76 351
-81 56 -8 58 -14 65 -180 3 -60 9 -127 13 -147 5 -21 7 -38 4 -38 -12 0 -593
301 -593 307 0 4 -6 8 -13 8 -21 0 -77 27 -77 37 0 5 -4 7 -8 4 -9 -5 -10 1
-16 107 -3 42 -1 77 3 77 4 0 8 -14 9 -30z m-798 16 c0 -2 -14 -59 -31 -127
-39 -158 -86 -269 -115 -269 -24 0 -182 -45 -192 -55 -4 -4 6 -3 22 1 27 6 26
4 -18 -36 -25 -23 -46 -47 -46 -53 0 -5 19 11 43 35 47 51 85 73 146 87 57 13
59 -1 3 -26 -51 -24 -132 -88 -132 -105 0 -6 12 3 28 20 29 32 93 75 130 86
21 7 23 6 13 -12 -6 -11 -23 -22 -38 -25 -37 -7 -87 -55 -114 -109 -20 -39
-20 -41 -3 -27 11 9 41 28 68 44 42 24 48 25 41 9 -5 -11 -34 -93 -65 -184
l-57 -164 -49 64 c-27 35 -76 98 -110 140 l-60 76 163 219 c90 121 194 261
231 312 37 51 72 91 77 89 6 -2 19 0 30 5 23 9 35 11 35 5z m9 -117 c-18 -44
-21 -29 -7 32 11 44 14 49 16 25 2 -15 -2 -41 -9 -57z m499 49 c19 -12 49 -22
68 -23 46 -3 214 -112 215 -139 0 -19 1 -19 8 -3 6 16 13 13 56 -25 28 -23 43
-34 35 -23 -14 18 -13 18 20 -2 127 -76 447 -238 511 -258 31 -10 17 -20 -144
-109 -76 -42 -148 -83 -161 -91 -21 -14 -26 -11 -114 68 -50 45 -103 100 -117
122 -30 44 -125 145 -137 145 -4 0 16 -24 45 -52 29 -29 61 -64 72 -78 16 -20
12 -18 -22 8 -54 42 -120 117 -120 136 0 25 68 48 123 42 84 -9 -4 10 -112 25
l-96 13 -62 78 c-96 123 -127 168 -121 179 9 13 13 12 53 -13z m-358 3 c0 -5
13 -14 29 -21 47 -19 53 -72 26 -214 -13 -64 -26 -148 -30 -187 -7 -64 -11
-74 -44 -106 -20 -20 -26 -28 -13 -18 21 17 31 10 14 -11 -11 -12 -35 -95 -29
-100 2 -3 15 28 28 68 l24 73 3 -149 c1 -82 -1 -153 -5 -157 -5 -4 -48 -17
-98 -29 -132 -31 -318 -91 -332 -107 -6 -8 -14 -10 -17 -5 -7 11 4 52 14 52 4
0 8 10 8 23 1 29 141 408 141 382 0 -11 -8 -40 -19 -64 -23 -50 -26 -78 -5
-41 12 21 29 70 40 115 5 22 24 59 24 48 2 -30 -22 -168 -35 -206 -8 -23 -10
-37 -5 -32 17 17 60 220 53 248 -2 5 2 6 7 3 11 -7 20 14 13 31 -2 7 -9 10
-16 6 -6 -3 -8 -3 -4 2 4 4 3 17 -3 28 -8 15 -8 18 1 12 8 -5 11 -3 8 6 -4 12
21 91 94 292 7 18 17 27 31 27 12 0 33 9 47 20 26 21 50 26 50 11z m-577 -52
c21 -5 37 -16 37 -24 0 -19 -16 -19 -67 3 -70 28 -49 43 30 21z m702 -56 c4
-21 29 -105 57 -188 66 -200 65 -190 20 -160 -20 14 -48 25 -62 25 -22 1 -23
2 -7 11 13 8 25 5 48 -12 16 -11 33 -19 36 -16 2 3 -9 13 -26 22 -17 8 -31 17
-31 19 0 1 -13 67 -30 144 -16 78 -30 153 -30 167 0 38 17 30 25 -12z m-642
-3 c3 -11 1 -20 -4 -20 -5 0 -9 9 -9 20 0 11 2 20 4 20 2 0 6 -9 9 -20z m987
-144 c0 -5 -24 13 -53 40 -30 28 -51 55 -48 63 3 10 20 -4 52 -40 27 -30 49
-58 49 -63z m1621 49 l58 -55 -35 0 c-19 0 -37 -1 -41 -2 -5 -1 -23 18 -41 41
-25 34 -30 46 -21 57 6 8 14 14 17 14 3 0 31 -25 63 -55z m-2633 10 c-3 -3 -9
2 -12 12 -6 14 -5 15 5 6 7 -7 10 -15 7 -18z m-12 -32 c-3 -4 -6 0 -6 8 0 8
-13 -8 -29 -36 -16 -27 -44 -63 -61 -80 -27 -24 -24 -19 11 25 25 31 51 70 58
89 12 28 16 30 24 16 5 -9 6 -19 3 -22z m2058 -156 c19 -56 37 -120 40 -142
l6 -40 -38 41 c-50 55 -83 149 -88 256 l-5 83 26 -48 c14 -26 41 -94 59 -150z
m521 157 c15 -19 25 -37 24 -39 -4 -3 -80 -35 -84 -35 -2 0 -10 12 -20 26 -16
25 -16 27 11 55 15 16 31 29 35 29 4 0 19 -16 34 -36z m-1885 -164 c0 -14 -47
-50 -65 -50 -7 0 -2 82 12 195 l6 50 23 -90 c13 -50 23 -97 24 -105z m420 121
c0 -4 -10 -7 -22 -5 -13 1 -31 3 -40 3 -10 1 -18 4 -18 9 0 4 18 6 40 4 22 -2
40 -7 40 -11z m41 -12 c-14 -5 -32 -15 -40 -22 -9 -6 -8 -2 3 11 11 12 29 22
40 21 19 0 19 -1 -3 -10z m1495 -22 c11 -12 35 -34 54 -49 l35 -28 -35 10
c-19 6 -61 10 -92 10 -47 0 -59 4 -72 22 -9 12 -16 18 -16 14 0 -5 7 -18 17
-28 9 -10 11 -18 5 -18 -15 0 -35 38 -26 51 9 15 64 38 90 39 11 0 29 -10 40
-23z m-3412 -130 c9 -33 8 -37 -9 -37 -8 0 -24 17 -35 38 -11 20 -32 53 -47
71 l-28 35 56 -42 c31 -24 60 -53 63 -65z m1844 27 c2 -27 0 -69 -3 -94 -7
-44 -7 -44 -20 -20 -22 42 -27 86 -15 130 15 55 34 47 38 -16z m1452 17 c0 -5
2 -16 5 -23 4 -10 -9 -18 -45 -27 -64 -16 -215 -90 -256 -124 -35 -30 -66 -38
-44 -12 7 8 16 12 21 9 5 -3 9 1 9 8 1 28 153 125 255 162 49 18 55 19 55 7z
m46 -12 c19 -21 19 -21 -6 -18 -14 2 -26 12 -28 22 -5 23 11 22 34 -4z m-2346
-33 c0 -22 -104 -95 -117 -82 -3 3 14 26 39 51 45 45 78 58 78 31z m478 -20
c7 -8 -12 -36 -28 -41 -18 -6 -59 -45 -47 -45 4 0 17 10 29 22 13 13 23 17 25
11 5 -14 -40 -109 -67 -143 -24 -31 -26 -14 -5 56 13 45 13 47 -2 29 -15 -19
-15 -19 -8 5 5 14 7 39 7 57 -2 40 30 67 68 58 14 -4 26 -8 28 -9z m1190 -59
c6 -5 12 -19 12 -32 0 -19 -6 -22 -52 -24 -57 -2 -207 -48 -259 -80 -19 -12
-28 -21 -21 -21 7 0 11 -4 8 -9 -3 -5 31 4 77 20 54 19 102 29 140 29 63 0
127 -23 127 -46 0 -11 -7 -11 -41 1 -58 21 -151 19 -233 -5 -46 -13 -74 -16
-85 -10 -9 5 -11 10 -6 10 6 0 4 4 -2 8 -9 6 8 19 49 42 35 18 103 57 153 85
86 50 104 54 133 32z m-2243 -79 c77 -19 86 -24 60 -29 -71 -16 -385 -7 -385
11 0 6 16 12 95 35 35 11 152 2 230 -17z m2261 -15 c8 -31 3 -36 -30 -23 -47
17 -133 11 -212 -15 -85 -29 -96 -30 -69 -11 54 37 255 91 293 78 7 -2 15 -15
18 -29z m-1996 -88 c-1 -11 -27 20 -41 50 -6 11 1 7 15 -10 14 -16 26 -34 26
-40z m2041 -7 c11 -21 11 -22 -4 -9 -10 7 -17 17 -17 22 0 15 9 10 21 -13z
m569 -88 c0 -5 -16 6 -35 23 -19 17 -35 32 -35 34 0 2 16 -8 35 -23 19 -14 35
-30 35 -34z m-907 9 c22 -31 24 -38 9 -30 -18 9 -52 53 -52 66 0 15 18 0 43
-36z m-143 16 c5 3 0 -14 -10 -38 -31 -71 -70 -245 -71 -324 l-1 -73 -34 0
c-19 0 -34 5 -34 10 0 9 21 15 43 11 4 0 7 4 7 9 0 6 -11 8 -25 4 -18 -5 -25
-2 -25 9 0 8 -3 23 -7 33 -4 12 -3 15 5 10 8 -5 12 0 12 13 0 29 65 205 100
268 16 30 28 60 26 66 -1 7 -1 9 1 4 3 -4 9 -5 13 -2z m-825 -145 c127 -60
207 -151 207 -234 0 -25 -5 -53 -11 -63 -9 -15 -10 -11 -11 22 -1 78 -60 167
-161 241 -27 19 -52 33 -57 30 -5 -3 -9 1 -9 9 0 8 3 13 6 12 3 -2 20 -9 36
-17z m-166 -39 c-98 -76 -349 -206 -349 -180 0 16 84 95 131 122 25 15 85 37
134 51 111 30 113 30 84 7z m828 -213 c-3 -8 -6 -5 -6 6 -1 11 2 17 5 13 3 -3
4 -12 1 -19z m131 -25 c2 -8 -5 -13 -17 -13 -12 0 -21 6 -21 16 0 18 31 15 38
-3z m42 10 c0 -5 -4 -14 -9 -22 -7 -11 -11 -9 -20 8 -10 18 -9 21 9 21 11 0
20 -3 20 -7z m-170 -15 c0 -5 -8 -8 -17 -7 -10 1 -34 0 -53 -1 l-35 -3 30 -7
c26 -7 24 -7 -11 -4 -45 4 -86 -4 -79 -16 6 -10 -44 -32 -56 -24 -5 3 -26 -4
-47 -16 -33 -20 -31 -17 18 29 30 27 63 52 75 54 39 8 175 4 175 -5z m-3 -24
c-3 -3 -12 -4 -19 -1 -8 3 -5 6 6 6 11 1 17 -2 13 -5z m83 -4 c0 -12 -27 -12
-55 0 -16 7 -13 9 18 9 20 1 37 -3 37 -9z m64 -5 c6 -16 -10 -20 -38 -9 -24 9
-19 24 8 24 13 0 26 -7 30 -15z m-144 -26 c0 -15 -4 -19 -16 -15 -9 3 -20 6
-25 6 -4 0 -6 7 -3 15 9 24 44 19 44 -6z m170 -10 c85 -23 171 -68 213 -111
35 -36 66 -103 67 -142 0 -26 -3 -24 -37 27 -71 105 -163 157 -360 207 -33 8
-43 16 -43 31 0 17 5 19 43 13 23 -3 76 -15 117 -25z m-272 -8 c11 -6 7 -13
-16 -30 -39 -28 -43 -27 -31 9 11 31 24 36 47 21z m95 -9 c4 -1 7 -11 7 -22 0
-22 -11 -19 -54 13 -18 13 -17 14 10 12 16 -1 32 -3 37 -3z m14 -339 c-3 -10
-5 -2 -5 17 0 19 2 27 5 18 2 -10 2 -26 0 -35z"/>
<path d="M5145 7109 c29 -35 83 -79 138 -114 44 -28 31 -10 -15 20 -24 16 -68
51 -98 79 -40 37 -47 41 -25 15z"/>
<path d="M5245 6920 l-80 -6 108 -2 c66 -1 107 2 107 8 0 10 -4 10 -135 0z"/>
<path d="M5398 6913 c7 -3 16 -2 19 1 4 3 -2 6 -13 5 -11 0 -14 -3 -6 -6z"/>
<path d="M5405 7165 c8 -22 14 -57 15 -77 0 -21 4 -38 8 -38 5 0 5 21 1 48 -4
26 -8 52 -8 58 -1 5 -8 19 -15 30 -13 17 -13 14 -1 -21z"/>
<path d="M4749 7078 c0 -2 -2 -13 -3 -25 -2 -19 0 -21 12 -11 9 8 10 14 3 16
-6 2 -9 8 -5 13 3 5 3 9 0 9 -3 0 -6 -1 -7 -2z"/>
<path d="M5034 5972 c-33 -31 -74 -67 -90 -80 -16 -13 -9 -9 16 7 50 34 71 52
114 99 46 49 27 38 -40 -26z"/>
<path d="M4455 5754 c33 -7 67 -13 75 -12 23 1 -82 26 -110 26 -14 0 2 -6 35
-14z"/>
<path d="M6293 5887 c-21 -12 -19 -14 41 -45 64 -33 122 -82 164 -137 27 -37
18 -5 -14 45 -29 47 -59 74 -124 109 -66 36 -52 41 23 7 30 -13 79 -48 110
-79 31 -30 57 -52 57 -47 0 17 -117 114 -165 136 -57 27 -62 28 -92 11z m55
-31 c26 -13 65 -41 87 -61 l40 -37 -45 35 c-25 19 -67 46 -95 60 -27 14 -46
26 -42 27 4 0 29 -11 55 -24z"/>
<path d="M5460 5823 c0 -5 7 -17 15 -27 13 -17 13 -22 0 -42 -16 -25 -20 -48
-7 -41 4 3 8 -27 9 -67 1 -39 4 -87 7 -106 3 -19 3 -28 -1 -20 -4 8 -11 -6
-19 -35 -7 -28 -11 -51 -9 -53 8 -8 43 89 48 133 4 34 3 42 -3 25 -8 -24 -8
-23 -9 8 -1 18 3 31 7 28 4 -2 7 12 5 32 -2 32 -1 34 6 12 5 -14 9 -37 10 -52
1 -16 5 -28 10 -28 10 0 4 39 -16 103 -8 26 -19 45 -24 42 -5 -4 -6 1 -3 10 8
20 10 18 50 -53 19 -31 34 -54 34 -49 0 9 -101 187 -106 187 -2 0 -4 -3 -4 -7z
m31 -149 c-5 -21 -9 -30 -10 -19 -1 24 10 67 15 62 3 -2 0 -22 -5 -43z"/>
<path d="M5526 5519 c-4 -33 -9 -68 -12 -77 -5 -15 -4 -15 4 -2 11 17 28 140
20 140 -3 0 -9 -27 -12 -61z"/>
<path d="M5774 5715 c-15 -13 -26 -27 -23 -29 3 -3 18 8 34 24 35 36 29 39
-11 5z"/>
<path d="M6240 4950 c-8 -5 -10 -10 -5 -10 6 0 17 5 25 10 8 5 11 10 5 10 -5
0 -17 -5 -25 -10z"/>
<path d="M6036 8031 c-4 -5 3 -7 14 -4 23 6 26 13 6 13 -8 0 -17 -4 -20 -9z"/>
<path d="M4590 7990 c6 -11 13 -20 16 -20 2 0 0 9 -6 20 -6 11 -13 20 -16 20
-2 0 0 -9 6 -20z"/>
<path d="M4996 7953 c-6 -14 -5 -15 5 -6 7 7 10 15 7 18 -3 3 -9 -2 -12 -12z"/>
<path d="M4776 7853 c-6 -14 -5 -15 5 -6 7 7 10 15 7 18 -3 3 -9 -2 -12 -12z"/>
<path d="M4930 7859 c0 -5 5 -7 10 -4 6 3 10 8 10 11 0 2 -4 4 -10 4 -5 0 -10
-5 -10 -11z"/>
<path d="M6368 7812 c-35 -35 -111 -180 -102 -193 11 -19 42 21 54 72 7 27 28
69 47 94 40 52 40 69 1 27z m-63 -145 c-4 -15 -13 -31 -21 -38 -18 -15 -18 -7
3 36 19 39 27 40 18 2z"/>
<path d="M5327 7813 c-12 -18 22 -216 39 -232 4 -3 4 6 0 22 -3 15 -8 39 -12
55 l-5 27 17 -29 c9 -17 18 -43 19 -60 1 -17 7 -32 13 -34 15 -5 -10 79 -34
116 -10 15 -20 54 -23 87 -4 35 -9 55 -14 48z"/>
<path d="M4722 7798 c2 -8 -5 -12 -17 -10 -15 2 -17 1 -6 -6 7 -5 18 -16 23
-23 8 -11 9 -11 5 2 -3 9 -1 21 5 27 6 6 6 12 -1 17 -7 4 -10 1 -9 -7z"/>
<path d="M4780 7740 c-9 -6 -10 -10 -3 -10 6 0 15 5 18 10 8 12 4 12 -15 0z"/>
<path d="M6730 7629 c-59 -30 -62 -38 -4 -14 37 15 85 46 69 44 -6 -1 -35 -14
-65 -30z"/>
<path d="M4780 7624 c0 -6 7 -30 15 -53 8 -23 15 -59 17 -81 1 -22 6 -40 10
-40 5 0 6 10 4 23 -3 12 -8 39 -11 59 -6 39 -34 112 -35 92z"/>
<path d="M6575 7579 c-45 -12 -56 -17 -30 -14 42 5 141 33 115 33 -8 0 -46 -9
-85 -19z"/>
<path d="M5639 7408 c-10 -39 -8 -103 7 -168 3 -17 0 -14 -11 10 -9 19 -21 71
-27 114 -7 44 -13 75 -16 68 -9 -28 21 -162 49 -220 28 -58 57 -77 44 -29 -3
12 3 6 14 -13 26 -46 27 -31 1 20 -29 58 -53 168 -46 218 3 23 4 42 1 42 -2 0
-9 -19 -16 -42z m8 -100 c-3 -7 -5 -2 -5 12 0 14 2 19 5 13 2 -7 2 -19 0 -25z
m27 -106 c2 -22 0 -30 -7 -23 -5 5 -11 33 -12 63 -3 45 -2 49 6 23 6 -16 11
-45 13 -63z"/>
<path d="M5650 7151 c0 -5 5 -13 10 -16 6 -3 10 -2 10 4 0 5 -4 13 -10 16 -5
3 -10 2 -10 -4z"/>
<path d="M5687 7153 c-4 -3 -7 -11 -7 -17 0 -6 5 -5 12 2 6 6 9 14 7 17 -3 3
-9 2 -12 -2z"/>
<path d="M3586 6830 c19 -19 168 -50 233 -49 122 2 126 14 5 15 -94 0 -132 5
-183 21 -35 12 -60 18 -55 13z"/>
<path d="M4370 6830 c0 -5 5 -10 11 -10 5 0 7 5 4 10 -3 6 -8 10 -11 10 -2 0
-4 -4 -4 -10z"/>
<path d="M4291 6791 c59 -38 102 -80 182 -175 65 -77 123 -174 115 -196 -7
-21 -49 22 -78 80 -66 131 -133 204 -226 247 -31 14 -65 23 -81 20 -25 -3 -24
-4 7 -6 22 -1 30 -4 22 -9 -17 -11 89 -137 186 -222 109 -95 132 -117 132
-128 0 -10 -28 -12 -175 -13 -71 -1 -85 -3 -70 -12 25 -14 145 -16 145 -3 0 6
5 5 12 -2 7 -7 28 -12 48 -12 l35 -1 -34 -29 c-40 -34 -103 -57 -193 -70 l-63
-9 66 4 c81 5 164 35 207 76 18 17 35 30 37 28 6 -7 -63 -148 -91 -184 -38
-50 -105 -87 -160 -89 -50 -1 -53 -3 -21 -15 29 -11 120 28 165 72 55 53 156
279 112 252 -5 -3 -10 -2 -10 3 0 6 10 9 23 8 18 -1 23 -7 24 -31 1 -29 1 -29
-7 -5 -8 24 -8 24 -9 -6 -2 -49 -37 -154 -69 -205 -38 -60 -81 -89 -145 -100
l-52 -8 53 3 c81 5 141 60 187 172 32 78 32 49 -1 -49 -40 -121 -109 -196
-199 -218 -24 -6 -26 -7 -7 -8 52 -2 151 75 185 144 24 49 57 157 67 221 11
66 2 173 -11 139 -6 -15 -8 -16 -8 -4 -1 24 -70 125 -142 208 -61 71 -169 161
-192 161 -6 0 9 -13 34 -29z m2 -58 c80 -41 149 -119 206 -232 l23 -44 -34 24
c-76 54 -248 236 -248 262 0 11 19 8 53 -10z m247 -353 c20 -7 16 -8 -22 -9
-27 -1 -48 4 -48 9 0 12 34 12 70 0z m57 -92 c-3 -7 -5 -2 -5 12 0 14 2 19 5
13 2 -7 2 -19 0 -25z"/>
<path d="M7850 6611 c0 -4 12 -7 28 -7 15 0 56 -3 92 -6 37 -4 54 -3 39 2 -37
11 -159 20 -159 11z"/>
<path d="M6670 6542 c-14 -2 -47 -10 -73 -19 -45 -14 -47 -16 -31 -32 12 -10
36 -16 71 -17 31 0 48 3 41 8 -7 4 -32 8 -55 8 -54 0 -64 15 -12 17 21 1 44 5
51 9 12 8 102 7 153 -2 l30 -4 -30 13 c-16 8 -49 14 -72 13 -24 -1 -44 0 -45
4 -2 3 -14 4 -28 2z m-13 -18 c-3 -3 -12 -4 -19 -1 -8 3 -5 6 6 6 11 1 17 -2
13 -5z"/>
<path d="M3894 6509 c-13 -22 -113 -78 -174 -99 -41 -14 -91 -22 -139 -22 -58
-1 -67 -3 -39 -8 50 -9 144 5 208 30 46 18 170 96 170 106 0 9 -19 3 -26 -7z"/>
<path d="M3685 6059 c130 -19 262 -73 435 -177 93 -57 151 -104 174 -144 l18
-30 -42 7 c-32 5 -64 24 -129 78 -158 129 -257 177 -394 192 -63 7 -171 -8
-181 -24 -3 -4 18 -2 47 6 100 27 272 -6 378 -73 82 -52 198 -149 194 -161 -2
-7 4 -13 13 -13 10 0 31 -13 47 -30 l29 -30 -25 0 c-34 -1 -99 -32 -140 -68
-24 -21 -62 -38 -128 -56 -52 -14 -96 -28 -100 -32 -16 -17 126 8 168 30 66
36 201 89 207 83 11 -11 -34 -79 -91 -137 -63 -66 -113 -99 -203 -136 -32 -13
-50 -24 -41 -24 9 0 54 19 99 41 60 30 101 60 147 107 59 60 122 157 110 169
-3 2 -37 -9 -77 -26 -88 -38 -105 -39 -60 -6 44 33 101 50 136 41 l27 -7 -6
-107 c-10 -169 -42 -262 -122 -350 -46 -51 -108 -92 -139 -92 -8 0 -18 -5 -22
-12 -4 -6 -3 -8 3 -5 5 3 34 8 63 11 171 17 269 166 270 412 0 246 -55 317
-375 475 -122 60 -249 100 -314 98 -27 -1 -21 -4 24 -10z m599 -371 c13 -18
16 -19 16 -5 0 9 4 17 9 17 14 0 31 -109 31 -204 -1 -228 -81 -366 -235 -401
-29 -6 -28 -5 10 20 57 39 101 91 134 160 41 85 55 155 55 272 1 61 5 103 11
103 6 1 -4 7 -20 14 -38 17 -65 46 -42 46 9 0 23 -10 31 -22z m-264 -158 c-8
-5 -22 -9 -30 -9 -10 0 -8 3 5 9 27 12 43 12 25 0z"/>
<path d="M3630 5952 c0 -11 161 -95 167 -88 4 3 2 6 -3 6 -5 0 -44 20 -87 44
-42 24 -77 41 -77 38z"/>
<path d="M3824 5845 c11 -8 25 -15 30 -15 6 0 2 7 -8 15 -11 8 -25 15 -30 15
-6 0 -2 -7 8 -15z"/>
<path d="M3895 5815 c48 -23 243 -85 262 -84 10 0 -18 11 -63 24 -44 13 -111
35 -148 49 -73 28 -100 33 -51 11z"/>
<path d="M4520 5660 c-59 -7 -104 -19 -98 -26 3 -2 19 1 37 6 18 5 55 10 82
11 27 2 49 6 49 11 0 4 -3 7 -7 7 -5 -1 -33 -5 -63 -9z"/>
<path d="M4904 5514 c-14 -15 -30 -39 -35 -53 -5 -14 -34 -44 -64 -66 -30 -22
-55 -40 -55 -42 0 -1 13 3 29 8 27 10 171 140 171 156 0 3 -13 -6 -30 -22 -16
-16 -30 -24 -30 -18 0 6 14 23 31 37 17 14 26 26 20 26 -5 0 -22 -12 -37 -26z"/>
<path d="M4984 5530 c2 -8 17 -44 32 -80 52 -126 44 -230 -25 -303 l-26 -28
48 26 c26 15 55 38 64 51 19 29 34 94 22 94 -5 0 -9 -12 -9 -26 0 -28 -36 -94
-51 -94 -12 0 -11 11 6 40 32 55 9 200 -46 299 -11 20 -18 29 -15 21z"/>
<path d="M4383 5340 c-3 -97 -26 -183 -69 -257 -22 -38 -58 -77 -124 -133 -18
-15 -20 -19 -5 -12 11 6 32 21 47 35 22 21 40 26 110 31 46 4 110 9 143 12
l60 5 -105 -36 c-98 -34 -262 -114 -275 -135 -3 -5 30 11 74 36 95 54 240 107
346 127 95 18 330 22 422 6 106 -17 205 -71 294 -159 180 -178 241 -293 242
-450 0 -47 -5 -98 -12 -115 -7 -17 -8 -26 -2 -20 6 6 15 35 21 65 32 167 -56
351 -258 542 -81 76 -169 125 -260 143 l-67 13 83 1 c76 1 87 -1 120 -26 20
-16 39 -30 42 -33 3 -3 30 -25 60 -50 67 -55 76 -62 171 -142 106 -90 199
-161 204 -156 3 2 -14 18 -38 34 -23 17 -125 100 -227 185 -272 227 -211 202
-473 195 -122 -3 -312 -12 -422 -20 -109 -8 -200 -14 -201 -13 -2 1 12 26 30
54 18 29 42 80 54 115 21 67 41 248 26 248 -5 0 -10 -41 -11 -90z"/>
<path d="M5930 5267 c0 -8 182 -78 188 -73 3 3 -1 8 -9 10 -22 8 -142 53 -161
61 -10 4 -18 5 -18 2z"/>
<path d="M5696 5244 c-3 -9 -6 -38 -6 -65 0 -30 -9 -70 -25 -105 -14 -32 -23
-59 -21 -61 7 -7 56 82 56 103 0 10 7 41 15 68 8 27 15 56 14 65 -1 9 -7 -4
-15 -29 l-14 -45 4 43 c4 44 2 52 -8 26z"/>
<path d="M7433 5055 c0 -33 2 -45 4 -27 2 18 2 45 0 60 -2 15 -4 0 -4 -33z"/>
<path d="M7281 4993 c-1 -19 37 -117 54 -139 13 -15 13 -12 -1 15 -9 19 -25
58 -35 85 -9 28 -18 46 -18 39z"/>
<path d="M4795 4969 c-144 -25 -289 -72 -360 -116 -31 -19 -54 -37 -52 -39 2
-3 28 11 57 30 135 89 528 163 664 125 l39 -11 -43 -19 c-36 -16 -71 -20 -209
-22 -150 -3 -173 -6 -245 -31 -75 -25 -170 -80 -196 -111 -17 -20 -6 -19 14 1
31 31 132 85 196 105 51 17 99 22 220 25 l155 4 -60 -30 c-134 -66 -439 -147
-515 -137 -32 4 -38 1 -58 -32 l-23 -36 25 30 c20 24 32 29 59 27 79 -7 362
68 506 134 49 23 89 34 119 34 l45 0 -20 -22 c-30 -33 -50 -77 -58 -128 -7
-47 -34 -95 -92 -167 -43 -54 -28 -56 26 -3 37 36 46 51 42 73 0 4 4 7 9 7 6
0 10 8 10 18 0 10 4 22 9 28 5 5 30 47 54 92 l44 84 8 -39 c22 -117 -5 -282
-62 -380 -14 -24 -22 -43 -19 -43 12 0 55 89 76 155 23 76 29 223 11 283 -15
50 4 39 58 -35 137 -186 176 -365 107 -489 -31 -55 -34 -72 -6 -29 11 17 20
26 20 20 0 -5 12 4 26 20 115 131 72 330 -112 518 -55 58 -110 98 -153 113
-51 19 -188 16 -316 -7z m432 -84 c83 -75 155 -177 183 -257 36 -103 20 -220
-38 -271 -20 -18 -20 -18 -7 20 17 45 18 131 4 193 -15 65 -71 175 -132 254
-28 38 -57 78 -63 88 -6 11 -15 19 -20 18 -5 -1 -10 3 -12 9 -8 24 17 8 85
-54z m-89 37 c2 -8 -9 -12 -35 -12 -38 1 -38 1 -13 15 28 16 42 15 48 -3z
m-22 -98 c-49 -96 -57 -107 -50 -64 8 43 30 88 57 117 33 37 31 20 -7 -53z
m-108 -214 c-7 -11 -17 -20 -22 -20 -5 0 -1 9 9 20 10 11 20 20 22 20 2 0 -2
-9 -9 -20z"/>
<path d="M7438 4953 c5 -59 10 -63 11 -10 1 26 -3 47 -7 47 -4 0 -6 -17 -4
-37z"/>
<path d="M7152 4924 c-1 -28 -4 -80 -7 -115 l-4 -64 10 60 c5 33 8 85 6 115
l-3 55 -2 -51z"/>
<path d="M6014 4398 c-43 -50 -58 -71 -47 -65 6 4 26 25 43 47 34 43 37 55 4
18z"/>
<path d="M5671 4234 c0 -11 3 -14 6 -6 3 7 2 16 -1 19 -3 4 -6 -2 -5 -13z"/>
</g>
</svg>
