<?xml version="1.0" encoding="utf-8"?>
<!-- Generator: Adobe Illustrator 25.0.0, SVG Export Plug-In . SVG Version: 6.00 Build 0)  -->
<svg version="1.1" id="Calque_1" xmlns="http://www.w3.org/2000/svg" xmlns:xlink="http://www.w3.org/1999/xlink" x="0px" y="0px"
	 viewBox="0 0 406 387.5" style="enable-background:new 0 0 406 387.5;" xml:space="preserve">
<style type="text/css">
	.st0{fill:none;stroke:#8E8E8E;stroke-width:6;stroke-miterlimit:10;}
	.st1{fill:#8E8E8E;}
</style>
<symbol  id="Symb3" viewBox="-53 -50.7 106 101.4">
	<g>
		<ellipse class="st0" cx="0" cy="0" rx="50" ry="47.7"/>
		<g>
			<path class="st1" d="M-7.8,20.9c0.2,0.7,0.3,1.1,0.5,1.6c0.8,2.6,2.4,4.7,5,5.7c3.7,1.4,6.3,3.9,8.4,7.2c0.3,0.5,0.7,0.9,1.3,0.6
				C8,35.7,8,35.2,7.8,34.6c-0.4-1.2-0.2-2.3,0.2-3.4c0.6-1.5,1.3-3,1.9-4.5c0.4-1,0.8-2.1,1.1-3.1c0.6-2.4-0.2-4.6-1.9-6.3
				c-1.2-1.3-1.5-2.8-1.6-4.5c1.9-0.2,3.7-0.3,5.6-0.5c0.2,0,0.4,0.2,0.5,0.3c2,2.5,3.9,5,5.8,7.6c1.7,2.3,2.5,4.8,2.4,7.7
				c-0.1,3.7,1.4,5.3,5.1,5.7c6.2,0.8,11.1-4.2,10.3-10.4c-0.1-0.7-0.5-1.4-0.9-1.9c-0.7-0.7-1.5-1.4-2.4-1.9c-2-1.2-3.4-3-4.2-5.2
				c-0.5-1.4-1-2.9-1.5-4.4c0.3-0.1,0.5-0.2,0.7-0.3c0.9-0.4,1.8-0.8,2.6-1.3c1.8-1.1,2.7-2.5,1.9-5c-1.5-4.9-1.9-10-2.4-15.1
				c-0.3-3.2-0.8-6.3-2-9.3c-2-5-5.5-8.7-10.5-11c-0.6-0.3-1.1-0.5-1.5-0.7c-0.2-1.3-0.4-2.5-0.6-3.7c1.7-0.3,3.5-0.7,5.3-1.1
				c1.2-0.3,2.1-1,2-1.7c-0.2-1.1-1.1-1.4-1.9-1.6c-3.4-0.9-6.9-1.4-10.4-1.5c-6.9-0.1-13.8,0.4-20.6,2c-2,0.5-4,0.9-6,1.4
				c-1.4,0.3-2.5,1.1-3.4,2.2c-0.5,0.5-0.8,1.3-0.8,2s-0.3,1.1-0.9,1.4c-6.4,3-10,8.2-11.5,14.9c-0.9,3.8-1.4,7.7-2,11.6
				c-0.5,3.5-1.1,6.9-2.9,10.1c-1.1,1.8-0.6,3.4,1.1,4.6c2,1.5,4.4,2.1,6.9,2.7c0.7,0.2,1.3,0.3,2.1,0.5c-0.6,2.3-0.2,4.5,0.4,6.7
				c0.9,3.2,0.5,6.4-0.5,9.5c-0.4,1.2-0.8,2.3-1.2,3.5c-0.2,0.6-0.1,1,0.5,1.3c0.5,0.3,0.9,0,1.2-0.5c1.1-1.7,2.7-2.7,4.5-3.3
				c2.1-0.6,4.2-1,6.3-1.6c1.4-0.5,2.9-1.1,4.2-1.8C-9.6,24-8.5,22.6-7.8,20.9z M30.2,1c-1.4-0.5-2.7-1-4.1-1.4
				C19.6-2.2,12.9-2.8,6.2-3.1c-6.3-0.3-12.6-0.3-19,0.2C-17.9-2.6-23-2-28-0.8c-1.9,0.5-3.8,1.1-5.7,1.7c0,0,0-0.1,0-0.2
				c1.1-2.8,1.5-5.7,1.8-8.6c0.5-4,0.9-7.9,2.1-11.7c1.6-5.3,4.5-9.5,9.6-11.9c1.4-0.6,2.8-1.3,4.2-1.7c8.7-2.7,17.5-2.6,26.3-0.2
				c3.6,1,6.9,2.5,9.9,4.8c4.6,3.5,6.7,8.3,7.5,13.8c0.6,3.7,0.9,7.5,1.5,11.3C29.5-2.1,29.9-0.6,30.2,1z M23.3,0.9
				c0,0.5,0.1,0.8,0.1,1.2c0.8,5.4,2.5,10.5,5.3,15.3c1,1.8,2.3,3.3,4.1,4.4c1.9,1.2,2.4,2.4,1.9,4.7c-0.9,4.2-5.1,6.3-9.3,4.8
				c-1.1-0.4-1.8-1.1-1.8-2.3c0-0.9-0.1-1.7-0.1-2.6c0-1.6-0.4-3.1-1.2-4.5s-1.6-2.7-2.5-3.9C15.1,11.9,10.4,5.8,5.6-0.4
				C5.4-0.6,5.3-0.8,5-1.2C11.3-0.9,17.3-0.3,23.3,0.9z M-7.6,0c-2.6,2.4-4.1,5.5-5.5,8.6c-0.5,1.1-1,2.2-1.5,3.2
				c-0.8,1.5-1.9,2.6-3.6,3.3c-0.6,0.2-1.1,0.5-0.8,1.3c0.2,0.6,0.8,0.8,1.6,0.5c1.4-0.6,2.5-1.5,3.4-2.6c1.6-1.9,2.4-4.2,3.4-6.4
				c0.9-2.2,2.2-4.1,3.9-5.8c0.4-0.4,0.8-0.7,1.2-1c0.6,1.8,1.2,3.6,1.8,5.3c0.9,2.5,0.4,4.5-1.6,6.2c-0.3,0.2-0.5,0.5-0.8,0.7
				c-1.4,1.1-2.2,2.5-2.7,4.1c-0.2,0.7-0.3,1.4-0.5,2c-0.5,2-1.7,3.5-3.5,4.4c-1,0.5-2.1,0.9-3.2,1.2c-3,0.8-6.1,1.1-8.9,2.8
				c0.1-0.4,0.2-0.7,0.2-1c0.7-2.6,1-5.3,0.6-8.1c-0.2-1.4-0.6-2.8-0.9-4.3c-0.2-1.5-0.3-3,0.5-4.3c0.9-1.6,1.9-3,3-4.5
				c1-1.5,2.3-2.8,4-3.5C-14.3,0.7-10.9,0.4-7.6,0z M5.7,31.7c-1.9-2.5-4.5-4-7.3-5.3s-4.2-3.7-4.7-6.7c-0.4-2.3-0.1-4.4,2.1-5.8
				c0.6-0.4,1.1-1,1.7-1.6c0.8,1.4,1.5,2.9,2.3,4.3c1,1.9,1.9,3.7,1.4,6c-0.1,0.3,0.4,0.9,0.6,0.9c0.3,0,0.8-0.3,1-0.6
				s0.3-0.8,0.3-1.2c0.3-2.1-0.5-4-1.5-5.8C0.8,14.4,0,13-0.7,11.5c-0.5-1.1-0.6-2.3-0.4-3.6c1.3,0.4,2.5,0.9,3.7,1.3
				c1.9,0.6,3,1.9,2.9,3.9c-0.1,2.1,0.7,3.8,2.1,5.2c1.4,1.5,1.7,3.4,1.1,5.3c-0.2,0.7-0.4,1.3-0.7,2C7.4,27.7,6.6,29.7,5.7,31.7z
				 M-3.5-1.4c1.8,0,3.6,0,5.4,0c0.4,0,0.8,0.3,1.1,0.5c2.8,3.5,5.5,7.1,8.3,10.6c0.1,0.2,0.2,0.3,0.4,0.6c-1.5,0.1-2.9,0.3-4.3,0.3
				c-0.2,0-0.5-0.2-0.6-0.4C6.2,9,5.1,8.2,3.9,7.7c-1-0.4-2-0.7-3-1C-1.1,6.1-2.6,5-3,2.8C-3.3,1.5-3.9,0.2-3.5-1.4z M-14.2-1
				c0,0.1,0,0.2,0.1,0.3c-2.6,0.8-4.9,1.9-7,3.6C-23.2,4.6-24.8,6.6-26,9c-2.8-0.6-5.4-1.2-7.8-2.5c-2-1.1-2-2.2,0-3.2
				c1.5-0.7,3-1.3,4.6-1.8c4.4-1.2,8.9-1.8,13.4-2.3C-15.3-0.9-14.8-1-14.2-1z M-17.5-34.9c0.5-1.7,1.7-2.4,3-2.8
				c7.6-2.3,15.3-2.5,23-0.3c1.5,0.4,3,1,4.4,1.7c0.8,0.3,1.3,0.9,1.2,1.9C3.7-37.8-6.8-38-17.5-34.9z M27.5,7.6
				c-0.4-2.1-0.8-4-1.2-5.8c0.1-0.1,0.1-0.2,0.2-0.2c1.4,0.7,2.9,1.3,4.3,2.1c1.2,0.7,1.1,1.5,0,2.2C29.8,6.5,28.7,7,27.5,7.6z"/>
			<path class="st1" d="M-1.7-27.6c-3.9,0-7.4,0.5-10.6,2.2c-5.7,3-5.1,9.2-0.8,12.4c2.2,1.6,4.6,2.2,7.3,2.3
				c4.6,0.1,8.8-1,12.5-3.8c0.9-0.7,1.8-1.7,2.4-2.7c1.5-2.4,1-5.1-1.1-7c-1.7-1.6-3.9-2.3-6.2-2.8C0.5-27.4-0.8-27.5-1.7-27.6z
				 M-2.7-25.8c1.1,0.1,2.3,0.1,3.4,0.3c2,0.3,4,0.8,5.6,2.1c2,1.6,2.4,3.9,0.8,5.8c-0.9,1-2,2-3.1,2.6c-3.5,2-7.4,2.7-11.4,2.2
				c-2.4-0.3-4.6-1.2-6.2-3.3c-1.5-2-1.3-4.7,0.5-6.4c0.6-0.6,1.4-1.1,2.2-1.5C-8.3-25.4-5.5-25.8-2.7-25.8z"/>
		</g>
	</g>
</symbol>
<use xlink:href="#Symb3"  width="106" height="101.4" x="-53" y="-50.7" transform="matrix(1 0 0 -1 203 173.95)" style="overflow:visible;"/>
</svg>
