<svg id="Calque_1" data-name="Calque 1" xmlns="http://www.w3.org/2000/svg" viewBox="0 0 106 106"><defs><style>.cls-1{fill:none;stroke:#8e8e8e;stroke-miterlimit:10;stroke-width:6px;}.cls-2{fill:#8e8e8e;}</style></defs><circle class="cls-1" cx="53" cy="53" r="50"/><path class="cls-2" d="M240.4,207.7H214.3c-.7,4.5-.7,4.6-3.7,7.3a7.49,7.49,0,0,1,3.6,5.5,7.58,7.58,0,0,1-2.3,6.4h4.4c.6.1,1,.5.9,1a2.13,2.13,0,0,1-.9,1c-.2.1-.5,0-.8,0H180.8a1,1,0,0,1,0-2h25.7a5.45,5.45,0,1,0,.2-10.9H171.1a5.51,5.51,0,0,0-5.6,5.5,5.42,5.42,0,0,0,5.3,5.4h5.5c.9,0,1.4.4,1.4,1s-.5,1-1.4,1c-2.1,0-4.3.1-6.4-.1a6.8,6.8,0,0,1-6.1-5.6c-.8-3.2.3-5.8,2.9-7.9a1.76,1.76,0,0,0,.5-.4c-.3-.3-.6-.4-.8-.7A7.37,7.37,0,0,1,164,206a7.65,7.65,0,0,1,7-5.2h8.2l-1.3-1.3a20.09,20.09,0,0,1-3.9-6.8c-.3-.9,0-1.4.9-1.6a20.64,20.64,0,0,1,8.9.3l.3-.9a18.4,18.4,0,0,1,4-6.9,1.05,1.05,0,0,1,1.9,0,18.67,18.67,0,0,1,4,7.3c0,.2.1.3.2.5a18.46,18.46,0,0,1,6.6-.5,16.6,16.6,0,0,1,2.2.3c1,.2,1.3.7,1,1.6a20.17,20.17,0,0,1-4.7,7.6,1.38,1.38,0,0,0-.3.4h6.5V179.7c0-2.7,1.5-4.2,4.2-4.2h1.6v-4c0-1.2.2-2.5.3-3.7,0-.2-.1-.4-.1-.6a19.33,19.33,0,0,1-.1-3.4,1.53,1.53,0,0,1,1.6-1.3h6.9a1.52,1.52,0,0,1,1.6,1.6c0,1.1-.2,2.2-.3,3.3,0,.1-.1.2,0,.3.7,2.5.2,5,.3,7.5v.4h1.9a3.7,3.7,0,0,1,3.8,3.9v3.4c0,.7-.3,1.2-1,1.2s-1-.5-1-1.2v-3.3a1.74,1.74,0,0,0-1.9-1.9h-14a1.71,1.71,0,0,0-1.9,1.8v21.3c.9.3,1.7.5,2.5.8a7.25,7.25,0,0,1,3.4,3.3c.1.3.5.5.7.6h11.1V187a.92.92,0,0,1,1-.9c.6,0,.9.4,1,1v18.5h2.6a.65.65,0,0,0,.5-.6c.6-2.1,1.1-4.1,1.7-6.2a4,4,0,0,1,3.3-2.9,3.91,3.91,0,0,1,3.9,1.5,4,4,0,0,1,.8,3.5c-.4,1.5-.8,3.1-1.2,4.7h2.2c1,0,1.3.4,1.3,1.4a15,15,0,0,1-9.8,14.1,4.88,4.88,0,0,1-.7.3,4.35,4.35,0,0,1,.7.6,7.71,7.71,0,0,1,2.7,5.6c.1,1-.3,1.4-1.3,1.4H220.4c-.9,0-1.3-.4-1.3-1.4a8.09,8.09,0,0,1,2.7-5.6l.5-.5a45.69,45.69,0,0,1-4.7-2.9,18.1,18.1,0,0,1-3-3.2c-.7-.8-.6-1.5,0-1.9s1.1-.1,1.7.8a12.6,12.6,0,0,0,12.3,5.6c5.2-.6,8.7-3.6,10.6-8.4A12.94,12.94,0,0,0,240.4,207.7ZM189,203H171.5a5.51,5.51,0,1,0,0,11h35.1a5.48,5.48,0,0,0,4.4-1.9,5,5,0,0,0,.8-5.8,5.22,5.22,0,0,0-5-3.2C200.8,203,194.9,203,189,203Zm12.6-9.8a18.29,18.29,0,0,0-7,.4,6.19,6.19,0,0,0-4.7,5.6.86.86,0,0,0,.6,1.1,6.07,6.07,0,0,0,7.1-1.1A16.23,16.23,0,0,0,201.6,193.2Zm-25.4,0a15.93,15.93,0,0,0,4.4,6.3,5.9,5.9,0,0,0,6.7.6.89.89,0,0,0,.5-.8,6,6,0,0,0-3.8-5.5C181.5,192.8,179,192.9,176.2,193.2Zm43.2-17.6v-6.3c0-.2-.3-.4-.5-.6s-.8-.7-.8-1,.5-.6.8-1c.2-.2.5-.4.5-.7a5.65,5.65,0,0,0,0-1.3h-6.1c-.1,1.9-.1,1.9,1.7,2h.3a1,1,0,0,1,0,2h-1.4a.64.64,0,0,0-.5.5v6.3h.5C215.6,175.6,217.4,175.6,219.4,175.6ZM233,226.9a5.91,5.91,0,0,0-5.9-4.9c-2.9.1-5.5,2.4-5.6,4.9Zm-44.1-41a18.08,18.08,0,0,0-3.1,6,1,1,0,0,0,.2.7l3,2.7a20,20,0,0,1,2.6-2.4,1,1,0,0,0,.4-1.2A19.14,19.14,0,0,0,188.9,185.9Zm43.4,19.7h3.9a.66.66,0,0,0,.5-.4c.5-1.6.9-3.3,1.3-5a2,2,0,0,0-1.5-2.3,2,2,0,0,0-2.4,1.3C233.5,201.3,232.9,203.4,232.3,205.6Z" transform="translate(-150 -150)"/><path class="cls-2" d="M187.3,220.1c4.8,0,9.7-.1,14.5,0a24.29,24.29,0,0,1,5.3.8c.9.2,1.2.8.9,1.4-.3.8-.9.7-1.6.5a27.38,27.38,0,0,0-5-.7c-10-.1-20,0-30,0-.3,0-.7.1-.9-.1s-.8-.7-.8-1,.5-.7.9-.9c.2-.1.5,0,.8,0Z" transform="translate(-150 -150)"/><path class="cls-2" d="M216.4,182.1h4.2c.9,0,1.2.3,1.2,1.3V189c0,.9-.3,1.3-1.2,1.3H212a1.06,1.06,0,0,1-1.2-1.2v-5.8a1.06,1.06,0,0,1,1.2-1.2Zm-3.4,2.1v4h6.7v-4Z" transform="translate(-150 -150)"/><path class="cls-2" d="M190.6,209.1H176.2a26.48,26.48,0,0,0-4.8.7c-.9.2-1.4,0-1.6-.6s.1-1.2,1-1.4a21.42,21.42,0,0,1,4.3-.7c10.6-.1,21.2,0,31.7,0,.8,0,1.3.4,1.3,1s-.5,1-1.4,1Z" transform="translate(-150 -150)"/></svg>