<?xml version="1.0" encoding="utf-8"?>
<!-- Generator: Adobe Illustrator 25.0.0, SVG Export Plug-In . SVG Version: 6.00 Build 0)  -->
<svg version="1.1" id="Calque_1" xmlns="http://www.w3.org/2000/svg" xmlns:xlink="http://www.w3.org/1999/xlink" x="0px" y="0px"
	 viewBox="0 0 406 406" style="enable-background:new 0 0 406 406;" xml:space="preserve">
<style type="text/css">
	.st0{fill:none;stroke:#8E8E8E;stroke-width:6;stroke-miterlimit:10;}
	.st1{fill:#8E8E8E;}
</style>
<g>
	<circle class="st0" cx="203" cy="203" r="50"/>
	<g>
		<path class="st1" d="M166.3,206.5c-2.5-3.2-3.4-6.7-2.2-10.6c1.2-3.9,3.9-6.3,7.7-7.5c-1.2-6.2-0.2-8.3,5.6-11.9
			c-0.6-0.5-1.2-0.8-1.8-1.3c-1.4-1.2-2.3-2.6-1.8-4.5c0.3-0.8,0.8-1.7,1.4-2.3c2.7-2.7,6.1-4.1,9.8-4.8c3.9-0.7,7.7-0.3,11.3,1.5
			c1.3,0.7,2.7,1.6,3.7,2.7c2,2.1,1.9,4.7,0.1,7c-0.1,0.1-0.2,0.3-0.2,0.3c1.8,0.5,3.6,1,5.4,1.6c2.2,0.9,4,2.4,5.2,4.6
			c1.6,3.1,1,6.7-1.7,9.5c-0.3,0.4-0.7,0.7-1,1c0.9,1.1,1.9,2.3,2.9,3.5c5.4-2.7,11.4-2.9,17.3-3.4c4.5-0.4,8.9-0.8,13-2.8
			c1.4-0.7,2.7-1.7,4.1-2.6c0.3-0.2,0.8-0.3,1.1-0.2c0.2,0.1,0.5,0.6,0.5,0.9c-0.4,6.2-0.8,12.3-2.8,18.3c-1.8,5.4-4.7,10-9.3,13.4
			c-3.1,2.3-6.6,3.4-10.4,4c-2.1,0.3-4.3,0.5-6.4,0.8c-0.3,0-0.6,0.1-0.8,0.3c-2.7,2.7-6.2,4.2-9.7,5.4c-9.5,3-19.2,3.9-29,2.6
			c-3.8-0.5-7.4-1.3-10.8-3.2c-3.8-2.2-6.7-5.1-7.8-9.5c-1.3-5.3,1.3-10.6,6.4-12.7C166.2,206.7,166.2,206.6,166.3,206.5z
			 M244.7,189.2c-1.1,0.6-2,1.1-3,1.6c-4.1,1.9-8.5,2.5-12.9,2.9c-4,0.4-8,0.6-11.9,1.4c-12.2,2.4-19.6,13.5-17.2,25.6
			c0.2,1,0.5,1.9,0.7,2.8c1.2-2.3,2.3-4.7,3.8-6.9c4-6.1,9.8-10.1,16.4-13.1c0.3-0.1,0.6-0.4,0.9-0.4c0.4,0,1,0.2,1.1,0.5
			c0.1,0.3-0.2,0.8-0.4,1.1c-0.1,0.2-0.5,0.2-0.7,0.3c-2.5,1.4-5,2.6-7.4,4.2c-5.4,3.7-9.6,8.5-11.7,14.8c-0.1,0.3-0.2,0.6-0.3,0.9
			c1.8-0.5,3.5-1.2,5.3-1.5c4.6-0.7,9.2-1.2,13.8-1.7c3.3-0.4,6.5-1,9.5-2.5c4.7-2.3,7.8-6.2,10-10.8c2-4.2,2.9-8.8,3.4-13.4
			C244.4,193.1,244.6,191.2,244.7,189.2z M197.8,212.1c-0.3,0.1-0.5,0.1-0.6,0.1c-6.2,1.5-12.4,1.7-18.7,0.5
			c-3.4-0.7-6.8-1.6-9.5-3.8c-1.1-0.9-2-0.8-3-0.2c-0.5,0.3-1,0.6-1.4,0.9c-3.2,2.6-4.3,6.9-2.6,10.8c1.6,4,4.8,6.4,8.7,7.9
			c4.1,1.6,8.4,2.2,12.7,2.4c5.1,0.3,10.1,0,15.1-0.9c0.4-0.1,1-0.3,1-0.4c0-1.1,0.6-2.2,0.1-3.4c-1.6-3.8-2.3-7.9-1.9-12.1
			C197.7,213.3,197.8,212.7,197.8,212.1z M208.8,196.3c-0.5-1.2-1.3-2.2-2.5-2.9c-0.3-0.2-0.7-0.1-1,0c-1.3,0.4-2.6,1-3.9,1.3
			c-7.3,1.5-14.5,1.4-21.8-0.3c-2.5-0.6-4.8-1.7-6.5-3.7c-0.4-0.5-0.7-0.5-1.3-0.4c-6,1.9-8.4,9.1-4.8,14.3c1.6,2.4,3.9,3.9,6.6,4.9
			c8,3,16,2.9,24.2,0.7c0.3-0.1,0.5-0.4,0.6-0.7c1.4-4.4,3.9-8.1,7.4-11C206.8,197.7,207.8,197,208.8,196.3z M192.5,193.9
			c1.9-0.2,5-0.5,8-1c2.7-0.4,5.3-1.5,7.2-3.7c2.6-3,2.4-6.7-0.6-9.3c-0.4-0.3-0.8-0.6-1.2-0.9c-2-1.3-4.2-1.9-6.6-2
			c-0.8-0.1-1.7-0.2-2.3,0c-5.1,2.1-10.3,2.4-15.6,1c-1.3-0.4-2.4-0.3-3.5,0.3c-0.8,0.4-1.6,0.8-2.3,1.4c-2.1,1.7-3,4-2.4,6.7
			c0.6,3,2.7,4.7,5.4,5.6C182.7,193.6,187,193.7,192.5,193.9z M189.9,165.2c-0.4,0-0.6-0.1-0.9-0.1c-0.9-0.2-1.3,0.1-1.5,1.1
			c-1,3.4-2,6.7-3,10c-0.1,0.2-0.1,0.5-0.2,0.8c0.5,0,0.8,0,1.2,0.1c0.6,0.1,0.9-0.1,1.1-0.7c0.3-1.2,0.7-2.3,1-3.4
			C188.4,170.4,189.1,167.9,189.9,165.2z M190.8,165.3c-1.2,4-2.4,7.9-3.7,11.9c0.4,0,0.8,0,1.1,0c0.8,0.1,1.2-0.2,1.4-1.1
			c0.4-1.7,1-3.5,1.6-5.2c0.5-1.7,1.1-3.5,1.6-5.3C192.2,165.5,191.6,165.4,190.8,165.3z M213.9,224.3c-3.8,0.3-7.5,0.8-11,2.4
			c-1.4,0.6-1.5,0.9-1.4,2.6C205.8,228.2,210.2,227,213.9,224.3z M181.4,176.3c0.3,0.1,0.6,0.2,0.9,0.3c0.8,0.3,1.2,0.1,1.4-0.8
			c0.9-3.3,2-6.5,3-9.7c0.1-0.3,0.1-0.5,0.2-0.8c-0.4,0-0.6,0-0.9,0c-0.9,0-1.4,0.3-1.6,1.3c-0.3,1.3-0.8,2.5-1.1,3.8
			C182.6,172.3,182,174.3,181.4,176.3z M190.3,177c2.2-0.1,2.2-0.1,2.7-1.9c0.1-0.3,0.2-0.6,0.3-0.9c0.8-2.5,1.5-4.9,2.3-7.5
			c-0.7-0.3-1.3-0.5-1.9-0.7C192.6,169.7,191.5,173.3,190.3,177z M183.6,165.8c-1.8,0.1-2.8,1-3,2.7c0,0,0,0.1-0.1,0.2
			c-0.7,2.2-1.3,4.3-2,6.5c0.6,0.3,1.2,0.5,1.9,0.8C181.6,172.5,182.6,169.2,183.6,165.8z M193.6,176.4c0.7-0.3,1.3-0.4,1.9-0.7
			c0.3-0.1,0.5-0.4,0.6-0.6c0.7-2.1,1.3-4.1,1.9-6.2c0.1-0.2,0-0.6-0.1-0.8c-0.4-0.4-0.9-0.7-1.4-1.1c-0.9,3-1.8,5.8-2.7,8.6
			C193.7,175.9,193.7,176.1,193.6,176.4z M180.2,167.1c-0.7,0.4-1.2,0.6-1.6,1c-0.4,0.3-0.9,0.7-1.1,1.1c-0.5,1.1-0.8,2.3-1.1,3.5
			c-0.1,0.3,0,0.7,0.1,0.8c0.4,0.4,0.8,0.7,1.4,1.2C178.6,172.1,179.4,169.7,180.2,167.1z M197.1,174.9c2.5-1.4,3.3-3.9,1.7-5.5
			C198.3,171.2,197.7,173,197.1,174.9z"/>
		<path class="st1" d="M218,217.5c10.3-0.6,18.2-6.7,21.2-16.5c0.1-0.3,0.4-0.5,0.7-0.7c0.1,0.3,0.2,0.7,0.2,1
			c-2.3,8.7-10.1,15.6-19,16.9c-1.4,0.2-2.8,0.2-4.3,0.3c-0.3,0-0.5-0.3-0.8-0.4c0.3-0.1,0.5-0.4,0.8-0.4
			C217.2,217.4,217.7,217.5,218,217.5z"/>
		<path class="st1" d="M220.8,215.6c-0.1-0.1-0.4-0.2-0.4-0.3c0-0.2,0.1-0.4,0.3-0.5c0.2-0.1,0.4-0.1,0.6-0.2
			c6.1-1.8,10.8-5.4,14-10.9c0.1-0.2,0.2-0.4,0.4-0.6c0.1-0.1,0.4-0.1,0.5-0.1s0.2,0.3,0.2,0.5c0,0.1-0.1,0.3-0.2,0.4
			c-3.3,5.9-8.3,9.7-14.8,11.5C221.3,215.5,221.1,215.5,220.8,215.6z"/>
		<path class="st1" d="M221.4,196.9c0.4,0,0.8,0,1.1,0c0.2,0,0.4,0.3,0.6,0.4c-0.2,0.2-0.4,0.4-0.6,0.5c-0.9,0.1-1.8,0-2.7,0.2
			c-5.3,0.8-9.5,3.4-12.5,7.8c-0.1,0.2-0.2,0.4-0.3,0.5c-0.2,0.1-0.5,0.2-0.6,0.1s-0.1-0.4-0.1-0.6c0-0.2,0.2-0.3,0.3-0.4
			C210.1,200.1,215.1,197.4,221.4,196.9z"/>
		<path class="st1" d="M218.1,216.1c-0.2-0.1-0.4-0.3-0.6-0.5c0.2-0.2,0.3-0.4,0.5-0.5c0.2-0.1,0.5-0.2,0.7-0.2
			c0.2,0,0.4,0.1,0.6,0.2c-0.1,0.2-0.1,0.5-0.3,0.6C218.8,215.9,218.5,215.9,218.1,216.1z"/>
		<path class="st1" d="M181.9,227.6c-3.1,0-6.1-0.3-9-1.5c-3.5-1.5-6.2-3.8-7.3-7.7c-0.6-2.3-0.3-4.6,1-6.6c0.2-0.3,0.6-0.4,0.9-0.5
			c0,0.3,0,0.7-0.1,1c-1.8,2.8-1.4,6.5,0.8,9.4c2.2,2.7,5.1,4.1,8.5,4.6c2.2,0.3,4.4,0.3,6.7,0.5c0.2,0,0.4-0.1,0.6,0
			c0.2,0.1,0.4,0.3,0.5,0.4c-0.2,0.2-0.3,0.4-0.5,0.4C183.3,227.7,182.6,227.6,181.9,227.6z"/>
		<path class="st1" d="M168.1,215.9c0.1-0.6,0.2-1.2,0.4-1.8c0-0.2,0.4-0.3,0.5-0.4c0.1,0.2,0.3,0.5,0.3,0.6
			c-0.5,1.6-0.3,3.2,0.6,4.6c1,1.7,2.4,2.9,4.2,3.4c1.8,0.6,3.7,0.8,5.6,1.2c0.3,0.1,0.6,0,0.8,0.1c0.2,0.1,0.3,0.3,0.5,0.4
			c-0.2,0.1-0.4,0.4-0.5,0.4c-3.5-0.3-6.9-0.7-9.7-3.1C169.2,219.9,168.2,217.9,168.1,215.9z"/>
		<path class="st1" d="M182.5,224.9c-0.4-0.3-0.6-0.5-0.8-0.7c0.3-0.2,0.6-0.4,0.8-0.4c0.3,0,0.5,0.3,0.8,0.4
			C183,224.4,182.8,224.6,182.5,224.9z"/>
		<path class="st1" d="M174.2,206.1c-1.7-0.5-3-1.3-4-2.5c-2.3-2.9-2.2-7.1,0.3-9.7c0.2-0.2,0.6-0.2,0.9-0.3
			c-0.1,0.3-0.1,0.7-0.3,0.9c-3.2,3.7-1.8,9,2.9,10.7c0.3,0.1,0.4,0.4,0.6,0.6C174.5,205.9,174.3,206,174.2,206.1z"/>
		<path class="st1" d="M191.6,191.7c-1-0.1-2.2-0.3-3.4-0.5c-0.3,0-0.4-0.4-0.6-0.6c0.3-0.1,0.5-0.3,0.8-0.2
			c4.1,0.8,8.1,0.1,12.1-1.1c1.1-0.4,2.3-1.1,3.2-1.9c1.8-1.7,1.7-4,0-5.8c-0.1-0.2-0.1-0.5-0.2-0.7c0.3,0,0.6,0,0.8,0.1
			c1.4,0.9,2,3,1.4,4.8c-0.5,1.8-1.8,3-3.4,3.8c-2.3,1.2-4.8,1.6-7.3,1.9C193.8,191.6,192.8,191.6,191.6,191.7z"/>
		<path class="st1" d="M176.5,184.3c0-1.6,1.4-3.5,2.7-3.9c0.2,0,0.4,0.1,0.7,0.1c-0.1,0.2-0.1,0.5-0.3,0.6c-1.3,0.6-2,1.6-2.2,3
			c0,0.2-0.3,0.3-0.5,0.5C176.7,184.6,176.6,184.4,176.5,184.3z"/>
	</g>
</g>
</svg>
